<svg width="20" height="20" viewBox="0 0 20 20" fill="none" xmlns="http://www.w3.org/2000/svg">
<path d="M9.99984 1.66669C14.6022 1.66669 18.3332 5.39765 18.3332 10C18.3332 14.6024 14.6022 18.3334 9.99984 18.3334C5.39746 18.3334 1.6665 14.6024 1.6665 10C1.6665 5.39765 5.39746 1.66669 9.99984 1.66669ZM9.99984 3.13728C6.20965 3.13728 3.13709 6.20983 3.13709 10C3.13709 13.7902 6.20965 16.8628 9.99984 16.8628C13.79 16.8628 16.8626 13.7902 16.8626 10C16.8626 6.20983 13.79 3.13728 9.99984 3.13728ZM9.26454 6.07845C9.67063 6.07845 9.99984 6.40765 9.99984 6.81375V9.98522L12.7148 11.0294C13.0938 11.1752 13.2829 11.6006 13.1371 11.9797C12.9913 12.3587 12.5659 12.5478 12.1869 12.402L9.00059 11.1765C8.71662 11.0673 8.52925 10.7945 8.52925 10.4902V6.81375C8.52925 6.40765 8.85845 6.07845 9.26454 6.07845Z" fill="#252629"/>
</svg>
