<svg width="20" height="20" viewBox="0 0 20 20" fill="none" xmlns="http://www.w3.org/2000/svg">
    <path d="M10 1.42859C14.7327 1.42859 18.5714 5.26595 18.5714 10C18.5714 14.7341 14.7327 18.5714 10 18.5714C5.26594 18.5714 1.42857 14.7341 1.42857 10C1.42857 5.26595 5.26594 1.42859 10 1.42859ZM10 2.85716C6.05491 2.85716 2.85714 6.05493 2.85714 10C2.85714 13.9451 6.05491 17.1429 10 17.1429C13.9443 17.1429 17.1429 13.9446 17.1429 10C17.1429 6.05542 13.9443 2.85716 10 2.85716ZM9.64286 5.71436C10.0373 5.71436 10.3571 6.03416 10.3571 6.42865V10.0741L13.839 11.4806C14.2047 11.6284 14.3815 12.0447 14.2337 12.4105C14.086 12.7763 13.6697 12.953 13.3039 12.8052L9.37531 11.2182C9.10533 11.1091 8.92857 10.8471 8.92857 10.5559V6.42865C8.92857 6.03416 9.24837 5.71436 9.64286 5.71436Z" fill="#2688EB"/>
</svg>
