<svg width="20" height="21" viewBox="0 0 20 21" fill="none" xmlns="http://www.w3.org/2000/svg">
<path d="M18.5 10C18.5 11.476 17.5864 12.7385 16.2939 13.2531L17.1912 14.4955C18.8544 13.6834 20 11.9755 20 10C20 7.23859 17.7614 5 15 5C14.8029 5 14.6085 5.01141 14.4173 5.0336C13.5132 3.2345 11.6508 2 9.5 2C6.97897 2 4.8541 3.69617 4.20434 6.00955C1.85688 6.1618 0 8.11404 0 10.5C0 12.3937 1.16972 14.0142 2.82603 14.6783L3.64057 13.3751C2.40253 13.0056 1.5 11.8582 1.5 10.5C1.5 8.90994 2.73788 7.60782 4.30142 7.50641L5.36127 7.43768L5.64846 6.41516C6.12123 4.73193 7.66869 3.5 9.5 3.5C11.062 3.5 12.4176 4.39505 13.077 5.70715L13.5481 6.64453L14.5902 6.52359C14.7241 6.50806 14.8608 6.5 15 6.5C16.933 6.5 18.5 8.06702 18.5 10Z" fill="black"/>
<path fill-rule="evenodd" clip-rule="evenodd" d="M14.5 18L11.5 8H8.5L5.5 18H7L7.75 15.5H12.25L13 18H14.5ZM10.45 9.5H9.55L8.2 14H11.8L10.45 9.5Z" fill="black"/>
</svg>
