<svg width="24" height="24" viewBox="0 0 24 24" fill="none" xmlns="http://www.w3.org/2000/svg">
<path fill-rule="evenodd" clip-rule="evenodd" d="M16.5 2.5H19.5C20.6046 2.5 21.5 3.39543 21.5 4.5V7.5C21.5 8.60457 20.6046 9.5 19.5 9.5H16.5C15.8975 9.5 15.3572 9.23359 14.9906 8.81216C14.8851 8.69094 14.6954 8.66857 14.5818 8.78218L13.1464 10.2175C13.0527 10.3113 13 10.4385 13 10.5711V13.3233C13 13.4278 13.0327 13.5297 13.0936 13.6147C14.9551 14.6724 15.9045 15.1856 16.2883 15.3892C16.4273 15.4629 16.582 15.5 16.7393 15.5H18.5C19.6046 15.5 20.5 16.3954 20.5 17.5V19.5C20.5 20.6046 19.6046 21.5 18.5 21.5H16.5C15.3954 21.5 14.5 20.6046 14.5 19.5V17.5C14.5 17.1834 14.5736 16.884 14.7045 16.6179C14.8007 16.4226 14.9375 16.1836 14.682 16.0097L13.0043 15.0644C12.9219 14.9961 12.8144 15.0005 12.7737 15.0943C12.3506 16.0686 11.3799 16.75 10.25 16.75H5.25C3.73122 16.75 2.5 15.5188 2.5 14V9C2.5 7.48122 3.73122 6.25 5.25 6.25H10.25C11.459 6.25 12.4858 7.03023 12.8544 8.11465C12.8856 8.20655 13.0039 8.23876 13.0725 8.17013L14.3536 6.88912C14.4473 6.79535 14.5 6.66818 14.5 6.53557V4.5C14.5 3.39543 15.3954 2.5 16.5 2.5ZM16.5 4C16.2239 4 16 4.22386 16 4.5V7.5C16 7.77614 16.2239 8 16.5 8H19.5C19.7761 8 20 7.77614 20 7.5V4.5C20 4.22386 19.7761 4 19.5 4H16.5ZM5.25 7.75C4.55964 7.75 4 8.30964 4 9V14C4 14.6904 4.55964 15.25 5.25 15.25H10.25C10.9404 15.25 11.5 14.6904 11.5 14V9C11.5 8.30964 10.9404 7.75 10.25 7.75H5.25ZM16 17.5C16 17.2239 16.2239 17 16.5 17H18.5C18.7761 17 19 17.2239 19 17.5V19.5C19 19.7761 18.7761 20 18.5 20H16.5C16.2239 20 16 19.7761 16 19.5V17.5Z" fill="#252629"/>
</svg>
