<svg width="24" height="24" viewBox="0 0 24 24" fill="none" xmlns="http://www.w3.org/2000/svg">
<path fill-rule="evenodd" clip-rule="evenodd" d="M13 5C13 3.89543 13.8954 3 15 3H19C20.1046 3 21 3.89543 21 5V9C21 10.1046 20.1046 11 19 11H15C13.8954 11 13 10.1046 13 9V5ZM15 4.5H19C19.2761 4.5 19.5 4.72386 19.5 5V9C19.5 9.27614 19.2761 9.5 19 9.5H15C14.7239 9.5 14.5 9.27614 14.5 9V5C14.5 4.72386 14.7239 4.5 15 4.5Z" fill="#252629"/>
<path fill-rule="evenodd" clip-rule="evenodd" d="M5 6.5C3.89543 6.5 3 7.39543 3 8.5V19C3 19.9665 3.68556 20.7729 4.59693 20.9594C4.72713 20.986 4.86193 21 5 21L15.5 21C16.6046 21 17.5 20.1046 17.5 19V15C17.5 13.8954 16.6046 13 15.5 13H11.5C11.2239 13 11 12.7761 11 12.5V8.5C11 7.39543 10.1046 6.5 9 6.5H5ZM9 8H5C4.72386 8 4.5 8.22386 4.5 8.5V12.5C4.5 12.7761 4.72386 13 5 13H9C9.27614 13 9.5 12.7761 9.5 12.5V8.5C9.5 8.22386 9.27614 8 9 8ZM4.5 15C4.5 14.7239 4.72386 14.5 5 14.5H9C9.27614 14.5 9.5 14.7239 9.5 15V19C9.5 19.2761 9.27614 19.5 9 19.5H5C4.98274 19.5 4.96569 19.4991 4.94888 19.4974C4.69675 19.4718 4.5 19.2589 4.5 19L4.5 15ZM11 15C11 14.7239 11.2239 14.5 11.5 14.5H15.5C15.7761 14.5 16 14.7239 16 15V19C16 19.2761 15.7761 19.5 15.5 19.5H11.5C11.2239 19.5 11 19.2761 11 19V15Z" fill="#252629"/>
</svg>
