<svg width="1em" height="1em" fill="currentColor" xmlns="http://www.w3.org/2000/svg" viewBox="0 0 20 20"><path fill-rule="evenodd" d="M10.154 3.064a1.349 1.349 0 0 0-.308 0c-.099.012-.203.04-.589.153L4.593 4.592a7.69 7.69 0 0 0-.42.13.536.536 0 0 0-.082.036.233.233 0 0 0-.073.091.466.466 0 0 0-.01.083 6.16 6.16 0 0 0-.008.41v5.269c0 1.719.993 3.105 2.262 4.178 1.27 1.073 2.74 1.767 3.506 2.084.09.037.126.051.154.061a.254.254 0 0 0 .156 0c.028-.01.065-.024.154-.061.765-.317 2.237-1.011 3.506-2.084C15.007 13.716 16 12.33 16 10.611V5.342c0-.204 0-.322-.007-.41a.471.471 0 0 0-.011-.083.234.234 0 0 0-.073-.092.555.555 0 0 0-.082-.034 7.708 7.708 0 0 0-.42-.131l-4.664-1.375c-.386-.114-.49-.141-.59-.153Zm5.757 1.694h-.002.002Zm.07.09v.001-.002Zm-11.962 0v.001-.002Zm.07-.09h.002-.002Zm5.573-3.072a2.969 2.969 0 0 1 .676 0c.269.03.525.11.86.208l4.664 1.375.081.023c.316.092.653.19.916.391.23.174.407.399.517.654.126.293.125.62.124.927v5.347c0 2.259-1.314 3.99-2.75 5.204-1.438 1.215-3.073 1.98-3.906 2.326-.152.063-.318.135-.551.172-.176.027-.41.027-.586 0-.233-.037-.399-.11-.551-.172-.833-.345-2.468-1.11-3.905-2.326C3.814 14.6 2.5 12.87 2.5 10.611V5.264c-.002-.307-.003-.634.123-.928.11-.254.287-.48.517-.653.263-.2.6-.299.916-.39l.08-.025 4.665-1.374c.335-.099.591-.177.86-.208Z" clip-rule="evenodd"/></svg>