<svg width="20" height="20" viewBox="0 0 28 28" fill="none" xmlns="http://www.w3.org/2000/svg">
    <path d="M19.8112 26H19.9232C20.972 26 22.0004 25.5723 22.7437 24.8392L23.0289 24.5541C23.8027 23.7904 24.2202 22.7824 24.2202 21.6928V8.75095C24.2202 7.6818 23.7925 6.66356 23.0289 5.88969L20.3407 3.20153C19.577 2.43784 18.518 2 17.4285 2H7.10352C4.84302 2 3 3.83284 3 6.06279V11.9381C3 13.0072 3.42766 14.0255 4.19134 14.7993L7.26644 17.8642C7.9283 18.5261 8.80399 18.8825 9.74077 18.8825C10.6776 18.8825 11.5634 18.5159 12.2253 17.8642C12.877 17.2126 13.2333 16.3572 13.2333 15.4408V7.1014C13.2333 6.53118 12.765 6.07297 12.1947 6.07297C11.6245 6.07297 11.1561 6.53118 11.1561 7.1014V15.4408C11.1561 15.8074 11.0136 16.1536 10.7488 16.4081C10.4841 16.6729 10.1277 16.8154 9.75095 16.8154C9.3742 16.8154 9.01782 16.6729 8.75308 16.4081L5.67798 13.3432C5.30123 12.9767 5.0874 12.4777 5.0874 11.9482V6.07297C5.0874 4.97327 5.99364 4.0874 7.10352 4.0874H17.4183C17.9478 4.0874 18.4671 4.30123 18.8541 4.6678L21.5422 7.35596C21.9088 7.71235 22.1226 8.21129 22.1226 8.75095V21.6826C22.1226 22.2121 21.919 22.7111 21.5422 23.0776L21.2571 23.3627C20.9109 23.709 20.4221 23.9126 19.9232 23.9126H19.8112C19.3734 23.9126 18.9661 23.7395 18.6606 23.434C18.2024 22.986 18.0598 22.2834 18.3246 21.6928L18.8439 20.4709C18.9457 20.2164 18.9559 19.9415 18.8439 19.6767C18.742 19.4221 18.5384 19.2287 18.2838 19.1167C18.1515 19.0658 18.0191 19.0352 17.8765 19.0352C17.4591 19.0352 17.0823 19.2796 16.9194 19.6665L16.4001 20.8884C15.8095 22.263 16.115 23.8311 17.174 24.9003C17.8664 25.5927 18.8133 25.9796 19.801 25.9796L19.8112 26Z" fill="#252629"/>
</svg>
