<svg width="20" height="20" viewBox="0 0 20 20" fill="none" xmlns="http://www.w3.org/2000/svg">
<path fill-rule="evenodd" clip-rule="evenodd" d="M12.75 5.11429C12.779 5.11429 12.8077 5.11259 12.8358 5.10929C13.1727 6.58611 14.4615 7.68571 16 7.68571C17.7949 7.68571 19.25 6.18907 19.25 4.34286C19.25 2.49665 17.7949 1 16 1C14.4615 1 13.1727 2.09961 12.8358 3.57643C12.8077 3.57313 12.779 3.57143 12.75 3.57143H9.36405L6.86405 7.17143H2.75002C2.75002 7.17143 2.75002 7.57395 2.75002 8C2.75002 8.42605 2.75002 8.71429 2.75002 8.71429H7.63598L10.136 5.11429H12.75ZM16 2.54286C15.0335 2.54286 14.25 3.34874 14.25 4.34286C14.25 5.33697 15.0335 6.14286 16 6.14286C16.9665 6.14286 17.75 5.33697 17.75 4.34286C17.75 3.34874 16.9665 2.54286 16 2.54286Z" fill="black"/>
<path fill-rule="evenodd" clip-rule="evenodd" d="M2.00002 11.2857C2.00002 11.2857 2 11.574 2 12C2 12.426 2.00002 12.8286 2.00002 12.8286H6.61405L9.11405 16.4286H12.837C13.1756 17.9029 14.4632 19 16 19C17.7949 19 19.25 17.5034 19.25 15.6571C19.25 13.8109 17.7949 12.3143 16 12.3143C14.4632 12.3143 13.1756 13.4114 12.837 14.8857H9.88598L7.38598 11.2857H2.00002ZM14.25 15.6571C14.25 14.663 15.0335 13.8571 16 13.8571C16.9665 13.8571 17.75 14.663 17.75 15.6571C17.75 16.6513 16.9665 17.4571 16 17.4571C15.0335 17.4571 14.25 16.6513 14.25 15.6571Z" fill="black"/>
</svg>
