<svg width="16" height="16" viewBox="0 0 16 16" fill="none" xmlns="http://www.w3.org/2000/svg"><path fill-rule="evenodd" clip-rule="evenodd" d="M3.54961 6.021C3.54961 3.5616 5.54209 1.56787 7.99993 1.56787C10.455 1.56787 12.4458 3.55713 12.4502 6.01271V7.66948C12.4502 7.96356 12.5549 8.24803 12.7456 8.47185L14.2516 10.2401C14.6621 10.7219 14.3198 11.4637 13.6871 11.4637H2.3127C1.67999 11.4637 1.33778 10.7219 1.74819 10.2401L3.25426 8.47185C3.4449 8.24803 3.54961 7.96356 3.54961 7.66948V6.02438C3.54961 6.02325 3.54961 6.02212 3.54961 6.021ZM2.07822 5.63964C2.27469 2.53816 4.85083 0.0834961 7.99993 0.0834961C11.1491 0.0834961 13.7252 2.53823 13.9216 5.63977C13.9295 5.68318 13.9337 5.72791 13.9337 5.7736V6.01142C13.9337 6.01461 13.9337 6.01781 13.9337 6.021C13.9337 6.02212 13.9337 6.02325 13.9337 6.02438V7.57836L15.3807 9.27725C16.6119 10.7228 15.5853 12.9481 13.6871 12.9481H11.6343C11.2907 14.6419 9.7941 15.9168 7.99992 15.9168C6.20573 15.9168 4.70913 14.6419 4.36551 12.9481H2.3127C0.414572 12.9481 -0.612058 10.7228 0.619165 9.27725L2.06617 7.57836V5.7736C2.06617 5.72786 2.0703 5.68309 2.07822 5.63964ZM7.99992 14.4325C7.03107 14.4325 6.20685 13.8129 5.90138 12.9481H10.0985C9.79299 13.8129 8.96877 14.4325 7.99992 14.4325Z" fill="#19191A"/></svg>