<svg width="24" height="24" viewBox="0 0 24 24" fill="none" xmlns="http://www.w3.org/2000/svg">
<path d="M11.8426 1.80006C14.3981 1.81849 16.9117 3.27716 18.1424 5.5081C20.4662 5.96 22.4444 7.72629 23.1261 9.92738C23.7211 11.8489 23.3396 14.0383 22.0542 15.6725C21.7655 16.0394 21.4352 16.378 21.0715 16.6763L21.0574 16.688C21.0206 16.7109 20.989 16.7316 20.9604 16.7502C20.8324 16.8336 20.7657 16.8771 20.5679 16.9114C19.9572 17.0169 19.2876 16.4788 19.3462 15.8192C19.3621 15.6408 19.4257 15.4697 19.5306 15.3231C19.6414 15.1684 19.7827 15.0442 19.9278 14.9166C20.0464 14.8124 20.1676 14.7059 20.2767 14.5788C21.3059 13.3791 21.6129 11.6372 20.9918 10.1421C20.39 8.69345 18.93 7.61698 17.3307 7.44809L17.0656 7.38502C17.039 7.37078 17.0116 7.35762 16.9843 7.34447C16.9297 7.31824 16.8752 7.29199 16.8263 7.25706C16.6096 7.10201 16.5801 7.04666 16.4567 6.77691C15.8557 5.47096 14.6567 4.43767 13.2225 4.03355C11.0033 3.40832 8.4266 4.41328 7.2988 6.49798C6.97667 7.09327 6.78492 7.75237 6.72804 8.42486L6.68107 8.6542C6.54681 8.94223 6.33702 9.19844 6.03472 9.30251C5.90855 9.34593 5.7774 9.36313 5.64545 9.38044C5.55543 9.39224 5.46505 9.40409 5.37562 9.42435C3.66416 9.81223 2.40015 11.5761 2.74935 13.3823C2.89912 14.157 3.34135 14.8671 3.97101 15.3747L4.15679 15.5694C4.171 15.5956 4.18643 15.6212 4.20186 15.6469C4.23264 15.698 4.26341 15.7491 4.28457 15.8045C4.47743 16.3093 4.19063 16.9271 3.67184 17.1163C3.50014 17.1789 3.31466 17.1963 3.13403 17.1666C2.87094 17.1235 2.81793 17.0905 2.58787 16.9033C1.25766 15.8015 0.487329 14.0919 0.613544 12.3475C0.7701 10.1845 2.35609 8.16275 4.59134 7.51844C4.64629 7.50264 4.70145 7.48742 4.75692 7.47344C5.37129 4.33848 8.37375 1.81281 11.787 1.79999L11.8426 1.80006Z" fill="black"/>
<path d="M10.8001 12C10.8001 11.6686 11.0687 11.4 11.4001 11.4H12.6001C12.9315 11.4 13.2001 11.6686 13.2001 12V15.6H16.8001C17.1315 15.6 17.4001 15.8686 17.4001 16.2V17.4C17.4001 17.7314 17.1315 18 16.8001 18H13.2001V21.6C13.2001 21.9314 12.9315 22.2 12.6001 22.2H11.4001C11.0687 22.2 10.8001 21.9314 10.8001 21.6V18H7.2001C6.86873 18 6.6001 17.7314 6.6001 17.4V16.2C6.6001 15.8686 6.86873 15.6 7.2001 15.6H10.8001V12Z" fill="black"/>
</svg>
