<svg class="ButtonIcon__icon--N95hN" width="1em" height="1em" fill="currentColor" xmlns="http://www.w3.org/2000/svg" viewBox="0 0 20 20"><path fill-rule="evenodd" d="M6.87 4.118H2.825a.738.738 0 0 0-.742.735c0 .406.333.735.742.735h.54l.897 9.067c.051.513.094.94.156 1.288.065.364.16.697.349 1.008A2.861 2.861 0 0 0 6 18.061c.33.154.675.216 1.047.245.356.027.789.027 1.31.027h3.285c.52 0 .954 0 1.31-.027.37-.029.715-.091 1.046-.246a2.861 2.861 0 0 0 1.234-1.109c.188-.31.284-.644.35-1.008.062-.348.104-.775.155-1.288l.897-9.067h.54c.41 0 .742-.329.742-.735a.739.739 0 0 0-.742-.735H13.13A3.211 3.211 0 0 0 10 1.667a3.211 3.211 0 0 0-3.13 2.45Zm1.565 0h3.13A1.734 1.734 0 0 0 10 3.138a1.734 1.734 0 0 0-1.565.98Zm6.708 1.47H4.857l.88 8.895c.054.549.091.918.142 1.203.05.276.103.414.161.51.141.232.348.419.596.535.102.048.246.087.528.109.29.022.666.023 1.222.023h3.228c.557 0 .932 0 1.223-.023.281-.022.425-.061.527-.11a1.38 1.38 0 0 0 .596-.535c.058-.095.111-.233.16-.509.052-.285.089-.654.143-1.203l.88-8.895Zm-2.855 1.963a.737.737 0 0 1 .678.794l-.495 5.885a.74.74 0 0 1-.8.672.737.737 0 0 1-.679-.794l.495-5.885a.74.74 0 0 1 .801-.672Zm-4.576 0a.74.74 0 0 1 .801.672l.495 5.885a.737.737 0 0 1-.678.794.74.74 0 0 1-.801-.672l-.495-5.885a.737.737 0 0 1 .678-.794Z" clip-rule="evenodd"></path></svg>