<svg width="16" height="16" viewBox="0 0 16 16" fill="none" xmlns="http://www.w3.org/2000/svg">
    <path fill-rule="evenodd" clip-rule="evenodd" d="M3.05206 6.021C4.29915 6.021 5.36664 5.25205 5.80627 4.16243C5.89163 3.95086 6.08675 3.79443 6.31489 3.79443H10.4739C11.4304 3.79443 12.2057 4.56977 12.2057 5.5262C12.2057 6.48264 11.4304 7.25798 10.4739 7.25798H5.52602C3.74979 7.25798 2.30988 8.69789 2.30988 10.4741C2.30988 12.2503 3.74979 13.6903 5.52602 13.6903H9.68507C9.91321 13.6903 10.1083 13.8467 10.1937 14.0583C10.6333 15.1479 11.7008 15.9168 12.9479 15.9168C14.5875 15.9168 15.9166 14.5877 15.9166 12.9481C15.9166 11.3085 14.5875 9.97933 12.9479 9.97933C11.7008 9.97933 10.6333 10.7483 10.1937 11.8379C10.1083 12.0495 9.91321 12.2059 9.68507 12.2059H5.52602C4.56959 12.2059 3.79425 11.4306 3.79425 10.4741C3.79425 9.51769 4.56959 8.74235 5.52602 8.74235H10.4739C12.2502 8.74235 13.6901 7.30243 13.6901 5.5262C13.6901 3.74998 12.2502 2.31006 10.4739 2.31006H6.31489C6.08675 2.31006 5.89163 2.15364 5.80627 1.94207C5.36664 0.852439 4.29915 0.0834961 3.05206 0.0834961C1.41247 0.0834961 0.083313 1.41265 0.083313 3.05225C0.083313 4.69184 1.41247 6.021 3.05206 6.021ZM3.05206 4.53662C3.87186 4.53662 4.53644 3.87204 4.53644 3.05225C4.53644 2.23245 3.87186 1.56787 3.05206 1.56787C2.23227 1.56787 1.56769 2.23245 1.56769 3.05225C1.56769 3.87204 2.23227 4.53662 3.05206 4.53662ZM14.4323 12.9481C14.4323 13.7679 13.7677 14.4325 12.9479 14.4325C12.1281 14.4325 11.4635 13.7679 11.4635 12.9481C11.4635 12.1283 12.1281 11.4637 12.9479 11.4637C13.7677 11.4637 14.4323 12.1283 14.4323 12.9481Z" fill="#19191A"/>
</svg>
