<svg width="18" height="18" viewBox="0 0 18 18" fill="none" xmlns="http://www.w3.org/2000/svg">
<path fill-rule="evenodd" clip-rule="evenodd" d="M12.3843 0.5H15.4537C16.5838 0.5 17.5 1.41615 17.5 2.54629V10.7314C17.5 11.8616 16.5838 12.7777 15.4537 12.7777H12.7777V15.4537C12.7777 16.5838 11.8616 17.5 10.7314 17.5H2.54629C1.41615 17.5 0.5 16.5838 0.5 15.4537V13.4074L0.5005 7.2229C0.524785 6.11386 1.43142 5.22229 2.54629 5.22229H5.22279V2.50061C5.24707 1.39157 6.15371 0.5 7.26857 0.5H10.8496H12.3843ZM5.22279 6.757H2.54629C2.26375 6.757 2.03471 6.98604 2.03471 7.26857V15.4537C2.03471 15.7362 2.26375 15.9653 2.54629 15.9653H10.7314C11.014 15.9653 11.243 15.7362 11.243 15.4537V12.7777H7.26857C6.13844 12.7777 5.22229 11.8616 5.22229 10.7314V8.68514L5.22279 6.757ZM11.243 11.243H7.26857C6.98604 11.243 6.757 11.014 6.757 10.7314V6.757H10.7314C11.014 6.757 11.243 6.98604 11.243 7.26857V11.243ZM12.7777 11.243V7.26857C12.7777 6.13844 11.8616 5.22229 10.7314 5.22229H7.662H6.757V2.54629C6.757 2.26375 6.98604 2.03471 7.26857 2.03471H15.4537C15.7362 2.03471 15.9653 2.26375 15.9653 2.54629V10.7314C15.9653 11.014 15.7362 11.243 15.4537 11.243H12.7777Z" fill="#19191A"/>
</svg>
