<svg width="18" height="18" viewBox="0 0 18 18" fill="none" xmlns="http://www.w3.org/2000/svg">
    <path fill-rule="evenodd" clip-rule="evenodd" d="M2.5 2.25C2.36193 2.25 2.25 2.36193 2.25 2.5V10.5C2.25 10.6381 2.36193 10.75 2.5 10.75H15.5C15.6381 10.75 15.75 10.6381 15.75 10.5V2.5C15.75 2.36193 15.6381 2.25 15.5 2.25H2.5ZM0.75 2.5C0.75 1.5335 1.5335 0.75 2.5 0.75H15.5C16.4665 0.75 17.25 1.5335 17.25 2.5V10.5C17.25 11.4665 16.4665 12.25 15.5 12.25H9.74993V16.25H14.9999C15.4141 16.25 15.7499 16.5858 15.7499 17C15.7499 17.4142 15.4141 17.75 14.9999 17.75H2.99993C2.58572 17.75 2.24993 17.4142 2.24993 17C2.24993 16.5858 2.58572 16.25 2.99993 16.25H8.24993V12.25H2.5C1.5335 12.25 0.75 11.4665 0.75 10.5V2.5Z" fill="#19191A"/>
</svg>
