<svg width="20" height="20" viewBox="0 0 20 20" fill="none" xmlns="http://www.w3.org/2000/svg">
    <path fill-rule="evenodd" clip-rule="evenodd" d="M3.5 3.25C3.36193 3.25 3.25 3.36193 3.25 3.5V11.5C3.25 11.6381 3.36193 11.75 3.5 11.75H16.5C16.6381 11.75 16.75 11.6381 16.75 11.5V3.5C16.75 3.36193 16.6381 3.25 16.5 3.25H3.5ZM1.75 3.5C1.75 2.5335 2.5335 1.75 3.5 1.75H16.5C17.4665 1.75 18.25 2.5335 18.25 3.5V11.5C18.25 12.4665 17.4665 13.25 16.5 13.25H10.7499V17.25H15.9999C16.4141 17.25 16.7499 17.5858 16.7499 18C16.7499 18.4142 16.4141 18.75 15.9999 18.75H3.99993C3.58572 18.75 3.24993 18.4142 3.24993 18C3.24993 17.5858 3.58572 17.25 3.99993 17.25H9.24993V13.25H3.5C2.5335 13.25 1.75 12.4665 1.75 11.5V3.5Z" fill="#19191A"/>
</svg>
