<svg width="20" height="20" viewBox="0 0 20 20" fill="none" xmlns="http://www.w3.org/2000/svg">
<path fill-rule="evenodd" clip-rule="evenodd" d="M5.0144 5.00008C5.0144 3.43002 6.28719 2.15723 7.85726 2.15723H15.0001C16.5702 2.15723 17.843 3.43002 17.843 5.00008V12.1429C17.843 13.713 16.5702 14.9858 15.0001 14.9858H14.9858V15.0001C14.9858 16.5702 13.713 17.843 12.1429 17.843H5.00009C3.43002 17.843 2.15723 16.5702 2.15723 15.0001V7.85726C2.15723 6.2872 3.43002 5.0144 5.00008 5.0144H5.0144V5.00008ZM7.85726 13.5858H13.5858V7.85726C13.5858 7.06039 12.9398 6.4144 12.1429 6.4144H5.00008C4.20322 6.4144 3.55723 7.0604 3.55723 7.85726V15.0001C3.55723 15.797 4.20322 16.443 5.00009 16.443H12.1429C12.9398 16.443 13.5858 15.797 13.5858 15.0001V14.9858H7.85726C6.2872 14.9858 5.0144 13.713 5.0144 12.1429C5.0144 10.5729 6.2872 9.30008 7.85726 9.30008H8.03564V8.57137C8.03564 8.2755 8.27549 8.03565 8.57136 8.03565C8.72344 8.03565 8.85921 8.12315 8.98523 8.20828C9.38117 8.47574 10.3181 9.10703 11.0114 9.56084C11.3203 9.76308 11.3203 10.2369 11.0114 10.4392C10.3181 10.893 9.38117 11.5243 8.98523 11.7917C8.85921 11.8769 8.72344 11.9644 8.57136 11.9644C8.27549 11.9644 8.03564 11.7245 8.03564 11.4286V10.7001H7.85726C7.06039 10.7001 6.4144 11.3461 6.4144 12.1429C6.4144 12.9398 7.0604 13.5858 7.85726 13.5858ZM15.0001 13.5858H14.9858V7.85726C14.9858 6.28719 13.713 5.0144 12.1429 5.0144H6.4144V5.00008C6.4144 4.20322 7.06039 3.55723 7.85726 3.55723H15.0001C15.797 3.55723 16.443 4.20322 16.443 5.00008V12.1429C16.443 12.9398 15.797 13.5858 15.0001 13.5858Z" fill="#19191A"/>
</svg>
