<svg width="20" height="20" viewBox="0 0 20 20" fill="none" xmlns="http://www.w3.org/2000/svg">
<path fill-rule="evenodd" clip-rule="evenodd" d="M1.66675 8.28571C1.66675 5.88549 1.66675 5.75681 2.12089 4.84004C2.52036 4.03363 3.15778 3.378 3.94179 2.96711C4.83309 2.5 5.99986 2.5 8.33341 2.5H11.6667C14.0003 2.5 15.1671 2.5 16.0584 2.96711C16.8424 3.378 17.4798 4.03363 17.8793 4.84004C18.3334 5.75681 18.3334 5.88549 18.3334 8.28571V11.7143C18.3334 14.1145 18.3334 14.2432 17.8793 15.16C17.4798 15.9664 16.8424 16.622 16.0584 17.0329C15.1671 17.5 14.0003 17.5 11.6667 17.5H8.33341C5.99986 17.5 4.83309 17.5 3.94179 17.0329C3.15778 16.622 2.52036 15.9664 2.12089 15.16C1.66675 14.2432 1.66675 14.1145 1.66675 11.7143V8.28571ZM8.33341 4.10714H11.6667C12.8593 4.10714 13.6598 4.10839 14.2762 4.16019C14.8743 4.21046 15.1603 4.30021 15.349 4.39909C15.839 4.65589 16.2374 5.06566 16.4871 5.56967C16.5832 5.76373 16.6705 6.0579 16.7193 6.67317C16.7282 6.78478 16.7355 6.86905 16.7416 6.93885C16.7701 7.26554 16.7709 7.27502 16.7709 8.28571V11.7143C16.7709 12.725 16.7701 12.7345 16.7416 13.0612C16.7355 13.131 16.7282 13.2152 16.7193 13.3268C16.6705 13.9421 16.5832 14.2363 16.4871 14.4303C16.2374 14.9343 15.839 15.3441 15.349 15.6009C15.1603 15.6998 14.8743 15.7895 14.2762 15.8398C13.6598 15.8916 12.8593 15.8929 11.6667 15.8929H8.33341C7.14086 15.8929 6.34041 15.8916 5.72399 15.8398C5.12582 15.7895 4.83982 15.6998 4.65115 15.6009C4.16114 15.3441 3.76276 14.9343 3.51309 14.4303C3.41695 14.2363 3.3297 13.9421 3.28083 13.3268C3.27196 13.2153 3.26462 13.131 3.25854 13.0612C3.23008 12.7345 3.22925 12.725 3.22925 11.7143V8.28571C3.22925 7.27501 3.23008 7.2655 3.25854 6.93881C3.26462 6.86902 3.27196 6.78476 3.28083 6.67317C3.3297 6.0579 3.41695 5.76373 3.51309 5.56967C3.76276 5.06566 4.16114 4.65589 4.65115 4.39909C4.83982 4.30021 5.12582 4.21046 5.72399 4.16019C6.34041 4.10839 7.14086 4.10714 8.33341 4.10714Z" fill="#19191A"/>
<path d="M6.162 11.6543C5.86308 11.9618 5.86308 12.4513 6.162 12.7587C6.47307 13.0787 6.9869 13.0787 7.29797 12.7587L9.30365 10.6958C9.68099 10.3076 9.68099 9.68974 9.30365 9.30161L7.29799 7.23862C6.98692 6.91866 6.47309 6.91866 6.16202 7.23862C5.8631 7.54608 5.8631 8.03557 6.16202 8.34303L7.43281 9.65013C7.62148 9.84419 7.62148 10.1532 7.43281 10.3472L6.162 11.6543Z" fill="#19191A"/>
<path d="M14.5426 12.4107C14.5426 11.9669 14.1829 11.6071 13.7391 11.6071H11.1795C10.7357 11.6071 10.376 11.9669 10.376 12.4107C10.376 12.8545 10.7357 13.2143 11.1795 13.2143H13.7391C14.1829 13.2143 14.5426 12.8545 14.5426 12.4107Z" fill="#19191A"/>
</svg>
