<svg width="20" height="20" viewBox="0 0 20 20" fill="none" xmlns="http://www.w3.org/2000/svg">
<path fill-rule="evenodd" clip-rule="evenodd" d="M11.6065 2.55887C11.4639 2.36288 11.2355 2.24784 10.9931 2.25003C10.7508 2.25222 10.5245 2.37137 10.3855 2.5699L7.83717 6.21037L7.47377 5.82966C7.05503 5.39098 6.34534 5.423 5.96781 5.89761L4.49432 7.75H3C2.58579 7.75 2.25 8.08579 2.25 8.5C2.25 8.91421 2.58579 9.25 3 9.25H17C17.4142 9.25 17.75 8.91421 17.75 8.5C17.75 8.08579 17.4142 7.75 17 7.75H15.3818L11.6065 2.55887ZM8.89351 7.31701L9.30682 7.75H13.5271L11.0116 4.29118L8.89351 7.31701Z" fill="#252629"/>
<path d="M4.38742 10.5H15.646C16.3188 10.5 16.7997 11.151 16.6018 11.7941L15.3755 15.7797C15.1845 16.4003 14.462 16.6772 13.9052 16.3431L13.2344 15.9407C12.8117 15.687 12.2673 15.7793 11.9517 16.158L10.7682 17.5781C10.3684 18.0579 9.63157 18.0579 9.23178 17.5781L7.96509 16.0581C7.68776 15.7253 7.22769 15.6089 6.82547 15.7698L5.9847 16.1061C5.45048 16.3198 4.84657 16.0397 4.66462 15.4939L3.43874 11.8162C3.2229 11.1687 3.70487 10.5 4.38742 10.5Z" fill="#252629"/>
</svg>
