<svg width="28" height="28" viewBox="0 0 28 28" fill="none" xmlns="http://www.w3.org/2000/svg">
<g clip-path="url(#clip0_636_336)">
<path d="M20.5085 8.76813L8.78213 20.4945C10.2187 21.6701 12.055 22.3754 14.0561 22.3754C18.6584 22.3754 22.3894 18.6444 22.3894 14.0421C22.3894 12.041 21.6841 10.2046 20.5085 8.76813ZM19.33 7.58963C17.8935 6.41405 16.0572 5.70872 14.0561 5.70872C9.45369 5.70872 5.72274 9.43972 5.72274 14.0421C5.72274 16.0431 6.42804 17.8794 7.60361 19.316L19.33 7.58963ZM24.0561 14.0421C24.0561 19.5649 19.5789 24.0421 14.0561 24.0421C8.53322 24.0421 4.05607 19.5649 4.05607 14.0421C4.05607 8.51922 8.53322 4.04205 14.0561 4.04205C19.5789 4.04205 24.0561 8.51922 24.0561 14.0421Z" fill="#676C82"/>
</g>
<defs>
<clipPath id="clip0_636_336">
<rect width="20" height="20" fill="white" transform="translate(4 4)"/>
</clipPath>
</defs>
</svg>
