<svg width="28" height="28" viewBox="0 0 28 28" fill="none" xmlns="http://www.w3.org/2000/svg">
<path fill-rule="evenodd" clip-rule="evenodd" d="M5.03516 21.9356C5.03516 21.5172 5.39841 21.1783 5.84652 21.1781L21.8774 21.1708C22.3255 21.1706 22.6888 21.5099 22.6888 21.9283C22.6888 22.3467 22.3255 22.6857 21.8774 22.6859L5.84652 22.6932C5.39841 22.6934 5.03516 22.354 5.03516 21.9356Z" fill="#676C82"/>
<path fill-rule="evenodd" clip-rule="evenodd" d="M5.75751 22.6969C5.33911 22.6969 4.99792 22.3337 5.00001 21.8856L5.0126 19.1787C5.01468 18.7306 5.3517 18.3673 5.7701 18.3673C6.1885 18.3673 6.52979 18.7306 6.5277 19.1787L6.51511 21.8856C6.51303 22.3337 6.17591 22.6969 5.75751 22.6969Z" fill="#676C82"/>
<path fill-rule="evenodd" clip-rule="evenodd" d="M21.9491 22.6603C21.5307 22.6603 21.1895 22.2971 21.1916 21.849L21.2041 19.1421C21.2062 18.694 21.5432 18.3308 21.9616 18.3308C22.38 18.3308 22.7213 18.694 22.7192 19.1421L22.7067 21.849C22.7046 22.2971 22.3675 22.6603 21.9491 22.6603Z" fill="#676C82"/>
<path d="M14.4795 6.73313C14.4795 6.32823 14.1533 6 13.751 6C13.3487 6 13.0226 6.32823 13.0226 6.73313V16.5534L9.16289 12.5429C8.87816 12.2471 8.41652 12.2471 8.13179 12.5429C7.84706 12.8388 7.84706 13.3185 8.13179 13.6143L13.2309 18.9127C13.5156 19.2085 13.9773 19.2085 14.262 18.9127L19.3714 13.6037C19.6561 13.3078 19.6561 12.8282 19.3714 12.5323C19.0867 12.2365 18.625 12.2364 18.3403 12.5323L14.4795 16.544V6.73313Z" fill="#676C82"/>
</svg>
