<svg width="28" height="28" viewBox="0 0 28 28" fill="none" xmlns="http://www.w3.org/2000/svg">
<g clip-path="url(#clip0_636_342)">
<mask id="mask0_636_342" style="mask-type:luminance" maskUnits="userSpaceOnUse" x="4" y="4" width="20" height="20">
<path d="M4 4V24H24V4H4ZM13.707 8.19727C13.9008 8.19727 14.0941 8.33812 14.1855 8.61719C14.5549 8.70266 14.7142 8.96331 14.8027 9.30859C14.8583 9.65516 14.8608 10.0073 14.8691 10.3574C14.8758 10.6668 14.8776 10.9758 14.8789 11.2852C14.8787 11.3006 14.8776 11.3165 14.8769 11.332C14.8772 11.3364 14.8786 11.3413 14.8789 11.3457C14.9118 11.3753 14.9449 11.4032 14.9786 11.4316C15.0223 11.4434 15.0883 11.4851 15.1817 11.5684C15.1906 11.5763 15.193 11.5814 15.1953 11.584C15.1748 11.5714 15.0705 11.4946 15.043 11.4844C15.0215 11.467 14.9997 11.4495 14.9786 11.4316C14.6824 11.3521 15.3679 12.7018 14.8809 12.5977V12.9609H14.9961H18.3438C18.8382 12.9538 19.3322 12.9328 19.8262 12.9121C20.8311 12.87 20.9191 13.8347 20.0137 13.9648C20.0468 14.1266 19.948 14.1918 19.7364 14.3691C20.206 14.6525 20.0269 15.3066 19.1993 15.3066H17.3516H14.9883V15.5156C14.9832 15.7064 14.9911 15.8996 15.0352 16.0859C15.0706 16.2579 15.1481 16.4166 15.2344 16.5684C15.3311 16.7536 15.4347 16.9328 15.5606 17.0996C15.6486 17.2112 15.7523 17.3095 15.8614 17.4004C15.9213 17.4429 15.9789 17.4879 16.0469 17.5156C15.9326 17.471 15.9979 17.4866 15.8516 17.4766C15.1702 17.4297 15.8827 17.8677 16.1856 18.1934C16.6728 18.3025 16.7565 19.0747 15.9883 19.3223C15.6741 19.4235 15.3428 19.4741 15.0274 19.3437C14.9793 19.3123 14.9283 19.2859 14.8809 19.2539C14.7057 19.5056 14.3607 19.5226 14.1231 19.2441C14.0612 19.5813 14.012 19.9215 14.0274 20.2656C14.0745 21.3206 13.0022 21.3208 12.961 20.2656C12.9473 19.9169 12.9865 19.5712 13.043 19.2285C12.9227 19.0833 12.8565 18.8447 12.9082 18.5215C12.9217 18.437 12.9358 18.352 12.9492 18.2675C12.9952 17.9802 13.0399 17.6938 13.0821 17.4062C13.0689 17.3659 13.0571 17.3224 13.0469 17.2773C12.9969 17.0571 13.0248 17.1693 12.9688 16.9414C12.848 16.5126 12.7167 16.0868 12.6172 15.6523C12.5913 15.5374 12.5661 15.4222 12.543 15.3066H11.4668H9.88477C9.28655 15.3066 9.02791 14.9646 9.10742 14.6679H7.58398C6.52793 14.6679 6.52793 13.5996 7.58398 13.5996H8.06836C7.98903 13.303 8.24764 12.9609 8.8457 12.9609H10.6074H12.4277V11.8262V10.873C12.4277 10.5551 12.5251 10.3332 12.6602 10.207C12.5719 9.92266 12.6053 9.69114 12.7051 9.54102C11.739 9.45241 11.7675 8.45977 12.793 8.48047C12.9521 8.48369 13.1107 8.4965 13.2695 8.51172C13.3708 8.30213 13.5391 8.19727 13.707 8.19727ZM19.5176 13.9922C19.3497 13.9989 19.1816 14.0063 19.0137 14.0117C18.9608 14.0838 18.9403 14.1593 18.9844 14.2402H19.1992C19.271 14.2402 19.3384 14.2447 19.4004 14.2539C19.4384 14.1676 19.4788 14.0788 19.5176 13.9922Z" fill="white"/>
</mask>
<g mask="url(#mask0_636_342)">
<path d="M13.9995 3.99953C19.5224 3.99953 23.9995 8.47668 23.9995 13.9995C23.9995 19.5224 19.5224 23.9995 13.9995 23.9995C8.47669 23.9995 3.99953 19.5224 3.99953 13.9995C3.99953 8.47668 8.47669 3.99953 13.9995 3.99953ZM13.9995 5.28467C9.39716 5.28467 5.28468 9.39716 5.28468 13.9995C5.28468 18.6019 9.39716 22.5872 13.9995 22.5872C18.6019 22.5872 22.7144 18.6019 22.7144 13.9995C22.7144 9.39716 18.6019 5.28467 13.9995 5.28467ZM13.9995 8.99953C14.4598 8.99953 14.8329 9.37263 14.8329 9.83286V13.1662H18.1662C18.6265 13.1662 18.9995 13.5393 18.9995 13.9995C18.9995 14.4598 18.6265 14.8329 18.1662 14.8329H14.8329V18.1662C14.8329 18.6264 14.4598 18.9995 13.9995 18.9995C13.5393 18.9995 13.1662 18.6264 13.1662 18.1662V14.8329H9.83287C9.37263 14.8329 8.99953 14.4598 8.99953 13.9995C8.99953 13.5393 9.37263 13.1662 9.83287 13.1662H13.1662V9.83286C13.1662 9.37263 13.5393 8.99953 13.9995 8.99953Z" fill="#666666"/>
</g>
<path fill-rule="evenodd" clip-rule="evenodd" d="M6.99368 11.1669C6.99368 10.7323 7.4398 10.3792 7.9901 10.3799L19.9973 10.3943C20.5476 10.395 20.9937 10.7467 20.9937 11.1814C20.9937 11.616 20.5476 11.969 19.9973 11.9684L7.9901 11.9539C7.4398 11.9533 6.99368 11.6016 6.99368 11.1669ZM9.62388 19.223C9.62388 18.7883 10.07 18.4343 10.6203 18.4359L17.3888 18.4562C17.9392 18.4579 18.3853 18.8086 18.3853 19.2432C18.3853 19.6779 17.9392 20.0319 17.3888 20.0303L10.6203 20.01C10.07 20.0083 9.62388 19.6576 9.62388 19.223ZM9.26391 14.3373C8.71361 14.3363 8.26749 14.6897 8.26749 15.1244C8.26749 15.559 8.71361 15.9103 9.26391 15.9114L18.5524 15.93C19.1027 15.9311 19.5488 15.5777 19.5488 15.143C19.5488 14.7084 19.1027 14.3571 18.5524 14.356L9.26391 14.3373Z" fill="#666666"/>
</g>
<defs>
<clipPath id="clip0_636_342">
<rect width="20" height="20" fill="white" transform="translate(4 4)"/>
</clipPath>
</defs>
</svg>
