<svg width="28" height="28" viewBox="0 0 28 28" fill="none" xmlns="http://www.w3.org/2000/svg">
<path d="M14 9.55555C14.3516 9.55555 14.6953 9.45129 14.9876 9.25595C15.28 9.0606 15.5079 8.78295 15.6425 8.45811C15.777 8.13326 15.8122 7.7758 15.7436 7.43095C15.675 7.0861 15.5057 6.76932 15.2571 6.5207C15.0084 6.27207 14.6916 6.10275 14.3468 6.03416C14.002 5.96556 13.6445 6.00077 13.3196 6.13532C12.9948 6.26988 12.7172 6.49774 12.5219 6.7901C12.3265 7.08245 12.2222 7.42617 12.2222 7.77778C12.2222 8.24927 12.4095 8.70146 12.7429 9.03485C13.0764 9.36826 13.5285 9.55555 14 9.55555ZM14 18.4444C13.6484 18.4444 13.3047 18.5487 13.0124 18.7441C12.72 18.9394 12.4921 19.2171 12.3575 19.5419C12.223 19.8668 12.1878 20.2242 12.2564 20.5691C12.325 20.9139 12.4943 21.2307 12.7429 21.4793C12.9916 21.7279 13.3084 21.8972 13.6532 21.9659C13.998 22.0344 14.3555 21.9992 14.6804 21.8647C15.0052 21.7301 15.2828 21.5022 15.4781 21.2099C15.6735 20.9175 15.7778 20.5739 15.7778 20.2222C15.7778 19.7508 15.5905 19.2986 15.2571 18.9652C14.9236 18.6317 14.4715 18.4444 14 18.4444ZM14 12.2222C13.6484 12.2222 13.3047 12.3265 13.0124 12.5219C12.72 12.7172 12.4921 12.9948 12.3575 13.3196C12.223 13.6445 12.1878 14.002 12.2564 14.3468C12.325 14.6916 12.4943 15.0084 12.7429 15.2571C12.9916 15.5057 13.3084 15.675 13.6532 15.7436C13.998 15.8122 14.3555 15.777 14.6804 15.6425C15.0052 15.5079 15.2828 15.28 15.4781 14.9876C15.6735 14.6953 15.7778 14.3516 15.7778 14C15.7778 13.5285 15.5905 13.0764 15.2571 12.7429C14.9236 12.4095 14.4715 12.2222 14 12.2222Z" fill="#676C82"/>
</svg>
