<svg width="20" height="20" viewBox="0 0 20 20" fill="none" xmlns="http://www.w3.org/2000/svg">
<g clip-path="url(#clip0_132_2198)">
<path fill-rule="evenodd" clip-rule="evenodd" d="M10.4919 0.800099H9.50827C7.24455 0.800099 5.62724 0.801798 4.39833 0.96702C3.19243 1.12915 2.48101 1.43542 1.9582 1.95823C1.4354 2.48103 1.12913 3.19246 0.966997 4.39835C0.801775 5.62726 0.800076 7.24457 0.800076 9.50829V10.4919C0.800076 12.7556 0.801775 14.3729 0.966997 15.6018C1.12913 16.8077 1.4354 17.5192 1.9582 18.042C2.48101 18.5648 3.19243 18.871 4.39833 19.0332C5.62724 19.1984 7.24455 19.2001 9.50827 19.2001H10.4919C12.7556 19.2001 14.3729 19.1984 15.6018 19.0332C16.8077 18.871 17.5191 18.5648 18.0419 18.042C18.5647 17.5192 18.871 16.8077 19.0331 15.6018C19.1984 14.3729 19.2001 12.7556 19.2001 10.4919V9.50829C19.2001 7.24457 19.1984 5.62726 19.0331 4.39835C18.871 3.19246 18.5647 2.48103 18.0419 1.95823C17.5191 1.43542 16.8077 1.12915 15.6018 0.96702C14.3729 0.801798 12.7556 0.800099 10.4919 0.800099ZM1.39252 1.39254C7.62939e-05 2.78498 7.62939e-05 5.02609 7.62939e-05 9.50829V10.4919C7.62939e-05 14.9741 7.62939e-05 17.2152 1.39252 18.6076C2.78496 20.0001 5.02606 20.0001 9.50827 20.0001H10.4919C14.9741 20.0001 17.2152 20.0001 18.6076 18.6076C20.0001 17.2152 20.0001 14.9741 20.0001 10.4919V9.50829C20.0001 5.02609 20.0001 2.78498 18.6076 1.39254C17.2152 9.91821e-05 14.9741 9.91821e-05 10.4919 9.91821e-05H9.50827C5.02606 9.91821e-05 2.78496 9.91821e-05 1.39252 1.39254Z" fill="black"/>
<path fill-rule="evenodd" clip-rule="evenodd" d="M5.5612 0.861214C6.61233 0.800868 7.89693 0.800099 9.50827 0.800099H10.4919C12.1032 0.800099 13.3878 0.800868 14.4389 0.861214C14.1077 1.0875 13.6412 1.36016 12.997 1.73508L12.8514 1.81979C11.2509 2.75117 10.6905 3.0501 10.0001 3.0501C9.3096 3.0501 8.74923 2.75117 7.14873 1.81979L7.00317 1.73508C6.3589 1.36016 5.89242 1.08751 5.5612 0.861214ZM15.5759 0.157103C15.6587 0.28122 15.7001 0.404228 15.7001 0.533081C15.7001 1.08766 14.9332 1.53395 13.3993 2.42652L13.2538 2.51123C11.72 3.4038 10.9531 3.8501 10.0001 3.8501C9.04708 3.8501 8.28017 3.40381 6.74636 2.51123L6.6008 2.42653C5.06698 1.53395 4.30007 1.08766 4.30007 0.533081C4.30007 0.404228 4.34147 0.28122 4.42428 0.157103C5.70055 9.95636e-05 7.34288 9.91821e-05 9.50827 9.91821e-05H10.4919C12.6573 9.91821e-05 14.2996 9.95636e-05 15.5759 0.157103Z" fill="black"/>
<path fill-rule="evenodd" clip-rule="evenodd" d="M5.49097 4.14183C3.93963 3.24616 3.16396 2.79833 2.68201 3.07658C2.20007 3.35483 2.20007 4.25049 2.20007 6.04183V6.21183C2.20007 8.00316 2.20007 8.89883 2.68201 9.73358C3.16395 10.5683 3.93963 11.0162 5.49097 11.9118L5.6382 11.9968C7.18954 12.8925 7.96521 13.3403 8.44715 13.0621C8.92909 12.7838 8.92909 11.8882 8.92909 10.0968V9.92683C8.92909 8.13549 8.92909 7.23982 8.44715 6.40508C7.96521 5.57033 7.18954 5.1225 5.63819 4.22683L5.49097 4.14183ZM3.01077 3.79482C3.01077 3.79482 3.01087 3.79481 3.01108 3.79481L3.01077 3.79482ZM3.10612 3.81116C3.09012 3.8682 3.07086 3.95704 3.05416 4.09089C3.00161 4.51188 3.00007 5.12287 3.00007 6.04183V6.21183C3.00007 8.0794 3.02322 8.72456 3.37483 9.33358C3.72645 9.9426 4.27361 10.2852 5.89097 11.219L6.03819 11.304C6.83404 11.7635 7.36393 12.0677 7.7548 12.2326C7.87906 12.2851 7.96564 12.3128 8.02304 12.3275C8.03904 12.2705 8.0583 12.1816 8.07501 12.0478C8.12756 11.6268 8.12909 11.0158 8.12909 10.0968V9.92683C8.12909 8.05926 8.10595 7.4141 7.75433 6.80508C7.40271 6.19606 6.85556 5.85344 5.23819 4.91965L5.09097 4.83465C4.29512 4.37517 3.76523 4.071 3.37436 3.90602C3.2501 3.85356 3.16352 3.82582 3.10612 3.81116Z" fill="black"/>
<path d="M14.362 4.31961C12.8107 5.21528 12.035 5.66312 11.553 6.49786C11.0711 7.33261 11.0711 8.22828 11.0711 10.0196V10.1896C11.0711 11.9809 11.0711 12.8766 11.553 13.1549C12.035 13.4331 12.8107 12.9853 14.362 12.0896L14.5092 12.0046C16.0606 11.1089 16.8362 10.6611 17.3182 9.82636C17.8001 8.99162 17.8001 8.09595 17.8001 6.30461V6.13462C17.8001 4.34328 17.8001 3.44761 17.3182 3.16936C16.8362 2.89111 16.0606 3.33895 14.5092 4.23462L14.362 4.31961Z" fill="black"/>
</g>
<defs>
<clipPath id="clip0_132_2198">
<rect width="20" height="20" fill="white"/>
</clipPath>
</defs>
</svg>
