<svg width="20" height="20" viewBox="0 0 20 20" fill="none" xmlns="http://www.w3.org/2000/svg">
    <path fill-rule="evenodd" clip-rule="evenodd" d="M10 2.25C10.3601 2.25 10.7191 2.38295 11.0264 2.53809C11.3487 2.70082 11.689 2.92658 12.0303 3.19141C12.7138 3.72186 13.4558 4.45189 14.1406 5.2793C14.8258 6.10722 15.47 7.05308 15.9463 8.02148C16.4187 8.98189 16.75 10.0134 16.75 11C16.75 14.7279 13.7279 17.75 10 17.75C6.27208 17.75 3.25 14.7279 3.25 11C3.25 10.0134 3.58135 8.98189 4.05371 8.02148C4.53005 7.05308 5.17416 6.10722 5.85938 5.2793C6.54419 4.45189 7.28624 3.72186 7.96973 3.19141C8.31096 2.92658 8.65134 2.70082 8.97363 2.53809C9.28093 2.38295 9.63988 2.25 10 2.25ZM13 10.75V12.5C13 13.1904 12.4404 13.75 11.75 13.75H10V16.25C12.8995 16.25 15.25 13.8995 15.25 11C15.25 10.9185 15.246 10.8351 15.2393 10.75H13ZM9.9043 3.77051C9.83949 3.79024 9.7542 3.82404 9.64941 3.87695C9.4385 3.98345 9.18123 4.15066 8.88965 4.37695C8.30763 4.82867 7.64318 5.47717 7.01562 6.23535C6.3885 6.99306 5.81364 7.84056 5.39941 8.68262C4.98124 9.53277 4.75 10.3298 4.75 11C4.75 13.3781 6.33157 15.3857 8.5 16.0312V13.5C8.5 12.8096 9.05964 12.25 9.75 12.25H11.5V10.5C11.5 9.80964 12.0596 9.25 12.75 9.25H14.8535C14.7787 9.06431 14.695 8.87457 14.6006 8.68262C14.1864 7.84056 13.6115 6.99306 12.9844 6.23535C12.3568 5.47717 11.6924 4.82867 11.1104 4.37695C10.8188 4.15066 10.5615 3.98345 10.3506 3.87695C10.2458 3.82404 10.1605 3.79024 10.0957 3.77051C10.0294 3.75034 10 3.75 10 3.75C10 3.75 9.97064 3.75034 9.9043 3.77051Z" fill="#252629"/>
</svg>
