<svg width="19" height="19" viewBox="0 0 19 19" fill="none" xmlns="http://www.w3.org/2000/svg">
<path fill-rule="evenodd" clip-rule="evenodd" d="M7.10876 6.62884C6.67721 6.6523 6.34679 7.01373 6.37077 7.4361L6.76207 14.3297C6.78605 14.7521 7.15533 15.0755 7.58689 15.052C8.01845 15.0285 8.34886 14.6671 8.32488 14.2447L7.93358 7.35113C7.9096 6.92875 7.54032 6.60537 7.10876 6.62884Z" fill="#666D75"/>
<path fill-rule="evenodd" clip-rule="evenodd" d="M11.8912 6.62884C12.3228 6.6523 12.6532 7.01373 12.6292 7.4361L12.2379 14.3297C12.214 14.7521 11.8447 15.0755 11.4131 15.052C10.9816 15.0285 10.6511 14.6671 10.6751 14.2447L11.0664 7.35113C11.0904 6.92875 11.4597 6.60537 11.8912 6.62884Z" fill="#666D75"/>
<path fill-rule="evenodd" clip-rule="evenodd" d="M1.28261 3.18085C0.850386 3.18085 0.5 3.52378 0.5 3.94681C0.5 4.36984 0.850386 4.71277 1.28261 4.71277H2.14041L3.15587 14.5343C3.21365 15.0933 3.26152 15.5564 3.33111 15.9332C3.40365 16.326 3.50913 16.6839 3.71348 17.0162C4.03219 17.5344 4.50049 17.9487 5.05937 18.2069C5.41771 18.3724 5.79216 18.4391 6.19876 18.4702C6.58883 18.5 7.06447 18.5 7.63847 18.5H11.3615C11.9355 18.5 12.4112 18.5 12.8012 18.4702C13.2078 18.4391 13.5823 18.3724 13.9406 18.2069C14.4995 17.9487 14.9678 17.5344 15.2865 17.0162C15.4909 16.6839 15.5964 16.326 15.6689 15.9332C15.7385 15.5564 15.7864 15.0933 15.8441 14.5344L16.8596 4.71277H17.7174C18.1496 4.71277 18.5 4.36984 18.5 3.94681C18.5 3.52378 18.1496 3.18085 17.7174 3.18085H12.9345C12.5786 1.64588 11.176 0.5 9.5 0.5C7.82397 0.5 6.4214 1.64588 6.06553 3.18085H1.28261ZM4.71007 14.3505C4.77169 14.9465 4.81395 15.3498 4.87137 15.6608C4.92707 15.9624 4.98748 16.1172 5.05451 16.2262C5.21386 16.4853 5.44801 16.6924 5.72745 16.8215C5.84499 16.8758 6.00842 16.9191 6.32065 16.9429C6.64254 16.9675 7.05679 16.9681 7.66887 16.9681H11.3311C11.9432 16.9681 12.3575 16.9675 12.6793 16.9429C12.9916 16.9191 13.155 16.8758 13.2726 16.8215C13.552 16.6924 13.7861 16.4853 13.9455 16.2262C14.0125 16.1172 14.0729 15.9624 14.1286 15.6608C14.1861 15.3498 14.2283 14.9465 14.2899 14.3505L15.2864 4.71277H3.71362L4.71007 14.3505ZM9.5 2.03191C8.6977 2.03191 8.00819 2.50455 7.70628 3.18085H11.2937C10.9918 2.50455 10.3023 2.03191 9.5 2.03191Z" fill="#666D75"/>
</svg>
