<svg width="18" height="16" viewBox="0 0 18 16" fill="none" xmlns="http://www.w3.org/2000/svg">
<path fill-rule="evenodd" clip-rule="evenodd" d="M9.84351 0.857801C9.33039 0.603391 8.67258 0.603389 8.15946 0.857797C7.76768 1.05204 7.52465 1.41396 7.34445 1.73633C7.15886 2.06833 6.95938 2.51496 6.72126 3.04812L5.75557 5.21015L4.79704 4.63796C4.23194 4.30062 3.76483 4.02176 3.38912 3.83984C3.03311 3.66745 2.59077 3.49249 2.13334 3.57597C1.54598 3.68317 1.04761 4.06968 0.797614 4.61189C0.602926 5.03415 0.662311 5.50612 0.740678 5.89382C0.823383 6.30299 0.977222 6.8248 1.16333 7.45607L2.19604 10.9592C2.25202 11.1491 2.28001 11.244 2.30224 11.34C2.34449 11.5225 2.37129 11.7082 2.38236 11.8951C2.38818 11.9935 2.38818 12.0925 2.38818 12.2904C2.38817 12.732 2.38816 13.108 2.41338 13.4167C2.43987 13.741 2.4979 14.0565 2.65158 14.3581C2.88327 14.8128 3.25298 15.1825 3.7077 15.4142C4.00931 15.5679 4.32481 15.6259 4.64911 15.6524C4.9578 15.6776 5.33378 15.667 5.77534 15.667H12.2268C12.6683 15.667 13.0443 15.6776 13.353 15.6524C13.6773 15.6259 13.9928 15.5679 14.2944 15.4142C14.7492 15.1825 15.1189 14.8128 15.3506 14.3581C15.5042 14.0565 15.5623 13.741 15.5888 13.4167C15.614 13.108 15.614 12.732 15.614 12.2905C15.614 12.0953 15.614 11.9978 15.6196 11.9008C15.6306 11.712 15.6577 11.5244 15.7005 11.3401C15.7225 11.2455 15.7501 11.152 15.8053 10.9648L16.8396 7.45611C17.0258 6.82482 17.1796 6.30299 17.2623 5.89381C17.3407 5.50611 17.4001 5.03414 17.2054 4.61188C16.9554 4.06967 16.457 3.68316 15.8696 3.57596C15.4122 3.49248 14.9699 3.66744 14.6139 3.83982C14.2382 4.02174 13.7711 4.30059 13.206 4.63793L12.2474 5.21015L11.2817 3.04815C11.0436 2.51499 10.8441 2.06834 10.6585 1.73634C10.4783 1.41397 10.2353 1.05205 9.84351 0.857801ZM14.114 12.2606H3.88818C3.88818 12.7397 3.88876 13.0542 3.90839 13.2945C3.92731 13.5261 3.96011 13.6222 3.98809 13.6771C4.07597 13.8496 4.21621 13.9898 4.38869 14.0777C4.4436 14.1057 4.53972 14.1385 4.77126 14.1574C5.01155 14.177 5.32576 14.1776 5.80485 14.1776H12.1973C12.6764 14.1776 12.9906 14.177 13.2309 14.1574C13.4624 14.1385 13.5585 14.1057 13.6134 14.0777C13.7859 13.9898 13.9262 13.8496 14.014 13.6771C14.042 13.6222 14.0748 13.5261 14.0937 13.2945C14.1134 13.0542 14.114 12.7397 14.114 12.2606ZM8.66878 2.44208C8.82236 2.18057 9.20122 2.20351 9.34919 2.46823C9.49781 2.7341 9.67009 3.11801 9.92697 3.69313L11.2221 6.59274C11.3095 6.78841 11.4764 6.93735 11.6807 7.00197C11.8851 7.06659 12.1073 7.04071 12.2913 6.93086L13.9433 5.94474C14.5478 5.58384 14.7374 5.46058 15.2676 5.18988C15.2737 5.18676 15.2799 5.18361 15.2862 5.18043C15.5579 5.04259 15.8524 5.298 15.792 5.59662C15.7239 5.93351 15.5896 6.39176 15.3905 7.06713L14.3017 10.7606H3.70133L2.6125 7.06715C2.4134 6.39177 2.2984 5.94476 2.21094 5.59663C2.13531 5.29556 2.456 5.05461 2.7354 5.18989C3.04474 5.33968 3.45514 5.58385 4.05973 5.94476L5.71163 6.93086C5.89565 7.0407 6.11786 7.06659 6.32219 7.00197C6.52652 6.93735 6.69345 6.78842 6.78085 6.59274L8.07599 3.69312C8.33287 3.11801 8.50515 2.7341 8.65377 2.46823C8.65851 2.45976 8.66352 2.45103 8.66878 2.44208Z" fill="#19191A"/>
</svg>
