<svg width="20" height="20" viewBox="0 0 20 20" fill="none" xmlns="http://www.w3.org/2000/svg">
    <path d="M15.0606 8.49828C15.3357 8.18869 15.3079 7.71464 14.9983 7.43945C14.6887 7.16426 14.2146 7.19215 13.9394 7.50174L11.5829 10.2778C11.4933 10.3787 11.3397 10.3902 11.236 10.3038L9.68169 9.00847C8.98637 8.42903 7.96394 8.47541 7.32393 9.11542L4.96967 11.4697C4.67678 11.7626 4.67678 12.2374 4.96967 12.5303C5.26256 12.8232 5.73744 12.8232 6.03033 12.5303L8.38459 10.1761C8.47602 10.0846 8.62208 10.078 8.72141 10.1608L10.2758 11.4561C11.0016 12.0609 12.0764 11.9805 12.7041 11.2743L15.0606 8.49828Z" fill="#19191A"/>
    <path fill-rule="evenodd" clip-rule="evenodd" d="M15.5 2H4.5C2.567 2 1 3.567 1 5.5V14.5C1 16.433 2.567 18 4.5 18H15.5C17.433 18 19 16.433 19 14.5V5.5C19 3.567 17.433 2 15.5 2ZM2.5 5.5C2.5 4.39543 3.39543 3.5 4.5 3.5H15.5C16.6046 3.5 17.5 4.39543 17.5 5.5V14.5C17.5 15.6046 16.6046 16.5 15.5 16.5H4.5C3.39543 16.5 2.5 15.6046 2.5 14.5V5.5Z" fill="#19191A"/>
</svg>
