<svg width="20" height="20" viewBox="0 0 20 20" fill="none" xmlns="http://www.w3.org/2000/svg">
<path fill-rule="evenodd" clip-rule="evenodd" d="M9 2.5C9 3.05228 8.55228 3.5 8 3.5C7.44772 3.5 7 3.05228 7 2.5C7 1.94772 7.44772 1.5 8 1.5C8.55228 1.5 9 1.94772 9 2.5ZM8.75 4.88555C9.76428 4.56698 10.5 3.61941 10.5 2.5C10.5 1.11929 9.38071 0 8 0C6.61929 0 5.5 1.11929 5.5 2.5C5.5 3.61941 6.23572 4.56698 7.25 4.88555V6.0702C5.39935 6.42125 4 8.04721 4 10C4 11.9528 5.39935 13.5787 7.25 13.9298V15.1145C6.23572 15.433 5.5 16.3806 5.5 17.5C5.5 18.8807 6.61929 20 8 20C9.38071 20 10.5 18.8807 10.5 17.5C10.5 16.3806 9.76428 15.433 8.75 15.1145V13.9298C9.67721 13.7539 10.4911 13.258 11.0726 12.5613L13.0684 13.4167C13.0237 13.6038 13 13.7991 13 14C13 15.3807 14.1193 16.5 15.5 16.5C16.8807 16.5 18 15.3807 18 14C18 12.6193 16.8807 11.5 15.5 11.5C14.8685 11.5 14.2917 11.7342 13.8516 12.1204L11.8033 11.2425C11.931 10.8514 12 10.4338 12 10C12 9.7031 11.9677 9.41375 11.9063 9.13528L13.7023 8.23729C14.1568 8.70758 14.7943 9 15.5 9C16.8807 9 18 7.88071 18 6.5C18 5.11929 16.8807 4 15.5 4C14.1193 4 13 5.11929 13 6.5C13 6.63469 13.0107 6.76688 13.0312 6.8958L11.3115 7.75563C10.7259 6.89329 9.8123 6.27171 8.75 6.0702V4.88555ZM10.5 10C10.5 11.3807 9.38071 12.5 8 12.5C6.61929 12.5 5.5 11.3807 5.5 10C5.5 8.61929 6.61929 7.5 8 7.5C9.38071 7.5 10.5 8.61929 10.5 10ZM15.5 7.5C16.0523 7.5 16.5 7.05228 16.5 6.5C16.5 5.94772 16.0523 5.5 15.5 5.5C14.9477 5.5 14.5 5.94772 14.5 6.5C14.5 7.05228 14.9477 7.5 15.5 7.5ZM16.5 14C16.5 14.5523 16.0523 15 15.5 15C14.9477 15 14.5 14.5523 14.5 14C14.5 13.4477 14.9477 13 15.5 13C16.0523 13 16.5 13.4477 16.5 14ZM8 18.5C8.55228 18.5 9 18.0523 9 17.5C9 16.9477 8.55228 16.5 8 16.5C7.44772 16.5 7 16.9477 7 17.5C7 18.0523 7.44772 18.5 8 18.5Z" fill="#19191A"/>
</svg>
