<svg width="32" height="32" viewBox="0 0 32 32" fill="none" xmlns="http://www.w3.org/2000/svg">
<g clip-path="url(#clip0_6090_127)">
<path d="M18 18L21.7929 21.7929C22.1834 22.1834 22.1834 22.8166 21.7929 23.2071L18 27" stroke="black" stroke-width="3" stroke-linecap="round"/>
<path d="M10 18L13.7929 21.7929C14.1834 22.1834 14.1834 22.8166 13.7929 23.2071L10 27" stroke="black" stroke-width="3" stroke-linecap="round"/>
<path d="M5.51441 23.695C6.02314 23.4619 6.3389 22.9417 6.3389 22.3677C6.3389 22.0448 6.18102 21.722 5.91788 21.5426C4.81272 20.7354 4.16366 19.3363 4.304 17.9731C4.47942 16.3049 5.81263 14.852 7.40897 14.5829C7.50545 14.565 7.60194 14.5516 7.69842 14.5381C7.7949 14.5247 7.89138 14.5112 7.98787 14.4933C8.3738 14.5291 8.75972 14.3856 9.02286 14.0986C9.04551 14.0871 9.06085 14.068 9.07833 14.0463C9.08791 14.0344 9.09814 14.0217 9.11057 14.009C9.26845 13.8116 9.35616 13.5964 9.3737 13.3632C9.40879 13.2377 9.40879 13.148 9.40879 13.148C9.40879 11.4619 10.0754 9.81165 11.2332 8.64573C12.6892 7.15695 14.8995 6.47533 16.9169 6.90583C18.7763 7.28251 20.4078 8.59192 21.2498 10.3139C21.3124 10.4312 21.3687 10.5548 21.4263 10.6811C21.4655 10.7671 21.5053 10.8544 21.548 10.9417C21.6182 11.1749 21.741 11.3722 21.9164 11.5157C21.9515 11.5516 21.969 11.5695 22.0041 11.5874C22.0392 11.6054 22.0918 11.6412 22.1444 11.6771C22.3199 11.7489 22.4953 11.8027 22.6883 11.8206C22.7409 11.8386 22.7584 11.8386 22.7584 11.8386C24.2846 11.8744 25.7406 12.6457 26.6703 13.8655C27.7404 15.2825 28.0036 17.2197 27.4071 18.852C27.0914 19.7309 26.53 20.5022 25.8108 21.0762C25.5476 21.2915 25.4073 21.5964 25.4073 21.9193C25.4073 22.4932 25.7231 23.0134 26.2318 23.2466C26.7405 23.4798 27.3194 23.3722 27.7404 22.9955C29.6701 21.2376 30.67 18.565 30.3367 15.982C29.8806 12.4484 26.9686 9.66815 23.6882 9.16591C22.2146 6.06278 18.9868 4.03587 15.6889 4C14.689 4 13.6891 4.16143 12.7243 4.50224C9.60175 5.61435 7.25109 8.59192 6.77745 11.8924C4.68993 12.3408 2.86553 13.8475 2.05859 15.8565C1.26919 17.8655 1.51478 20.2511 2.67257 22.0269C3.02341 22.6009 3.47951 23.0852 3.98824 23.5157C4.42679 23.8565 5.00569 23.9462 5.51441 23.695Z" fill="black"/>
</g>
<defs>
<clipPath id="clip0_6090_127">
<rect width="32" height="32" fill="white"/>
</clipPath>
</defs>
</svg>
