<svg width="16" height="16" viewBox="0 0 16 16" fill="none" xmlns="http://www.w3.org/2000/svg">
    <path fill-rule="evenodd" clip-rule="evenodd" d="M8.38829 1.56547C8.14392 1.44068 7.85608 1.44068 7.61171 1.56547C7.56604 1.58879 7.43396 1.69087 7.19487 2.13831C6.96549 2.56757 6.7042 3.17935 6.33039 4.05716C6.17922 4.41215 6.02249 4.76525 5.87682 5.12261C5.85759 5.16979 5.79719 5.31798 5.69222 5.44097C5.60588 5.54214 5.50011 5.62421 5.38143 5.68211C5.22351 5.75915 5.05122 5.77573 5.02 5.78022L4.3781 5.8725C3.44369 6.00684 2.79198 6.10126 2.32253 6.2129C1.83289 6.32934 1.70081 6.43242 1.66681 6.47095C1.48366 6.67842 1.40753 6.96189 1.46146 7.23548C1.47148 7.28628 1.53364 7.44353 1.89684 7.79781C2.24508 8.13749 2.75877 8.55691 3.49582 9.15739L3.73004 9.34821C3.75611 9.36945 3.9061 9.47988 4.00675 9.63949C4.08229 9.75927 4.13134 9.89436 4.1505 10.0354C4.17382 10.2071 4.13969 10.3749 4.12886 10.4281C4.10184 10.5609 4.07903 10.6947 4.0542 10.828C3.84879 11.9306 3.70426 12.7098 3.64661 13.2817C3.58526 13.8903 3.64935 14.0686 3.67147 14.1056C3.82198 14.357 4.08559 14.5155 4.37436 14.5281C4.4168 14.5299 4.60095 14.5008 5.094 14.1517C5.55735 13.8236 6.15674 13.3178 7.00437 12.6012C7.10334 12.5175 7.20236 12.4339 7.30126 12.3502C7.33694 12.32 7.38928 12.2757 7.44022 12.2388C7.50272 12.1935 7.60215 12.1296 7.73664 12.0906C7.9088 12.0408 8.0912 12.0408 8.26336 12.0906C8.39785 12.1296 8.49728 12.1935 8.55978 12.2388C8.61072 12.2757 8.66306 12.32 8.69874 12.3502L8.99563 12.6012C9.84326 13.3178 10.4426 13.8236 10.906 14.1517C11.3991 14.5008 11.5832 14.5299 11.6256 14.5281C11.9144 14.5155 12.178 14.357 12.3285 14.1056C12.3506 14.0686 12.4147 13.8903 12.3534 13.2817C12.2957 12.7098 12.1512 11.9306 11.9458 10.828C11.921 10.6947 11.8982 10.5609 11.8711 10.4281C11.8603 10.3749 11.8262 10.2071 11.8495 10.0354C11.8687 9.89436 11.9177 9.75927 11.9932 9.63949C12.0939 9.47988 12.2439 9.36945 12.27 9.34821L12.5042 9.15739C13.2412 8.55691 13.7549 8.13749 14.1032 7.79781C14.4664 7.44353 14.5285 7.28628 14.5385 7.23548C14.5925 6.96189 14.5163 6.67842 14.3332 6.47095C14.2992 6.43242 14.1671 6.32934 13.6775 6.2129C13.208 6.10126 12.5563 6.00685 11.6219 5.8725C11.4043 5.84122 11.1869 5.80654 10.9688 5.77875C10.9191 5.77241 10.7628 5.75249 10.6186 5.68211C10.4999 5.62421 10.3941 5.54214 10.3078 5.44097C10.1929 5.30634 10.1314 5.14151 10.1188 5.11204L9.66961 4.05716C9.2958 3.17935 9.03451 2.56757 8.80513 2.13831C8.56604 1.69087 8.43396 1.58879 8.38829 1.56547ZM6.96455 0.249581C7.61623 -0.0831938 8.38377 -0.0831937 9.03545 0.249581C9.50576 0.489747 9.81572 0.951608 10.0737 1.43444C10.3378 1.9286 10.6244 2.60158 10.9799 3.43645L11.3688 4.34965L11.8606 4.42036C12.7495 4.54815 13.4658 4.65112 14.0058 4.77954C14.533 4.90492 15.0544 5.08704 15.4071 5.48662C15.8955 6.03988 16.0985 6.7958 15.9547 7.52538C15.8508 8.05229 15.4931 8.47957 15.102 8.86107C14.7014 9.25178 14.1365 9.71204 13.4353 10.2833L13.3305 10.3687L13.3718 10.5907C13.5688 11.6477 13.7256 12.4891 13.7903 13.1313C13.8521 13.7444 13.8583 14.3766 13.5617 14.872C13.1604 15.5425 12.4574 15.9651 11.6874 15.9986C11.1184 16.0234 10.5784 15.7121 10.0817 15.3604C9.56143 14.992 8.91457 14.4451 8.10189 13.7581L8 13.672L7.89813 13.7581C7.08545 14.4451 6.43858 14.992 5.91828 15.3604C5.42161 15.7121 4.88162 16.0234 4.31264 15.9986C3.54259 15.9651 2.83962 15.5425 2.43828 14.872C2.14175 14.3766 2.14791 13.7444 2.20971 13.1313C2.27445 12.4891 2.43121 11.6477 2.62817 10.5906L2.66951 10.3687L2.56469 10.2833C1.86353 9.71206 1.29856 9.25178 0.898001 8.86107C0.506889 8.47957 0.149176 8.05229 0.0452966 7.52538C-0.0985374 6.7958 0.104492 6.03988 0.592879 5.48662C0.945601 5.08704 1.46699 4.90492 1.99424 4.77954C2.53423 4.65112 3.25049 4.54815 4.1394 4.42036L4.63125 4.34965L5.02013 3.43643C5.37565 2.60157 5.66222 1.9286 5.92627 1.43444C6.18428 0.951608 6.49424 0.489747 6.96455 0.249581Z" fill="#19191A"/>
</svg>
