<svg width="32" height="32" viewBox="0 0 32 32" fill="none" xmlns="http://www.w3.org/2000/svg">
<path d="M21.0365 10.4043L21.1013 10.4319H21.1661L21.2308 10.4578H21.2956L21.3514 10.4854L21.4162 10.5112L21.4714 10.5389L21.5368 10.5647L21.592 10.6182L21.6478 10.644L21.694 10.6716L21.7491 10.7251L21.796 10.7768L21.8422 10.8044L21.9345 10.9113L21.9717 10.9648L22.0083 11.0165L22.0827 11.1234L22.1379 11.2303L22.1661 11.3096L22.2033 11.4166L22.2213 11.4959L22.2399 11.5493L22.2495 11.6286L22.2585 11.6821V19.664L22.2495 19.7175L22.2399 19.7968L22.2213 19.8503L22.2033 19.9314L22.1847 19.983L22.1661 20.0365L22.1379 20.1158L22.0827 20.2227L22.0083 20.3297L21.9717 20.3831L21.9345 20.4366L21.8422 20.5435L21.796 20.5694L21.7491 20.6228L21.694 20.6763L21.6478 20.7021L21.592 20.7279L21.5368 20.7814L21.4714 20.8091L21.4162 20.8349L21.3514 20.8625L21.2956 20.8884H21.2308L21.1661 20.9141H21.1013L21.0365 20.9418H20.6478L20.583 20.9141H20.5182L20.4534 20.8884H20.3886L20.3334 20.8625L20.2687 20.8349L20.2129 20.8091L20.1481 20.7814L20.0923 20.7279L20.0371 20.7021L19.9909 20.6763L19.9351 20.6228L19.8889 20.5694L19.8427 20.5435L19.7503 20.4366L19.6387 20.2762L19.6022 20.2227L19.574 20.1693L19.5464 20.1158L19.5002 19.983L19.4816 19.9314L19.463 19.8503L19.4444 19.7968L19.4354 19.7175L19.4258 19.664V11.6821L19.4354 11.6286L19.4444 11.5493L19.463 11.4959L19.4816 11.4166L19.5464 11.2303L19.574 11.1769L19.6022 11.1234L19.6387 11.0699L19.6759 11.0165L19.7132 10.9648L19.7503 10.9113L19.8427 10.8044L19.8889 10.7768L19.9351 10.7251L19.9909 10.6716L20.0371 10.644L20.0923 10.6182L20.1481 10.5647L20.2129 10.5389L20.2687 10.5112L20.3334 10.4854L20.3886 10.4578H20.4534L20.5182 10.4319H20.583L20.6478 10.4043H21.0365Z" fill="black"/>
<path d="M15.5019 13.7694L15.4557 13.7849H15.3999L15.3537 13.7994L15.3075 13.8149L15.2613 13.8294L15.2151 13.8449L15.1683 13.8594L15.1221 13.8739L15.076 13.8894L15.0298 13.9194L14.9836 13.9339L14.9374 13.9639L14.9002 13.9794L14.854 14.0084L14.7796 14.0685L14.743 14.0985L14.6969 14.1285L14.6686 14.173L14.6314 14.203L14.5949 14.233L14.5666 14.2775L14.5301 14.3075L14.5019 14.352L14.4743 14.3965L14.4467 14.442L14.4191 14.4721L14.4005 14.5166L14.3723 14.5611L14.3543 14.6066L14.3171 14.6956L14.2985 14.7556L14.2895 14.8001L14.2709 14.8446L14.2613 14.8901L14.2523 14.9347L14.2427 14.9947V15.0392L14.2337 15.0837V19.6237L14.2427 19.6682V19.7137L14.2523 19.7727L14.2613 19.8183L14.2709 19.8627L14.2895 19.9073L14.2985 19.9528L14.3171 19.9973L14.3357 20.0573L14.3543 20.1018L14.3723 20.1463L14.4005 20.1918L14.4191 20.2364L14.4467 20.2664L14.5301 20.4009L14.5666 20.4299L14.5949 20.4754L14.6314 20.5044L14.6686 20.5354L14.6969 20.5799L14.743 20.6099L14.7796 20.6389L14.854 20.6989L14.9002 20.729L14.9374 20.7434L14.9836 20.7734L15.0298 20.789L15.076 20.818L15.1221 20.8335L15.1683 20.848L15.2151 20.8635L15.2613 20.878L15.3075 20.8935L15.3537 20.908L15.3999 20.9235H15.4557L15.5019 20.938H15.7982L15.8444 20.9235H15.8996L15.9464 20.908L15.9926 20.8935L16.0388 20.878L16.085 20.8635L16.1312 20.848L16.1773 20.8335L16.2242 20.818L16.2704 20.789L16.3165 20.7734L16.3627 20.7434L16.3999 20.729L16.4461 20.6989L16.4833 20.6689L16.5199 20.6389L16.5571 20.6099L16.6033 20.5799L16.6309 20.5354L16.6681 20.5044L16.7053 20.4754L16.7328 20.4299L16.7701 20.4009L16.7976 20.3554L16.8252 20.3109L16.8534 20.2664L16.881 20.2364L16.8996 20.1918L16.9272 20.1463L16.9644 20.0573L16.983 19.9973L17.0016 19.9528L17.0106 19.9073L17.0292 19.8627L17.0382 19.8183L17.0478 19.7727L17.0568 19.7137V19.6682L17.0664 19.6237V15.0837L17.0568 15.0392V14.9947L17.0478 14.9347L17.0382 14.8901L17.0292 14.8446L17.0106 14.8001L17.0016 14.7556L16.983 14.6956L16.9458 14.6066L16.9272 14.5611L16.8996 14.5166L16.881 14.4721L16.8534 14.442L16.7701 14.3075L16.7328 14.2775L16.7053 14.233L16.6309 14.173L16.6033 14.1285L16.5571 14.0985L16.5199 14.0685L16.4833 14.0384L16.4461 14.0084L16.3999 13.9794L16.3627 13.9639L16.3165 13.9339L16.2704 13.9194L16.2242 13.8894L16.1773 13.8739L16.085 13.8449L16.0388 13.8294L15.9926 13.8149L15.9464 13.7994L15.8996 13.7849H15.8444L15.7982 13.7694H15.5019Z" fill="black"/>
<path d="M10.7996 16.184H10.6328L10.6053 16.1909H10.5681L10.5315 16.1974H10.5033L10.4667 16.2043L10.4385 16.2108L10.4019 16.2172L10.3737 16.2242L10.3371 16.2376L10.3089 16.244L10.2813 16.251L10.2441 16.2643L10.2165 16.2773L10.189 16.2842L10.1517 16.2976L10.1242 16.311L10.0959 16.3308L10.0408 16.3576L10.0036 16.3775L9.97599 16.3908L9.9484 16.4107L9.92018 16.4241L9.89259 16.4439L9.87399 16.4643L9.84642 16.4841L9.81818 16.504L9.79061 16.5238L9.76302 16.5506L9.74442 16.5705L9.71683 16.5908L9.69823 16.6171L9.67064 16.6439L9.65205 16.6637L9.63345 16.6905L9.60586 16.7173L9.58726 16.7436L9.53145 16.8239L9.51286 16.8503L9.49424 16.877L9.47629 16.9103L9.46667 16.9371L9.44807 16.9638L9.43908 16.9971L9.42048 17.0239L9.41151 17.0571L9.39289 17.0834L9.38327 17.1171L9.37429 17.1504L9.36467 17.1836L9.3557 17.2104L9.34672 17.2436L9.3371 17.2769L9.32811 17.3101L9.31848 17.3434V17.3701L9.30951 17.4034V17.4366L9.29989 17.4699V19.6686L9.30951 19.7023V19.7355L9.31848 19.7688V19.7955L9.32811 19.8288L9.3371 19.862L9.34672 19.8953L9.3557 19.9285L9.36467 19.9553L9.37429 19.9885L9.38327 20.0218L9.39289 20.0486L9.41151 20.0818L9.42048 20.115L9.43908 20.1418L9.44807 20.1751L9.46667 20.2019L9.47629 20.2286L9.49424 20.2619L9.51286 20.2887L9.53145 20.315L9.56867 20.3685L9.58726 20.3948L9.60586 20.4216L9.63345 20.4484L9.65205 20.4747L9.67064 20.495L9.69823 20.5218L9.71683 20.5417L9.74442 20.5685L9.76302 20.5883L9.79061 20.6146L9.81818 20.6349L9.84642 20.6548L9.87399 20.6747L9.89259 20.695L9.92018 20.7148L9.9484 20.7282L9.97599 20.7481L10.0036 20.7615L10.0408 20.7813L10.0959 20.8081L10.1242 20.8279L10.1517 20.8413L10.189 20.8547L10.2165 20.8616L10.2441 20.8746L10.2813 20.888L10.3089 20.8949L10.3371 20.9014L10.3737 20.9147L10.4019 20.9212L10.4385 20.9281L10.4667 20.9346L10.5033 20.9415H10.5315L10.5681 20.948H10.6053L10.6328 20.9549H10.7996L10.8272 20.948H10.8644L10.9016 20.9415H10.9292L10.9664 20.9346L10.994 20.9281L11.0312 20.9212L11.0588 20.9147L11.096 20.9014L11.1236 20.8949L11.1518 20.888L11.1884 20.8746L11.2166 20.8616L11.2442 20.8547L11.2807 20.8413L11.3089 20.8279L11.3365 20.8081L11.3641 20.7947L11.3923 20.7813L11.4289 20.7615L11.4571 20.7481L11.4847 20.7282L11.5123 20.7148L11.5405 20.695L11.5585 20.6747L11.5867 20.6548L11.6143 20.6349L11.6419 20.6146L11.6701 20.5883L11.688 20.5685L11.7163 20.5417L11.7349 20.5218L11.7625 20.495L11.7811 20.4747L11.7997 20.4484L11.8272 20.4216L11.8458 20.3948L11.8645 20.3685L11.8824 20.3418L11.901 20.315L11.9196 20.2887L11.9382 20.2619L11.9568 20.2286L11.9658 20.2019L11.9844 20.1751L11.994 20.1418L12.0126 20.115L12.0216 20.0818L12.0402 20.0486L12.0492 20.0218L12.0588 19.9885L12.0678 19.9553L12.0774 19.9285L12.0954 19.862L12.105 19.8288L12.114 19.7955V19.7688L12.1236 19.7355V19.7023L12.1326 19.6686V17.4699L12.1236 17.4366V17.4034L12.114 17.3701V17.3434L12.105 17.3101L12.0954 17.2769L12.0774 17.2104L12.0678 17.1836L12.0588 17.1504L12.0492 17.1171L12.0402 17.0834L12.0216 17.0571L12.0126 17.0239L11.994 16.9971L11.9844 16.9638L11.9658 16.9371L11.9568 16.9103L11.9382 16.877L11.9196 16.8503L11.901 16.8239L11.8824 16.7972L11.8645 16.7704L11.8458 16.7436L11.8272 16.7173L11.7997 16.6905L11.7811 16.6637L11.7625 16.6439L11.7349 16.6171L11.7163 16.5908L11.688 16.5705L11.6701 16.5506L11.6419 16.5238L11.5867 16.4841L11.5585 16.4643L11.5405 16.4439L11.5123 16.4241L11.4847 16.4107L11.4571 16.3908L11.4289 16.3775L11.3923 16.3576L11.3641 16.3442L11.3365 16.3308L11.3089 16.311L11.2807 16.2976L11.2442 16.2842L11.2166 16.2773L11.1884 16.2643L11.1518 16.251L11.1236 16.244L11.096 16.2376L11.0588 16.2242L11.0312 16.2172L10.994 16.2108L10.9664 16.2043L10.9292 16.1974H10.9016L10.8644 16.1909H10.8272L10.7996 16.184Z" fill="black"/>
<path fill-rule="evenodd" clip-rule="evenodd" d="M16.0396 1.68573V1.68859H15.8496L15.8 1.69657H15.4782L15.4371 1.70514H15.2882L15.2472 1.71313H15.1565L15.1068 1.72113H15.0161L14.975 1.72913H14.8758L14.8347 1.73712H14.7936L14.744 1.74568H14.6944L14.6533 1.75367H14.6037L14.5626 1.76167H14.513L14.4308 1.77765H14.3812L14.3316 1.78622H14.2905L14.2494 1.79421L14.1998 1.8022H14.1501L14.1091 1.81019L14.0594 1.81819L14.0184 1.82676H13.9773L13.9277 1.83475L13.8866 1.84275L13.8369 1.85074L13.7959 1.85873H13.7548L13.7052 1.8673L13.6555 1.87528L13.5734 1.89128L13.5237 1.89927L13.4827 1.90784L13.4005 1.92382L13.3013 1.93981L13.2602 1.94838L13.2191 1.95636L13.1695 1.96436L13.0873 1.98034L13.0463 1.98891L12.9966 1.9969L12.9556 2.0049L12.9059 2.0129L12.8648 2.02945L12.7827 2.04544L12.7331 2.05343L12.692 2.06142L12.6509 2.07797L12.6099 2.08597L12.5602 2.09397L12.5191 2.10196L12.4781 2.11852L12.4284 2.12651L12.3874 2.14307L12.3463 2.15164L12.3052 2.15963L12.2641 2.17618L12.2145 2.18418L12.1734 2.19275L12.1324 2.2093L12.0913 2.21729L12.0416 2.23385L12.0006 2.24185L11.9595 2.2584L11.9184 2.2664L11.8774 2.28296L11.8363 2.29096L11.7867 2.30751L11.7456 2.32407L11.7045 2.33205L11.6634 2.34862L11.6223 2.35718L11.5402 2.39029L11.4906 2.39886L11.4575 2.41542L11.4079 2.43197L11.3668 2.44054L11.2436 2.49021L11.2025 2.49821L11.0382 2.56444L10.9971 2.57244L10.4631 2.78769L10.4301 2.80425L10.3804 2.8208L10.3473 2.83736L10.2241 2.88704L10.183 2.91158L10.1009 2.94471L10.0678 2.96126L9.98565 2.99437L9.94458 3.01893L9.86243 3.05204L9.82934 3.0686L9.78826 3.09315L9.70611 3.12627L9.67304 3.15082L9.59089 3.18393L9.5498 3.20848L9.50873 3.22504L9.47564 3.2496L9.39349 3.28271L9.3604 3.30727L9.31934 3.32382L9.27825 3.34837L9.24516 3.36493L9.2041 3.38948L9.16303 3.40604L9.12994 3.4306L9.08886 3.44715L9.04779 3.47171L9.0147 3.48826L8.97364 3.51282L8.93255 3.52937L8.89946 3.55392L8.85839 3.57847L8.8253 3.59504L8.78422 3.61958L8.75113 3.64414L8.71006 3.66069L8.669 3.68524L8.63591 3.7098L8.59482 3.72635L8.56173 3.75091L8.52067 3.77545L8.48758 3.80001L8.44651 3.81656L8.41342 3.84112L8.37234 3.86567L8.33925 3.89022L8.29818 3.90678L8.232 3.95588L8.19094 3.98043L8.15785 4.00498L8.11676 4.02954L8.08367 4.05408L8.0506 4.07064L8.00952 4.0952L7.97643 4.11975L7.93536 4.1443L7.86918 4.1934L7.82812 4.21796L7.76194 4.26706L7.72085 4.2916L7.6216 4.36527L7.58052 4.38981L7.54743 4.42293L7.48125 4.47203L7.44018 4.49659L7.34091 4.57023L7.29985 4.59479L7.26676 4.6279L7.1344 4.72611L7.09334 4.75923L6.99407 4.83288L6.96098 4.866L6.8948 4.9151L6.86171 4.94822L6.79555 4.99733L6.76246 5.03044L6.69628 5.07953L6.66319 5.11266L6.59701 5.16176L6.53083 5.22799L6.46467 5.27709L6.43158 5.30964L6.39849 5.3342L6.3654 5.36731L6.33231 5.39186L6.2416 5.48264L6.20851 5.5072L6.14234 5.57342L6.10925 5.59797L6.01856 5.68875L5.98547 5.72131L5.95238 5.74585L5.92785 5.77897L5.89476 5.81208L5.86167 5.83664L5.82858 5.86975L5.80405 5.90287L5.77096 5.92742L5.73787 5.96053L5.71334 5.99366L5.68025 6.02677L5.64718 6.05132L5.62265 6.08443L5.49885 6.20834L5.47432 6.24145L5.40814 6.30769L5.38361 6.34023L5.35052 6.36478L5.32599 6.40589L5.2929 6.43044L5.26836 6.46299L5.23528 6.4961L5.21074 6.52922L5.17765 6.56234L5.15314 6.59545L5.12005 6.62799L5.07099 6.69423L5.0379 6.72734L5.01337 6.76045L4.98028 6.79358L4.93122 6.8598L4.89813 6.89293L4.8736 6.92604L4.84051 6.95915L4.76692 7.0585L4.73383 7.09162L4.7093 7.12417L4.68477 7.15728L4.66024 7.19839L4.62715 7.2315L4.55355 7.33085L4.52048 7.36397L4.49595 7.39709L4.47142 7.43819L4.42236 7.50442L4.39783 7.53697L4.3733 7.57009L4.34021 7.6112L4.26662 7.71053L4.24209 7.75165L4.21755 7.7842L4.19302 7.81731L4.16849 7.85842L4.11943 7.92466L4.0949 7.96576L4.07037 7.99888L4.04584 8.03142L4.02131 8.07253L3.99678 8.10565L3.97225 8.14676L3.95571 8.17987L3.93116 8.21299L3.90665 8.2541L3.88212 8.28721L3.85759 8.31976L3.80853 8.40198L3.79197 8.43509L3.76744 8.46821L3.74291 8.50932L3.71838 8.54244L3.69385 8.58355L3.67731 8.61666L3.65278 8.65777L3.62825 8.69031L3.6117 8.73143L3.58716 8.76455L3.56263 8.80566L3.5461 8.83877L3.49704 8.92099L3.48048 8.95411L3.43144 9.03632L3.41489 9.06943L3.39035 9.11055L3.37382 9.14366L3.34929 9.18477L3.33273 9.21788L3.3082 9.25899L3.29167 9.3001L3.26714 9.33322L3.25058 9.37433L3.22605 9.41544L3.20952 9.45655L3.18499 9.48966L3.16845 9.53077L3.1439 9.57188L3.12737 9.60501L3.11083 9.6461L3.0863 9.68722L3.06975 9.72833L3.05321 9.76145L3.02868 9.80255L2.99559 9.88477L2.97106 9.91789L2.92141 10.0412L2.8969 10.0823L2.88035 10.1234L2.86381 10.1566L2.81417 10.2799L2.78964 10.321L2.72346 10.4854L2.70693 10.5185L2.47532 11.0941L2.46676 11.1352L2.40058 11.2996L2.39258 11.3407L2.34296 11.4641L2.33498 11.5052L2.31843 11.5548L2.30189 11.596L2.2939 11.6371L2.26081 11.7193L2.25283 11.7604L2.21974 11.8426L2.21175 11.8837L2.19521 11.9334L2.18722 11.9745L2.17068 12.0156L2.16212 12.0567L2.14557 12.0978L2.13701 12.1389L2.12047 12.1886L2.11248 12.2297L2.09594 12.2708L2.08797 12.3119L2.07941 12.3531L2.06285 12.4027L2.05429 12.4438L2.03776 12.4849L2.02976 12.5261L2.02179 12.5757L2.00523 12.6168L1.99667 12.6579L1.9887 12.6991L1.9807 12.7487L1.96417 12.7898L1.95561 12.8309L1.94761 12.8806L1.93964 12.9217L1.93108 12.9628L1.91452 13.004L1.90655 13.0536L1.89855 13.0947L1.88999 13.1358L1.88202 13.1855L1.87346 13.2266L1.86548 13.2763L1.85749 13.3174L1.84893 13.3585L1.84093 13.4082L1.83239 13.4493L1.8244 13.4904L1.81642 13.5401L1.80786 13.5812L1.79986 13.6223L1.79131 13.672L1.78333 13.7131L1.77533 13.7628L1.76677 13.8039L1.7588 13.845V13.8947L1.75024 13.9358L1.74224 13.9854L1.73427 14.0265L1.72571 14.0762V14.1173L1.71771 14.167L1.70915 14.2081L1.70118 14.2492V14.2989L1.69318 14.3486L1.68462 14.3897V14.4308L1.67665 14.4805V14.5216L1.66809 14.5712L1.66009 14.6124V14.662L1.65212 14.7031V14.7528L1.64356 14.7939V14.8436L1.63556 14.8933V14.9344L1.627 14.9841V15.0748L1.61903 15.1159V15.2067L1.61103 15.2564V15.3472L1.60247 15.3969V15.5288L1.5945 15.5784V15.8593L1.58594 15.9005V16.2722L1.5945 16.3218V16.6027L1.60247 16.6439V16.7843L1.61103 16.834V16.9248L1.61903 16.9659V17.0652L1.627 17.1063V17.1971L1.63556 17.2468V17.2879L1.64356 17.3376V17.3787L1.65212 17.4283V17.4695L1.66009 17.5191V17.5602L1.66809 17.6099L1.67665 17.651V17.7007L1.68462 17.7418V17.7915L1.69318 17.8326L1.70118 17.8823V17.9234L1.70915 17.973L1.71771 18.0142L1.72571 18.0638V18.1049L1.73427 18.146L1.74224 18.1957L1.75024 18.2368V18.2865L1.7588 18.3276L1.76677 18.3773L1.77533 18.4184L1.78333 18.4681L1.79131 18.5092L1.79986 18.5503L1.80786 18.6L1.81642 18.6411L1.8244 18.6822L1.83239 18.7319L1.84093 18.773L1.84893 18.8226L1.85749 18.8638L1.86548 18.9049L1.87346 18.9545L1.88202 18.9956L1.88999 19.0368L1.89855 19.0864L1.91452 19.1687L1.93108 19.2183L1.93964 19.2594L1.95561 19.3417L1.96417 19.3913L1.9807 19.4324L1.99667 19.5147L2.00523 19.5643L2.02179 19.6054L2.02976 19.6466L2.03776 19.6962L2.05429 19.7373L2.06285 19.7784L2.07941 19.8196L2.08797 19.8692L2.09594 19.9103L2.11248 19.9514L2.12047 19.9926L2.13701 20.0337L2.14557 20.0748L2.16212 20.1244L2.17068 20.1656L2.18722 20.2067L2.19521 20.2478L2.21175 20.2889L2.21974 20.33L2.23628 20.3797L2.25283 20.4208L2.26081 20.4619L2.2939 20.5441L2.30189 20.5852L2.33498 20.6674L2.34296 20.7085L2.35949 20.7582L2.39258 20.8404L2.40058 20.8815L2.46676 21.046L2.47532 21.0871L2.69039 21.6215L2.70693 21.6546L2.78964 21.8602L2.81417 21.9013L2.83073 21.9424L2.84726 21.9755L2.8969 22.0988L2.92141 22.1399L2.9545 22.2222L2.97106 22.2553L2.99559 22.2964L3.02868 22.3786L3.05321 22.4112L3.0863 22.4934L3.11083 22.5345L3.12737 22.5676L3.1439 22.6087L3.16845 22.6498L3.18499 22.6829L3.20952 22.724L3.22605 22.7651L3.25058 22.7983L3.26714 22.8394L3.29167 22.8805L3.3082 22.9216L3.33273 22.9547L3.34929 22.9958L3.37382 23.0289L3.39035 23.0701L3.41489 23.1112L3.43144 23.1443L3.45597 23.1854L3.48048 23.2185L3.49704 23.2596L3.52157 23.3007L3.5461 23.3338L3.56263 23.3749L3.58716 23.4081L3.6117 23.4492L3.62825 23.4817L3.67731 23.5639L3.69385 23.597L3.71838 23.6302L3.74291 23.6713L3.76744 23.7044L3.79197 23.7455L3.80853 23.7786L3.83306 23.8197L3.85759 23.8523L3.88212 23.8934L3.93116 23.9596L3.95571 24.0007L3.98024 24.0338L3.99678 24.0749L4.04584 24.1412L4.07037 24.1823L4.11943 24.2485L4.14396 24.2896L4.19302 24.3559L4.21755 24.397L4.29115 24.4963L4.31568 24.5374L4.34877 24.5705L4.3733 24.6037L4.39783 24.6448L4.49595 24.7772L4.52902 24.8183L4.55355 24.8515L4.57808 24.884L4.62715 24.9502L4.66024 24.9834L4.68477 25.0165L4.7093 25.0576L4.73383 25.0907L4.76692 25.1238L4.81598 25.19L4.84907 25.2232L4.8736 25.2557L4.89813 25.2888L4.93122 25.3219L4.98028 25.3882L5.01337 25.4207L5.0379 25.4538L5.07099 25.4869L5.12005 25.5532L5.15314 25.5863L5.17765 25.6194L5.21074 25.6525L5.23528 25.6856L5.26836 25.7188L5.2929 25.7519L5.32599 25.7764L5.35052 25.8095L5.4167 25.8758L5.44123 25.9089L5.46576 25.9334L5.49885 25.9745L5.53194 25.9991L5.55647 26.0322L5.71334 26.1892L5.73787 26.2223L5.77096 26.2469L5.80807 26.284C5.82827 26.9993 5.74089 27.5863 5.66992 28.0629C5.57762 28.6827 5.51311 29.116 5.74915 29.4021C6.24935 30.0042 8.00998 29.4548 9.38654 28.8944L9.39349 28.8996L9.47564 28.9327L9.51673 28.9573L9.5498 28.9738L9.59089 28.9904L9.63195 29.0149L9.66504 29.0315L9.70611 29.048L9.74719 29.0726L9.78826 29.0892L9.82135 29.1057L9.86243 29.1303L9.98565 29.1799L10.0267 29.2045L10.0598 29.221L10.2241 29.2873L10.2652 29.3118L10.3473 29.3449L10.3804 29.3615L10.9144 29.5768L10.9555 29.5853L11.1608 29.6681L11.2019 29.6761L11.3251 29.7258L11.3662 29.7338L11.4484 29.7669L11.498 29.7834L11.5391 29.792L11.5801 29.8086L11.6212 29.8166L11.7034 29.8497L11.7444 29.8577L11.7941 29.8742L11.8351 29.8822L11.9173 29.9153L11.9584 29.9233L11.9994 29.9399L12.0491 29.9479L12.0821 29.9564L12.1318 29.973L12.1729 29.981L12.2139 29.9976L12.255 30.0056L12.3046 30.0221L12.3457 30.0301L12.3868 30.0387L12.4279 30.0552L12.4775 30.0632L12.5186 30.0712L12.5596 30.0878L12.6093 30.0958L12.6914 30.1118L12.7325 30.1283L12.7736 30.1363L12.8232 30.1443L12.8643 30.1523L12.9139 30.1608L12.955 30.1774L13.0371 30.1934L13.0868 30.202L13.1689 30.2179L13.2185 30.2259L13.2596 30.2339L13.3093 30.2425L13.4325 30.2665L13.4821 30.2745L13.5232 30.283L13.5728 30.291L13.6139 30.299L13.6635 30.307L13.7046 30.315H13.7457L13.7953 30.3236L13.8364 30.3316L13.886 30.3396L13.9271 30.3476H13.9767L14.0178 30.3556L14.0589 30.3641L14.1085 30.3721H14.1496L14.2488 30.3881H14.2899L14.331 30.3961L14.3806 30.4047H14.4302L14.4713 30.4127H14.5124L14.562 30.4206H14.6031L14.6527 30.4286H14.6938L14.7434 30.4366H14.7845L14.8341 30.4452H14.8752L14.9249 30.4532H15.0155L15.0652 30.4612H15.1063L15.1559 30.4692H15.2962L15.3459 30.4772H15.4776L15.5273 30.4857H16.4514L16.5011 30.4772H16.6329L16.6825 30.4692H16.8228L16.8639 30.4612H16.9135L16.9632 30.4532H17.0539L17.0949 30.4452H17.1446L17.1857 30.4366H17.2353L17.2763 30.4286H17.326L17.3671 30.4206H17.4167L17.4578 30.4127H17.5074L17.5485 30.4047H17.5981L17.6477 30.3961L17.6888 30.3881H17.7299L17.7795 30.3801L17.8206 30.3721H17.8702L17.9113 30.3641L17.9609 30.3556L18.002 30.3476H18.0516L18.1338 30.3316L18.1834 30.3236L18.2245 30.315H18.2656L18.3648 30.299L18.447 30.283L18.488 30.2745L18.5873 30.2585L18.6695 30.2425L18.7191 30.2339L18.8423 30.21L18.892 30.202L18.933 30.1934L18.9827 30.1854L19.0237 30.1774L19.0648 30.1608L19.1059 30.1523L19.1555 30.1443L19.1966 30.1363L19.2462 30.1283L19.2873 30.1118L19.4105 30.0878L19.4601 30.0712L19.5423 30.0552L19.5834 30.0387L19.633 30.0301L19.6741 30.0221L19.7152 30.0056L19.7648 29.9976L19.7979 29.981L19.8475 29.973L19.8886 29.9564L19.9296 29.9479L19.9707 29.9399L20.0204 29.9233L20.0614 29.9153L20.1436 29.8822L20.1847 29.8742L20.2343 29.8577L20.2754 29.8497L20.3575 29.8166L20.3986 29.8086L20.4397 29.792L20.4807 29.7834L20.604 29.7338L20.6536 29.7258L20.7768 29.6761L20.8179 29.6681L21.0233 29.5853L21.0643 29.5768L21.4751 29.4112L21.5082 29.3946L21.5578 29.3781L21.5909 29.3615L21.7141 29.3118L21.7552 29.2873L21.7963 29.2707L21.8294 29.2542L21.8704 29.2376L21.92 29.221L21.9531 29.2045L21.9942 29.1799L22.0353 29.1634L22.0684 29.1468L22.1094 29.1303L22.1505 29.1057L22.2327 29.0726L22.2737 29.048L22.3148 29.0315L22.3479 29.0149L22.389 28.9904L22.43 28.9738L22.4631 28.9573L22.5042 28.9327L22.5453 28.9161L22.5784 28.8996L22.6195 28.875L22.6605 28.8585L22.7016 28.8339L22.7347 28.8174L22.7758 28.7928L22.8168 28.7763L22.8499 28.7517L22.891 28.7352L22.9321 28.7106L22.9652 28.6861L23.0062 28.6695L23.0393 28.6449L23.0804 28.6284L23.1215 28.6038L23.1546 28.5873L23.1956 28.5627L23.2287 28.5382L23.2698 28.5136L23.3029 28.4971L23.344 28.4725L23.377 28.448L23.4181 28.4314L23.4592 28.4069L23.4923 28.3823L23.5254 28.3657L23.6075 28.3166L23.6737 28.2675L23.7148 28.251L23.7479 28.2264L23.7889 28.2019L23.822 28.1773L23.8631 28.1528L23.9293 28.1037L23.9704 28.0791L24.0034 28.0626L24.0365 28.038L24.0776 28.0135L24.1438 27.9644L24.1848 27.9312L24.2179 27.9147L24.251 27.8901L24.2921 27.8656L24.3252 27.841L24.3583 27.8079L24.3914 27.7834L24.4324 27.7588L24.4986 27.7097L24.5397 27.6851L24.639 27.6115L24.672 27.5784L24.7051 27.5538L24.7462 27.5293L24.8124 27.4802L24.8455 27.4476L24.9116 27.3985L24.9527 27.374L24.9858 27.3409L25.052 27.2918L25.0851 27.2586L25.1512 27.2095L25.1843 27.1764L25.2505 27.1273L25.2836 27.0942L25.3498 27.0451L25.3828 27.012L25.4159 26.9874L25.449 26.9549L25.4821 26.9303L25.5152 26.8972L25.5483 26.8727L25.639 26.7819L25.6721 26.7573L25.7052 26.7242L25.7383 26.6997L25.7714 26.6671L25.8044 26.6426L25.9282 26.5187L25.9613 26.4941L26.2996 26.1555L26.3241 26.1224L26.3572 26.0979L26.3903 26.0648L26.4148 26.0316L26.481 25.9654L26.5056 25.9323L26.5386 25.9077L26.5632 25.8746L26.5963 25.8415L26.6208 25.8084L26.7446 25.6845L26.7936 25.6183L26.8267 25.5851L26.8513 25.552L26.8843 25.5189L26.9089 25.4858L26.942 25.4527L26.9665 25.4196L26.991 25.387L27.0241 25.3539L27.0486 25.3208L27.0817 25.2877L27.1063 25.2546L27.1308 25.222L27.1553 25.1889L27.1884 25.1558L27.2375 25.0895L27.2706 25.0564L27.2951 25.0153L27.3441 24.9491L27.3772 24.916L27.4018 24.8829L27.4263 24.8503L27.4508 24.8172L27.4754 24.7761L27.5084 24.743L27.5575 24.6767L27.582 24.6356L27.6066 24.6031L27.6556 24.5369L27.6802 24.4958L27.7133 24.4626L27.7623 24.3964L27.7868 24.3553L27.8359 24.2891L27.8604 24.248L27.9095 24.1817L27.926 24.1406L27.9751 24.0744L27.9996 24.0333L28.0242 24.0001L28.0487 23.959L28.0977 23.8928L28.1223 23.8517L28.1388 23.8191L28.1634 23.778L28.1879 23.7449L28.2124 23.7038L28.237 23.6707L28.2535 23.6296L28.278 23.5965L28.3026 23.5554L28.3271 23.5223L28.3436 23.4811L28.3682 23.4486L28.3927 23.4075L28.4172 23.3744L28.4338 23.3333L28.4583 23.3001L28.4748 23.259L28.4994 23.2179L28.5239 23.1848L28.5405 23.1437L28.565 23.1106L28.5895 23.0695L28.6061 23.0284L28.6306 22.9953L28.6471 22.9541L28.6716 22.921L28.6882 22.8799L28.7127 22.8388L28.7293 22.7977L28.7538 22.7646L28.7704 22.7235L28.7949 22.6824L28.8114 22.6492L28.828 22.6081L28.8525 22.567L28.869 22.5339L28.8856 22.4928L28.9101 22.4517L28.9267 22.4106L28.9432 22.378L28.9677 22.3369L29.0008 22.2547L29.0253 22.2216L29.075 22.0983L29.0995 22.0572L29.1326 21.9749L29.1491 21.9418L29.1822 21.8596L29.2068 21.8185L29.2729 21.6541L29.2895 21.6209L29.4715 21.1687L29.4795 21.1276L29.5622 20.9221L29.5707 20.881L29.6204 20.7576L29.6283 20.708L29.678 20.5846L29.686 20.5435L29.7025 20.5024L29.7105 20.4613L29.727 20.4202L29.7436 20.3705L29.7516 20.3294L29.7681 20.2883L29.7767 20.2472L29.7932 20.2061L29.8018 20.165L29.8183 20.1239L29.8349 20.0742L29.8434 20.0331L29.8514 19.992L29.868 19.9509L29.8759 19.9098L29.8925 19.8687L29.901 19.819L29.9176 19.7779L29.9261 19.7368L29.9341 19.6957L29.9507 19.646L29.9587 19.6049L29.9672 19.5638L29.9838 19.5141L29.9997 19.4319L30.0083 19.3908L30.0248 19.3411L30.0408 19.2589L30.0494 19.2177L30.0573 19.1681L30.0739 19.127L30.0819 19.0859L30.0904 19.0362L30.0984 18.9951L30.107 18.954L30.115 18.9043L30.1229 18.8632L30.1315 18.8221L30.1395 18.7724L30.1481 18.7313L30.156 18.6816L30.164 18.6405L30.1726 18.5994L30.1806 18.5497L30.1891 18.5086L30.1971 18.4675L30.2051 18.4178L30.2137 18.3767V18.327L30.2216 18.2859L30.2302 18.2363L30.2382 18.1952L30.2462 18.1455V18.1044L30.2547 18.0633L30.2627 18.0136L30.2713 17.9725V17.9228L30.2793 17.8817L30.2872 17.832V17.7909L30.2958 17.7412L30.3038 17.7001V17.6505L30.3123 17.6093V17.5597L30.3203 17.5186V17.4689L30.3283 17.4278V17.3781L30.3369 17.337V17.2873L30.3449 17.2462V17.1965L30.3534 17.1554V17.0561L30.3614 17.015V16.9653L30.3694 16.9242V16.7837L30.378 16.7426V16.6022L30.3859 16.5525V15.6275L30.378 15.5779V15.4374L30.3694 15.3963V15.2558L30.3614 15.2062V15.1651L30.3534 15.1154V15.0246L30.3449 14.9835V14.9338L30.3369 14.8927V14.843L30.3283 14.7934V14.7522L30.3203 14.7026V14.6615L30.3123 14.6118V14.5707L30.3038 14.521V14.4799L30.2958 14.4302L30.2872 14.3891V14.348L30.2713 14.2487V14.2075L30.2627 14.1664L30.2547 14.1168L30.2462 14.0757V14.026L30.2382 13.9849L30.2302 13.9352L30.2216 13.8941L30.2137 13.8444V13.8033L30.2051 13.7622L30.1971 13.7125L30.1891 13.6714L30.1806 13.6217L30.1726 13.5806L30.164 13.5395L30.156 13.4898L30.1481 13.4487L30.1395 13.4076L30.1315 13.358L30.1229 13.3168L30.115 13.2757L30.107 13.2261L30.0984 13.1849L30.0904 13.1353L30.0819 13.0942L30.0739 13.0531L30.0573 13.0034L30.0494 12.9623L30.0408 12.9212L30.0328 12.8801L30.0248 12.8304L30.0083 12.7893L29.9997 12.7482L29.9917 12.6985L29.9838 12.6574L29.9672 12.6163L29.9587 12.5752L29.9507 12.5255L29.9341 12.4844L29.9261 12.4433L29.9176 12.4021L29.901 12.3525L29.8925 12.3114L29.8759 12.2703L29.868 12.2291L29.8514 12.188L29.8434 12.1384L29.8349 12.0973L29.8183 12.0561L29.8097 12.015L29.7767 11.9328L29.7681 11.8832L29.7516 11.842L29.7436 11.8009L29.7105 11.7187L29.7025 11.6776L29.686 11.6365L29.678 11.5954L29.6614 11.5457L29.6283 11.4635L29.6204 11.4224L29.5707 11.2991L29.5622 11.2579L29.4795 11.0524L29.4715 11.0113L29.2564 10.4769L29.2399 10.4437L29.2068 10.3615L29.1822 10.3204L29.1161 10.156L29.0995 10.1229L29.075 10.0818L29.0253 9.95843L29.0008 9.91732L28.9843 9.8842L28.9677 9.84309L28.9432 9.80199L28.9267 9.76088L28.9101 9.72776L28.8856 9.68665L28.8525 9.60443L28.828 9.57131L28.8114 9.53021L28.7869 9.4891L28.7704 9.45597L28.7538 9.41486L28.7293 9.37377L28.7127 9.33266L28.6882 9.29953L28.6716 9.25842L28.6471 9.22531L28.6306 9.1842L28.6061 9.14309L28.5815 9.10998L28.565 9.06886L28.5405 9.03575L28.5239 8.99464L28.4994 8.95353L28.4748 8.92042L28.4583 8.87931L28.4338 8.8382L28.4172 8.80508L28.3927 8.76397L28.3682 8.73085L28.3436 8.68974L28.3271 8.6572L28.3026 8.61609L28.278 8.58298L28.2535 8.54187L28.237 8.50875L28.2124 8.46764L28.1634 8.4014L28.1468 8.3603L28.1223 8.31919L28.0977 8.28664L28.0732 8.25353L28.0487 8.21242L27.9996 8.14619L27.9751 8.10508L27.9506 8.07196L27.926 8.03085L27.9095 7.99831L27.885 7.9652L27.8604 7.92409L27.8114 7.85785L27.7868 7.81674L27.7623 7.78363L27.7378 7.75108L27.7047 7.70998L27.6311 7.61062L27.6066 7.56952L27.582 7.53639L27.5575 7.50385L27.5084 7.43762L27.4754 7.39651L27.3772 7.26404L27.3441 7.23093L27.3196 7.19782L27.2951 7.1567L27.2706 7.12359L27.2375 7.09104L27.1884 7.02482L27.1553 6.99169L27.1063 6.92546L27.0732 6.89235L27.0241 6.82612L26.991 6.79301L26.942 6.72677L26.9089 6.69366L26.8843 6.66054L26.8513 6.62742L26.8267 6.59488L26.7936 6.56177L26.7691 6.52864L26.736 6.49553L26.7115 6.46242L26.6784 6.42986L26.6208 6.3722L26.5963 6.33909L26.5632 6.30655L26.5386 6.27342L26.5056 6.24031L26.481 6.20719L26.4479 6.17408L26.4148 6.14953L26.3903 6.11642L26.2334 5.9594L26.2089 5.92627L26.1758 5.90173L26.1427 5.86861L26.1182 5.8355L26.0851 5.81094L25.9944 5.72016L25.9613 5.68761L25.9282 5.6545L25.8951 5.62994L25.7714 5.50605L25.7383 5.4815L25.7052 5.44839L25.6721 5.42383L25.5814 5.33305L25.5483 5.3085L25.5152 5.27596L25.449 5.22685L25.4159 5.19373L25.3828 5.16918L25.3498 5.13607L25.3167 5.11152L25.2836 5.0784L25.2174 5.02929L25.1843 4.99618L25.1182 4.94707L25.0851 4.91396L25.0189 4.86485L24.9858 4.83174L24.9447 4.80718L24.8786 4.75809L24.8455 4.72498L24.7131 4.62677L24.672 4.59365L24.5728 4.51999L24.5317 4.49544L24.4324 4.42179L24.3914 4.38867L24.3252 4.33957L24.251 4.2899L24.1848 4.24079L24.1438 4.21624L24.0776 4.16714L24.0365 4.14259L23.9704 4.09349L23.9293 4.06893L23.8962 4.05238L23.8631 4.02782L23.822 4.00327L23.7889 3.97872L23.7479 3.95417L23.7148 3.92962L23.6737 3.90506L23.6406 3.88851L23.5995 3.86396L23.5664 3.8394L23.5254 3.81486L23.4923 3.79829L23.4592 3.77374L23.4181 3.74919L23.344 3.70808L23.3029 3.68353L23.2698 3.65897L23.2287 3.64242L23.1956 3.61787L23.1546 3.59332L23.1215 3.57676L23.0393 3.52766L23.0062 3.5111L22.9652 3.48654L22.9241 3.46999L22.891 3.44543L22.8499 3.42888L22.8168 3.40433L22.7758 3.38777L22.7347 3.36323L22.7016 3.34666L22.6605 3.32211L22.6195 3.30556L22.5784 3.281L22.5453 3.26445L22.5042 3.24788L22.4711 3.22334L22.43 3.20678L22.389 3.18223L22.3068 3.14912L22.2737 3.12456L22.1916 3.09144L22.1505 3.06689L22.1094 3.05034L22.0764 3.03377L22.0353 3.01721L21.9942 2.99266L21.871 2.94299L21.8379 2.92643L21.7968 2.90988L21.7558 2.88532L21.5504 2.80253L21.5173 2.78597L21.4762 2.76942L21.4266 2.75286L21.3935 2.73631L20.9827 2.57072L20.9417 2.56273L20.7774 2.4965L20.7363 2.4885L20.6952 2.47194L20.6456 2.45539L20.6125 2.43883L20.5629 2.43027L20.4807 2.39715L20.4397 2.38859L20.3575 2.35547L20.3164 2.34691L20.2343 2.32235L20.1932 2.30579L20.1436 2.28924L20.1025 2.28124L20.0614 2.26468L20.0204 2.25669L19.9793 2.24013L19.9296 2.23214L19.8886 2.21559L19.8475 2.20759L19.8064 2.19104L19.7568 2.18247L19.7157 2.17448L19.6747 2.15792L19.6336 2.14992L19.5925 2.14135L19.5429 2.1248L19.5018 2.11681L19.4607 2.10024L19.37 2.08368L19.3289 2.0757L19.2879 2.05914L19.2468 2.05115L19.1972 2.04315L19.1561 2.03516L19.1065 2.02716L19.0654 2.01061L18.9832 1.99462L18.9336 1.98662L18.8515 1.97007L18.8018 1.96207L18.7607 1.95409L18.67 1.93753L18.629 1.92953L18.5793 1.92153L18.4972 1.90555L18.4475 1.89699L18.3654 1.88099L18.3158 1.87301L18.2747 1.86501L18.2251 1.85645H18.184L18.1429 1.84846L18.0437 1.83247L18.0026 1.82447H17.9615L17.9119 1.81591L17.8708 1.80791L17.8212 1.79992H17.7801L17.7305 1.79193L17.6894 1.78393H17.6483L17.5987 1.77536H17.549L17.4669 1.75881H17.4173L17.3676 1.75082H17.3266L17.2769 1.74282H17.2359L17.1862 1.73427H17.1452L17.0955 1.72627H17.0048L16.9637 1.71827H16.8645L16.8234 1.71028H16.7327L16.6831 1.70228H16.5427L16.452 1.69372H16.1799L16.1303 1.68573H16.0396ZM15.9574 4.63533V4.63704H16.3602L16.3933 4.64503H16.5827L16.6157 4.65303H16.723L16.7641 4.66103H16.8382L16.8713 4.66958H16.9455L16.9786 4.67758H17.0196L17.0527 4.68557H17.1269L17.16 4.69357H17.201L17.2341 4.70156H17.2672L17.3083 4.71012H17.3414L17.3825 4.71812H17.407L17.4481 4.72611H17.4892L17.5553 4.7421H17.5964L17.6295 4.75066H17.6626L17.6957 4.75866L17.7367 4.76665H17.7698L17.8029 4.77465L17.844 4.78264H17.8771L17.9102 4.7912L17.9512 4.7992L17.9843 4.80718H18.0174L18.0585 4.81518L18.0916 4.82318L18.1247 4.83174L18.1578 4.83973H18.1988L18.2981 4.86372L18.3392 4.87228L18.4053 4.88826H18.4384L18.4795 4.89626L18.5126 4.90425L18.5457 4.91281L18.6118 4.9288L18.6529 4.9368L18.686 4.9448L18.7191 4.95336L18.8515 4.98533L18.8925 5.00189L18.9918 5.02587L19.0249 5.03443L19.058 5.04243L19.099 5.05042L19.1321 5.05841L19.1567 5.07497L19.1977 5.08297L19.297 5.10695L19.3301 5.1235L19.3963 5.13949L19.4373 5.15605L19.5366 5.18003L19.5611 5.19658L19.6022 5.20458L19.6353 5.21257L19.6684 5.22914L19.7015 5.23769L19.7345 5.25425L19.8007 5.27025L19.8338 5.2868L19.8669 5.29479L19.9 5.31135L19.9331 5.31992L19.9662 5.33647L19.9993 5.34447L20.0323 5.36102L20.0654 5.36901L20.0985 5.38558L20.1316 5.39357L20.1647 5.41012L20.1978 5.41812L20.2309 5.43468L20.264 5.44325L20.3301 5.47636L20.3547 5.48492L20.3877 5.50149L20.4208 5.50947L20.487 5.5426L20.5201 5.55058L20.5863 5.58369L20.6108 5.59169L20.7101 5.64136L20.7432 5.64993L20.8093 5.68304L20.8339 5.6996L20.8669 5.7076L20.9662 5.75727L20.9907 5.77384L21.0238 5.79039L21.0569 5.79838L21.1231 5.8315L21.1476 5.84806L21.2469 5.89773L21.2714 5.91428L21.3707 5.96397L21.3952 5.97195L21.4283 5.99651L21.4614 6.01306L21.4859 6.02963L21.5521 6.06274L21.5766 6.0793L21.6097 6.09585L21.6342 6.11241L21.7335 6.16209L21.758 6.17865L21.7911 6.1952L21.8157 6.21176L21.8487 6.23632L21.8818 6.25287L21.9064 6.26943L21.9395 6.28598L21.964 6.30254L21.9971 6.31911L22.0302 6.34365L22.0547 6.36021L22.0878 6.37677L22.1123 6.39333L22.1454 6.41789L22.1699 6.43444L22.203 6.451L22.2275 6.46756L22.2606 6.49211L22.2852 6.50866L22.3182 6.52522L22.3428 6.54977L22.3759 6.56633L22.4004 6.58289L22.4335 6.60744L22.458 6.624L22.4911 6.64056L22.5156 6.66511L22.5487 6.68167L22.5732 6.69822L22.5978 6.72277L22.6309 6.73933L22.6554 6.76388L22.6885 6.78044L22.713 6.805L22.7375 6.82155L22.7706 6.84611L22.7952 6.86266L22.8282 6.88722L22.8528 6.90377L22.8773 6.92831L22.9018 6.94488L22.9349 6.96943L22.9595 6.98598L22.9926 7.01054L23.0171 7.0271L23.0416 7.05165L23.0661 7.0682L23.0992 7.09276L23.1238 7.11731L23.1483 7.13387L23.1728 7.15842L23.2059 7.18298L23.2304 7.19953L23.255 7.22408L23.2795 7.24064L23.3126 7.26518L23.3371 7.28974L23.3616 7.3063L23.3862 7.33085L23.4193 7.35541L23.4438 7.37196L23.5174 7.44561L23.5419 7.46217L23.5664 7.48673L23.5995 7.51128L23.6486 7.56037L23.6731 7.57693L23.7958 7.69969L23.8203 7.71624L23.8534 7.7408L23.8699 7.76536L23.903 7.78991L23.9276 7.81446L23.9441 7.839L23.9772 7.86356L24.3126 8.19929L24.3292 8.22384L24.3537 8.24839L24.3782 8.2815L24.4028 8.29806L24.4273 8.33117L24.4518 8.35573L24.4684 8.38029L24.5665 8.47849L24.583 8.50305L24.6076 8.5276L24.6321 8.56014L24.6566 8.58469L24.6732 8.60924L24.7468 8.6829L24.7633 8.71601L24.8124 8.76511L24.8289 8.78966L24.8534 8.81422L24.878 8.84733L24.8945 8.87188L24.919 8.89644L24.9436 8.92898L24.9601 8.95353L24.9847 8.97808L25.0012 9.00264L25.0257 9.03575L25.0423 9.06031L25.0668 9.08485L25.0913 9.11797L25.1079 9.14252L25.1324 9.16707L25.149 9.20018L25.1735 9.22474L25.19 9.24929L25.2146 9.28241L25.2311 9.30696L25.2556 9.33151L25.2722 9.36462L25.2967 9.38918L25.3132 9.42229L25.3298 9.44685L25.3543 9.4714L25.3709 9.50451L25.3954 9.52906L25.4119 9.56218L25.4285 9.58673L25.453 9.61985L25.4696 9.6444L25.4941 9.66895L25.5106 9.70207L25.5272 9.72662L25.5437 9.75973L25.5683 9.78429L25.5848 9.8174L25.6013 9.84196L25.6259 9.87507L25.6424 9.90818L25.6755 9.95729L25.7 9.9904L25.7166 10.0235L25.7331 10.0481L25.7497 10.0806L25.7662 10.1052L25.7907 10.1383L25.8073 10.1714L25.8238 10.1959L25.8404 10.2291L25.8569 10.2536L25.8735 10.2867L25.898 10.3198L25.9145 10.3444L25.9476 10.4106L25.9642 10.4352L25.9807 10.4683L25.9973 10.4929L26.0303 10.5591L26.0469 10.5836L26.0634 10.6162L26.08 10.6493L26.0965 10.6738L26.1131 10.707L26.1296 10.7395L26.1461 10.7726L26.1627 10.7972L26.1792 10.8303L26.1958 10.8628L26.2123 10.8959L26.2289 10.9205L26.2454 10.9536L26.262 10.9862L26.2699 11.0193L26.2865 11.0524L26.303 11.0769L26.3196 11.1095L26.3527 11.1757L26.3612 11.2088L26.3778 11.2334L26.4274 11.3327L26.4354 11.3659L26.4519 11.3904L26.4685 11.4315L26.4765 11.4561L26.493 11.4892L26.5096 11.5217L26.5175 11.5548L26.5506 11.6211L26.5586 11.6542L26.5751 11.6787L26.5917 11.7119L26.5997 11.745L26.6162 11.7781L26.6242 11.8106L26.6573 11.8769L26.6653 11.91L26.6818 11.9431L26.6904 11.9762L26.7069 12.0093L26.7155 12.0425L26.732 12.0756L26.74 12.1087L26.7566 12.1418L26.7645 12.1749L26.7811 12.208L26.7891 12.2411L26.7976 12.2743L26.8142 12.3068L26.8222 12.3399L26.8387 12.373L26.8467 12.4062L26.8553 12.4393L26.8718 12.4724L26.8803 12.5055L26.8883 12.5386L26.9049 12.5717L26.9129 12.6049L26.9214 12.638L26.938 12.6711L26.946 12.7042L26.9539 12.7453L26.9625 12.7784L26.9791 12.8115L26.987 12.8441L26.995 12.8772L27.0036 12.9103L27.0116 12.9434L27.0281 12.9765L27.0361 13.0097L27.0447 13.0508L27.0526 13.0839L27.0612 13.117L27.0772 13.1832L27.0857 13.2158L27.0937 13.2489L27.1023 13.29L27.1182 13.3562L27.1348 13.3894L27.1434 13.4225V13.4556L27.1513 13.4967L27.1593 13.5298L27.1679 13.5629L27.1759 13.596L27.1844 13.6371L27.2004 13.7034L27.209 13.7365L27.2169 13.7696L27.2255 13.8107L27.2335 13.8438V13.8764L27.2415 13.9175L27.25 13.9506L27.258 13.9837L27.2666 14.0168V14.058L27.2745 14.0911L27.2825 14.1236L27.2911 14.1567V14.1978L27.2991 14.231L27.3076 14.2641V14.3052L27.3156 14.3383L27.3236 14.3708V14.412L27.3322 14.4451L27.3402 14.4782V14.5193L27.3487 14.5524V14.5855L27.3567 14.6266V14.6592L27.3647 14.6923L27.3733 14.7334V14.7665L27.3812 14.7996V14.8739L27.3898 14.915V14.9481L27.3978 14.9812V15.0223L27.4058 15.0554V15.1297L27.4143 15.1628V15.237L27.4223 15.2781V15.3443L27.4309 15.3854V15.4928L27.4389 15.5339V15.7149L27.4468 15.748V16.416L27.4389 16.4571V16.6387L27.4309 16.6798V16.7872L27.4223 16.8203V16.8945L27.4143 16.9356V17.0013L27.4058 17.0424V17.1166L27.3978 17.1497V17.1908L27.3898 17.224V17.2565L27.3812 17.2976V17.3638L27.3733 17.4049V17.4381L27.3647 17.4712L27.3567 17.5123V17.5454L27.3487 17.5785V17.6196L27.3402 17.6527V17.6938L27.3322 17.727L27.3236 17.7601V17.7932L27.3156 17.8343L27.3076 17.8674V17.9005L27.2991 17.9417L27.2911 17.9748V18.0079L27.2825 18.049L27.2666 18.1152V18.1483L27.258 18.1895L27.25 18.2226L27.2415 18.2557L27.2335 18.2968V18.3299L27.2255 18.363L27.2169 18.3961L27.209 18.4293L27.2004 18.4704L27.1924 18.5035L27.1844 18.536L27.1759 18.5691L27.1679 18.6102L27.1593 18.6434L27.1513 18.6765V18.7096L27.1434 18.7427L27.1348 18.7838L27.1182 18.8169L27.1023 18.8832L27.0937 18.9163L27.0857 18.9488L27.0772 18.9899L27.0612 19.0562L27.0526 19.0893L27.0447 19.1224L27.0361 19.1555L27.0281 19.1886L27.0116 19.2297L27.0036 19.2629L26.995 19.296L26.9791 19.3622L26.9625 19.3953L26.9539 19.4284L26.946 19.4616L26.938 19.5027L26.9214 19.5358L26.9129 19.5683L26.9049 19.6014L26.8883 19.6346L26.8803 19.6677L26.8718 19.7008L26.8553 19.7339L26.8467 19.767L26.8387 19.8001L26.8222 19.8333L26.8142 19.8664L26.7976 19.8995L26.7891 19.9326L26.7811 19.9657L26.7645 19.9988L26.7566 20.0319L26.74 20.0651L26.732 20.0982L26.7155 20.1313L26.7069 20.1644L26.6904 20.1975L26.6818 20.2301L26.6653 20.2632L26.6573 20.2963L26.6242 20.3625L26.6162 20.3957L26.5997 20.4202L26.5917 20.4533L26.5586 20.5196L26.5506 20.5527L26.5175 20.6189L26.5096 20.652L26.493 20.6851L26.4765 20.7097L26.4685 20.7428L26.4354 20.809L26.4274 20.8421L26.3943 20.9084L26.3778 20.9329L26.3612 20.966L26.3527 20.9992L26.3196 21.0654L26.303 21.0899L26.2699 21.1562L26.262 21.1893L26.2454 21.2138L26.1792 21.3463L26.1627 21.3709L26.1296 21.4371L26.1131 21.4616L26.0634 21.561L26.0469 21.5855L26.0138 21.6518L25.9973 21.6763L25.9642 21.7426L25.9476 21.7671L25.9311 21.7997L25.9145 21.8328L25.898 21.8573L25.8735 21.8904L25.8569 21.923L25.8404 21.9475L25.8238 21.9807L25.8073 22.0052L25.7907 22.0383L25.7662 22.0714L25.7497 22.096L25.7331 22.1291L25.7166 22.1537L25.7 22.1868L25.6755 22.2113L25.659 22.2444L25.6424 22.269L25.6259 22.3021L25.6013 22.3267L25.5848 22.3598L25.5683 22.3843L25.5517 22.4169L25.5272 22.4414L25.5106 22.4745L25.4941 22.4991L25.4696 22.5322L25.453 22.5567L25.4285 22.5899L25.3954 22.639L25.3709 22.6721L25.3543 22.6966L25.3298 22.7298L25.3132 22.7543L25.2887 22.7874L25.2556 22.8365L25.2311 22.8696L25.2146 22.8942L25.19 22.9273L25.1735 22.9519L25.149 22.9764L25.1324 23.0095L25.0833 23.0586L25.0668 23.0917L25.0423 23.1163L25.0257 23.1408L25.0012 23.1654L24.9847 23.1979L24.9601 23.2225L24.9436 23.247L24.919 23.2802L24.8945 23.3047L24.878 23.3293L24.8289 23.3784L24.8124 23.4115L24.7633 23.4606L24.7468 23.4851L24.7222 23.5097L24.6977 23.5428L24.6732 23.5674L24.6566 23.5919L24.6076 23.641L24.583 23.6741L24.5665 23.6987L24.4929 23.7723L24.4764 23.7969L24.3782 23.8951L24.3537 23.9282L24.3126 23.9693L24.2881 24.0024L24.2636 24.027L24.239 24.0435L24.1655 24.1172L24.1409 24.1503L24.0753 24.216L24.0422 24.2405L24.0177 24.2651L24.0012 24.2896L23.903 24.3878L23.8699 24.4124L23.8454 24.4369L23.8209 24.4535L23.6982 24.5763L23.6737 24.5928L23.6001 24.6665L23.567 24.691L23.5425 24.7076L23.4689 24.7812L23.4444 24.7978L23.4198 24.8223L23.3868 24.8469L23.3622 24.8634L23.3132 24.9126L23.2801 24.9291L23.231 24.9782L23.2065 24.9948L23.1819 25.0193L23.1489 25.0359L23.0998 25.085L23.0667 25.1015L23.0422 25.1261L23.0176 25.1426L22.9846 25.1672L22.96 25.1918L22.9355 25.2083L22.911 25.2329L22.8779 25.2494L22.8534 25.274L22.8288 25.2905L22.7957 25.3151L22.7712 25.3316L22.7381 25.3562L22.6891 25.3893L22.656 25.4139L22.6314 25.4304L22.5983 25.455L22.5738 25.4715L22.5407 25.4961L22.4917 25.5292L22.4586 25.5537L22.4095 25.5869L22.3764 25.6114L22.3433 25.628L22.3188 25.6445L22.2857 25.6691L22.2367 25.7022L22.2036 25.7267L22.1705 25.7433L22.146 25.7599L22.1129 25.7764L22.0883 25.801L22.0222 25.8341L21.9976 25.8506L21.9645 25.8752L21.94 25.8918L21.9069 25.9083L21.8824 25.9249L21.8162 25.958L21.7917 25.9825L21.7586 25.9991L21.7341 26.0157L21.6679 26.0488L21.6434 26.0653L21.5772 26.0984L21.5527 26.115L21.4865 26.1481L21.462 26.1647L21.3958 26.1978L21.3713 26.2143L21.272 26.264L21.2475 26.2806L21.1482 26.3303L21.1237 26.3468L21.0906 26.3634L21.0575 26.3719L20.9913 26.405L20.9668 26.4216L20.9006 26.4547L20.8675 26.4627L20.843 26.4793L20.7437 26.529L20.7106 26.5375L20.6775 26.5541L20.653 26.5706L20.6199 26.5792L20.5789 26.5957L20.5543 26.6123L20.5212 26.6209L20.422 26.6706L20.3889 26.6785L20.3558 26.6951L20.3227 26.7037L20.2982 26.7202L20.2651 26.7368L20.232 26.7454L20.1989 26.7619L20.1658 26.7699L20.1327 26.7865L20.0997 26.7944L20.0666 26.811L20.0335 26.819L20.0004 26.8356L19.9673 26.8436L19.9342 26.8601L19.9011 26.8687L19.868 26.8852L19.8019 26.9012L19.7688 26.9178L19.7357 26.9258L19.7026 26.9423L19.6695 26.9509L19.6364 26.9589L19.6033 26.9754L19.5703 26.9834L19.5372 26.992L19.4961 27.0086L19.4716 27.0166L19.4385 27.0245L19.3974 27.0411L19.2981 27.0651L19.265 27.0816L19.1658 27.1056L19.1327 27.1142L19.0916 27.1307L19.0255 27.1467L18.9924 27.1553L18.86 27.1873L18.8189 27.1958L18.6866 27.2278L18.6455 27.2444H18.6124L18.5793 27.2524L18.5463 27.2689H18.5132L18.4801 27.2775L18.439 27.2855L18.3728 27.3015L18.3317 27.3095L18.2987 27.318L18.2325 27.334H18.1914L18.1252 27.35L18.0921 27.3586L18.0511 27.3666H18.018L17.9518 27.3825L17.9107 27.3905H17.8776L17.8446 27.3991L17.8115 27.4071H17.7704L17.7042 27.4231H17.6631L17.63 27.4311L17.589 27.4396H17.5559L17.5228 27.4476H17.4897L17.4486 27.4556H17.4156L17.3825 27.4636L17.3414 27.4716H17.3083L17.2672 27.4802H17.201L17.16 27.4882H17.1269L17.0858 27.4962H17.0527L17.0196 27.5042H16.9455L16.9124 27.5121H16.8382L16.7972 27.5207H16.723L16.6899 27.5287H16.5827L16.5416 27.5367H16.3602L16.3271 27.5447H15.6516L15.6186 27.5367H15.4371L15.3961 27.5287H15.2888L15.2557 27.5207H15.1736L15.1405 27.5121H15.1074L15.0332 27.5042H14.9591L14.8108 27.4882L14.7777 27.4802H14.7035L14.6704 27.4716H14.6373L14.5963 27.4636L14.5632 27.4556H14.5301L14.489 27.4476H14.4559L14.4148 27.4396H14.3818L14.3487 27.4311L14.3156 27.4231H14.2745L14.2083 27.4071H14.1673L14.1342 27.3991L14.1011 27.3905H14.068L14.0269 27.3825L13.9607 27.3666H13.9197L13.8866 27.3586L13.8535 27.35L13.8124 27.342L13.7793 27.334H13.7462L13.6806 27.3174L13.6396 27.3089L13.6065 27.3009L13.5323 27.2843L13.4992 27.2763L13.4661 27.2678H13.4331L13.4 27.2512L13.3589 27.2432H13.3258L13.2927 27.2267L13.1935 27.2027L13.1524 27.1947L13.1193 27.1861L12.9869 27.1542L12.9459 27.1456L12.8797 27.1296L12.8466 27.113L12.8135 27.1045L12.7142 27.0805L12.6812 27.0639L12.6401 27.0559L12.6156 27.048L12.5745 27.04L12.5414 27.0234L12.4752 27.0074L12.4421 26.9909L12.409 26.9823L12.376 26.9743L12.3429 26.9577L12.3098 26.9497L12.2767 26.9412L12.2436 26.9246L12.2105 26.9166L12.1774 26.9001L12.1113 26.8841L12.0782 26.8675L12.0451 26.859L12.012 26.8424L11.9789 26.8344L11.9458 26.8179L11.9127 26.8099L11.8796 26.7933L11.8465 26.7853L11.8135 26.7688L11.7804 26.7608L11.7473 26.7442L11.7142 26.7356L11.648 26.7025L11.6149 26.694L11.5818 26.6774L11.5573 26.6694L11.4917 26.6363L11.4586 26.6197L11.4255 26.6112L11.3594 26.5781L11.3263 26.5695L11.3017 26.5529L11.2687 26.5364L11.2356 26.5278L11.1363 26.4781L11.1118 26.4616L11.0787 26.4536L10.9794 26.4039L10.9549 26.3873L10.9218 26.3708L10.8887 26.3622L10.8225 26.3291L10.798 26.3126L10.6988 26.2629L10.6742 26.2463L10.608 26.2132L10.5835 26.1966L10.4842 26.147L10.4597 26.1304L10.3935 26.0973L10.369 26.0807L10.3028 26.0476L10.2783 26.0311L10.2127 25.9985L10.1882 25.982L10.1551 25.9574L10.1305 25.9409L10.0644 25.9077L10.0399 25.8912L10.0068 25.8746L9.98224 25.8501L9.94915 25.8335L9.92461 25.817L9.89152 25.8004L9.85844 25.7758L9.80937 25.7427L9.77628 25.7262L9.74319 25.7016L9.71866 25.6851L9.68557 25.6685L9.66104 25.644L9.63653 25.6274L9.60342 25.6108L9.57035 25.5863L9.52129 25.5532L9.4882 25.5286L9.46367 25.5121L9.43058 25.4955L9.40605 25.471L9.37296 25.4544L9.34843 25.4298L9.31534 25.4133L9.29081 25.3887L9.26628 25.3722L9.23319 25.3556L9.20866 25.3311L9.18413 25.3145L9.15104 25.29L9.12651 25.2734L9.09342 25.2488L9.06891 25.2323L9.04435 25.2077L9.01982 25.1912L8.98675 25.1666L8.96222 25.1421L8.93769 25.1255L8.9046 25.101L8.88007 25.0844L8.85554 25.0599L8.82245 25.0353L8.79792 25.0188L8.77339 24.9942L8.74886 24.9776L8.71577 24.9531L8.69124 24.9285L8.66671 24.912L8.61765 24.8629L8.59311 24.8463L8.56003 24.8218L8.53549 24.7972L8.51096 24.7807L8.48643 24.7561L8.45334 24.7316L8.43681 24.707L8.40372 24.6904L8.30559 24.5922L8.28106 24.5757L8.232 24.5266L8.19891 24.502L8.14985 24.4529L8.12532 24.4364L7.80586 24.1166L7.7893 24.0921L7.74026 24.043L7.71573 24.0264L7.6912 24.0019L7.66667 23.9687L7.62558 23.9276L7.60105 23.8945L7.4784 23.7718L7.46186 23.7472L7.38827 23.6736L7.37173 23.6404L7.29814 23.5668L7.28159 23.5422L7.25705 23.5091L7.23252 23.4846L7.21599 23.46L7.16693 23.4109L7.1424 23.3778L7.12584 23.3532L7.07678 23.3041L7.06025 23.2796L7.03571 23.2465L7.01916 23.2219L6.99463 23.1974L6.9701 23.1648L6.95356 23.1403L6.92903 23.1157L6.9125 23.0912L6.88795 23.0581L6.87141 23.0335L6.84688 23.009L6.83035 22.9758L6.80582 22.9513L6.78926 22.9267L6.76473 22.8936L6.74819 22.8691L6.72366 22.836L6.70711 22.8114L6.68258 22.7869L6.66604 22.7537L6.64151 22.7292L6.62496 22.6961L6.60842 22.6715L6.58389 22.6384L6.56736 22.6139L6.54283 22.5893L6.52627 22.5562L6.50974 22.5316L6.48521 22.4985L6.46865 22.474L6.45212 22.4408L6.42759 22.4163L6.41103 22.3837L6.3945 22.3592L6.36997 22.3261L6.35341 22.3015L6.33688 22.2684L6.31234 22.2439L6.29581 22.2107L6.27925 22.1862L6.26272 22.1531L6.24617 22.1285L6.22163 22.0954L6.2051 22.0623L6.18854 22.0377L6.17201 22.0046L6.15548 21.9801L6.13892 21.947L6.11439 21.9224L6.09786 21.8899L6.0813 21.8568L6.06477 21.8322L6.04821 21.7991L6.03168 21.7665L6.01512 21.742L5.98203 21.6758L5.9655 21.6512L5.93241 21.585L5.91587 21.5604L5.86623 21.4611L5.84969 21.4365L5.8166 21.3703L5.80005 21.3457L5.73389 21.2133L5.71733 21.1887L5.7008 21.1556L5.6928 21.1225L5.67627 21.0894L5.65971 21.0648L5.61009 20.9655L5.60209 20.9324L5.58556 20.9078L5.55247 20.8416L5.54447 20.8085L5.49485 20.7091L5.48687 20.6846L5.45378 20.6183L5.44579 20.5852L5.4127 20.519L5.40472 20.4859L5.37163 20.4196L5.36364 20.3951L5.3471 20.362L5.3391 20.3289L5.32257 20.2957L5.31457 20.2626L5.29804 20.2295L5.28948 20.197L5.27292 20.1638L5.26439 20.1307L5.24783 20.0976L5.23986 20.0645L5.2233 20.0314L5.21533 19.9983L5.19877 19.9652L5.19079 19.932L5.17424 19.8989L5.16568 19.8658L5.1577 19.8327L5.14115 19.7996L5.13317 19.7665L5.11662 19.7333L5.10864 19.7002L5.10008 19.6671L5.08353 19.634L5.06756 19.5678L5.05102 19.5352L5.04246 19.4941L5.02649 19.4279L5.00994 19.3948L5.00138 19.3616L4.98541 19.2954L4.97687 19.2623L4.96031 19.2292L4.95232 19.1881L4.94434 19.1549L4.93578 19.1218L4.92781 19.0887L4.91925 19.0556L4.90327 18.9894L4.88672 18.9563L4.87816 18.9151L4.86219 18.8489L4.85363 18.8158L4.84565 18.7827L4.8371 18.7416L4.82112 18.6753L4.81256 18.6422L4.80457 18.6091L4.79601 18.568V18.5349L4.78803 18.5023L4.78004 18.4692L4.77148 18.4281L4.7635 18.395L4.75494 18.3619L4.73897 18.2957V18.2545L4.73041 18.2214L4.72242 18.1883L4.71386 18.1472L4.70588 18.1141V18.081L4.69789 18.0478L4.68933 18.0067L4.68135 17.9736V17.9405L4.67279 17.8994L4.6648 17.8663V17.8332L4.65682 17.792L4.64826 17.7589V17.7258L4.64029 17.6927V17.6516L4.63173 17.6185L4.62373 17.5774V17.5443L4.61573 17.5111V17.47L4.6072 17.4369V17.4038L4.5992 17.3627V17.3296L4.59064 17.2965V17.2553L4.58267 17.2228V17.1486L4.57467 17.1155V17.0744L4.56611 17.0412V16.967L4.55813 16.9345V16.8602L4.54958 16.8191V16.7118L4.54158 16.6787V16.4891L4.5336 16.456V15.7137L4.54158 15.6806V15.4916L4.54958 15.4585V15.3432L4.55813 15.3101V15.2358L4.56611 15.2027V15.1285L4.57467 15.0954V15.0543L4.58267 15.0212V14.9469L4.59064 14.9138V14.8727L4.5992 14.8396V14.7985L4.6072 14.7654V14.7323L4.61573 14.6912V14.658L4.62373 14.6255V14.5844L4.63173 14.5513L4.64029 14.5181V14.477L4.64826 14.4439V14.4108L4.65682 14.3697L4.6648 14.3372V14.304L4.67279 14.2629L4.68135 14.2298V14.1967L4.68933 14.1556L4.69789 14.1225L4.70588 14.0899V14.0568L4.71386 14.0157L4.72242 13.9826L4.73041 13.9495L4.73897 13.9163V13.8752L4.74695 13.8427L4.75494 13.8096L4.7635 13.7765L4.77148 13.7354L4.78004 13.7022L4.79601 13.636V13.5949L4.80457 13.5618L4.81256 13.5287L4.82112 13.4956L4.8291 13.4544L4.8371 13.4213L4.84565 13.3882L4.85363 13.3551L4.86219 13.322L4.87018 13.2889L4.87816 13.2478L4.88672 13.2146L4.90327 13.1821L4.91925 13.1159L4.92781 13.0827L4.93578 13.0496L4.94434 13.0085L4.96031 12.9423L4.97687 12.9092L4.98541 12.8761L4.9934 12.8429L5.00138 12.8104L5.00994 12.7773L5.02649 12.7442L5.03447 12.7031L5.04246 12.6699L5.05102 12.6368L5.06756 12.6037L5.08353 12.5375L5.10008 12.5044L5.10864 12.4712L5.11662 12.4381L5.13317 12.405L5.14115 12.3719L5.14971 12.3388L5.16626 12.3057L5.1748 12.2731L5.19136 12.24L5.19935 12.2069L5.21589 12.1738L5.22386 12.1407L5.23242 12.1075L5.26551 12.0413L5.27407 12.0082L5.29063 11.9751L5.29918 11.942L5.31572 11.9088L5.32372 11.8757L5.34025 11.8426L5.34825 11.8095L5.36478 11.7769L5.37278 11.7438L5.40585 11.6776L5.41384 11.653L5.44693 11.5868L5.45491 11.5537L5.47146 11.5206L5.488 11.488L5.49599 11.4549L5.52908 11.3887L5.54562 11.3641L5.55361 11.331L5.60324 11.2317L5.61124 11.2071L5.66086 11.1078L5.67739 11.0752L5.69395 11.0421L5.70195 11.0176L5.71848 10.9844L5.73501 10.9519L5.75157 10.9188L5.7681 10.8942L5.78466 10.8611L5.80119 10.8286L5.81775 10.7955L5.83428 10.7709L5.85082 10.7378L5.86737 10.7052L5.88391 10.6721L5.90046 10.6476L5.917 10.6145L5.93355 10.5819L5.95009 10.5574L5.98318 10.4911L5.99973 10.4666L6.01627 10.4335L6.03282 10.4089L6.06589 10.3427L6.08245 10.3181L6.11553 10.2519L6.14007 10.2274L6.1566 10.1942L6.17316 10.1697L6.20625 10.1035L6.22278 10.0789L6.24731 10.0464L6.26387 10.0218L6.29693 9.95557L6.32147 9.93102L6.33802 9.90648L6.37111 9.84024L6.39564 9.81568L6.41218 9.78257L6.42873 9.75802L6.45326 9.72491L6.4698 9.70035L6.48635 9.66724L6.51088 9.64268L6.52742 9.61813L6.54395 9.58502L6.56848 9.56046L6.58504 9.52735L6.60957 9.5028L6.6261 9.46968L6.64266 9.44513L6.66719 9.42057L6.68372 9.38746L6.70825 9.36291L6.72481 9.3298L6.74934 9.30524L6.76587 9.2807L6.79041 9.24757L6.80696 9.22303L6.83149 9.18991L6.84803 9.16536L6.87256 9.14081L6.88909 9.11626L6.91362 9.08314L6.93018 9.05859L6.95471 9.03404L6.97124 9.00092L7.0203 8.95181L7.03686 8.9187L7.06139 8.89415L7.07793 8.86959L7.10246 8.84505L7.12699 8.81193L7.15152 8.78738L7.16807 8.76283L7.21711 8.71372L7.23367 8.68061L7.28273 8.63151L7.29927 8.60696L7.34833 8.55785L7.37286 8.52531L7.38941 8.50075L7.46301 8.4271L7.47954 8.40255L7.55313 8.3289L7.57766 8.29577L7.59422 8.27123L7.81498 8.05026L7.83153 8.02571L7.90513 7.95206L7.92966 7.93551L8.15043 7.71454L8.17497 7.69799L8.1995 7.67343L8.23256 7.64888L8.30616 7.57523L8.33069 7.55867L8.40428 7.48501L8.43737 7.46046L8.4619 7.4439L8.53549 7.37024L8.56003 7.35369L8.58456 7.32913L8.61765 7.30458L8.64218 7.28802L8.69124 7.23893L8.72433 7.22237L8.74886 7.19782L8.77339 7.18126L8.79792 7.1567L8.83101 7.13215L8.85554 7.1156L8.9046 7.0665L8.93769 7.04993L8.96222 7.02539L8.98675 7.00883L9.01127 6.98428L9.04435 6.96772L9.06891 6.94317L9.09342 6.92661L9.12651 6.90206L9.15104 6.8855L9.17557 6.86095L9.20866 6.84439L9.23319 6.81983L9.26628 6.80328L9.29081 6.77873L9.31534 6.76217L9.34843 6.73762L9.37296 6.72106L9.40605 6.69651L9.43058 6.67995L9.46367 6.66339L9.4882 6.63884L9.52129 6.62228L9.54582 6.60572L9.57889 6.58117L9.62797 6.54806L9.66104 6.52351L9.68557 6.50695L9.71866 6.49039L9.75175 6.46584L9.80082 6.43272L9.8339 6.41617L9.86699 6.39161L9.91606 6.3585L9.94915 6.34195L9.98224 6.31739L10.0068 6.30084L10.0399 6.28428L10.0644 6.26771L10.1305 6.2346L10.1551 6.21004L10.1882 6.19349L10.2127 6.17693L10.2789 6.14382L10.3034 6.12726L10.3696 6.09414L10.3941 6.07758L10.4603 6.04447L10.4848 6.02791L10.551 5.99479L10.5841 5.97024L10.6086 5.96225L10.6748 5.92913L10.6993 5.91258L10.8317 5.84634L10.8562 5.82979L10.9224 5.79668L10.9469 5.78868L11.1123 5.70588L11.1369 5.69789L11.2361 5.64822L11.2692 5.63966L11.3354 5.60653L11.3599 5.58998L11.393 5.58199L11.4592 5.54887L11.4923 5.54088L11.5254 5.52432L11.5499 5.50777L11.591 5.49977L11.6155 5.48321L11.6486 5.47464L11.7148 5.44153L11.7479 5.43296L11.7809 5.4164L11.814 5.40842L11.8471 5.39186L11.8802 5.38386L11.9133 5.36731L11.9464 5.35931L11.9795 5.34276L12.0126 5.33476L12.0456 5.3182L12.0787 5.30964L12.1118 5.29308L12.1449 5.28509L12.178 5.26853L12.2442 5.25254L12.2773 5.23598L12.3103 5.22742L12.3434 5.21086L12.4096 5.19488L12.4427 5.17831L12.542 5.15434L12.5751 5.13777L12.6161 5.12978L12.6492 5.12179L12.6823 5.10523L12.8147 5.07325L12.8477 5.0567L12.9139 5.04071L12.955 5.03271L12.9881 5.02415L13.0873 5.00018L13.1284 4.98362L13.1529 4.97562L13.186 4.96763L13.2271 4.95963L13.2602 4.95165L13.2933 4.94308L13.3264 4.93508L13.3674 4.92709L13.4336 4.9111L13.4667 4.90254L13.4998 4.89455L13.5409 4.88656H13.574L13.6401 4.87056L13.6812 4.862L13.7805 4.83802H13.8136L13.8546 4.83002L13.8877 4.82146L13.9208 4.81347L13.9619 4.80548H13.995L14.0612 4.78948L14.1022 4.78093H14.1353L14.2015 4.76494H14.2426L14.2756 4.75694L14.3167 4.74895H14.3498L14.3829 4.74039H14.416L14.4571 4.73239L14.4902 4.7244H14.5312L14.5643 4.71641H14.5974L14.6385 4.70841H14.6716L14.7046 4.69985H14.7457L14.7788 4.69185H14.8199L14.853 4.68386H14.9271L14.9602 4.67586H14.9933L15.0344 4.66787H15.1086L15.1416 4.65931H15.2158L15.2489 4.65131H15.3641L15.3972 4.64333H15.5866L15.6197 4.63533H15.9574Z" fill="black"/>
</svg>
