<svg width="28" height="28" viewBox="0 0 28 28" fill="none" xmlns="http://www.w3.org/2000/svg">
<path d="M11.241 0.833223C11.1358 0.780398 11.0742 0.749445 10.7984 0.709973C10.786 0.7091 10.7743 0.70775 10.7619 0.706322C10.7132 0.7007 10.6538 0.693852 10.5033 0.709973C9.97651 0.766312 9.50404 1.1458 9.32471 1.64741C9.32093 1.65797 9.31728 1.66802 9.31376 1.67772C9.2731 1.78972 9.24928 1.85533 9.23963 2.13876V15.7365C9.24018 15.7527 9.24058 15.7667 9.24094 15.7793C9.24256 15.8359 9.24336 15.8641 9.25334 15.9364C9.30354 16.3004 9.49688 16.6418 9.78195 16.8686C10.6238 17.5381 11.914 16.9099 12.0483 15.9364C12.0583 15.8644 12.0591 15.8361 12.0608 15.78C12.0611 15.7672 12.0616 15.753 12.0621 15.7365V10.4924C13.4467 10.092 14.9589 10.1256 16.3179 10.6133C19.1853 11.6424 21.0142 14.4773 20.9783 17.3815C20.9557 19.2015 20.296 20.7949 19.2215 22.0263C17.4434 24.0641 14.5906 24.8742 12.0911 24.1499C9.39473 23.3685 7.36986 20.8888 7.06563 18.1097L7.06211 18.076C7.04526 17.9076 7.03999 17.7406 7.03475 17.5742C7.03153 17.4724 7.02833 17.3708 7.02249 17.2693V4.45807L7.02146 4.41978C7.02026 4.3716 7.01964 4.34704 7.0122 4.28495C7.00853 4.25418 7.00382 4.2236 6.99812 4.19326C6.91262 3.73815 6.60305 3.33706 6.19044 3.14802C6.17264 3.13986 6.1559 3.1322 6.13969 3.125C6.02626 3.0746 5.93905 3.0465 5.6964 3.02405C5.68574 3.02372 5.67564 3.02301 5.66495 3.02226C5.62286 3.01931 5.57162 3.01572 5.44106 3.03185C5.409 3.03581 5.37716 3.04096 5.3456 3.04725C4.87222 3.14165 4.46142 3.49303 4.29169 3.94866C4.23624 4.09726 4.20832 4.17474 4.19995 4.45807V17.7284C4.20197 17.7951 4.20812 17.8615 4.2183 17.9272L4.21907 17.9396L4.21372 17.9345C4.3236 19.7215 4.91029 21.4868 5.92177 22.977C7.81298 25.763 10.9571 27.3398 14.1221 27.2992L14.1145 27.292L14.1266 27.2918C17.9609 27.2426 21.5554 24.7335 23.0194 21.2236C23.8286 19.2835 24.0144 17.1059 23.5499 15.0637C22.5053 10.4708 18.4732 7.466 14.2573 7.3423C14.1832 7.33929 14.1081 7.33758 14.0319 7.3372C14.0024 7.3371 13.973 7.3372 13.9436 7.3373C13.3144 7.34263 12.6827 7.40829 12.0621 7.53464V2.13876C12.0436 1.6 11.7413 1.08177 11.2695 0.847481C11.2596 0.842551 11.2501 0.837804 11.241 0.833223Z" fill="black"/>
</svg>
