<svg width="20" height="20" viewBox="0 0 20 20" fill="none" xmlns="http://www.w3.org/2000/svg">
    <path fill-rule="evenodd" clip-rule="evenodd" d="M10.8435 1.85731C10.3303 1.6029 9.67252 1.6029 9.1594 1.85731C8.76762 2.05155 8.52459 2.41348 8.34439 2.73584C8.1588 3.06784 7.95932 3.51447 7.7212 4.04763L6.75551 6.20967L5.79698 5.63748C5.23188 5.30013 4.76477 5.02127 4.38905 4.83935C4.03305 4.66697 3.59071 4.492 3.13328 4.57548C2.54592 4.68268 2.04755 5.06919 1.79755 5.6114C1.60286 6.03366 1.66225 6.50563 1.74062 6.89333C1.82332 7.3025 1.97716 7.82431 2.16327 8.45558L3.19598 11.9587C3.25196 12.1486 3.27995 12.2435 3.30218 12.3395C3.34443 12.522 3.37123 12.7077 3.3823 12.8946C3.38812 12.993 3.38812 13.092 3.38812 13.2899C3.3881 13.7315 3.38809 14.1075 3.41332 14.4162C3.43981 14.7405 3.49784 15.056 3.65152 15.3576C3.88321 15.8123 4.25292 16.182 4.70764 16.4137C5.00925 16.5674 5.32475 16.6254 5.64905 16.6519C5.95774 16.6771 6.33372 16.6665 6.77528 16.6665H13.2267C13.6683 16.6665 14.0443 16.6771 14.353 16.6519C14.6773 16.6254 14.9928 16.5674 15.2944 16.4137C15.7491 16.182 16.1188 15.8123 16.3505 15.3576C16.5042 15.056 16.5622 14.7405 16.5887 14.4162C16.6139 14.1075 16.6139 13.7315 16.6139 13.29C16.6139 13.0949 16.6139 12.9973 16.6195 12.9003C16.6306 12.7115 16.6576 12.5239 16.7005 12.3396C16.7225 12.245 16.75 12.1515 16.8052 11.9643L17.8396 8.45563C18.0257 7.82433 18.1795 7.3025 18.2622 6.89332C18.3406 6.50562 18.4 6.03365 18.2053 5.61139C17.9553 5.06918 17.4569 4.68267 16.8696 4.57547C16.4122 4.49199 15.9698 4.66695 15.6138 4.83933C15.2381 5.02126 14.771 5.3001 14.2059 5.63744L13.2473 6.20967L12.2816 4.04766C12.0435 3.5145 11.844 3.06785 11.6585 2.73585C11.4783 2.41348 11.2352 2.05156 10.8435 1.85731ZM15.1139 13.2601H4.88812C4.88812 13.7392 4.8887 14.0537 4.90833 14.294C4.92725 14.5256 4.96005 14.6217 4.98803 14.6766C5.07591 14.8491 5.21614 14.9893 5.38863 15.0772C5.44354 15.1052 5.53966 15.138 5.77119 15.1569C6.01149 15.1765 6.3257 15.1771 6.80478 15.1771H13.1972C13.6763 15.1771 13.9905 15.1765 14.2308 15.1569C14.4624 15.138 14.5585 15.1052 14.6134 15.0772C14.7859 14.9893 14.9261 14.8491 15.014 14.6766C15.042 14.6217 15.0748 14.5256 15.0937 14.294C15.1133 14.0537 15.1139 13.7392 15.1139 13.2601ZM9.66872 3.44159C9.8223 3.18009 10.2012 3.20302 10.3491 3.46774C10.4978 3.73361 10.67 4.11752 10.9269 4.69264L12.222 7.59225C12.3094 7.78792 12.4764 7.93686 12.6807 8.00148C12.885 8.0661 13.1072 8.04022 13.2912 7.93037L14.9432 6.94425C15.5478 6.58335 15.7373 6.46009 16.2675 6.18939C16.2736 6.18627 16.2798 6.18312 16.2861 6.17994C16.5578 6.04211 16.8523 6.29751 16.792 6.59613C16.7239 6.93302 16.5895 7.39127 16.3904 8.06665L15.3016 11.7601H4.70126L3.61244 8.06666C3.41334 7.39128 3.29834 6.94427 3.21088 6.59615C3.13525 6.29507 3.45594 6.05412 3.73534 6.18941C4.04468 6.33919 4.45508 6.58337 5.05967 6.94427L6.71157 7.93037C6.89559 8.04022 7.1178 8.0661 7.32213 8.00148C7.52646 7.93687 7.69339 7.78793 7.78079 7.59225L9.07593 4.69263C9.33281 4.11752 9.50509 3.73361 9.65371 3.46774C9.65844 3.45927 9.66346 3.45054 9.66872 3.44159Z" fill="#19191A"/>
</svg>
