<svg width="32" height="32" viewBox="0 0 32 32" fill="none" xmlns="http://www.w3.org/2000/svg">
<path d="M15.86 23.92C8.76 23.92 2.95 21.58 1.4 18.09C1.06 17.33 1.4 16.45 2.16 16.11C2.92 15.77 3.8 16.11 4.14 16.87C5.02 18.86 9.64 20.92 15.86 20.92C22.08 20.92 26.7 18.86 27.58 16.87C27.91 16.11 28.8 15.77 29.56 16.1C30.32 16.43 30.66 17.32 30.33 18.08C28.79 21.57 22.98 23.92 15.87 23.92H15.86Z" fill="black"/>
<path d="M15.86 30.46C8.76 30.46 2.95 28.12 1.4 24.63C1.06 23.87 1.4 22.99 2.16 22.65C2.92 22.31 3.8 22.65 4.14 23.41C5.02 25.4 9.64 27.46 15.86 27.46C22.08 27.46 26.7 25.4 27.58 23.41C27.91 22.65 28.8 22.31 29.56 22.64C30.32 22.97 30.66 23.86 30.33 24.62C28.79 28.11 22.98 30.46 15.87 30.46H15.86Z" fill="black"/>
<path d="M15.86 17.39C7.39 17.39 1 14.08 1 9.69C1 5.3 7.39 2 15.86 2C24.33 2 30.72 5.31 30.72 9.69C30.72 14.07 24.33 17.38 15.86 17.38V17.39ZM15.86 5C9.07 5 4 7.48 4 9.69C4 11.9 9.07 14.38 15.86 14.38C22.65 14.38 27.72 11.9 27.72 9.69C27.72 7.48 22.65 5 15.86 5Z" fill="black"/>
</svg>
