<svg width="20" height="20" viewBox="0 0 20 20" fill="none" xmlns="http://www.w3.org/2000/svg">
<path d="M18.5 9C18.5 10.476 17.5864 11.7385 16.2939 12.2531L17.1912 13.4955C18.8544 12.6834 20 10.9755 20 9C20 6.23859 17.7614 4 15 4C14.8029 4 14.6085 4.01141 14.4173 4.0336C13.5132 2.2345 11.6508 1 9.5 1C6.97897 1 4.8541 2.69617 4.20434 5.00955C1.85688 5.1618 0 7.11404 0 9.5C0 11.3937 1.16972 13.0142 2.82603 13.6783L3.64057 12.3751C2.40253 12.0056 1.5 10.8582 1.5 9.5C1.5 7.90994 2.73788 6.60782 4.30142 6.50641L5.36127 6.43768L5.64846 5.41516C6.12123 3.73193 7.66869 2.5 9.5 2.5C11.062 2.5 12.4176 3.39505 13.077 4.70715L13.5481 5.64453L14.5902 5.52359C14.7241 5.50806 14.8608 5.5 15 5.5C16.933 5.5 18.5 7.06702 18.5 9Z" fill="black"/>
<path fill-rule="evenodd" clip-rule="evenodd" d="M5.66992 9.5L10 7L14.3302 9.5V16.5L10 19L5.66992 16.5V9.5ZM7.16992 10.366L10 8.73205L12.8302 10.366V11.634L10 13.2679L7.16992 11.634V10.366ZM12.8302 13.366V15.634L10 17.2679L7.16992 15.634V13.366L10 15L12.8302 13.366Z" fill="black"/>
</svg>
