<svg width="14" height="20" viewBox="0 0 14 20" fill="none" xmlns="http://www.w3.org/2000/svg">
    <path fill-rule="evenodd" clip-rule="evenodd" d="M3.25 4.41667C3.25 2.37185 4.94899 0.75 7 0.75C9.05101 0.75 10.75 2.37185 10.75 4.41667V9.08333C10.75 11.1282 9.05101 12.75 7 12.75C4.94899 12.75 3.25 11.1282 3.25 9.08333V4.41667ZM7 2.25C5.7373 2.25 4.75 3.23983 4.75 4.41667V9.08333C4.75 10.2602 5.7373 11.25 7 11.25C8.2627 11.25 9.25 10.2602 9.25 9.08333V4.41667C9.25 3.23983 8.2627 2.25 7 2.25ZM1.5 9.25C1.91421 9.25 2.25 9.58579 2.25 10C2.25 11.9616 3.00831 12.9607 3.89623 13.5132C4.8442 14.1031 6.05061 14.25 7 14.25C7.94939 14.25 9.1558 14.1031 10.1038 13.5132C10.9917 12.9607 11.75 11.9616 11.75 10C11.75 9.58579 12.0858 9.25 12.5 9.25C12.9142 9.25 13.25 9.58579 13.25 10C13.25 12.4384 12.2583 13.9393 10.8962 14.7868C9.87812 15.4203 8.71232 15.652 7.75 15.7229V17.75H9.5C9.91421 17.75 10.25 18.0858 10.25 18.5C10.25 18.9142 9.91421 19.25 9.5 19.25H4.5C4.08579 19.25 3.75 18.9142 3.75 18.5C3.75 18.0858 4.08579 17.75 4.5 17.75H6.25V15.7229C5.28768 15.652 4.12188 15.4203 3.10377 14.7868C1.74169 13.9393 0.75 12.4384 0.75 10C0.75 9.58579 1.08579 9.25 1.5 9.25Z" fill="#19191A"/>
</svg>
