<svg width="14" height="14" viewBox="0 0 14 14" fill="none" xmlns="http://www.w3.org/2000/svg">
<path fill-rule="evenodd" clip-rule="evenodd" d="M7 1.5C3.96243 1.5 1.5 3.96243 1.5 7C1.5 10.0376 3.96243 12.5 7 12.5C10.0376 12.5 12.5 10.0376 12.5 7C12.5 3.96243 10.0376 1.5 7 1.5ZM0 7C0 3.13401 3.13401 0 7 0C10.866 0 14 3.13401 14 7C14 10.866 10.866 14 7 14C3.13401 14 0 10.866 0 7Z" fill="#818C99"/>
<path fill-rule="evenodd" clip-rule="evenodd" d="M7 6C7.41421 6 7.75 6.33579 7.75 6.75V10.25C7.75 10.6642 7.41421 11 7 11C6.58579 11 6.25 10.6642 6.25 10.25V6.75C6.25 6.33579 6.58579 6 7 6Z" fill="#818C99"/>
<path d="M7.9 3.9C7.9 4.39706 7.49706 4.8 7 4.8C6.50294 4.8 6.1 4.39706 6.1 3.9C6.1 3.40294 6.50294 3 7 3C7.49706 3 7.9 3.40294 7.9 3.9Z" fill="#818C99"/>
</svg>
