<svg width="869" height="200" viewBox="0 0 869 200" fill="none" xmlns="http://www.w3.org/2000/svg">
<path d="M0 95.082C0 50.2599 0 27.8489 13.9244 13.9244C27.8489 0 50.2599 0 95.082 0H104.918C149.74 0 172.151 0 186.076 13.9244C200 27.8489 200 50.2599 200 95.082V104.918C200 149.74 200 172.151 186.076 186.076C172.151 200 149.74 200 104.918 200H95.082C50.2599 200 27.8489 200 13.9244 186.076C0 172.151 0 149.74 0 104.918V95.082Z" fill="#0077FF"/>
<path d="M44.242 1.57003C57.0048 1.19209e-07 73.4281 0 95.082 0H104.918C126.572 0 142.995 5.96046e-07 155.758 1.57003C156.586 2.81121 157 4.04128 157 5.32981C157 10.8756 149.331 15.3385 133.993 24.2643L132.537 25.1113C117.199 34.0371 109.53 38.5 100 38.5C90.4701 38.5 82.801 34.0371 67.4628 25.1113L66.0073 24.2643C50.6691 15.3385 43 10.8756 43 5.32982C43 4.04129 43.414 2.81121 44.242 1.57003Z" fill="#00D9ED"/>
<path d="M56.3812 42.2673C71.8946 51.224 79.6514 55.7024 84.4708 64.0498C89.2902 72.3973 89.2902 81.354 89.2902 99.2673V100.967C89.2902 118.881 89.2902 127.837 84.4708 130.62C79.6514 133.402 71.8947 128.924 56.3812 119.967L54.909 119.117C39.3955 110.161 31.6388 105.682 26.8194 97.3349C22 88.9874 22 80.0307 22 62.1173L22 60.4174C22 42.504 22 33.5473 26.8194 30.7648C31.6388 27.9823 39.3955 32.4607 54.909 41.4173L56.3812 42.2673Z" fill="#00D9ED"/>
<path d="M143.619 43.1965C128.106 52.1532 120.349 56.6316 115.529 64.979C110.71 73.3265 110.71 82.2832 110.71 100.197L110.71 101.897C110.71 119.81 110.71 128.767 115.529 131.549C120.349 134.332 128.105 129.853 143.619 120.897L145.091 120.047C160.605 111.09 168.361 106.612 173.181 98.2641C178 89.9166 178 80.9599 178 63.0465V61.3466C178 43.4332 178 34.4765 173.181 31.694C168.361 28.9115 160.605 33.3899 145.091 42.3465L143.619 43.1965Z" fill="white"/>
<path d="M327.362 151.015H303.168L268.743 53.7247H286.577L314.089 133.903H316.854L345.334 53.7247H362.892L327.362 151.015Z" fill="black"/>
<path d="M408.954 100.645L453.747 151.015H431.903L395.405 109.339H391.257V151.015H374.667V53.7247H391.257V93.3307H395.267L429.829 53.7247H450.291L408.954 100.645Z" fill="black"/>
<path d="M536.341 152.395C527.125 152.395 518.876 150.279 511.594 146.047C504.313 141.723 498.599 135.789 494.451 128.245C490.396 120.609 488.368 111.961 488.368 102.301C488.368 92.7327 490.396 84.1767 494.451 76.6327C498.599 68.9967 504.313 63.0627 511.594 58.8307C518.876 54.5067 527.125 52.3447 536.341 52.3447C546.388 52.3447 555.282 54.8747 563.024 59.9347C570.766 64.9027 576.296 71.7567 579.614 80.4967L563.162 83.2567C560.858 78.2887 557.356 74.4247 552.655 71.6647C548.047 68.9047 542.793 67.5247 536.894 67.5247C530.811 67.5247 525.373 68.9967 520.581 71.9407C515.88 74.8847 512.193 78.9787 509.521 84.2227C506.94 89.4667 505.65 95.4927 505.65 102.301C505.65 109.109 506.94 115.181 509.521 120.517C512.193 125.761 515.88 129.855 520.581 132.799C525.373 135.743 530.811 137.215 536.894 137.215C542.885 137.215 548.277 135.789 553.07 132.937C557.862 129.993 561.457 125.945 563.853 120.793L580.305 123.553C576.803 132.385 571.089 139.423 563.162 144.667C555.328 149.819 546.388 152.395 536.341 152.395Z" fill="black"/>
<path d="M609.403 151.015H593.504V53.7247H609.403V151.015Z" fill="black"/>
<path d="M662.337 152.395C654.963 152.395 648.327 150.831 642.429 147.703C636.622 144.483 632.06 140.067 628.742 134.455C625.516 128.751 623.903 122.311 623.903 115.135C623.903 107.959 625.516 101.565 628.742 95.9527C632.06 90.2487 636.622 85.8327 642.429 82.7047C648.327 79.4847 654.963 77.8747 662.337 77.8747C669.71 77.8747 676.3 79.4847 682.107 82.7047C688.006 85.8327 692.568 90.2487 695.794 95.9527C699.112 101.565 700.771 107.959 700.771 115.135C700.771 122.311 699.112 128.751 695.794 134.455C692.568 140.067 688.006 144.483 682.107 147.703C676.3 150.831 669.71 152.395 662.337 152.395ZM662.337 137.905C668.789 137.905 674.042 135.835 678.098 131.695C682.153 127.463 684.181 121.943 684.181 115.135C684.181 108.327 682.153 102.853 678.098 98.7127C674.042 94.4807 668.789 92.3647 662.337 92.3647C655.885 92.3647 650.632 94.4807 646.576 98.7127C642.521 102.853 640.493 108.327 640.493 115.135C640.493 121.943 642.521 127.463 646.576 131.695C650.632 135.835 655.885 137.905 662.337 137.905Z" fill="black"/>
<path d="M740.86 152.395C735.791 152.395 731.183 151.107 727.035 148.531C722.98 145.955 719.754 142.413 717.358 137.905C715.053 133.397 713.901 128.291 713.901 122.587V79.2547H729.8V120.793C729.8 125.945 731.229 130.131 734.086 133.351C737.035 136.571 740.768 138.181 745.284 138.181C749.893 138.181 753.718 136.571 756.759 133.351C759.801 130.039 761.322 125.853 761.322 120.793V79.2547H777.22V151.015H765.331L762.151 140.251C759.847 144.023 756.805 147.013 753.026 149.221C749.248 151.337 745.192 152.395 740.86 152.395Z" fill="black"/>
<path d="M826.163 152.395C819.434 152.395 813.397 150.831 808.052 147.703C802.706 144.483 798.512 140.067 795.471 134.455C792.521 128.751 791.047 122.311 791.047 115.135C791.047 107.959 792.521 101.565 795.471 95.9527C798.512 90.2487 802.706 85.8327 808.052 82.7047C813.397 79.4847 819.434 77.8747 826.163 77.8747C831.969 77.8747 837.13 79.0707 841.647 81.4627C846.163 83.7627 849.85 86.6607 852.707 90.1567V53.7247H868.606V151.015H856.716L853.398 139.423C850.449 143.011 846.67 146.093 842.061 148.669C837.453 151.153 832.153 152.395 826.163 152.395ZM830.034 138.181C836.762 138.181 842.2 136.065 846.347 131.833C850.587 127.509 852.707 121.943 852.707 115.135C852.707 108.327 850.587 102.807 846.347 98.5747C842.2 94.2507 836.762 92.0887 830.034 92.0887C823.397 92.0887 818.006 94.2507 813.858 98.5747C809.711 102.807 807.637 108.327 807.637 115.135C807.637 121.943 809.711 127.509 813.858 131.833C818.006 136.065 823.397 138.181 830.034 138.181Z" fill="black"/>
</svg>
