<svg width="20" height="20" viewBox="0 0 20 20" fill="none" xmlns="http://www.w3.org/2000/svg">
    <path fill-rule="evenodd" clip-rule="evenodd" d="M11 3C11 1.89543 11.8954 1 13 1H17C18.1046 1 19 1.89543 19 3V7C19 8.10457 18.1046 9 17 9H13C11.8954 9 11 8.10457 11 7V3ZM13 2.5H17C17.2761 2.5 17.5 2.72386 17.5 3V7C17.5 7.27614 17.2761 7.5 17 7.5H13C12.7239 7.5 12.5 7.27614 12.5 7V3C12.5 2.72386 12.7239 2.5 13 2.5Z" fill="#19191A"/>
    <path fill-rule="evenodd" clip-rule="evenodd" d="M3 4.5C1.89543 4.5 1 5.39543 1 6.5V17C1 17.9665 1.68556 18.7729 2.59693 18.9594C2.72713 18.986 2.86193 19 3 19L13.5 19C14.6046 19 15.5 18.1046 15.5 17V13C15.5 11.8954 14.6046 11 13.5 11H9.5C9.22386 11 9 10.7761 9 10.5V6.5C9 5.39543 8.10457 4.5 7 4.5H3ZM7 6H3C2.72386 6 2.5 6.22386 2.5 6.5V10.5C2.5 10.7761 2.72386 11 3 11H7C7.27614 11 7.5 10.7761 7.5 10.5V6.5C7.5 6.22386 7.27614 6 7 6ZM2.5 13C2.5 12.7239 2.72386 12.5 3 12.5H7C7.27614 12.5 7.5 12.7239 7.5 13V17C7.5 17.2761 7.27614 17.5 7 17.5H3C2.98274 17.5 2.96569 17.4991 2.94888 17.4974C2.69675 17.4718 2.5 17.2589 2.5 17L2.5 13ZM9 13C9 12.7239 9.22386 12.5 9.5 12.5H13.5C13.7761 12.5 14 12.7239 14 13V17C14 17.2761 13.7761 17.5 13.5 17.5H9.5C9.22386 17.5 9 17.2761 9 17V13Z" fill="#19191A"/>
</svg>
