<svg width="20" height="20" viewBox="0 0 20 20" fill="none" xmlns="http://www.w3.org/2000/svg">
<path fill-rule="evenodd" clip-rule="evenodd" d="M8.42861 5.36769C8.44605 5.33245 8.46474 5.29764 8.48471 5.26334L10.1673 2.37297C10.4818 1.83277 11.0629 1.5 11.6918 1.5H15.057C15.6859 1.5 16.2671 1.83277 16.5816 2.37297L18.2642 5.26334C18.5786 5.80354 18.5786 6.46908 18.2642 7.00928L16.5816 9.89965C16.5616 9.93395 16.5406 9.96741 16.5185 10C16.5406 10.0326 16.5616 10.0661 16.5816 10.1003L18.2642 12.9907C18.5786 13.5309 18.5786 14.1965 18.2642 14.7367L16.5816 17.627C16.2671 18.1672 15.6859 18.5 15.057 18.5H11.6918C11.0629 18.5 10.4818 18.1672 10.1673 17.627L8.48471 14.7367C8.46472 14.7023 8.446 14.6675 8.42854 14.6322C8.38865 14.6349 8.3485 14.6362 8.30815 14.6362H4.94298C4.31405 14.6362 3.7329 14.3035 3.41843 13.7633L1.73585 10.8729C1.42138 10.3327 1.42138 9.66715 1.73585 9.12696L3.41843 6.23658C3.7329 5.69639 4.31405 5.36361 4.94298 5.36361H8.30815C8.34852 5.36361 8.3887 5.36498 8.42861 5.36769ZM10.1145 6.7183C9.90489 6.35816 9.90489 5.91444 10.1145 5.5543L11.2363 3.62732C11.446 3.26718 11.8334 3.04532 12.2527 3.04532L14.4962 3.04532C14.9155 3.04532 15.303 3.26718 15.5126 3.62732L16.6344 5.5543C16.844 5.91444 16.844 6.35816 16.6344 6.7183L15.5126 8.64528C15.303 9.00542 14.9155 9.22728 14.4962 9.22728H12.2527C11.8334 9.22728 11.446 9.00542 11.2363 8.64528L10.1145 6.7183ZM3.36568 9.41792C3.15603 9.77806 3.15603 10.2218 3.36568 10.5819L4.48744 12.5089C4.69709 12.869 5.08454 13.0909 5.50384 13.0909H7.74737C8.16667 13.0909 8.55412 12.869 8.76377 12.5089L9.88553 10.5819C10.0952 10.2218 10.0952 9.77806 9.88553 9.41792L8.76377 7.49093C8.55412 7.13079 8.16667 6.90893 7.74737 6.90893L5.50384 6.90894C5.08454 6.90894 4.69709 7.13079 4.48744 7.49093L3.36568 9.41792ZM10.1145 13.2817C9.90489 13.6418 9.90489 14.0855 10.1145 14.4457L11.2363 16.3727C11.446 16.7328 11.8334 16.9547 12.2527 16.9547H14.4962C14.9155 16.9547 15.303 16.7328 15.5126 16.3727L16.6344 14.4457C16.844 14.0855 16.844 13.6418 16.6344 13.2817L15.5126 11.3547C15.303 10.9946 14.9155 10.7727 14.4962 10.7727H12.2527C11.8334 10.7727 11.446 10.9946 11.2363 11.3547L10.1145 13.2817Z" fill="#252629"/>
</svg>
