<?xml version="1.0" encoding="UTF-8" standalone="no"?>
<!-- Created with Inkscape (http://www.inkscape.org/) -->

<svg
   width="12"
   height="16"
   viewBox="0 0 3.175 4.2333332"
   version="1.1"
   id="svg1"
   inkscape:version="1.3.2 (091e20e, 2023-11-25, custom)"
   sodipodi:docname="delete-exm-5.svg"
   xmlns:inkscape="http://www.inkscape.org/namespaces/inkscape"
   xmlns:sodipodi="http://sodipodi.sourceforge.net/DTD/sodipodi-0.dtd"
   xmlns="http://www.w3.org/2000/svg"
   xmlns:svg="http://www.w3.org/2000/svg">
  <sodipodi:namedview
     id="namedview1"
     pagecolor="#ffffff"
     bordercolor="#000000"
     borderopacity="0.25"
     inkscape:showpageshadow="false"
     inkscape:pageopacity="0.0"
     inkscape:pagecheckerboard="0"
     inkscape:deskcolor="#d1d1d1"
     inkscape:document-units="px"
     showborder="true"
     borderlayer="false"
     inkscape:zoom="64.825589"
     inkscape:cx="11.122151"
     inkscape:cy="8.646277"
     inkscape:window-width="2560"
     inkscape:window-height="1351"
     inkscape:window-x="-9"
     inkscape:window-y="-9"
     inkscape:window-maximized="1"
     inkscape:current-layer="layer1" />
  <defs
     id="defs1" />
  <g
     inkscape:label="Слой 1"
     inkscape:groupmode="layer"
     id="layer1">
    <path
       fill-rule="evenodd"
       clip-rule="evenodd"
       d="m 0.44105197,1.8420856 c 0.07893,-0.07893 0.20690096,-0.07893 0.28582886,0 L 1.5945289,2.7097327 2.4621744,1.8420856 c 0.078931,-0.07893 0.2069014,-0.07893 0.2858291,0 0.078931,0.07893 0.078931,0.2069005 0,0.285831 L 1.8803583,2.995562 2.7480035,3.8632076 c 0.078931,0.078931 0.078931,0.2069015 0,0.2858293 -0.078928,0.078931 -0.2068986,0.078931 -0.2858291,0 L 1.5945289,3.2813914 0.72688083,4.1490369 c -0.078928,0.078931 -0.2068991,0.078931 -0.28582886,0 -0.07893,-0.078928 -0.07893,-0.2068988 0,-0.2858293 L 1.3086995,2.995562 0.44105197,2.1279166 c -0.07893,-0.078931 -0.07893,-0.2069013 0,-0.285831 z"
       fill="#818c99"
       id="path1"
       style="stroke-width:0.264583" />
  </g>
</svg>
