<svg width="20" height="20" viewBox="0 0 20 20" fill="none" xmlns="http://www.w3.org/2000/svg">
<path d="M5.75 13.5C6.16421 13.5 6.5 13.8358 6.5 14.25C6.5 14.6642 6.16421 15 5.75 15C5.33579 15 5 14.6642 5 14.25C5 13.8358 5.33579 13.5 5.75 13.5Z" fill="#252629"/>
<path d="M14.3271 13.5039C14.7051 13.5425 15 13.8618 15 14.25C15 14.6382 14.7051 14.9575 14.3271 14.9961L14.25 15H8.75L8.67285 14.9961C8.29488 14.9575 8 14.6382 8 14.25C8 13.8618 8.29488 13.5425 8.67285 13.5039L8.75 13.5H14.25L14.3271 13.5039Z" fill="#252629"/>
<path fill-rule="evenodd" clip-rule="evenodd" d="M15.5059 10.5322C16.8841 10.5355 17.9999 11.654 18 13.0322V15.5L17.9873 15.7559C17.8677 16.9323 16.9323 17.8677 15.7559 17.9873L15.5 18H4.50684L4.25 17.9873C3.07163 17.8673 2.13554 16.9287 2.01855 15.75L2.00684 15.4932L2.0127 13C2.01624 11.6195 3.13813 10.5027 4.51855 10.5059L15.5059 10.5322ZM4.51562 12.0059C3.9634 12.0045 3.51412 12.4517 3.5127 13.0039L3.50684 15.4971C3.50542 16.0504 3.95355 16.5 4.50684 16.5H15.5C16.0523 16.5 16.5 16.0523 16.5 15.5V13.0322C16.4999 12.5155 16.1077 12.0904 15.6045 12.0381L15.502 12.0322L4.51562 12.0059Z" fill="#252629"/>
<path fill-rule="evenodd" clip-rule="evenodd" d="M15.7559 2.0127C17.0164 2.14082 18 3.20566 18 4.5V6.5L17.9873 6.75586C17.8677 7.93228 16.9323 8.86773 15.7559 8.9873L15.5 9H4.5L4.24414 8.9873C3.06772 8.86773 2.13227 7.93228 2.0127 6.75586L2 6.5V4.5C2 3.20566 2.98361 2.14082 4.24414 2.0127L4.5 2H15.5L15.7559 2.0127ZM4.5 3.5C3.94772 3.5 3.5 3.94772 3.5 4.5V6.5C3.5 7.05228 3.94772 7.5 4.5 7.5H15.5C16.0523 7.5 16.5 7.05228 16.5 6.5V4.5C16.5 3.98232 16.1067 3.55621 15.6025 3.50488L15.5 3.5H4.5Z" fill="#252629"/>
</svg>
