<svg width="20" height="20" viewBox="0 0 20 20" fill="none" xmlns="http://www.w3.org/2000/svg">
<path fill-rule="evenodd" clip-rule="evenodd" d="M13.3429 1C13.3429 1 14.1487 1 15.1429 1L18.9999 1C18.9999 1 19 1.80589 19 2.8V4.85714C19 5.85126 19 6.65715 19 6.65715H13.3429C13.3429 6.65715 11.3434 8.42735 10.7714 9.28616V11.374L12.5 13.375C12.5 13.375 12.6117 13.375 13 13.375L16.1714 13.3429C17.1655 13.3429 17.9714 13.3429 17.9714 13.3429V17.2C17.9714 18.1941 17.9714 19 17.9714 19H14.1143C13.1202 19 12.3148 19 12.3148 19L12.3143 15.1429C12.3143 15.1283 12.3145 15.1138 12.3148 15.0993L10.7714 13.3429V13.8571H0.999949C0.999949 13.8571 0.999999 13.0512 0.999999 12.0571L0.999949 4.08572C0.999949 4.08572 1.80589 4.08572 2.8 4.08572H10.7714C10.7714 4.08572 10.7714 4.8916 10.7714 5.88572V7.10901L13.3429 4.65625V1ZM15.1429 2.54286C15.0008 2.54286 14.8857 2.54286 14.8857 2.54286V4.85714C14.8857 4.99916 14.8857 5.11429 14.8857 5.11429H17.4571C17.4571 5.11429 17.4571 4.99916 17.4571 4.85714V2.8C17.4571 2.65799 17.4571 2.54286 17.4571 2.54286H15.1429ZM2.8 5.62857H2.54286V12.0571C2.54286 12.1992 2.54286 12.3143 2.54286 12.3143H9.22857V12.0571V5.88572C9.22857 5.7437 9.22857 5.62857 9.22857 5.62857H2.8ZM13.8571 14.8857C13.8571 14.8857 13.9723 14.8857 14.1143 14.8857H16.4286C16.4286 14.8857 16.4286 15.0008 16.4286 15.1429V17.2C16.4286 17.342 16.4286 17.4571 16.4286 17.4571H13.8571V17.2V14.8857Z" fill="black"/>
</svg>
