<svg width="120" height="88" viewBox="0 0 120 88" fill="none" xmlns="http://www.w3.org/2000/svg">
<path d="M53.3029 57.9411C46.3238 63.796 35.8835 62.9275 29.9839 56.0013C24.0843 49.075 24.9594 38.7139 31.9385 32.859" stroke="#D7DDE8" stroke-width="1.4" stroke-linecap="round" stroke-dasharray="5 5"/>
<path d="M37.8279 19.7018C36.4898 15.211 32.062 11.9143 26.8047 11.9143C20.488 11.9143 15.3672 16.6736 15.3672 22.5444C15.3672 22.9308 15.3898 23.3124 15.4334 23.6878C11.1744 24.6056 7.99994 28.1538 7.99994 32.3917C7.99994 37.1887 12.068 41.1022 17.1724 41.3164H17.1857C17.3274 41.3226 17.4695 41.3259 17.6127 41.3259C17.7559 41.3259 17.9063 41.3221 18.0521 41.3164L34.9696 41.3078C35.1913 41.3193 35.4151 41.3259 35.6399 41.3259C42.1213 41.3259 47.3755 36.4426 47.3755 30.4187C47.3755 25.0898 43.2633 20.6544 37.8279 19.7018Z" fill="#B5DCFF"/>
<ellipse cx="25.8128" cy="41.1034" rx="2.91871" ry="2.8966" fill="#F6F7F9" stroke="#0077FF" stroke-width="1.4"/>
<path fill-rule="evenodd" clip-rule="evenodd" d="M40.8555 53.86C40.8554 53.8644 40.8554 53.8688 40.8554 53.8732C40.8554 53.8776 40.8554 53.8819 40.8555 53.8863V70.0973V70.2909H40.8697C41.3415 73.5082 53.5279 76.0849 68.4922 76.0849C83.4565 76.0849 95.643 73.5082 96.1148 70.2909H96.1289V70.0973V53.68H96.1148C95.644 50.4625 83.4571 47.8855 68.4921 47.8855C53.5272 47.8855 41.3403 50.4625 40.8695 53.68H40.8555V53.86Z" fill="#F6F7F9"/>
<path d="M40.8555 53.86L41.5555 53.867V53.86H40.8555ZM40.8555 53.8863H41.5555L41.5554 53.8794L40.8555 53.8863ZM40.8555 70.2909H40.1555V70.9909H40.8555V70.2909ZM40.8697 70.2909L41.5622 70.1893L41.4745 69.5909H40.8697V70.2909ZM96.1148 70.2909V69.5909H95.5099L95.4222 70.1893L96.1148 70.2909ZM96.1289 70.2909V70.9909H96.8289V70.2909H96.1289ZM96.1289 53.68H96.8289V52.98H96.1289V53.68ZM96.1148 53.68L95.4221 53.7813L95.5097 54.38H96.1148V53.68ZM40.8695 53.68V54.38H41.4746L41.5621 53.7813L40.8695 53.68ZM40.8555 53.68V52.98H40.1555V53.68H40.8555ZM40.1555 53.853C40.1554 53.8597 40.1554 53.8665 40.1554 53.8732H41.5554C41.5554 53.8711 41.5554 53.869 41.5554 53.867L40.1555 53.853ZM40.1554 53.8732C40.1554 53.8799 40.1554 53.8866 40.1555 53.8933L41.5554 53.8794C41.5554 53.8773 41.5554 53.8752 41.5554 53.8732H40.1554ZM41.5555 70.0973V53.8863H40.1555V70.0973H41.5555ZM41.5555 70.2909V70.0973H40.1555V70.2909H41.5555ZM40.8697 69.5909H40.8555V70.9909H40.8697V69.5909ZM40.1771 70.3925C40.2673 71.0076 40.6263 71.535 41.102 71.9766C41.5794 72.4197 42.22 72.8202 42.9769 73.1843C44.4919 73.9131 46.5889 74.5509 49.1022 75.0794C54.1378 76.1383 60.9759 76.7849 68.4922 76.7849V75.3849C61.0442 75.3849 54.3069 74.7432 49.3903 73.7094C46.9275 73.1915 44.9541 72.5819 43.5838 71.9227C42.8981 71.5928 42.3923 71.2641 42.0545 70.9505C41.715 70.6354 41.59 70.3785 41.5622 70.1893L40.1771 70.3925ZM68.4922 76.7849C76.0085 76.7849 82.8466 76.1383 87.8822 75.0794C90.3955 74.5509 92.4925 73.9131 94.0075 73.1843C94.7644 72.8202 95.405 72.4197 95.8824 71.9766C96.3582 71.535 96.7171 71.0076 96.8074 70.3925L95.4222 70.1893C95.3944 70.3785 95.2694 70.6354 94.9299 70.9505C94.5921 71.2641 94.0863 71.5928 93.4006 71.9227C92.0303 72.5819 90.0569 73.1915 87.5941 73.7094C82.6775 74.7432 75.9402 75.3849 68.4922 75.3849V76.7849ZM96.1289 69.5909H96.1148V70.9909H96.1289V69.5909ZM95.4289 70.0973V70.2909H96.8289V70.0973H95.4289ZM95.4289 53.68V70.0973H96.8289V53.68H95.4289ZM96.1148 54.38H96.1289V52.98H96.1148V54.38ZM96.8074 53.5786C96.7174 52.9634 96.3585 52.4359 95.8828 51.9942C95.4055 51.551 94.7649 51.1506 94.0081 50.7864C92.4931 50.0575 90.3962 49.4197 87.8828 48.8912C82.8471 47.8322 76.0088 47.1855 68.4921 47.1855V48.5855C75.9404 48.5855 82.678 49.2273 87.5947 50.2612C90.0576 50.7791 92.0309 51.3888 93.4011 52.048C94.0867 52.3779 94.5925 52.7066 94.9302 53.0202C95.2695 53.3353 95.3945 53.5921 95.4221 53.7813L96.8074 53.5786ZM68.4921 47.1855C60.9755 47.1855 54.1372 47.8322 49.1015 48.8912C46.5881 49.4197 44.4912 50.0575 42.9762 50.7864C42.2193 51.1506 41.5788 51.551 41.1015 51.9942C40.6258 52.4359 40.2669 52.9634 40.1769 53.5786L41.5621 53.7813C41.5898 53.5921 41.7148 53.3353 42.0541 53.0202C42.3918 52.7066 42.8975 52.3779 43.5832 52.048C44.9533 51.3888 46.9267 50.7791 49.3896 50.2612C54.3062 49.2273 61.0438 48.5855 68.4921 48.5855V47.1855ZM40.8555 54.38H40.8695V52.98H40.8555V54.38ZM41.5555 53.86V53.68H40.1555V53.86H41.5555Z" fill="black"/>
<ellipse cx="68.4921" cy="53.8727" rx="27.6367" ry="5.98766" fill="#F6F7F9" stroke="black" stroke-width="1.4"/>
<path fill-rule="evenodd" clip-rule="evenodd" d="M40.8555 31.703C40.8554 31.7074 40.8554 31.7118 40.8554 31.7162C40.8554 31.7206 40.8554 31.725 40.8555 31.7293V47.9406V48.1336H40.8696C41.3398 51.3512 53.5269 53.9283 68.4922 53.9283C83.4575 53.9283 95.6446 51.3512 96.1149 48.1336H96.1289V47.9406V31.5227H96.1147C95.6433 28.3054 83.4567 25.7285 68.4921 25.7285C53.5276 25.7285 41.341 28.3054 40.8696 31.5227H40.8555V31.703Z" fill="#F6F7F9"/>
<path d="M40.8555 31.703L41.5555 31.71V31.703H40.8555ZM40.8555 31.7293H41.5555L41.5554 31.7224L40.8555 31.7293ZM40.8555 48.1336H40.1555V48.8336H40.8555V48.1336ZM40.8696 48.1336L41.5622 48.0324L41.4747 47.4336H40.8696V48.1336ZM96.1149 48.1336V47.4336H95.5097L95.4222 48.0324L96.1149 48.1336ZM96.1289 48.1336V48.8336H96.8289V48.1336H96.1289ZM96.1289 31.5227H96.8289V30.8227H96.1289V31.5227ZM96.1147 31.5227L95.4221 31.6242L95.5098 32.2227H96.1147V31.5227ZM40.8696 31.5227V32.2227H41.4745L41.5622 31.6242L40.8696 31.5227ZM40.8555 31.5227V30.8227H40.1555V31.5227H40.8555ZM40.1555 31.6961C40.1554 31.7028 40.1554 31.7095 40.1554 31.7162H41.5554C41.5554 31.7141 41.5554 31.712 41.5554 31.71L40.1555 31.6961ZM40.1554 31.7162C40.1554 31.7229 40.1554 31.7296 40.1555 31.7363L41.5554 31.7224C41.5554 31.7203 41.5554 31.7183 41.5554 31.7162H40.1554ZM41.5555 47.9406V31.7293H40.1555V47.9406H41.5555ZM41.5555 48.1336V47.9406H40.1555V48.1336H41.5555ZM40.8696 47.4336H40.8555V48.8336H40.8696V47.4336ZM40.1769 48.2349C40.2668 48.8501 40.6257 49.3776 41.1013 49.8194C41.5786 50.2626 42.2191 50.6631 42.976 51.0273C44.4909 51.7562 46.5878 52.394 49.1012 52.9226C54.1369 53.9816 60.9754 54.6283 68.4922 54.6283V53.2283C61.0438 53.2283 54.306 52.5865 49.3893 51.5525C46.9265 51.0346 44.9531 50.4249 43.583 49.7657C42.8974 49.4358 42.3917 49.1071 42.054 48.7935C41.7147 48.4784 41.5898 48.2216 41.5622 48.0324L40.1769 48.2349ZM68.4922 54.6283C76.009 54.6283 82.8475 53.9816 87.8832 52.9226C90.3966 52.394 92.4935 51.7562 94.0084 51.0273C94.7653 50.6631 95.4058 50.2626 95.8831 49.8194C96.3587 49.3776 96.7176 48.8501 96.8075 48.2349L95.4222 48.0324C95.3946 48.2216 95.2697 48.4784 94.9304 48.7935C94.5927 49.1071 94.087 49.4358 93.4014 49.7657C92.0313 50.4249 90.058 51.0346 87.5951 51.5525C82.6784 52.5865 75.9407 53.2283 68.4922 53.2283V54.6283ZM96.1289 47.4336H96.1149V48.8336H96.1289V47.4336ZM95.4289 47.9406V48.1336H96.8289V47.9406H95.4289ZM95.4289 31.5227V47.9406H96.8289V31.5227H95.4289ZM96.1147 32.2227H96.1289V30.8227H96.1147V32.2227ZM96.8073 31.4212C96.7172 30.8061 96.3582 30.2787 95.8825 29.837C95.4051 29.3938 94.7646 28.9934 94.0077 28.6292C92.4927 27.9004 90.3957 27.2626 87.8824 26.7341C82.8468 25.6752 76.0086 25.0285 68.4921 25.0285V26.4285C75.9402 26.4285 82.6777 27.0703 87.5943 28.1041C90.0571 28.622 92.0305 29.2317 93.4007 29.8908C94.0864 30.2207 94.5922 30.5494 94.93 30.863C95.2694 31.1781 95.3944 31.435 95.4221 31.6242L96.8073 31.4212ZM68.4921 25.0285C60.9757 25.0285 54.1375 25.6752 49.1019 26.7341C46.5885 27.2626 44.4916 27.9004 42.9766 28.6292C42.2197 28.9934 41.5791 29.3938 41.1018 29.837C40.626 30.2787 40.2671 30.8061 40.177 31.4212L41.5622 31.6242C41.5899 31.435 41.7149 31.1781 42.0543 30.863C42.3921 30.5494 42.8978 30.2207 43.5835 29.8908C44.9537 29.2317 46.9271 28.622 49.39 28.1041C54.3066 27.0703 61.044 26.4285 68.4921 26.4285V25.0285ZM40.8555 32.2227H40.8696V30.8227H40.8555V32.2227ZM41.5555 31.703V31.5227H40.1555V31.703H41.5555Z" fill="black"/>
<ellipse cx="68.4921" cy="31.7162" rx="27.6367" ry="5.98766" fill="#F6F7F9" stroke="black" stroke-width="1.4"/>
<path d="M101.717 18.7498H98.6383C96.0195 18.7498 94.7101 18.7498 93.7483 19.3392C93.21 19.669 92.7575 20.1215 92.4277 20.6598C91.8383 21.6216 91.8383 22.931 91.8383 25.5498V34.8475C91.8383 37.4662 91.8383 38.7756 92.4277 39.7375C92.7575 40.2757 93.21 40.7282 93.7483 41.058C94.7101 41.6475 96.0195 41.6475 98.6383 41.6475H105.2C107.819 41.6475 109.128 41.6475 110.09 41.058C110.628 40.7282 111.081 40.2757 111.411 39.7375C112 38.7756 112 37.4662 112 34.8475V28.7818C112 27.5809 112 26.9804 111.835 26.4244C111.742 26.1084 111.609 25.8053 111.442 25.5218C111.146 25.0228 110.706 24.6144 109.826 23.7974L106.343 20.5654C105.549 19.8282 105.151 19.4595 104.686 19.2134C104.421 19.0734 104.141 18.9636 103.852 18.8861C103.343 18.7498 102.801 18.7498 101.717 18.7498Z" fill="#F6F7F9" stroke="#0077FF" stroke-width="1.4"/>
<path d="M111.632 26.9512L111.568 27.6483L112.611 27.7438L112.3 26.7432L111.632 26.9512ZM109.391 23.3937L109.867 22.8806V22.8806L109.391 23.3937ZM106.734 20.9288L106.258 21.4419L106.734 20.9288ZM102.735 18.8987L102.868 18.2115L101.852 18.0145L102.048 19.0313L102.735 18.8987ZM112.3 26.7432C111.845 25.2797 111.013 23.944 109.867 22.8806L108.914 23.9068C109.879 24.8022 110.58 25.9267 110.963 27.1592L112.3 26.7432ZM109.867 22.8806L107.211 20.4157L106.258 21.4419L108.914 23.9068L109.867 22.8806ZM107.211 20.4157C105.989 19.2822 104.482 18.5241 102.868 18.2115L102.602 19.5859C103.961 19.8492 105.23 20.4875 106.258 21.4419L107.211 20.4157ZM102.048 19.0313C102.939 23.6519 106.8 27.2121 111.568 27.6483L111.695 26.2541C107.554 25.8752 104.197 22.7807 103.422 18.7661L102.048 19.0313Z" fill="#0077FF"/>
</svg>
