<svg width="245" height="176" viewBox="0 0 245 176" fill="none" xmlns="http://www.w3.org/2000/svg">
<path d="M112.112 118.848C96.7853 131.804 73.8578 129.883 60.9018 114.556C47.9459 99.2293 49.8677 76.3018 65.1943 63.3459" stroke="#D7DDE8" stroke-width="1.8" stroke-linecap="round" stroke-dasharray="5 5"/>
<path d="M73.0583 34.2324C70.3105 24.2951 61.2176 17 50.4213 17C37.4496 17 26.9337 27.5316 26.9337 40.5226C26.9337 41.3776 26.98 42.2221 27.0696 43.0528C18.3234 45.0838 11.8043 52.9352 11.8043 62.313C11.8043 72.928 20.1585 81.588 30.6406 82.0619H30.668C30.9589 82.0757 31.2509 82.083 31.545 82.083C31.839 82.083 32.1479 82.0746 32.4472 82.0619L67.1885 82.0429C67.6439 82.0683 68.1034 82.083 68.5651 82.083C81.8752 82.083 92.6651 71.277 92.6651 57.9471C92.6651 46.1552 84.2204 36.3404 73.0583 34.2324Z" fill="#B5DCFF"/>
<circle cx="51.7416" cy="81.5904" r="6.40969" fill="#F6F7F9" stroke="#0077FF" stroke-width="1.8"/>
<path fill-rule="evenodd" clip-rule="evenodd" d="M84.7764 109.817C84.7763 109.827 84.7762 109.838 84.7762 109.848C84.7762 109.859 84.7763 109.869 84.7764 109.88V145.75V146.178H84.8074C85.8419 153.298 112.605 159 145.469 159C178.332 159 205.095 153.298 206.13 146.178H206.161V145.75V109.421H206.13C205.096 102.301 178.332 96.5986 145.468 96.5986C112.604 96.5986 85.8413 102.301 84.8072 109.421H84.7764V109.817Z" fill="#F6F7F9"/>
<path d="M84.7764 109.817L85.6764 109.827V109.817H84.7764ZM84.7764 109.88H85.6764L85.6763 109.87L84.7764 109.88ZM84.7764 146.178H83.8764V147.078H84.7764V146.178ZM84.8074 146.178L85.6981 146.049L85.5861 145.278H84.8074V146.178ZM206.13 146.178V145.278H205.351L205.239 146.049L206.13 146.178ZM206.161 146.178V147.078H207.061V146.178H206.161ZM206.161 109.421H207.061V108.521H206.161V109.421ZM206.13 109.421L205.239 109.55L205.351 110.321H206.13V109.421ZM84.8072 109.421V110.321H85.586L85.6979 109.55L84.8072 109.421ZM84.7764 109.421V108.521H83.8764V109.421H84.7764ZM83.8764 109.807C83.8763 109.821 83.8762 109.835 83.8762 109.848H85.6762C85.6762 109.841 85.6763 109.834 85.6763 109.827L83.8764 109.807ZM83.8762 109.848C83.8762 109.862 83.8763 109.876 83.8764 109.889L85.6763 109.87C85.6763 109.863 85.6762 109.856 85.6762 109.848H83.8762ZM85.6764 145.75V109.88H83.8764V145.75H85.6764ZM85.6764 146.178V145.75H83.8764V146.178H85.6764ZM84.8074 145.278H84.7764V147.078H84.8074V145.278ZM83.9168 146.307C84.0856 147.469 84.7654 148.511 85.7482 149.43C86.7327 150.351 88.078 151.205 89.7081 151.995C92.9695 153.576 97.5187 154.975 103.015 156.139C114.021 158.471 128.992 159.9 145.469 159.9V158.1C129.081 158.1 114.24 156.678 103.389 154.378C97.9573 153.227 93.5678 151.866 90.4933 150.375C88.9553 149.63 87.7833 148.869 86.9779 148.116C86.1707 147.361 85.7879 146.666 85.6981 146.049L83.9168 146.307ZM145.469 159.9C161.945 159.9 176.917 158.471 187.922 156.139C193.418 154.975 197.968 153.576 201.229 151.995C202.859 151.205 204.204 150.351 205.189 149.43C206.172 148.511 206.852 147.469 207.02 146.307L205.239 146.049C205.149 146.666 204.766 147.361 203.959 148.116C203.154 148.869 201.982 149.63 200.444 150.375C197.369 151.866 192.98 153.227 187.549 154.378C176.698 156.678 161.856 158.1 145.469 158.1V159.9ZM206.161 145.278H206.13V147.078H206.161V145.278ZM205.261 145.75V146.178H207.061V145.75H205.261ZM205.261 109.421V145.75H207.061V109.421H205.261ZM206.13 110.321H206.161V108.521H206.13V110.321ZM207.02 109.291C206.851 108.129 206.172 107.088 205.189 106.168C204.204 105.247 202.859 104.394 201.229 103.604C197.968 102.023 193.419 100.624 187.922 99.4593C176.917 97.1275 161.945 95.6986 145.468 95.6986V97.4986C161.856 97.4986 176.698 98.921 187.549 101.22C192.98 102.371 197.369 103.733 200.444 105.223C201.982 105.969 203.154 106.729 203.959 107.483C204.766 108.238 205.149 108.932 205.239 109.55L207.02 109.291ZM145.468 95.6986C128.992 95.6986 114.02 97.1275 103.015 99.4593C97.5183 100.624 92.9691 102.023 89.7077 103.604C88.0776 104.394 86.7324 105.247 85.7478 106.168C84.7651 107.088 84.0854 108.129 83.9166 109.291L85.6979 109.55C85.7876 108.932 86.1704 108.238 86.9776 107.483C87.783 106.729 88.955 105.969 90.4929 105.223C93.5674 103.733 97.9569 102.371 103.388 101.22C114.239 98.921 129.081 97.4986 145.468 97.4986V95.6986ZM84.7764 110.321H84.8072V108.521H84.7764V110.321ZM85.6764 109.817V109.421H83.8764V109.817H85.6764Z" fill="black"/>
<ellipse cx="145.468" cy="109.847" rx="60.6922" ry="13.2497" fill="#F6F7F9" stroke="black" stroke-width="1.8"/>
<path fill-rule="evenodd" clip-rule="evenodd" d="M84.7764 60.7884C84.7763 60.7986 84.7762 60.8088 84.7762 60.819C84.7762 60.8292 84.7763 60.8394 84.7764 60.8496V96.7208V97.1486H84.8074C85.8419 104.268 112.605 109.97 145.469 109.97C178.332 109.97 205.095 104.268 206.13 97.1486H206.161V96.7208V60.3913H206.13C205.095 53.2717 178.332 47.5693 145.468 47.5693C112.605 47.5693 85.8415 53.2717 84.8073 60.3913H84.7764V60.7884Z" fill="#F6F7F9"/>
<path d="M84.7764 60.7884L85.6764 60.7978V60.7884H84.7764ZM84.7764 60.8496H85.6764L85.6763 60.8403L84.7764 60.8496ZM84.7764 97.1486H83.8764V98.0486H84.7764V97.1486ZM84.8074 97.1486L85.6981 97.0191L85.5861 96.2486H84.8074V97.1486ZM206.13 97.1486V96.2486H205.351L205.239 97.0191L206.13 97.1486ZM206.161 97.1486V98.0486H207.061V97.1486H206.161ZM206.161 60.3913H207.061V59.4913H206.161V60.3913ZM206.13 60.3913L205.239 60.5207L205.351 61.2913H206.13V60.3913ZM84.8073 60.3913V61.2913H85.586L85.6979 60.5207L84.8073 60.3913ZM84.7764 60.3913V59.4913H83.8764V60.3913H84.7764ZM83.8764 60.7791C83.8763 60.7924 83.8762 60.8057 83.8762 60.819H85.6762C85.6762 60.8119 85.6763 60.8049 85.6763 60.7978L83.8764 60.7791ZM83.8762 60.819C83.8762 60.8323 83.8763 60.8456 83.8764 60.8589L85.6763 60.8403C85.6763 60.8332 85.6762 60.8261 85.6762 60.819H83.8762ZM85.6764 96.7208V60.8496H83.8764V96.7208H85.6764ZM85.6764 97.1486V96.7208H83.8764V97.1486H85.6764ZM84.8074 96.2486H84.7764V98.0486H84.8074V96.2486ZM83.9168 97.278C84.0856 98.44 84.7654 99.4814 85.7482 100.401C86.7327 101.322 88.078 102.175 89.7081 102.965C92.9695 104.547 97.5187 105.945 103.015 107.11C114.021 109.442 128.992 110.87 145.469 110.87V109.07C129.081 109.07 114.24 107.648 103.389 105.349C97.9573 104.198 93.5678 102.836 90.4933 101.346C88.9553 100.6 87.7833 99.8399 86.9779 99.0864C86.1707 98.3312 85.7879 97.637 85.6981 97.0191L83.9168 97.278ZM145.469 110.87C161.945 110.87 176.917 109.442 187.922 107.11C193.418 105.945 197.968 104.547 201.229 102.965C202.859 102.175 204.204 101.322 205.189 100.401C206.172 99.4814 206.852 98.44 207.02 97.278L205.239 97.0191C205.149 97.637 204.766 98.3312 203.959 99.0864C203.154 99.8399 201.982 100.6 200.444 101.346C197.369 102.836 192.98 104.198 187.549 105.349C176.698 107.648 161.856 109.07 145.469 109.07V110.87ZM206.161 96.2486H206.13V98.0486H206.161V96.2486ZM205.261 96.7208V97.1486H207.061V96.7208H205.261ZM205.261 60.3913V96.7208H207.061V60.3913H205.261ZM206.13 61.2913H206.161V59.4913H206.13V61.2913ZM207.02 60.2619C206.851 59.0999 206.172 58.0584 205.189 57.139C204.204 56.2179 202.859 55.3646 201.229 54.5744C197.968 52.9933 193.418 51.5947 187.922 50.43C176.917 48.0981 161.945 46.6693 145.468 46.6693V48.4693C161.856 48.4693 176.698 49.8917 187.549 52.1909C192.98 53.3417 197.369 54.7036 200.444 56.1941C201.982 56.9397 203.154 57.7 203.959 58.4535C204.766 59.2087 205.149 59.9028 205.239 60.5207L207.02 60.2619ZM145.468 46.6693C128.992 46.6693 114.02 48.0981 103.015 50.43C97.5185 51.5947 92.9693 52.9933 89.7078 54.5744C88.0778 55.3646 86.7325 56.2179 85.748 57.139C84.7652 58.0584 84.0854 59.0999 83.9166 60.2619L85.6979 60.5207C85.7877 59.9028 86.1705 59.2087 86.9777 58.4535C87.7831 57.7 88.9551 56.9397 90.493 56.1941C93.5676 54.7036 97.957 53.3417 103.388 52.1909C114.239 49.8917 129.081 48.4693 145.468 48.4693V46.6693ZM84.7764 61.2913H84.8073V59.4913H84.7764V61.2913ZM85.6764 60.7884V60.3913H83.8764V60.7884H85.6764Z" fill="black"/>
<ellipse cx="145.468" cy="60.819" rx="60.6922" ry="13.2497" fill="#F6F7F9" stroke="black" stroke-width="1.8"/>
<path d="M210.519 32.126H208.792C202.245 32.126 198.972 32.126 196.567 33.5996C195.221 34.4241 194.09 35.5554 193.266 36.901C191.792 39.3057 191.792 42.5791 191.792 49.126V65.7948C191.792 72.3416 191.792 75.6151 193.266 78.0198C194.09 79.3653 195.221 80.4966 196.567 81.3212C198.972 82.7948 202.245 82.7948 208.792 82.7948H216.196C222.743 82.7948 226.016 82.7948 228.421 81.3212C229.766 80.4966 230.898 79.3653 231.722 78.0198C233.196 75.6151 233.196 72.3416 233.196 65.7948V54.8025C233.196 51.9474 233.196 50.5199 232.82 49.1887C232.607 48.4319 232.305 47.7029 231.921 47.0168C231.245 45.81 230.235 44.8006 228.216 42.7817L222.54 37.1052C220.521 35.0863 219.512 34.0769 218.305 33.401C217.619 33.0168 216.89 32.7149 216.133 32.5014C214.802 32.126 213.374 32.126 210.519 32.126Z" fill="#F6F7F9" stroke="#0077FF" stroke-width="1.8"/>
<path d="M233.159 50.3678V51.2678H234.149L234.055 50.2825L233.159 50.3678ZM230.805 45.3707L231.442 44.7343V44.7343L230.805 45.3707ZM219.951 34.5162L220.587 33.8798V33.8798L219.951 34.5162ZM213.797 32.126V31.226H212.897V32.126H213.797ZM215.707 46.2456L214.978 46.7746L214.978 46.7746L215.707 46.2456ZM217.919 48.4579L218.448 47.7298L218.448 47.7298L217.919 48.4579ZM234.055 50.2825C233.856 48.1945 232.937 46.2299 231.442 44.7343L230.169 46.0071C231.368 47.2056 232.104 48.7799 232.263 50.453L234.055 50.2825ZM231.442 44.7343L220.587 33.8798L219.315 35.1526L230.169 46.0071L231.442 44.7343ZM220.587 33.8798C218.888 32.1806 216.583 31.226 214.18 31.226V33.026C216.106 33.026 217.953 33.7909 219.315 35.1526L220.587 33.8798ZM214.18 31.226H213.797V33.026H214.18V31.226ZM212.897 32.126V32.3678H214.697V32.126H212.897ZM212.897 32.3678C212.897 36.0974 212.896 38.967 213.141 41.2302C213.388 43.5102 213.894 45.2813 214.978 46.7746L216.435 45.7166C215.61 44.5813 215.161 43.1632 214.93 41.0363C214.698 38.8926 214.697 36.1375 214.697 32.3678H212.897ZM214.978 46.7746C215.651 47.7 216.465 48.5137 217.39 49.186L218.448 47.7298C217.675 47.1685 216.996 46.4891 216.435 45.7166L214.978 46.7746ZM217.39 49.186C218.883 50.271 220.654 50.7768 222.934 51.0238C225.198 51.269 228.067 51.2678 231.797 51.2678V49.4678C228.027 49.4678 225.272 49.4665 223.128 49.2343C221.001 49.0038 219.583 48.5547 218.448 47.7298L217.39 49.186ZM231.797 51.2678H233.159V49.4678H231.797V51.2678Z" fill="#0077FF"/>
</svg>
