<svg width="224" height="143" viewBox="0 0 224 143" fill="none" xmlns="http://www.w3.org/2000/svg">
<path d="M101.112 101.848C85.7853 114.804 62.8578 112.883 49.9018 97.5559C36.9459 82.2293 38.8677 59.3018 54.1943 46.3459" stroke="#D7DDE8" stroke-width="1.8" stroke-linecap="round" stroke-dasharray="5 5"/>
<path d="M62.0583 17.2324C59.3105 7.29513 50.2176 0 39.4213 0C26.4496 0 15.9337 10.5316 15.9337 23.5226C15.9337 24.3776 15.98 25.2221 16.0696 26.0528C7.32342 28.0838 0.804344 35.9352 0.804344 45.313C0.804344 55.928 9.15846 64.588 19.6406 65.0619H19.668C19.9589 65.0757 20.2509 65.083 20.545 65.083C20.839 65.083 21.1479 65.0746 21.4472 65.0619L56.1885 65.0429C56.6439 65.0683 57.1034 65.083 57.5651 65.083C70.8752 65.083 81.6651 54.277 81.6651 40.9471C81.6651 29.1552 73.2204 19.3404 62.0583 17.2324Z" fill="#B5DCFF"/>
<circle cx="40.7416" cy="64.5904" r="6.40969" fill="#F6F7F9" stroke="#0077FF" stroke-width="1.8"/>
<path fill-rule="evenodd" clip-rule="evenodd" d="M73.7764 92.817C73.7763 92.8275 73.7762 92.8379 73.7762 92.8483C73.7762 92.8588 73.7763 92.8692 73.7764 92.8796V128.75V129.178H73.8074C74.8419 136.298 101.605 142 134.469 142C167.332 142 194.095 136.298 195.13 129.178H195.161V128.75V92.4207H195.13C194.096 85.301 167.332 79.5986 134.468 79.5986C101.604 79.5986 74.8413 85.301 73.8072 92.4207H73.7764V92.817Z" fill="#F6F7F9"/>
<path d="M73.7764 92.817L74.6764 92.8266V92.817H73.7764ZM73.7764 92.8796H74.6764L74.6763 92.8701L73.7764 92.8796ZM73.7764 129.178H72.8764V130.078H73.7764V129.178ZM73.8074 129.178L74.6981 129.049L74.5861 128.278H73.8074V129.178ZM195.13 129.178V128.278H194.351L194.239 129.049L195.13 129.178ZM195.161 129.178V130.078H196.061V129.178H195.161ZM195.161 92.4207H196.061V91.5207H195.161V92.4207ZM195.13 92.4207L194.239 92.5501L194.351 93.3207H195.13V92.4207ZM73.8072 92.4207V93.3207H74.586L74.6979 92.5501L73.8072 92.4207ZM73.7764 92.4207V91.5207H72.8764V92.4207H73.7764ZM72.8764 92.8075C72.8763 92.8211 72.8762 92.8347 72.8762 92.8483H74.6762C74.6762 92.8411 74.6763 92.8338 74.6763 92.8266L72.8764 92.8075ZM72.8762 92.8483C72.8762 92.862 72.8763 92.8756 72.8764 92.8892L74.6763 92.8701C74.6763 92.8629 74.6762 92.8556 74.6762 92.8483H72.8762ZM74.6764 128.75V92.8796H72.8764V128.75H74.6764ZM74.6764 129.178V128.75H72.8764V129.178H74.6764ZM73.8074 128.278H73.7764V130.078H73.8074V128.278ZM72.9168 129.307C73.0856 130.469 73.7654 131.511 74.7482 132.43C75.7327 133.351 77.078 134.205 78.7081 134.995C81.9695 136.576 86.5187 137.975 92.0155 139.139C103.021 141.471 117.992 142.9 134.469 142.9V141.1C118.081 141.1 103.24 139.678 92.3886 137.378C86.9573 136.227 82.5678 134.866 79.4933 133.375C77.9553 132.63 76.7833 131.869 75.9779 131.116C75.1707 130.361 74.7879 129.666 74.6981 129.049L72.9168 129.307ZM134.469 142.9C150.945 142.9 165.917 141.471 176.922 139.139C182.418 137.975 186.968 136.576 190.229 134.995C191.859 134.205 193.204 133.351 194.189 132.43C195.172 131.511 195.852 130.469 196.02 129.307L194.239 129.049C194.149 129.666 193.766 130.361 192.959 131.116C192.154 131.869 190.982 132.63 189.444 133.375C186.369 134.866 181.98 136.227 176.549 137.378C165.698 139.678 150.856 141.1 134.469 141.1V142.9ZM195.161 128.278H195.13V130.078H195.161V128.278ZM194.261 128.75V129.178H196.061V128.75H194.261ZM194.261 92.4207V128.75H196.061V92.4207H194.261ZM195.13 93.3207H195.161V91.5207H195.13V93.3207ZM196.02 92.2914C195.851 91.1293 195.172 90.0878 194.189 89.1684C193.204 88.2473 191.859 87.394 190.229 86.6038C186.968 85.0227 182.419 83.6241 176.922 82.4593C165.917 80.1275 150.945 78.6986 134.468 78.6986V80.4986C150.856 80.4986 165.698 81.921 176.549 84.2202C181.98 85.3711 186.369 86.733 189.444 88.2235C190.982 88.9691 192.154 89.7293 192.959 90.4828C193.766 91.238 194.149 91.9322 194.239 92.5501L196.02 92.2914ZM134.468 78.6986C117.992 78.6986 103.02 80.1275 92.015 82.4593C86.5183 83.6241 81.9691 85.0227 78.7077 86.6038C77.0776 87.394 75.7324 88.2473 74.7478 89.1684C73.7651 90.0878 73.0854 91.1293 72.9166 92.2914L74.6979 92.5501C74.7876 91.9322 75.1704 91.238 75.9776 90.4828C76.783 89.7293 77.955 88.9691 79.4929 88.2235C82.5674 86.733 86.9569 85.3711 92.3882 84.2202C103.239 81.921 118.081 80.4986 134.468 80.4986V78.6986ZM73.7764 93.3207H73.8072V91.5207H73.7764V93.3207ZM74.6764 92.817V92.4207H72.8764V92.817H74.6764Z" fill="black"/>
<ellipse cx="134.468" cy="92.8474" rx="60.6922" ry="13.2497" fill="#F6F7F9" stroke="black" stroke-width="1.8"/>
<path fill-rule="evenodd" clip-rule="evenodd" d="M73.7764 43.7884C73.7763 43.7986 73.7762 43.8088 73.7762 43.819C73.7762 43.8292 73.7763 43.8394 73.7764 43.8496V79.7208V80.1486H73.8074C74.8419 87.2682 101.605 92.9705 134.469 92.9705C167.332 92.9705 194.095 87.2682 195.13 80.1486H195.161V79.7208V43.3913H195.13C194.095 36.2717 167.332 30.5693 134.468 30.5693C101.605 30.5693 74.8415 36.2717 73.8073 43.3913H73.7764V43.7884Z" fill="#F6F7F9"/>
<path d="M73.7764 43.7884L74.6764 43.7978V43.7884H73.7764ZM73.7764 43.8496H74.6764L74.6763 43.8403L73.7764 43.8496ZM73.7764 80.1486H72.8764V81.0486H73.7764V80.1486ZM73.8074 80.1486L74.6981 80.0191L74.5861 79.2486H73.8074V80.1486ZM195.13 80.1486V79.2486H194.351L194.239 80.0191L195.13 80.1486ZM195.161 80.1486V81.0486H196.061V80.1486H195.161ZM195.161 43.3913H196.061V42.4913H195.161V43.3913ZM195.13 43.3913L194.239 43.5207L194.351 44.2913H195.13V43.3913ZM73.8073 43.3913V44.2913H74.586L74.6979 43.5207L73.8073 43.3913ZM73.7764 43.3913V42.4913H72.8764V43.3913H73.7764ZM72.8764 43.7791C72.8763 43.7924 72.8762 43.8057 72.8762 43.819H74.6762C74.6762 43.8119 74.6763 43.8049 74.6763 43.7978L72.8764 43.7791ZM72.8762 43.819C72.8762 43.8323 72.8763 43.8456 72.8764 43.8589L74.6763 43.8403C74.6763 43.8332 74.6762 43.8261 74.6762 43.819H72.8762ZM74.6764 79.7208V43.8496H72.8764V79.7208H74.6764ZM74.6764 80.1486V79.7208H72.8764V80.1486H74.6764ZM73.8074 79.2486H73.7764V81.0486H73.8074V79.2486ZM72.9168 80.278C73.0856 81.44 73.7654 82.4814 74.7482 83.4008C75.7327 84.3219 77.078 85.1752 78.7081 85.9654C81.9695 87.5465 86.5187 88.9451 92.0155 90.1098C103.021 92.4417 117.992 93.8705 134.469 93.8705V92.0705C118.081 92.0705 103.24 90.6481 92.3886 88.3489C86.9573 87.1981 82.5678 85.8362 79.4933 84.3457C77.9553 83.6001 76.7833 82.8399 75.9779 82.0864C75.1707 81.3312 74.7879 80.637 74.6981 80.0191L72.9168 80.278ZM134.469 93.8705C150.945 93.8705 165.917 92.4417 176.922 90.1098C182.418 88.9451 186.968 87.5465 190.229 85.9654C191.859 85.1752 193.204 84.3219 194.189 83.4008C195.172 82.4814 195.852 81.44 196.02 80.278L194.239 80.0191C194.149 80.637 193.766 81.3312 192.959 82.0864C192.154 82.8399 190.982 83.6001 189.444 84.3457C186.369 85.8362 181.98 87.1981 176.549 88.3489C165.698 90.6481 150.856 92.0705 134.469 92.0705V93.8705ZM195.161 79.2486H195.13V81.0486H195.161V79.2486ZM194.261 79.7208V80.1486H196.061V79.7208H194.261ZM194.261 43.3913V79.7208H196.061V43.3913H194.261ZM195.13 44.2913H195.161V42.4913H195.13V44.2913ZM196.02 43.2619C195.851 42.0999 195.172 41.0584 194.189 40.139C193.204 39.2179 191.859 38.3646 190.229 37.5744C186.968 35.9933 182.418 34.5947 176.922 33.43C165.917 31.0981 150.945 29.6693 134.468 29.6693V31.4693C150.856 31.4693 165.698 32.8917 176.549 35.1909C181.98 36.3417 186.369 37.7036 189.444 39.1941C190.982 39.9397 192.154 40.7 192.959 41.4535C193.766 42.2087 194.149 42.9028 194.239 43.5207L196.02 43.2619ZM134.468 29.6693C117.992 29.6693 103.02 31.0981 92.0152 33.43C86.5185 34.5947 81.9693 35.9933 78.7078 37.5744C77.0778 38.3646 75.7325 39.2179 74.748 40.139C73.7652 41.0584 73.0854 42.0999 72.9166 43.2619L74.6979 43.5207C74.7877 42.9028 75.1705 42.2087 75.9777 41.4535C76.7831 40.7 77.9551 39.9397 79.493 39.1941C82.5676 37.7036 86.957 36.3417 92.3883 35.1909C103.239 32.8917 118.081 31.4693 134.468 31.4693V29.6693ZM73.7764 44.2913H73.8073V42.4913H73.7764V44.2913ZM74.6764 43.7884V43.3913H72.8764V43.7884H74.6764Z" fill="black"/>
<ellipse cx="134.468" cy="43.819" rx="60.6922" ry="13.2497" fill="#F6F7F9" stroke="black" stroke-width="1.8"/>
<path d="M199.519 15.126H197.792C191.245 15.126 187.972 15.126 185.567 16.5996C184.221 17.4241 183.09 18.5554 182.266 19.901C180.792 22.3057 180.792 25.5791 180.792 32.126V48.7948C180.792 55.3416 180.792 58.6151 182.266 61.0198C183.09 62.3653 184.221 63.4966 185.567 64.3212C187.972 65.7948 191.245 65.7948 197.792 65.7948H205.196C211.743 65.7948 215.016 65.7948 217.421 64.3212C218.766 63.4966 219.898 62.3653 220.722 61.0198C222.196 58.6151 222.196 55.3416 222.196 48.7948V37.8025C222.196 34.9474 222.196 33.5199 221.82 32.1887C221.607 31.4319 221.305 30.7029 220.921 30.0168C220.245 28.81 219.235 27.8006 217.216 25.7817L211.54 20.1052C209.521 18.0863 208.512 17.0769 207.305 16.401C206.619 16.0168 205.89 15.7149 205.133 15.5014C203.802 15.126 202.374 15.126 199.519 15.126Z" fill="#F6F7F9" stroke="#0077FF" stroke-width="1.8"/>
<path d="M222.159 33.3678V34.2678H223.149L223.055 33.2825L222.159 33.3678ZM219.805 28.3707L220.442 27.7343V27.7343L219.805 28.3707ZM208.951 17.5162L209.587 16.8798V16.8798L208.951 17.5162ZM202.797 15.126V14.226H201.897V15.126H202.797ZM204.707 29.2456L203.978 29.7746L203.978 29.7746L204.707 29.2456ZM206.919 31.4579L207.448 30.7298L207.448 30.7298L206.919 31.4579ZM223.055 33.2825C222.856 31.1945 221.937 29.2299 220.442 27.7343L219.169 29.0071C220.368 30.2056 221.104 31.7799 221.263 33.453L223.055 33.2825ZM220.442 27.7343L209.587 16.8798L208.315 18.1526L219.169 29.0071L220.442 27.7343ZM209.587 16.8798C207.888 15.1806 205.583 14.226 203.18 14.226V16.026C205.106 16.026 206.953 16.7909 208.315 18.1526L209.587 16.8798ZM203.18 14.226H202.797V16.026H203.18V14.226ZM201.897 15.126V15.3678H203.697V15.126H201.897ZM201.897 15.3678C201.897 19.0974 201.896 21.967 202.141 24.2302C202.388 26.5102 202.894 28.2813 203.978 29.7746L205.435 28.7166C204.61 27.5813 204.161 26.1632 203.93 24.0363C203.698 21.8926 203.697 19.1375 203.697 15.3678H201.897ZM203.978 29.7746C204.651 30.7 205.465 31.5137 206.39 32.186L207.448 30.7298C206.675 30.1685 205.996 29.4891 205.435 28.7166L203.978 29.7746ZM206.39 32.186C207.883 33.271 209.654 33.7768 211.934 34.0238C214.198 34.269 217.067 34.2678 220.797 34.2678V32.4678C217.027 32.4678 214.272 32.4665 212.128 32.2343C210.001 32.0038 208.583 31.5547 207.448 30.7298L206.39 32.186ZM220.797 34.2678H222.159V32.4678H220.797V34.2678Z" fill="#0077FF"/>
</svg>
