<svg width="105" height="66" viewBox="0 0 105 66" fill="none" xmlns="http://www.w3.org/2000/svg">
<path d="M45.3029 46.9411C38.3238 52.796 27.8835 51.9275 21.9839 45.0013C16.0843 38.075 16.9594 27.7139 23.9385 21.859" stroke="#D7DDE8" stroke-width="1.4" stroke-linecap="round" stroke-dasharray="5 5"/>
<path d="M29.8279 8.70179C28.4898 4.21105 24.062 0.914307 18.8047 0.914307C12.488 0.914307 7.36724 5.67361 7.36724 11.5444C7.36724 11.9308 7.38982 12.3124 7.43345 12.6878C3.17444 13.6056 -6.10352e-05 17.1538 -6.10352e-05 21.3917C-6.10352e-05 26.1887 4.06802 30.1022 9.17237 30.3164H9.18571C9.32737 30.3226 9.46954 30.3259 9.61274 30.3259C9.75594 30.3259 9.90633 30.3221 10.0521 30.3164L26.9696 30.3078C27.1913 30.3193 27.4151 30.3259 27.6399 30.3259C34.1213 30.3259 39.3755 25.4426 39.3755 19.4187C39.3755 14.0898 35.2633 9.65441 29.8279 8.70179Z" fill="#B5DCFF"/>
<ellipse cx="17.8128" cy="30.1034" rx="2.91871" ry="2.8966" fill="#F6F7F9" stroke="#0077FF" stroke-width="1.4"/>
<path fill-rule="evenodd" clip-rule="evenodd" d="M32.8555 42.86C32.8554 42.8644 32.8554 42.8688 32.8554 42.8732C32.8554 42.8776 32.8554 42.8819 32.8555 42.8863V59.0973V59.2909H32.8697C33.3415 62.5082 45.5279 65.0849 60.4922 65.0849C75.4565 65.0849 87.643 62.5082 88.1148 59.2909H88.1289V59.0973V42.68H88.1148C87.644 39.4625 75.4571 36.8855 60.4921 36.8855C45.5272 36.8855 33.3403 39.4625 32.8695 42.68H32.8555V42.86Z" fill="#F6F7F9"/>
<path d="M32.8555 42.86L33.5555 42.867V42.86H32.8555ZM32.8555 42.8863H33.5555L33.5554 42.8794L32.8555 42.8863ZM32.8555 59.2909H32.1555V59.9909H32.8555V59.2909ZM32.8697 59.2909L33.5622 59.1893L33.4745 58.5909H32.8697V59.2909ZM88.1148 59.2909V58.5909H87.5099L87.4222 59.1893L88.1148 59.2909ZM88.1289 59.2909V59.9909H88.8289V59.2909H88.1289ZM88.1289 42.68H88.8289V41.98H88.1289V42.68ZM88.1148 42.68L87.4221 42.7813L87.5097 43.38H88.1148V42.68ZM32.8695 42.68V43.38H33.4746L33.5621 42.7813L32.8695 42.68ZM32.8555 42.68V41.98H32.1555V42.68H32.8555ZM32.1555 42.853C32.1554 42.8597 32.1554 42.8665 32.1554 42.8732H33.5554C33.5554 42.8711 33.5554 42.869 33.5554 42.867L32.1555 42.853ZM32.1554 42.8732C32.1554 42.8799 32.1554 42.8866 32.1555 42.8933L33.5554 42.8794C33.5554 42.8773 33.5554 42.8752 33.5554 42.8732H32.1554ZM33.5555 59.0973V42.8863H32.1555V59.0973H33.5555ZM33.5555 59.2909V59.0973H32.1555V59.2909H33.5555ZM32.8697 58.5909H32.8555V59.9909H32.8697V58.5909ZM32.1771 59.3925C32.2673 60.0076 32.6263 60.535 33.102 60.9766C33.5794 61.4197 34.22 61.8202 34.9769 62.1843C36.4919 62.9131 38.5889 63.5509 41.1022 64.0794C46.1378 65.1383 52.9759 65.7849 60.4922 65.7849V64.3849C53.0442 64.3849 46.3069 63.7432 41.3903 62.7094C38.9275 62.1915 36.9541 61.5819 35.5838 60.9227C34.8981 60.5928 34.3923 60.2641 34.0545 59.9505C33.715 59.6354 33.59 59.3785 33.5622 59.1893L32.1771 59.3925ZM60.4922 65.7849C68.0085 65.7849 74.8466 65.1383 79.8822 64.0794C82.3955 63.5509 84.4925 62.9131 86.0075 62.1843C86.7644 61.8202 87.405 61.4197 87.8824 60.9766C88.3582 60.535 88.7171 60.0076 88.8074 59.3925L87.4222 59.1893C87.3944 59.3785 87.2694 59.6354 86.9299 59.9505C86.5921 60.2641 86.0863 60.5928 85.4006 60.9227C84.0303 61.5819 82.0569 62.1915 79.5941 62.7094C74.6775 63.7432 67.9402 64.3849 60.4922 64.3849V65.7849ZM88.1289 58.5909H88.1148V59.9909H88.1289V58.5909ZM87.4289 59.0973V59.2909H88.8289V59.0973H87.4289ZM87.4289 42.68V59.0973H88.8289V42.68H87.4289ZM88.1148 43.38H88.1289V41.98H88.1148V43.38ZM88.8074 42.5786C88.7174 41.9634 88.3585 41.4359 87.8828 40.9942C87.4055 40.551 86.7649 40.1506 86.0081 39.7864C84.4931 39.0575 82.3962 38.4197 79.8828 37.8912C74.8471 36.8322 68.0088 36.1855 60.4921 36.1855V37.5855C67.9404 37.5855 74.678 38.2273 79.5947 39.2612C82.0576 39.7791 84.0309 40.3888 85.4011 41.048C86.0867 41.3779 86.5925 41.7066 86.9302 42.0202C87.2695 42.3353 87.3945 42.5921 87.4221 42.7813L88.8074 42.5786ZM60.4921 36.1855C52.9755 36.1855 46.1372 36.8322 41.1015 37.8912C38.5881 38.4197 36.4912 39.0575 34.9762 39.7864C34.2193 40.1506 33.5788 40.551 33.1015 40.9942C32.6258 41.4359 32.2669 41.9634 32.1769 42.5786L33.5621 42.7813C33.5898 42.5921 33.7148 42.3353 34.0541 42.0202C34.3918 41.7066 34.8975 41.3779 35.5832 41.048C36.9533 40.3888 38.9267 39.7791 41.3896 39.2612C46.3062 38.2273 53.0438 37.5855 60.4921 37.5855V36.1855ZM32.8555 43.38H32.8695V41.98H32.8555V43.38ZM33.5555 42.86V42.68H32.1555V42.86H33.5555Z" fill="black"/>
<ellipse cx="60.4921" cy="42.8727" rx="27.6367" ry="5.98766" fill="#F6F7F9" stroke="black" stroke-width="1.4"/>
<path fill-rule="evenodd" clip-rule="evenodd" d="M32.8555 20.703C32.8554 20.7074 32.8554 20.7118 32.8554 20.7162C32.8554 20.7206 32.8554 20.725 32.8555 20.7293V36.9406V37.1336H32.8696C33.3398 40.3512 45.5269 42.9283 60.4922 42.9283C75.4575 42.9283 87.6446 40.3512 88.1149 37.1336H88.1289V36.9406V20.5227H88.1147C87.6433 17.3054 75.4567 14.7285 60.4921 14.7285C45.5276 14.7285 33.341 17.3054 32.8696 20.5227H32.8555V20.703Z" fill="#F6F7F9"/>
<path d="M32.8555 20.703L33.5555 20.71V20.703H32.8555ZM32.8555 20.7293H33.5555L33.5554 20.7224L32.8555 20.7293ZM32.8555 37.1336H32.1555V37.8336H32.8555V37.1336ZM32.8696 37.1336L33.5622 37.0324L33.4747 36.4336H32.8696V37.1336ZM88.1149 37.1336V36.4336H87.5097L87.4222 37.0324L88.1149 37.1336ZM88.1289 37.1336V37.8336H88.8289V37.1336H88.1289ZM88.1289 20.5227H88.8289V19.8227H88.1289V20.5227ZM88.1147 20.5227L87.4221 20.6242L87.5098 21.2227H88.1147V20.5227ZM32.8696 20.5227V21.2227H33.4745L33.5622 20.6242L32.8696 20.5227ZM32.8555 20.5227V19.8227H32.1555V20.5227H32.8555ZM32.1555 20.6961C32.1554 20.7028 32.1554 20.7095 32.1554 20.7162H33.5554C33.5554 20.7141 33.5554 20.712 33.5554 20.71L32.1555 20.6961ZM32.1554 20.7162C32.1554 20.7229 32.1554 20.7296 32.1555 20.7363L33.5554 20.7224C33.5554 20.7203 33.5554 20.7183 33.5554 20.7162H32.1554ZM33.5555 36.9406V20.7293H32.1555V36.9406H33.5555ZM33.5555 37.1336V36.9406H32.1555V37.1336H33.5555ZM32.8696 36.4336H32.8555V37.8336H32.8696V36.4336ZM32.1769 37.2349C32.2668 37.8501 32.6257 38.3776 33.1013 38.8194C33.5786 39.2626 34.2191 39.6631 34.976 40.0273C36.4909 40.7562 38.5878 41.394 41.1012 41.9226C46.1369 42.9816 52.9754 43.6283 60.4922 43.6283V42.2283C53.0438 42.2283 46.306 41.5865 41.3893 40.5525C38.9265 40.0346 36.9531 39.4249 35.583 38.7657C34.8974 38.4358 34.3917 38.1071 34.054 37.7935C33.7147 37.4784 33.5898 37.2216 33.5622 37.0324L32.1769 37.2349ZM60.4922 43.6283C68.009 43.6283 74.8475 42.9816 79.8832 41.9226C82.3966 41.394 84.4935 40.7562 86.0084 40.0273C86.7653 39.6631 87.4058 39.2626 87.8831 38.8194C88.3587 38.3776 88.7176 37.8501 88.8075 37.2349L87.4222 37.0324C87.3946 37.2216 87.2697 37.4784 86.9304 37.7935C86.5927 38.1071 86.087 38.4358 85.4014 38.7657C84.0313 39.4249 82.058 40.0346 79.5951 40.5525C74.6784 41.5865 67.9407 42.2283 60.4922 42.2283V43.6283ZM88.1289 36.4336H88.1149V37.8336H88.1289V36.4336ZM87.4289 36.9406V37.1336H88.8289V36.9406H87.4289ZM87.4289 20.5227V36.9406H88.8289V20.5227H87.4289ZM88.1147 21.2227H88.1289V19.8227H88.1147V21.2227ZM88.8073 20.4212C88.7172 19.8061 88.3582 19.2787 87.8825 18.837C87.4051 18.3938 86.7646 17.9934 86.0077 17.6292C84.4927 16.9004 82.3957 16.2626 79.8824 15.7341C74.8468 14.6752 68.0086 14.0285 60.4921 14.0285V15.4285C67.9402 15.4285 74.6777 16.0703 79.5943 17.1041C82.0571 17.622 84.0305 18.2317 85.4007 18.8908C86.0864 19.2207 86.5922 19.5494 86.93 19.863C87.2694 20.1781 87.3944 20.435 87.4221 20.6242L88.8073 20.4212ZM60.4921 14.0285C52.9757 14.0285 46.1375 14.6752 41.1019 15.7341C38.5885 16.2626 36.4916 16.9004 34.9766 17.6292C34.2197 17.9934 33.5791 18.3938 33.1018 18.837C32.626 19.2787 32.2671 19.8061 32.177 20.4212L33.5622 20.6242C33.5899 20.435 33.7149 20.1781 34.0543 19.863C34.3921 19.5494 34.8978 19.2207 35.5835 18.8908C36.9537 18.2317 38.9271 17.622 41.39 17.1041C46.3066 16.0703 53.044 15.4285 60.4921 15.4285V14.0285ZM32.8555 21.2227H32.8696V19.8227H32.8555V21.2227ZM33.5555 20.703V20.5227H32.1555V20.703H33.5555Z" fill="black"/>
<ellipse cx="60.4921" cy="20.7162" rx="27.6367" ry="5.98766" fill="#F6F7F9" stroke="black" stroke-width="1.4"/>
<path d="M93.7173 7.74976H90.6383C88.0195 7.74976 86.7101 7.74976 85.7483 8.3392C85.21 8.66902 84.7575 9.12154 84.4277 9.65976C83.8383 10.6216 83.8383 11.931 83.8383 14.5498V23.8475C83.8383 26.4662 83.8383 27.7756 84.4277 28.7375C84.7575 29.2757 85.21 29.7282 85.7483 30.058C86.7101 30.6475 88.0195 30.6475 90.6383 30.6475H97.2C99.8187 30.6475 101.128 30.6475 102.09 30.058C102.628 29.7282 103.081 29.2757 103.411 28.7375C104 27.7756 104 26.4662 104 23.8475V17.7818C104 16.5809 104 15.9804 103.835 15.4244C103.742 15.1084 103.609 14.8053 103.442 14.5218C103.146 14.0228 102.706 13.6144 101.826 12.7974L98.3429 9.56542C97.5485 8.82816 97.1513 8.45953 96.6857 8.2134C96.4208 8.07342 96.1411 7.96362 95.8518 7.88608C95.3431 7.74976 94.8011 7.74976 93.7173 7.74976Z" fill="#F6F7F9" stroke="#0077FF" stroke-width="1.4"/>
<path d="M103.632 15.9512L103.568 16.6483L104.611 16.7438L104.3 15.7432L103.632 15.9512ZM101.391 12.3937L101.867 11.8806V11.8806L101.391 12.3937ZM98.7344 9.92877L98.2583 10.4419L98.7344 9.92877ZM94.7351 7.89868L94.8682 7.21146L93.8516 7.01453L94.0478 8.0313L94.7351 7.89868ZM104.3 15.7432C103.845 14.2797 103.013 12.944 101.867 11.8806L100.914 12.9068C101.879 13.8022 102.58 14.9267 102.963 16.1592L104.3 15.7432ZM101.867 11.8806L99.2106 9.41567L98.2583 10.4419L100.914 12.9068L101.867 11.8806ZM99.2106 9.41567C97.9893 8.28221 96.4822 7.5241 94.8682 7.21146L94.602 8.58591C95.961 8.84916 97.2299 9.48752 98.2583 10.4419L99.2106 9.41567ZM94.0478 8.0313C94.9393 12.6519 98.7998 16.2121 103.568 16.6483L103.695 15.2541C99.554 14.8752 96.197 11.7807 95.4224 7.76606L94.0478 8.0313Z" fill="#0077FF"/>
</svg>
