<svg width="20" height="20" viewBox="0 0 20 20" fill="none" xmlns="http://www.w3.org/2000/svg">
<path fill-rule="evenodd" clip-rule="evenodd" d="M5.64039 5.64073C5.93871 5.34241 6.42238 5.34241 6.7207 5.64073L9.99999 8.92002L13.2793 5.64073C13.5776 5.34241 14.0613 5.34241 14.3596 5.64073C14.6579 5.93905 14.6579 6.42272 14.3596 6.72103L11.0803 10.0003L14.3596 13.2796C14.6579 13.5779 14.6579 14.0616 14.3596 14.3599C14.0613 14.6582 13.5776 14.6582 13.2793 14.3599L9.99999 11.0806L6.7207 14.3599C6.42238 14.6582 5.93871 14.6582 5.64039 14.3599C5.34208 14.0616 5.34208 13.5779 5.64039 13.2796L8.91969 10.0003L5.64039 6.72103C5.34208 6.42272 5.34208 5.93905 5.64039 5.64073Z" fill="#818C99"/>
</svg>
