<svg width="20" height="20" viewBox="0 0 20 20" fill="none" xmlns="http://www.w3.org/2000/svg">
<path fill-rule="evenodd" clip-rule="evenodd" d="M8.87334 2.08325L8.90458 2.08325C9.29818 2.08325 9.61725 2.40233 9.61725 2.79592C9.61725 3.18952 9.29818 3.50859 8.90458 3.50859C7.81947 3.50859 7.04824 3.50914 6.44542 3.55804C5.85044 3.60631 5.48356 3.69809 5.19486 3.84519C4.61377 4.14127 4.14133 4.61371 3.84525 5.1948C3.69784 5.48412 3.60625 5.84924 3.55807 6.43898C3.50921 7.03703 3.50865 7.80126 3.50865 8.87737V10.2891C3.50865 11.3652 3.50921 12.1295 3.55807 12.7275C3.60625 13.3173 3.69784 13.6824 3.84525 13.9717C4.14133 14.5528 4.61377 15.0252 5.19486 15.3213C5.48356 15.4684 5.85044 15.5602 6.44542 15.6085C7.04824 15.6574 7.81947 15.6579 8.90458 15.6579C9.29818 15.6579 9.61725 15.977 9.61725 16.3706C9.61725 16.7642 9.29818 17.0833 8.90458 17.0833H8.87331C7.82639 17.0833 6.99738 17.0833 6.33017 17.0291C5.64848 16.9738 5.07212 16.8585 4.54777 16.5913C3.69848 16.1586 3.008 15.4681 2.57526 14.6188C2.3084 14.0951 2.19285 13.5215 2.13746 12.8436C2.0833 12.1807 2.08331 11.3583 2.08331 10.3205V8.84601C2.08331 7.80823 2.0833 6.98581 2.13746 6.32291C2.19285 5.64503 2.3084 5.07145 2.57526 4.54771C3.008 3.69842 3.69848 3.00793 4.54777 2.5752C5.07212 2.30803 5.64848 2.19267 6.33017 2.13737C6.99738 2.08324 7.82641 2.08325 8.87334 2.08325ZM13.1518 6.36439C13.4301 6.08607 13.8813 6.08607 14.1596 6.36439L16.8746 9.07932C17.1529 9.35763 17.1529 9.80887 16.8746 10.0872L14.1596 12.8021C13.8813 13.0804 13.4301 13.0804 13.1518 12.8021C12.8735 12.5238 12.8735 12.0726 13.1518 11.7943L14.6501 10.2959H8.22585C7.83225 10.2959 7.51318 9.97685 7.51318 9.58325C7.51318 9.18966 7.83225 8.87058 8.22585 8.87058H14.6501L13.1518 7.37225C12.8735 7.09394 12.8735 6.6427 13.1518 6.36439Z" fill="#252629"/>
</svg>
