<svg width="20" height="20" viewBox="0 0 20 20" fill="none" xmlns="http://www.w3.org/2000/svg">
<path fill-rule="evenodd" clip-rule="evenodd" d="M9.99984 9.26466C10.4059 9.26466 10.7351 9.59387 10.7351 9.99996V13.9215C10.7351 14.3276 10.4059 14.6568 9.99984 14.6568C9.59375 14.6568 9.26454 14.3276 9.26454 13.9215V9.99996C9.26454 9.59387 9.59375 9.26466 9.99984 9.26466Z" fill="#19191A"/>
<path d="M10.9802 7.05878C10.9802 7.60024 10.5413 8.03917 9.99984 8.03917C9.45838 8.03917 9.01944 7.60024 9.01944 7.05878C9.01944 6.51733 9.45838 6.07839 9.99984 6.07839C10.5413 6.07839 10.9802 6.51733 10.9802 7.05878Z" fill="#19191A"/>
<path fill-rule="evenodd" clip-rule="evenodd" d="M4.10728 4.1074C5.61451 2.60017 7.69885 1.66663 9.99984 1.66663C12.3008 1.66663 14.3852 2.60017 15.8924 4.1074C17.3996 5.61463 18.3332 7.69898 18.3332 9.99996C18.3332 12.3009 17.3996 14.3853 15.8924 15.8925C14.3852 17.3997 12.3008 18.3333 9.99984 18.3333C7.69885 18.3333 5.61451 17.3997 4.10728 15.8925C2.60005 14.3853 1.6665 12.3009 1.6665 9.99996C1.6665 7.69898 2.60005 5.61463 4.10728 4.1074ZM9.99984 3.13721C8.10454 3.13721 6.38986 3.90455 5.14714 5.14727C3.90443 6.38998 3.13709 8.10466 3.13709 9.99996C3.13709 11.8953 3.90443 13.6099 5.14714 14.8527C6.38986 16.0954 8.10454 16.8627 9.99984 16.8627C11.8951 16.8627 13.6098 16.0954 14.8525 14.8527C16.0952 13.6099 16.8626 11.8953 16.8626 9.99996C16.8626 8.10466 16.0952 6.38998 14.8525 5.14727C13.6098 3.90455 11.8951 3.13721 9.99984 3.13721Z" fill="#19191A"/>
</svg>
