<svg width="245" height="176" viewBox="0 0 245 176" fill="none" xmlns="http://www.w3.org/2000/svg">
<path d="M95.8399 87.5161C96.1595 88.9967 96.3983 90.5073 96.5517 92.0431C96.0611 92.0866 95.6958 92.5171 95.734 93.0093C95.8141 94.0396 95.8548 95.081 95.8548 96.1321C95.8548 97.1832 95.8141 98.2246 95.734 99.2549C95.6958 99.7472 96.0611 100.178 96.5517 100.221C96.3983 101.757 96.1595 103.267 95.8399 104.748C95.3597 104.639 94.8799 104.936 94.765 105.416C94.2762 107.459 93.6297 109.441 92.839 111.348C92.6498 111.804 92.8635 112.326 93.3163 112.52C92.697 113.924 92.0006 115.286 91.2324 116.602C90.8099 116.349 90.2614 116.482 90.003 116.903C88.9107 118.682 87.6822 120.368 86.3321 121.947C86.0112 122.323 86.053 122.886 86.4238 123.21C85.405 124.35 84.3229 125.432 83.1829 126.451C82.8589 126.08 82.2958 126.038 81.9205 126.359C80.3411 127.709 78.6548 128.938 76.8761 130.03C76.4553 130.288 76.3218 130.837 76.5749 131.259C75.2595 132.028 73.897 132.724 72.4928 133.343C72.2992 132.89 71.7767 132.677 71.3206 132.866C69.4138 133.657 67.4322 134.303 65.3893 134.792C64.9092 134.907 64.6118 135.387 64.7211 135.867C63.2405 136.186 61.7299 136.425 60.1941 136.579C60.1507 136.088 59.7202 135.723 59.2279 135.761C58.1977 135.841 57.1563 135.882 56.1051 135.882C55.054 135.882 54.0126 135.841 52.9824 135.761C52.4901 135.723 52.0596 136.088 52.0162 136.579C50.4804 136.425 48.9698 136.186 47.4891 135.867C47.5985 135.387 47.3011 134.907 46.821 134.792C44.7781 134.303 42.7964 133.657 40.8897 132.866C40.4336 132.677 39.9111 132.89 39.7175 133.343C38.3133 132.724 36.9508 132.028 35.6354 131.259C35.8885 130.837 35.7549 130.288 35.3342 130.03C33.5555 128.938 31.8691 127.709 30.2898 126.359C29.9145 126.038 29.3514 126.08 29.0274 126.451C27.8874 125.432 26.8052 124.35 25.7864 123.21C26.1573 122.886 26.199 122.323 25.8782 121.947C24.5281 120.368 23.2996 118.682 22.2073 116.903C21.9489 116.482 21.4003 116.349 20.9779 116.602C20.2097 115.286 19.5132 113.924 18.894 112.52C19.3468 112.326 19.5604 111.804 19.3713 111.348C18.5806 109.441 17.9341 107.459 17.4453 105.416C17.3304 104.936 16.8505 104.639 16.3704 104.748C16.0508 103.267 15.8119 101.757 15.6585 100.221C16.1491 100.178 16.5145 99.7472 16.4763 99.2549C16.3962 98.2246 16.3554 97.1832 16.3554 96.1321C16.3554 95.081 16.3962 94.0396 16.4763 93.0093C16.5145 92.5171 16.1491 92.0866 15.6585 92.0431C15.8119 90.5073 16.0508 88.9967 16.3704 87.5161C16.8505 87.6255 17.3304 87.3281 17.4453 86.8479C17.9341 84.805 18.5806 82.8234 19.3713 80.9166C19.5604 80.4606 19.3468 79.938 18.894 79.7444C19.5132 78.3403 20.2097 76.9778 20.9779 75.6623C21.4003 75.9155 21.9489 75.7819 22.2073 75.3612C23.2996 73.5824 24.5281 71.8961 25.8782 70.3168C26.1991 69.9415 26.1573 69.3784 25.7864 69.0543C26.8053 67.9144 27.8874 66.8322 29.0274 65.8134C29.3514 66.1843 29.9145 66.226 30.2898 65.9052C31.8691 64.555 33.5555 63.3266 35.3342 62.2342C35.7549 61.9759 35.8885 61.4273 35.6354 61.0049C36.9508 60.2366 38.3133 59.5402 39.7175 58.9209C39.9111 59.3737 40.4336 59.5874 40.8897 59.3983C42.7964 58.6076 44.7781 57.9611 46.821 57.4723C47.3011 57.3574 47.5985 56.8775 47.4891 56.3973C48.9697 56.0778 50.4804 55.8389 52.0162 55.6855C52.0596 56.1761 52.4901 56.5415 52.9824 56.5032C54.0126 56.4232 55.054 56.3824 56.1051 56.3824C57.1563 56.3824 58.1977 56.4232 59.2279 56.5032C59.7202 56.5415 60.1507 56.1761 60.1941 55.6855C61.7299 55.8389 63.2405 56.0778 64.7212 56.3973C64.6118 56.8775 64.9092 57.3574 65.3893 57.4723C67.4322 57.9611 69.4138 58.6076 71.3206 59.3983C71.7767 59.5874 72.2992 59.3737 72.4928 58.9209C73.897 59.5402 75.2595 60.2366 76.5749 61.0049C76.3218 61.4273 76.4553 61.9759 76.8761 62.2342C78.6548 63.3266 80.3411 64.555 81.9205 65.9052C82.2958 66.226 82.8589 66.1843 83.1829 65.8134C84.3229 66.8322 85.405 67.9144 86.4239 69.0543C86.053 69.3784 86.0112 69.9415 86.3321 70.3168C87.6822 71.8961 88.9107 73.5824 90.003 75.3612C90.2614 75.7819 90.8099 75.9155 91.2324 75.6623C92.0006 76.9778 92.697 78.3403 93.3163 79.7444C92.8635 79.938 92.6498 80.4606 92.839 80.9166C93.6297 82.8234 94.2762 84.805 94.765 86.8479C94.8799 87.3281 95.3597 87.6255 95.8399 87.5161Z" stroke="#D7DDE8" stroke-width="1.8" stroke-linecap="round" stroke-dasharray="6.59 6.59"/>
<path d="M105.077 58.9277H164.312" stroke="black" stroke-width="1.8" stroke-linecap="round"/>
<path d="M126.967 137.081L152.449 137.081" stroke="#0077FF" stroke-width="1.8" stroke-linecap="round"/>
<path d="M175.201 85.8135L175.201 111.295" stroke="black" stroke-width="1.8" stroke-linecap="round"/>
<path d="M95.8669 70.1387L95.8668 129.374" stroke="#0077FF" stroke-width="1.8" stroke-linecap="round"/>
<rect x="64.7694" y="27.2564" width="61.2985" height="61.2985" rx="14.9425" fill="white"/>
<rect x="64.7694" y="27.2564" width="61.2985" height="61.2985" rx="14.9425" stroke="black" stroke-width="1.8" stroke-linecap="round"/>
<path d="M107.673 49.3925L107.823 49.9324L108.374 50.0358C114.659 51.2156 119.409 56.7085 119.409 63.2998C119.409 70.7517 113.339 76.7997 105.843 76.7997C105.585 76.7997 105.326 76.7915 105.067 76.7771L105.041 76.7757L105.016 76.7757L84.1627 76.7871L84.1441 76.7871L84.1254 76.7879C83.9541 76.7951 83.782 76.7997 83.6217 76.7997C83.4601 76.7997 83.299 76.7956 83.1374 76.7881L83.1164 76.7871H83.0994C77.2917 76.5157 72.6723 71.7437 72.6723 65.9046C72.6723 60.7407 76.2843 56.4108 81.1377 55.2906L81.9163 55.1109L81.8301 54.3166C81.7797 53.8529 81.7537 53.3814 81.7537 52.9041C81.7537 45.6544 87.6591 39.7701 94.9522 39.7701C101.02 39.7701 106.13 43.8452 107.673 49.3925Z" fill="#F6F7F9" stroke="#0077FF" stroke-width="1.8"/>
<rect x="64.7694" y="107.094" width="61.2985" height="61.2985" rx="14.9425" fill="#E5EEF7"/>
<rect x="64.7694" y="107.094" width="61.2985" height="61.2985" rx="14.9425" stroke="#0077FF" stroke-width="1.8" stroke-linecap="round"/>
<rect x="143.321" y="27.2564" width="61.2985" height="61.2985" rx="14.9425" fill="#E5EEF7"/>
<rect x="143.321" y="27.2564" width="61.2985" height="61.2985" rx="14.9425" stroke="#0077FF" stroke-width="1.8" stroke-linecap="round"/>
<path fill-rule="evenodd" clip-rule="evenodd" d="M159.236 118.666C157.378 120.527 157.912 124.431 158.449 126.412C158.465 126.525 158.486 126.639 158.512 126.754L163.673 149.826C164.811 154.913 173.238 155.723 175.282 150.94L178.189 144.14C178.913 142.445 180.696 141.246 182.849 141.006L191.969 139.99C192.752 139.902 193.448 139.71 194.052 139.437C194.268 139.412 194.549 139.313 194.905 139.126C198.491 137.244 197.565 132.593 196.767 130.347C196.511 130.962 196.219 131.616 195.918 132.282C195.266 131.477 194.306 130.796 193.023 130.361L166.516 121.373C164.752 120.775 162.973 120.903 161.533 121.521C160.905 119.378 160.107 117.795 159.236 118.666Z" fill="black"/>
<path d="M159.396 122.746C158.673 119.512 162.424 116.991 166.102 118.238L192.61 127.226C197.458 128.87 196.817 134.725 191.726 135.293L182.607 136.31C180.105 136.589 178.032 137.982 177.191 139.951L174.284 146.752C172.571 150.758 165.511 150.08 164.557 145.818L159.396 122.746Z" fill="#F6F7F9" stroke="black" stroke-width="1.8"/>
</svg>
