<svg width="114" height="80" viewBox="0 0 114 80" fill="none" xmlns="http://www.w3.org/2000/svg">
<path d="M44.5816 34.6784C44.7245 35.371 44.8357 36.0752 44.9135 36.7895C44.5335 36.8248 44.2509 37.1589 44.2806 37.5407C44.3245 38.1064 44.3469 38.6782 44.3469 39.2554C44.3469 39.8326 44.3245 40.4044 44.2806 40.9701C44.2509 41.3519 44.5335 41.686 44.9135 41.7213C44.8357 42.4356 44.7245 43.1398 44.5816 43.8324C44.2091 43.7493 43.8377 43.9803 43.7486 44.3528C43.4802 45.4743 43.1253 46.5622 42.6912 47.609C42.5445 47.9627 42.7094 48.3679 43.0596 48.5194C42.7652 49.1711 42.4406 49.8063 42.0878 50.4231C41.7596 50.2284 41.3347 50.3326 41.1343 50.6589C40.5346 51.6355 39.8601 52.5614 39.1188 53.4285C38.8699 53.7196 38.9015 54.156 39.1878 54.4084C38.7081 54.9356 38.2037 55.44 37.6764 55.9198C37.4241 55.6334 36.9877 55.6018 36.6966 55.8507C35.8294 56.592 34.9036 57.2665 33.927 57.8662C33.6007 58.0666 33.4965 58.4915 33.6912 58.8197C33.0743 59.1726 32.4392 59.4971 31.7875 59.7915C31.636 59.4413 31.2308 59.2765 30.877 59.4232C29.8302 59.8572 28.7424 60.2122 27.6209 60.4805C27.2484 60.5696 27.0174 60.9411 27.1005 61.3135C26.4079 61.4565 25.7036 61.5676 24.9894 61.6454C24.954 61.2654 24.62 60.9829 24.2382 61.0125C23.6725 61.0565 23.1007 61.0789 22.5235 61.0789C21.9463 61.0789 21.3744 61.0565 20.8088 61.0125C20.4269 60.9829 20.0929 61.2654 20.0576 61.6454C19.3433 61.5676 18.6391 61.4565 17.9464 61.3135C18.0295 60.9411 17.7985 60.5696 17.4261 60.4805C16.3045 60.2122 15.2167 59.8572 14.1699 59.4232C13.8162 59.2765 13.411 59.4413 13.2594 59.7915C12.6077 59.4971 11.9726 59.1726 11.3557 58.8197C11.5505 58.4915 11.4463 58.0666 11.1199 57.8662C10.1433 57.2665 9.21748 56.592 8.35034 55.8507C8.05923 55.6018 7.62286 55.6334 7.37049 55.9198C6.84323 55.44 6.33882 54.9356 5.8591 54.4084C6.14541 54.156 6.17701 53.7196 5.92814 53.4285C5.18684 52.5614 4.51236 51.6355 3.91266 50.6589C3.71225 50.3326 3.28737 50.2284 2.95916 50.4231C2.60628 49.8063 2.28174 49.1711 1.98731 48.5194C2.33752 48.3679 2.50239 47.9627 2.3557 47.609C1.92162 46.5622 1.56668 45.4743 1.29836 44.3528C1.20925 43.9803 0.837796 43.7493 0.465357 43.8324C0.322384 43.1398 0.211214 42.4356 0.133438 41.7213C0.513454 41.686 0.796002 41.3519 0.766338 40.9701C0.722393 40.4044 0.7 39.8326 0.7 39.2554C0.7 38.6782 0.722393 38.1064 0.766338 37.5407C0.796002 37.1589 0.513455 36.8248 0.133438 36.7895C0.211214 36.0752 0.322385 35.371 0.465357 34.6784C0.837796 34.7615 1.20925 34.5304 1.29836 34.158C1.56669 33.0365 1.92162 31.9486 2.3557 30.9018C2.50239 30.5481 2.33752 30.1429 1.98731 29.9913C2.28174 29.3397 2.60628 28.7045 2.95916 28.0877C3.28737 28.2824 3.71225 28.1782 3.91266 27.8518C4.51237 26.8753 5.18684 25.9494 5.92815 25.0823C6.17701 24.7912 6.14541 24.3548 5.8591 24.1024C6.33883 23.5752 6.84323 23.0708 7.3705 22.591C7.62286 22.8773 8.05923 22.9089 8.35034 22.6601C9.21748 21.9188 10.1433 21.2443 11.1199 20.6446C11.4463 20.4442 11.5505 20.0193 11.3557 19.6911C11.9726 19.3382 12.6077 19.0137 13.2594 18.7192C13.411 19.0694 13.8162 19.2343 14.1699 19.0876C15.2167 18.6535 16.3045 18.2986 17.4261 18.0303C17.7985 17.9412 18.0295 17.5697 17.9464 17.1973C18.6391 17.0543 19.3433 16.9431 20.0576 16.8654C20.0929 17.2454 20.4269 17.5279 20.8088 17.4983C21.3744 17.4543 21.9463 17.4319 22.5235 17.4319C23.1007 17.4319 23.6725 17.4543 24.2382 17.4983C24.62 17.5279 24.954 17.2454 24.9894 16.8654C25.7036 16.9431 26.4079 17.0543 27.1005 17.1973C27.0174 17.5697 27.2484 17.9412 27.6209 18.0303C28.7424 18.2986 29.8302 18.6535 30.877 19.0876C31.2308 19.2343 31.636 19.0694 31.7875 18.7192C32.4392 19.0137 33.0743 19.3382 33.6912 19.6911C33.4965 20.0193 33.6007 20.4442 33.927 20.6446C34.9036 21.2443 35.8294 21.9188 36.6966 22.6601C36.9877 22.9089 37.4241 22.8773 37.6764 22.591C38.2037 23.0708 38.7081 23.5752 39.1878 24.1024C38.9015 24.3548 38.8699 24.7912 39.1188 25.0823C39.8601 25.9494 40.5346 26.8753 41.1343 27.8518C41.3347 28.1782 41.7596 28.2824 42.0878 28.0877C42.4406 28.7045 42.7652 29.3397 43.0596 29.9913C42.7094 30.1429 42.5445 30.5481 42.6912 30.9018C43.1253 31.9486 43.4802 33.0365 43.7486 34.158C43.8377 34.5304 44.2091 34.7615 44.5816 34.6784Z" stroke="#D7DDE8" stroke-width="1.4" stroke-linecap="round" stroke-dasharray="3.32 3.32"/>
<path d="M49.6578 18.6406H82.4793" stroke="black" stroke-width="1.4" stroke-linecap="round"/>
<path d="M61.7874 61.9443L75.9065 61.9443" stroke="#0077FF" stroke-width="1.4" stroke-linecap="round"/>
<path d="M88.5129 33.5381L88.5129 47.6573" stroke="black" stroke-width="1.4" stroke-linecap="round"/>
<path d="M44.5549 24.8525L44.5549 57.674" stroke="#0077FF" stroke-width="1.4" stroke-linecap="round"/>
<rect x="29.9811" y="1.29375" width="35.988" height="33.562" rx="7.28174" fill="white"/>
<rect x="29.9811" y="1.29375" width="35.988" height="33.562" rx="7.28174" stroke="black" stroke-width="1.4" stroke-linecap="round"/>
<path d="M55.0791 13.4236L55.2026 13.8386L55.629 13.9134C59.3063 14.5589 62.0236 17.5463 62.0236 21.0635C62.0236 25.0371 58.5474 28.3423 54.1519 28.3423C54.0015 28.3423 53.8503 28.3378 53.6985 28.33L53.6802 28.329L53.662 28.329L41.3055 28.3353L41.2919 28.3353L41.2784 28.3359C41.178 28.3398 41.0778 28.3423 40.985 28.3423C40.8913 28.3423 40.7977 28.3401 40.7037 28.336L40.6884 28.3353H40.6784C37.285 28.1857 34.6638 25.5911 34.6638 22.5068C34.6638 19.776 36.712 17.4346 39.5409 16.8241L40.1618 16.6901L40.0885 16.0591C40.0598 15.811 40.0449 15.5588 40.0449 15.3034C40.0449 11.4418 43.4235 8.22734 47.6987 8.22734C51.2499 8.22734 54.1959 10.455 55.0791 13.4236Z" fill="#F6F7F9" stroke="#0077FF" stroke-width="1.4"/>
<rect x="29.9811" y="45.5311" width="35.988" height="33.562" rx="7.28174" fill="#E5EEF7"/>
<rect x="29.9811" y="45.5311" width="35.988" height="33.562" rx="7.28174" stroke="#0077FF" stroke-width="1.4" stroke-linecap="round"/>
<rect x="76.5253" y="1.29375" width="35.988" height="33.562" rx="7.28174" fill="#E5EEF7"/>
<rect x="76.5253" y="1.29375" width="35.988" height="33.562" rx="7.28174" stroke="#0077FF" stroke-width="1.4" stroke-linecap="round"/>
<path fill-rule="evenodd" clip-rule="evenodd" d="M85.6846 51.7766C84.768 52.6458 84.8989 54.3668 85.1668 55.5359C85.1783 55.6453 85.1983 55.7566 85.2272 55.8694L88.6756 69.2933C89.3796 72.0338 94.1989 72.5571 95.3146 70.0143L97.1379 65.8587C97.5326 64.9592 98.5351 64.3357 99.7591 64.2284L105.696 63.7079C106.299 63.655 106.808 63.4977 107.219 63.2681C107.259 63.251 107.301 63.2318 107.346 63.2104C109.438 62.198 108.841 59.5962 108.347 58.3367C108.184 58.7205 107.995 59.1322 107.802 59.5489C107.422 59.1383 106.885 58.7878 106.184 58.554L89.7336 53.0669C88.746 52.7375 87.7588 52.7774 86.9553 53.0727C86.5841 52.0414 86.1406 51.344 85.6846 51.7766Z" fill="black"/>
<path d="M85.1933 53.7315C84.6664 51.6589 87.1833 50.0911 89.6999 50.9243L106.152 56.3715C109.475 57.4717 109.117 61.2102 105.659 61.522L99.6997 62.0593C98.4783 62.1694 97.477 62.7932 97.0807 63.6909L95.238 67.864C94.1157 70.4058 89.3009 69.8892 88.6052 67.1524L85.1933 53.7315Z" fill="#F6F7F9"/>
<path fill-rule="evenodd" clip-rule="evenodd" d="M105.866 56.9952L89.4137 51.548C87.532 50.9249 85.6501 52.0972 86.0441 53.647L89.4559 67.0679C89.9762 69.1142 93.5763 69.5004 94.4154 67.5999L96.2581 63.4268C96.7545 62.3026 98.0083 61.5215 99.5379 61.3836L105.497 60.8463C108.083 60.6132 108.35 57.8178 105.866 56.9952ZM89.6999 50.9243C87.1833 50.0911 84.6664 51.6589 85.1933 53.7315L88.6052 67.1524C89.3009 69.8892 94.1157 70.4058 95.238 67.864L97.0807 63.6909C97.477 62.7932 98.4783 62.1694 99.6997 62.0593L105.659 61.522C109.117 61.2102 109.475 57.4717 106.152 56.3715L89.6999 50.9243Z" fill="black"/>
</svg>
