<svg width="202" height="145" viewBox="0 0 202 145" fill="none" xmlns="http://www.w3.org/2000/svg">
<path d="M80.8399 61.5161C81.1595 62.9967 81.3983 64.5073 81.5517 66.0431C81.0611 66.0866 80.6958 66.5171 80.734 67.0093C80.8141 68.0396 80.8548 69.081 80.8548 70.1321C80.8548 71.1832 80.8141 72.2246 80.734 73.2549C80.6958 73.7472 81.0611 74.1776 81.5517 74.2211C81.3983 75.7569 81.1595 77.2675 80.8399 78.7481C80.3597 78.6388 79.8799 78.9361 79.765 79.4163C79.2762 81.4592 78.6297 83.4408 77.839 85.3476C77.6498 85.8036 77.8635 86.3262 78.3163 86.5198C77.697 87.924 77.0006 89.2864 76.2324 90.6019C75.8099 90.3487 75.2614 90.4823 75.003 90.903C73.9107 92.6818 72.6822 94.3681 71.3321 95.9475C71.0112 96.3228 71.053 96.8858 71.4238 97.2099C70.405 98.3499 69.3229 99.432 68.1829 100.451C67.8589 100.08 67.2958 100.038 66.9205 100.359C65.3411 101.709 63.6548 102.938 61.8761 104.03C61.4553 104.288 61.3218 104.837 61.5749 105.259C60.2595 106.028 58.897 106.724 57.4928 107.343C57.2992 106.89 56.7767 106.677 56.3206 106.866C54.4138 107.657 52.4322 108.303 50.3893 108.792C49.9092 108.907 49.6118 109.387 49.7211 109.867C48.2405 110.186 46.7299 110.425 45.1941 110.579C45.1507 110.088 44.7202 109.723 44.2279 109.761C43.1977 109.841 42.1563 109.882 41.1051 109.882C40.054 109.882 39.0126 109.841 37.9824 109.761C37.4901 109.723 37.0596 110.088 37.0162 110.579C35.4804 110.425 33.9698 110.186 32.4891 109.867C32.5985 109.387 32.3011 108.907 31.821 108.792C29.7781 108.303 27.7964 107.657 25.8897 106.866C25.4336 106.677 24.9111 106.89 24.7175 107.343C23.3133 106.724 21.9508 106.028 20.6354 105.259C20.8885 104.837 20.7549 104.288 20.3342 104.03C18.5555 102.938 16.8691 101.709 15.2898 100.359C14.9145 100.038 14.3514 100.08 14.0274 100.451C12.8874 99.432 11.8052 98.3499 10.7864 97.2099C11.1573 96.8858 11.199 96.3227 10.8782 95.9474C9.52806 94.3681 8.29959 92.6818 7.20728 90.903C6.94891 90.4823 6.40034 90.3487 5.97789 90.6019C5.20968 89.2864 4.51324 87.9239 3.89395 86.5198C4.34677 86.3262 4.56044 85.8036 4.37132 85.3476C3.58061 83.4408 2.93409 81.4592 2.44531 79.4163C2.33043 78.9361 1.85054 78.6388 1.37037 78.7481C1.05083 77.2675 0.811944 75.7569 0.658543 74.2211C1.14915 74.1776 1.5145 73.7472 1.47626 73.2549C1.39622 72.2246 1.35544 71.1832 1.35544 70.1321C1.35544 69.081 1.39622 68.0396 1.47626 67.0093C1.5145 66.5171 1.14915 66.0866 0.658543 66.0431C0.811943 64.5073 1.05083 62.9967 1.37036 61.5161C1.85054 61.6255 2.33043 61.3281 2.44531 60.8479C2.93409 58.805 3.58061 56.8234 4.37132 54.9166C4.56044 54.4606 4.34677 53.938 3.89395 53.7444C4.51324 52.3403 5.20968 50.9778 5.9779 49.6623C6.40035 49.9155 6.94891 49.7819 7.20728 49.3612C8.29959 47.5824 9.52807 45.8961 10.8782 44.3168C11.1991 43.9415 11.1573 43.3784 10.7864 43.0543C11.8053 41.9144 12.8874 40.8322 14.0274 39.8134C14.3514 40.1843 14.9145 40.226 15.2898 39.9052C16.8691 38.555 18.5555 37.3266 20.3342 36.2342C20.7549 35.9759 20.8885 35.4273 20.6354 35.0049C21.9508 34.2366 23.3133 33.5402 24.7175 32.9209C24.9111 33.3737 25.4336 33.5874 25.8897 33.3983C27.7964 32.6076 29.7781 31.9611 31.821 31.4723C32.3011 31.3574 32.5985 30.8775 32.4891 30.3973C33.9697 30.0778 35.4804 29.8389 37.0162 29.6855C37.0596 30.1761 37.4901 30.5415 37.9824 30.5032C39.0126 30.4232 40.054 30.3824 41.1051 30.3824C42.1563 30.3824 43.1977 30.4232 44.2279 30.5032C44.7202 30.5415 45.1507 30.1761 45.1941 29.6855C46.7299 29.8389 48.2405 30.0778 49.7212 30.3973C49.6118 30.8775 49.9092 31.3574 50.3893 31.4723C52.4322 31.9611 54.4138 32.6076 56.3206 33.3983C56.7767 33.5874 57.2992 33.3737 57.4928 32.9209C58.897 33.5402 60.2595 34.2366 61.5749 35.0049C61.3218 35.4273 61.4553 35.9759 61.8761 36.2342C63.6548 37.3266 65.3411 38.555 66.9205 39.9052C67.2958 40.226 67.8589 40.1843 68.1829 39.8134C69.3229 40.8322 70.405 41.9144 71.4239 43.0543C71.053 43.3784 71.0112 43.9415 71.3321 44.3168C72.6822 45.8961 73.9107 47.5824 75.003 49.3612C75.2614 49.7819 75.8099 49.9155 76.2324 49.6623C77.0006 50.9778 77.697 52.3403 78.3163 53.7444C77.8635 53.938 77.6498 54.4606 77.839 54.9166C78.6297 56.8234 79.2762 58.805 79.765 60.8479C79.8799 61.3281 80.3597 61.6255 80.8399 61.5161Z" stroke="#D7DDE8" stroke-width="1.8" stroke-linecap="round" stroke-dasharray="6.59 6.59"/>
<path d="M90.0765 32.9277H149.312" stroke="black" stroke-width="1.8" stroke-linecap="round"/>
<path d="M111.967 111.081L137.449 111.081" stroke="#0077FF" stroke-width="1.8" stroke-linecap="round"/>
<path d="M160.201 59.8135L160.201 85.2954" stroke="black" stroke-width="1.8" stroke-linecap="round"/>
<path d="M80.8669 44.1387L80.8668 103.374" stroke="#0077FF" stroke-width="1.8" stroke-linecap="round"/>
<rect x="49.7694" y="1.25645" width="61.2985" height="61.2985" rx="14.9425" fill="white"/>
<rect x="49.7694" y="1.25645" width="61.2985" height="61.2985" rx="14.9425" stroke="black" stroke-width="1.8" stroke-linecap="round"/>
<path d="M92.6731 23.3925L92.8233 23.9324L93.3742 24.0358C99.6594 25.2156 104.409 30.7085 104.409 37.2998C104.409 44.7517 98.3394 50.7997 90.8431 50.7997C90.585 50.7997 90.3259 50.7915 90.0665 50.7771L90.0415 50.7757L90.0163 50.7757L69.1627 50.7871L69.1441 50.7871L69.1254 50.7879C68.9541 50.7951 68.782 50.7997 68.6217 50.7997C68.4601 50.7997 68.299 50.7956 68.1374 50.7881L68.1164 50.7871H68.0994C62.2917 50.5157 57.6723 45.7437 57.6723 39.9046C57.6723 34.7407 61.2843 30.4108 66.1377 29.2906L66.9163 29.1109L66.8301 28.3166C66.7797 27.8529 66.7537 27.3814 66.7537 26.9041C66.7537 19.6544 72.6591 13.7701 79.9522 13.7701C86.0205 13.7701 91.1299 17.8452 92.6731 23.3925Z" fill="#F6F7F9" stroke="#0077FF" stroke-width="1.8"/>
<rect x="49.7694" y="81.0943" width="61.2985" height="61.2985" rx="14.9425" fill="#E5EEF7"/>
<rect x="49.7694" y="81.0943" width="61.2985" height="61.2985" rx="14.9425" stroke="#0077FF" stroke-width="1.8" stroke-linecap="round"/>
<rect x="128.321" y="1.25645" width="61.2985" height="61.2985" rx="14.9425" fill="#E5EEF7"/>
<rect x="128.321" y="1.25645" width="61.2985" height="61.2985" rx="14.9425" stroke="#0077FF" stroke-width="1.8" stroke-linecap="round"/>
<path fill-rule="evenodd" clip-rule="evenodd" d="M144.236 92.6664C142.378 94.5271 142.912 98.4313 143.449 100.412C143.465 100.525 143.486 100.639 143.512 100.754L148.673 123.826C149.811 128.913 158.238 129.723 160.282 124.94L163.189 118.14C163.913 116.445 165.696 115.246 167.849 115.006L176.969 113.99C177.752 113.902 178.448 113.71 179.052 113.437C179.268 113.412 179.549 113.313 179.905 113.126C183.491 111.244 182.565 106.593 181.767 104.347C181.511 104.962 181.219 105.616 180.918 106.282C180.266 105.477 179.306 104.796 178.023 104.361L151.516 95.3731C149.752 94.7748 147.973 94.9029 146.533 95.5207C145.905 93.3781 145.107 91.7948 144.236 92.6664Z" fill="black"/>
<path d="M144.396 96.746C143.673 93.512 147.424 90.9906 151.102 92.238L177.61 101.226C182.458 102.87 181.817 108.725 176.726 109.293L167.607 110.31C165.105 110.589 163.032 111.982 162.191 113.951L159.284 120.752C157.571 124.758 150.511 124.08 149.557 119.818L144.396 96.746Z" fill="#F6F7F9" stroke="black" stroke-width="1.8"/>
</svg>
