<svg width="16" height="16" viewBox="0 0 16 16" fill="none" xmlns="http://www.w3.org/2000/svg">
<path d="M10.4996 6.97522C10.7227 6.75206 10.7227 6.39026 10.4996 6.1671C10.2764 5.94394 9.9146 5.94394 9.69144 6.1671L7.23836 8.62018L6.30908 7.69091C6.08593 7.46775 5.72412 7.46775 5.50096 7.69091C5.2778 7.91406 5.2778 8.27587 5.50096 8.49903L6.83429 9.83236C7.05745 10.0555 7.41926 10.0555 7.64242 9.83236L10.4996 6.97522Z" fill="#7876FF"/>
<path fill-rule="evenodd" clip-rule="evenodd" d="M8.1232 2.00641C8.04155 1.9963 7.95897 1.9963 7.87732 2.00641C7.79803 2.01624 7.71487 2.04023 7.40583 2.13859L3.67403 3.3263C3.50603 3.37977 3.40909 3.41098 3.33804 3.43916C3.29446 3.45644 3.27716 3.46643 3.27266 3.46931C3.24711 3.49048 3.22723 3.51768 3.2148 3.54844C3.21342 3.5536 3.20915 3.57312 3.2059 3.61989C3.20059 3.69613 3.20026 3.79797 3.20026 3.97428V8.52631C3.20026 10.0117 3.99457 11.2095 5.00993 12.1365C6.02512 13.0634 7.2023 13.6626 7.81489 13.9366C7.88615 13.9685 7.91537 13.9813 7.93816 13.9897C7.97567 14.0036 8.02445 14.0038 8.06236 13.9897C8.08515 13.9813 8.11437 13.9685 8.18563 13.9366C8.79822 13.6626 9.9754 13.0634 10.9906 12.1365C12.0059 11.2095 12.8003 10.0117 12.8003 8.52631V3.97428C12.8003 3.79797 12.7999 3.69613 12.7946 3.61989C12.7914 3.57313 12.7871 3.55361 12.7857 3.54845C12.7733 3.51768 12.7534 3.49048 12.7279 3.46931C12.7234 3.46643 12.7061 3.45644 12.6625 3.43916C12.5914 3.41098 12.4945 3.37977 12.3265 3.32631L8.59469 2.13859C8.28564 2.04023 8.20249 2.01624 8.1232 2.00641ZM12.7291 3.47019L12.7279 3.46931ZM12.7853 3.54697L12.7857 3.54845ZM3.21526 3.54697L3.2148 3.54844ZM3.2714 3.47019L3.27266 3.46931ZM7.72979 0.815517C7.90942 0.793265 8.0911 0.793265 8.27073 0.815517C8.48584 0.842166 8.69101 0.909935 8.95862 0.995107L12.6904 2.18282C12.7118 2.18962 12.7333 2.19639 12.7549 2.20321C13.0078 2.2829 13.2771 2.36777 13.4881 2.54085C13.6713 2.69112 13.8134 2.88544 13.901 3.1056C14.0019 3.35918 14.0011 3.64153 14.0004 3.90665C14.0003 3.92933 14.0003 3.95188 14.0003 3.97428V8.52631C14.0003 10.478 12.9494 11.9731 11.7997 13.0227C10.6499 14.0725 9.34224 14.7338 8.67564 15.032C8.5537 15.0865 8.42119 15.149 8.23471 15.1807C8.09417 15.2045 7.90635 15.2045 7.76581 15.1807C7.57933 15.149 7.44682 15.0865 7.32488 15.032C6.65827 14.7338 5.35064 14.0725 4.20082 13.0227C3.05116 11.9731 2.00026 10.478 2.00026 8.52631V3.97428C2.00026 3.95188 2.0002 3.92933 2.00013 3.90665C1.99938 3.64153 1.99857 3.35918 2.09951 3.1056C2.18713 2.88544 2.32921 2.69112 2.51242 2.54085C2.72345 2.36777 2.99275 2.2829 3.24561 2.20321C3.26724 2.19639 3.28875 2.18962 3.31009 2.18282L7.0419 0.995107C7.30951 0.909934 7.51468 0.842166 7.72979 0.815517Z" fill="#7876FF"/>
</svg>
