<svg width="16" height="16" viewBox="0 0 16 16" fill="none" xmlns="http://www.w3.org/2000/svg">
<path d="M7.7298 0.815517C7.90943 0.793265 8.09158 0.793265 8.27121 0.815517C8.48621 0.842162 8.69128 0.910089 8.95871 0.995205L12.6907 2.18349C12.7121 2.19027 12.734 2.19699 12.7556 2.2038C13.0083 2.28345 13.2775 2.3683 13.4884 2.5413C13.6716 2.69156 13.8141 2.886 13.9017 3.10614C14.0025 3.35964 14.0017 3.64192 14.0009 3.90692V8.52646C14.0009 10.4781 12.9498 11.9737 11.8001 13.0233C10.6504 14.073 9.34249 14.7337 8.6759 15.0319C8.55399 15.0864 8.42167 15.1495 8.23527 15.1811C8.09485 15.205 7.90702 15.205 7.76652 15.1811C7.58004 15.1495 7.44706 15.0865 7.32512 15.0319C6.65844 14.7337 5.35058 14.073 4.2009 13.0233C3.05124 11.9737 2.0009 10.4781 2.0009 8.52646V3.97489C2.0009 3.95249 2.00018 3.9296 2.00012 3.90692C1.99936 3.64186 1.99925 3.35968 2.10012 3.10614C2.18771 2.88606 2.3295 2.69155 2.51262 2.5413C2.72365 2.36822 2.99335 2.28349 3.24621 2.2038C3.2677 2.19703 3.28906 2.19024 3.31027 2.18349L7.0423 0.995205C7.30974 0.910086 7.51483 0.84219 7.7298 0.815517ZM7.87746 2.00692C7.79826 2.01676 7.71498 2.04073 7.40637 2.13895L3.67434 3.32645C3.50635 3.37992 3.40944 3.41156 3.3384 3.43974C3.29491 3.45699 3.27726 3.46654 3.27277 3.46942C3.24733 3.49052 3.22738 3.5177 3.21496 3.54833C3.21358 3.55349 3.20962 3.57344 3.20637 3.6202C3.20106 3.69645 3.2009 3.79861 3.2009 3.97489V8.52646C3.2009 10.0118 3.99497 11.2096 5.01027 12.1366C6.02527 13.0633 7.20227 13.6625 7.81496 13.9366C7.88602 13.9684 7.91564 13.9813 7.9384 13.9897C7.97591 14.0036 8.02471 14.0038 8.06262 13.9897C8.08541 13.9813 8.11479 13.9685 8.18605 13.9366C8.79868 13.6625 9.97564 13.0634 10.9907 12.1366C12.0061 11.2096 12.8009 10.0118 12.8009 8.52646V3.97489C12.8009 3.7986 12.8 3.69645 12.7946 3.6202C12.7915 3.57446 12.7875 3.55478 12.7861 3.54911C12.7736 3.51834 12.7538 3.49059 12.7282 3.46942C12.7237 3.46649 12.706 3.45694 12.6626 3.43974C12.5916 3.41157 12.4946 3.3799 12.3267 3.32645L8.59543 2.13895C8.28641 2.0406 8.20284 2.01675 8.12355 2.00692C8.04191 1.99681 7.95911 1.99681 7.87746 2.00692ZM8.84934 5.9038C9.08364 5.66957 9.46347 5.66957 9.69777 5.9038C9.93207 6.13809 9.93203 6.51792 9.69777 6.75224L8.84934 7.60067L9.69777 8.44911C9.93209 8.68343 9.93209 9.06402 9.69777 9.29833C9.46351 9.53239 9.0836 9.53239 8.84934 9.29833L8.0009 8.44911L7.15246 9.29833C6.91825 9.53248 6.53835 9.5323 6.30402 9.29833C6.06971 9.06402 6.06971 8.68343 6.30402 8.44911L7.15246 7.60067L6.30402 6.75224C6.06971 6.51792 6.06971 6.13811 6.30402 5.9038C6.53835 5.66968 6.91821 5.66955 7.15246 5.9038L8.0009 6.75224L8.84934 5.9038Z" fill="#F23741"/>
</svg>
