<svg width="245" height="176" viewBox="0 0 245 176" fill="none" xmlns="http://www.w3.org/2000/svg">
<rect x="29" y="139.365" width="173.921" height="19.0187" rx="9.50933" stroke="black" stroke-width="1.8"/>
<rect x="37.9824" y="40" width="156.772" height="99.3626" rx="15" stroke="black" stroke-width="1.8"/>
<rect x="68.1934" y="53.0635" width="13.8809" height="13.8809" rx="4" stroke="#D7DDE8" stroke-width="1.8"/>
<rect x="50.2305" y="53.0635" width="13.8809" height="13.8809" rx="4" stroke="#D7DDE8" stroke-width="1.8"/>
<rect x="87.0156" y="53.0635" width="94.6758" height="13.8809" rx="6.94044" stroke="#D7DDE8" stroke-width="1.8"/>
<rect x="50.2305" y="79.1924" width="57.1566" height="38.3765" rx="10" stroke="#D7DDE8" stroke-width="1.8"/>
<rect x="116.369" y="79.1934" width="65.3218" height="38.3765" rx="10" stroke="#B5DCFF" stroke-width="1.8"/>
<path fill-rule="evenodd" clip-rule="evenodd" d="M140.365 98.8995L142.909 98.1224C143.13 98.0549 143.241 98.0212 143.327 97.9732C143.638 97.7994 143.822 97.4618 143.799 97.1059C143.792 97.0076 143.76 96.8965 143.697 96.6742C143.631 96.4445 143.599 96.3297 143.551 96.241C143.377 95.9194 143.03 95.7305 142.665 95.7592C142.565 95.7671 142.451 95.802 142.222 95.8717L139.491 96.7047V93.7773C139.491 93.5768 139.491 93.4765 139.476 93.393C139.406 93.0171 139.112 92.7229 138.736 92.6532C138.652 92.6377 138.552 92.6377 138.352 92.6377C138.151 92.6377 138.051 92.6377 137.967 92.6532C137.591 92.7229 137.297 93.0171 137.227 93.393C137.212 93.4765 137.212 93.5768 137.212 93.7773V96.6627L134.488 95.8414C134.259 95.7723 134.144 95.7377 134.043 95.7301C133.68 95.7029 133.335 95.8918 133.162 96.2124C133.113 96.3014 133.081 96.4167 133.015 96.6471C132.952 96.8704 132.92 96.9821 132.914 97.0808C132.891 97.436 133.075 97.7725 133.385 97.946C133.472 97.9943 133.583 98.0281 133.805 98.0958L136.45 98.9021L134.748 101.707C134.635 101.892 134.579 101.985 134.548 102.073C134.429 102.405 134.509 102.776 134.755 103.029C134.82 103.095 134.91 103.157 135.089 103.279C135.281 103.41 135.377 103.475 135.468 103.512C135.812 103.652 136.206 103.573 136.469 103.31C136.538 103.241 136.602 103.144 136.728 102.949L138.486 100.237L140.208 102.949C140.325 103.132 140.383 103.224 140.447 103.29C140.712 103.568 141.121 103.652 141.474 103.502C141.559 103.467 141.649 103.405 141.829 103.283C141.999 103.167 142.083 103.109 142.145 103.047C142.405 102.786 142.485 102.397 142.35 102.055C142.317 101.973 142.262 101.887 142.152 101.713L140.382 98.9309L140.365 98.8995Z" fill="#0077FF"/>
<g clip-path="url(#clip0_13737_75847)">
<path fill-rule="evenodd" clip-rule="evenodd" d="M163.88 98.9004L166.662 98.0509C167.144 97.9038 167.419 97.3981 167.281 96.9139L167.142 96.4276C167 95.9307 166.478 95.6468 165.984 95.7975L163.007 96.7057V93.5625C163.007 93.0523 162.593 92.6387 162.083 92.6387H161.651C161.141 92.6387 160.728 93.0523 160.728 93.5625V96.6637L157.757 95.7679C157.263 95.6189 156.743 95.9034 156.601 96.3998L156.463 96.8879C156.325 97.3721 156.6 97.8773 157.082 98.0241L159.965 98.9031L158.143 101.906C157.888 102.326 158.007 102.872 158.413 103.149L158.812 103.421C159.24 103.713 159.825 103.595 160.107 103.16L162.001 100.238L163.85 103.148C164.13 103.589 164.719 103.71 165.15 103.416L165.526 103.159C165.939 102.878 166.053 102.321 165.786 101.9L163.898 98.9319L163.88 98.9004Z" fill="#0077FF"/>
</g>
<path d="M164.701 89.8086L164.701 106.781" stroke="#B5DCFF" stroke-width="1.8" stroke-linecap="round"/>
<path d="M202 48.3894C202.754 48.3894 203.511 48.5688 204.517 48.9848C205.541 49.4079 206.763 50.0485 208.463 50.9409L224.135 59.1693C227.638 61.0084 229.079 61.7959 229.982 63.2396C230.889 64.6884 230.958 66.1139 231.067 69.5827C231.938 97.4373 215.128 109.967 206.552 114.542C204.538 115.617 203.716 116.042 202.117 116.042C200.522 116.042 199.632 115.584 197.458 114.426C174.662 102.28 172.379 80.1368 172.841 68.8876C172.963 65.9114 173.033 64.6987 173.942 63.2617C174.846 61.8326 176.131 61.1304 179.275 59.4797L195.538 50.9409C197.237 50.0485 198.459 49.4079 199.483 48.9848C200.49 48.5688 201.246 48.3894 202 48.3894Z" fill="#E5EEF7" stroke="#0077FF" stroke-width="1.8"/>
<path d="M193.1 83.6824L198.925 89.5075C199.315 89.898 199.948 89.898 200.339 89.5075L211.471 78.375" stroke="#0077FF" stroke-width="1.8" stroke-linecap="round"/>
<defs>
<clipPath id="clip0_13737_75847">
<rect width="6.60026" height="13.2005" fill="white" transform="translate(155.271 91.6953)"/>
</clipPath>
</defs>
</svg>
