<svg width="120" height="90" viewBox="0 0 120 90" fill="none" xmlns="http://www.w3.org/2000/svg">
<rect x="11" y="65.4395" width="86.0365" height="9.54924" rx="4.77462" stroke="black" stroke-width="1.4"/>
<rect x="15.4432" y="15.5483" width="77.5534" height="49.8898" rx="15" stroke="black" stroke-width="1.4"/>
<rect x="30.3883" y="22.1077" width="6.86671" height="6.96957" rx="3.43335" stroke="#D7DDE8" stroke-width="1.4"/>
<rect x="21.502" y="22.1077" width="6.86671" height="6.96957" rx="3.43335" stroke="#D7DDE8" stroke-width="1.4"/>
<rect x="39.6988" y="22.1077" width="46.835" height="6.96957" rx="3.48478" stroke="#D7DDE8" stroke-width="1.4"/>
<rect x="21.502" y="35.2271" width="28.2747" height="19.2688" rx="9.6344" stroke="#D7DDE8" stroke-width="1.4"/>
<rect x="54.2198" y="35.2271" width="32.3139" height="19.2688" rx="9.6344" stroke="#B5DCFF" stroke-width="1.4"/>
<path fill-rule="evenodd" clip-rule="evenodd" d="M66.0904 45.1211L67.3468 44.7316C67.6522 44.637 67.8266 44.3162 67.7401 44.0084C67.6503 43.6888 67.3146 43.5063 66.9976 43.6044L65.6582 44.0191V42.5408C65.6582 42.2294 65.4058 41.9771 65.0945 41.9771C64.7831 41.9771 64.5307 42.2294 64.5307 42.5408V43.998L63.195 43.5892C62.8778 43.4921 62.5429 43.6753 62.4534 43.9947C62.3671 44.3029 62.5419 44.6237 62.8476 44.7183L64.1537 45.1224L63.3061 46.5402C63.1493 46.8026 63.2228 47.1416 63.4741 47.3155C63.7447 47.5027 64.1166 47.4278 64.2937 47.1505L65.1609 45.7925L66.0107 47.1504C66.1837 47.427 66.5527 47.503 66.821 47.3174C67.0725 47.1434 67.1427 46.8024 66.9803 46.5433L66.0992 45.1369L66.0904 45.1211Z" fill="#0077FF"/>
<g clip-path="url(#clip0_10491_285162)">
<path fill-rule="evenodd" clip-rule="evenodd" d="M77.723 45.1213L78.9794 44.7319C79.2848 44.6372 79.4593 44.3165 79.3727 44.0086C79.2829 43.6891 78.9473 43.5065 78.6302 43.6047L77.2908 44.0193V42.541C77.2908 42.2297 77.0384 41.9773 76.7271 41.9773C76.4158 41.9773 76.1634 42.2297 76.1634 42.541V43.9983L74.8277 43.5895C74.5104 43.4924 74.1755 43.6755 74.086 43.995C73.9997 44.3031 74.1745 44.624 74.4802 44.7185L75.7863 45.1226L74.9388 46.5405C74.7819 46.8028 74.8554 47.1418 75.1068 47.3157C75.3773 47.5029 75.7492 47.428 75.9263 47.1507L76.7935 45.7928L77.6433 47.1507C77.8164 47.4272 78.1853 47.5032 78.4536 47.3176C78.7051 47.1437 78.7753 46.8027 78.6129 46.5435L77.7318 45.1371L77.723 45.1213Z" fill="#0077FF"/>
</g>
<path d="M78.129 40.5566L78.129 49.0783" stroke="#B5DCFF" stroke-width="1.8" stroke-linecap="round"/>
<path d="M97.5154 20.3959C99.0539 20.3959 100.503 21.0986 103.805 22.7444L105.752 23.7144C109.413 25.5391 110.977 26.3463 111.964 28.1321C112.959 29.9315 112.849 31.2217 112.55 34.2549C111.61 43.792 105.966 49.0252 101.8 51.637C100.963 52.1617 100.406 52.5079 99.8064 52.7379C99.2291 52.9595 98.5841 53.0822 97.592 53.087C96.6049 53.0917 95.9475 52.9693 95.343 52.7389C94.7147 52.4995 94.1166 52.1354 93.2262 51.5891C85.0577 46.5778 82.8169 39.043 82.3768 33.5463C82.2714 32.2297 82.2012 31.3247 82.2813 30.5041C82.3582 29.7155 82.5772 28.9913 83.0914 28.0812C84.0818 26.3283 85.4429 25.6261 88.6475 24.0291L91.2255 22.7444C94.5283 21.0986 95.9769 20.3959 97.5154 20.3959Z" fill="#E5EEF7" stroke="#0077FF" stroke-width="1.4"/>
<path d="M92.8065 37.4817L95.5737 40.1081C95.9596 40.4744 96.5647 40.4744 96.9505 40.1081L102.525 34.8169" stroke="#0077FF" stroke-width="1.4" stroke-linecap="round"/>
<defs>
<clipPath id="clip0_10491_285162">
<rect width="3.26507" height="6.62796" fill="white" transform="translate(73.4647 41.5039)"/>
</clipPath>
</defs>
</svg>
