<svg width="104" height="62" viewBox="0 0 104 62" fill="none" xmlns="http://www.w3.org/2000/svg">
<rect x="1" y="51.4395" width="86.0365" height="9.54924" rx="4.77462" stroke="black" stroke-width="1.4"/>
<rect x="5.44318" y="1.54834" width="77.5534" height="49.8898" rx="15" stroke="black" stroke-width="1.4"/>
<rect x="20.3883" y="8.10767" width="6.86671" height="6.96957" rx="3.43335" stroke="#D7DDE8" stroke-width="1.4"/>
<rect x="11.502" y="8.10767" width="6.86671" height="6.96957" rx="3.43335" stroke="#D7DDE8" stroke-width="1.4"/>
<rect x="29.6988" y="8.10767" width="46.835" height="6.96957" rx="3.48478" stroke="#D7DDE8" stroke-width="1.4"/>
<rect x="11.502" y="21.2271" width="28.2747" height="19.2688" rx="9.6344" stroke="#D7DDE8" stroke-width="1.4"/>
<rect x="44.2198" y="21.2271" width="32.3139" height="19.2688" rx="9.6344" stroke="#B5DCFF" stroke-width="1.4"/>
<path fill-rule="evenodd" clip-rule="evenodd" d="M56.0904 31.1211L57.3468 30.7316C57.6522 30.637 57.8266 30.3162 57.7401 30.0084C57.6503 29.6888 57.3146 29.5063 56.9976 29.6044L55.6582 30.0191V28.5408C55.6582 28.2294 55.4058 27.9771 55.0945 27.9771C54.7831 27.9771 54.5307 28.2294 54.5307 28.5408V29.998L53.195 29.5892C52.8778 29.4921 52.5429 29.6753 52.4534 29.9947C52.3671 30.3029 52.5419 30.6237 52.8476 30.7183L54.1537 31.1224L53.3061 32.5402C53.1493 32.8026 53.2228 33.1416 53.4741 33.3155C53.7447 33.5027 54.1166 33.4278 54.2937 33.1505L55.1609 31.7925L56.0107 33.1504C56.1837 33.427 56.5527 33.503 56.821 33.3174C57.0725 33.1434 57.1427 32.8024 56.9803 32.5433L56.0992 31.1369L56.0904 31.1211Z" fill="#0077FF"/>
<g clip-path="url(#clip0_10491_285163)">
<path fill-rule="evenodd" clip-rule="evenodd" d="M67.723 31.1213L68.9794 30.7319C69.2848 30.6372 69.4593 30.3165 69.3727 30.0086C69.2829 29.6891 68.9473 29.5065 68.6302 29.6047L67.2908 30.0193V28.541C67.2908 28.2297 67.0384 27.9773 66.7271 27.9773C66.4158 27.9773 66.1634 28.2297 66.1634 28.541V29.9983L64.8277 29.5895C64.5104 29.4924 64.1755 29.6755 64.086 29.995C63.9997 30.3031 64.1745 30.624 64.4802 30.7185L65.7863 31.1226L64.9388 32.5405C64.7819 32.8028 64.8554 33.1418 65.1068 33.3157C65.3773 33.5029 65.7492 33.428 65.9263 33.1507L66.7935 31.7928L67.6433 33.1507C67.8164 33.4272 68.1853 33.5032 68.4536 33.3176C68.7051 33.1437 68.7753 32.8027 68.6129 32.5435L67.7318 31.1371L67.723 31.1213Z" fill="#0077FF"/>
</g>
<path d="M68.129 26.5566L68.129 35.0783" stroke="#B5DCFF" stroke-width="1.8" stroke-linecap="round"/>
<path d="M87.5154 6.39595C89.0539 6.39595 90.5025 7.09855 93.8053 8.74441L95.7517 9.71438C99.4134 11.5391 100.977 12.3463 101.964 14.1321C102.959 15.9315 102.849 17.2217 102.55 20.2549C101.61 29.792 95.9659 35.0252 91.7996 37.637C90.9625 38.1617 90.4056 38.5079 89.8064 38.7379C89.2291 38.9595 88.5841 39.0822 87.592 39.087C86.6049 39.0917 85.9475 38.9693 85.343 38.7389C84.7147 38.4995 84.1166 38.1354 83.2262 37.5891C75.0577 32.5778 72.8169 25.043 72.3768 19.5463C72.2714 18.2297 72.2012 17.3247 72.2813 16.5041C72.3582 15.7155 72.5772 14.9913 73.0914 14.0812C74.0818 12.3283 75.4429 11.6261 78.6475 10.0291L81.2255 8.74441C84.5283 7.09855 85.9769 6.39595 87.5154 6.39595Z" fill="#E5EEF7" stroke="#0077FF" stroke-width="1.4"/>
<path d="M82.8065 23.4817L85.5737 26.1081C85.9596 26.4744 86.5647 26.4744 86.9505 26.1081L92.5254 20.8169" stroke="#0077FF" stroke-width="1.4" stroke-linecap="round"/>
<defs>
<clipPath id="clip0_10491_285163">
<rect width="3.26507" height="6.62796" fill="white" transform="translate(63.4647 27.5039)"/>
</clipPath>
</defs>
</svg>
