<svg width="204" height="121" viewBox="0 0 204 121" fill="none" xmlns="http://www.w3.org/2000/svg">
<rect x="1" y="100.365" width="173.921" height="19.0187" rx="9.50933" stroke="black" stroke-width="1.8"/>
<rect x="9.98175" y="1" width="156.772" height="99.3626" rx="15" stroke="black" stroke-width="1.8"/>
<rect x="40.1931" y="14.0635" width="13.8809" height="13.8809" rx="4" stroke="#D7DDE8" stroke-width="1.8"/>
<rect x="22.2296" y="14.0635" width="13.8809" height="13.8809" rx="4" stroke="#D7DDE8" stroke-width="1.8"/>
<rect x="59.0139" y="14.0635" width="94.6758" height="13.8809" rx="6.94044" stroke="#D7DDE8" stroke-width="1.8"/>
<rect x="22.2296" y="40.1924" width="57.1566" height="38.3765" rx="10" stroke="#D7DDE8" stroke-width="1.8"/>
<rect x="88.3679" y="40.1934" width="65.3218" height="38.3765" rx="10" stroke="#B5DCFF" stroke-width="1.8"/>
<path fill-rule="evenodd" clip-rule="evenodd" d="M112.364 59.8995L114.908 59.1224C115.129 59.0549 115.24 59.0212 115.326 58.9732C115.637 58.7994 115.821 58.4618 115.798 58.1059C115.791 58.0076 115.76 57.8965 115.696 57.6742C115.631 57.4445 115.598 57.3297 115.55 57.241C115.376 56.9194 115.029 56.7305 114.665 56.7592C114.564 56.7671 114.45 56.802 114.221 56.8717L111.49 57.7047V54.7773C111.49 54.5768 111.49 54.4765 111.475 54.393C111.405 54.0171 111.111 53.7229 110.735 53.6532C110.651 53.6377 110.551 53.6377 110.351 53.6377C110.15 53.6377 110.05 53.6377 109.966 53.6532C109.59 53.7229 109.296 54.0171 109.227 54.393C109.211 54.4765 109.211 54.5768 109.211 54.7773V57.6627L106.487 56.8414C106.258 56.7723 106.143 56.7377 106.042 56.7301C105.679 56.7029 105.334 56.8918 105.161 57.2124C105.113 57.3014 105.08 57.4167 105.014 57.6471C104.951 57.8704 104.919 57.9821 104.913 58.0808C104.89 58.436 105.074 58.7725 105.384 58.946C105.471 58.9943 105.582 59.0281 105.804 59.0958L108.449 59.9021L106.747 62.7067C106.635 62.8923 106.578 62.9851 106.547 63.0729C106.428 63.4049 106.508 63.7757 106.754 64.0285C106.819 64.0954 106.909 64.1565 107.088 64.2787C107.28 64.4096 107.376 64.4751 107.467 64.5121C107.811 64.6522 108.205 64.5728 108.468 64.3104C108.538 64.2412 108.601 64.1437 108.727 63.9487L110.485 61.2368L112.207 63.9485C112.324 64.1323 112.382 64.2242 112.446 64.2904C112.711 64.5676 113.12 64.652 113.474 64.5023C113.558 64.4666 113.648 64.4052 113.828 64.2826C113.998 64.1668 114.083 64.109 114.145 64.0467C114.404 63.7862 114.484 63.3968 114.349 63.0551C114.316 62.9735 114.261 62.8867 114.151 62.7133L112.382 59.9309L112.364 59.8995Z" fill="#0077FF"/>
<g clip-path="url(#clip0_10450_56675)">
<path fill-rule="evenodd" clip-rule="evenodd" d="M135.879 59.8995L138.661 59.0499C139.142 58.9029 139.417 58.3972 139.279 57.9129L139.141 57.4267C138.999 56.9298 138.477 56.6458 137.983 56.7965L135.005 57.7047V54.5615C135.005 54.0513 134.592 53.6377 134.082 53.6377H133.65C133.14 53.6377 132.726 54.0513 132.726 54.5615V57.6627L129.755 56.7669C129.261 56.6179 128.741 56.9025 128.6 57.3988L128.461 57.8869C128.324 58.3711 128.599 58.8764 129.081 59.0231L131.964 59.9021L130.142 62.9054C129.887 63.3253 130.005 63.8713 130.411 64.1479L130.81 64.4199C131.239 64.712 131.824 64.5942 132.106 64.159L134 61.2368L135.849 64.147C136.128 64.5875 136.717 64.709 137.149 64.415L137.525 64.1584C137.937 63.8775 138.052 63.3202 137.784 62.8993L135.897 59.9309L135.879 59.8995Z" fill="#0077FF"/>
</g>
<path d="M136.7 50.8086L136.7 67.7807" stroke="#B5DCFF" stroke-width="1.8" stroke-linecap="round"/>
<path d="M174.001 9.39035C174.755 9.39035 175.511 9.56977 176.518 9.98582C177.542 10.4089 178.764 11.0495 180.464 11.9419L196.136 20.1702C199.638 22.0094 201.079 22.7969 201.983 24.2406C202.89 25.6894 202.959 27.1148 203.067 30.5836C203.938 58.4383 187.128 70.9679 178.552 75.5432C176.539 76.6176 175.717 77.0425 174.117 77.0429C172.523 77.0434 171.633 76.5854 169.459 75.4272C146.663 63.2811 144.38 41.1378 144.842 29.8886C144.964 26.9124 145.034 25.6996 145.943 24.2627C146.847 22.8336 148.132 22.1314 151.276 20.4807L167.538 11.9419C169.238 11.0495 170.46 10.4089 171.484 9.98582C172.491 9.56977 173.247 9.39035 174.001 9.39035Z" fill="#E5EEF7" stroke="#0077FF" stroke-width="1.8"/>
<path d="M165.1 44.6834L170.925 50.5084C171.315 50.899 171.949 50.899 172.339 50.5084L183.472 39.376" stroke="#0077FF" stroke-width="1.8" stroke-linecap="round"/>
<defs>
<clipPath id="clip0_10450_56675">
<rect width="6.60026" height="13.2005" fill="white" transform="translate(127.271 52.6953)"/>
</clipPath>
</defs>
</svg>
