<svg width="20" height="20" viewBox="0 0 20 20" fill="none" xmlns="http://www.w3.org/2000/svg">
<path d="M10.618 2.08403C11.6483 2.11507 12.3183 2.66359 12.6716 3.69763L12.7275 3.87446L12.7708 4.03278C12.7866 4.09375 12.8062 4.15867 12.8292 4.22609L12.8781 4.35763L12.9071 4.37166L12.9659 4.35284L13.0799 4.31059L13.2129 4.25461C14.4189 3.71132 15.3467 3.81215 16.1021 4.61546L16.2089 4.735L16.9086 5.57404C17.5321 6.36837 17.5132 7.2174 16.905 8.13379L16.7982 8.28715L16.6983 8.41933C16.6584 8.47063 16.6177 8.52749 16.5772 8.5886L16.5168 8.68328L16.4881 8.73066L16.4915 8.74717L16.5697 8.79709L16.6776 8.86016L16.8085 8.92895C17.9934 9.51408 18.4825 10.2836 18.2938 11.3525L18.2623 11.5073L18.054 12.3807C17.9192 12.946 17.8132 13.2136 17.3965 13.5808C16.9917 13.9375 16.5298 14.0847 15.9194 14.1336L15.7318 14.1454L15.5626 14.1506C15.497 14.1517 15.4265 14.1557 15.3526 14.1623L15.1983 14.18L15.2095 14.2976L15.2209 14.3766L15.2485 14.5242C15.5242 15.7835 15.214 16.6355 14.2351 17.167L14.0908 17.2408L13.0885 17.7117C12.1483 18.1209 11.2976 17.9121 10.5117 17.1325L10.3813 16.9973L10.2706 16.8734C10.2275 16.8237 10.1789 16.7721 10.1258 16.7196L10.0432 16.6406L10.0008 16.6026L9.92262 16.6746L9.83304 16.7638L9.73267 16.8734C8.92017 17.8091 8.06263 18.145 7.02324 17.7539L6.87351 17.693L5.97662 17.2712L5.71019 17.1393C5.3041 16.9247 5.07621 16.7192 4.85351 16.2642C4.61907 15.7851 4.60332 15.3146 4.71697 14.7098L4.75486 14.5242C4.76843 14.4622 4.78029 14.395 4.79021 14.324L4.80584 14.1825L4.80243 14.1792L4.71399 14.1677L4.58902 14.1569L4.44069 14.1506C3.11056 14.1273 2.32239 13.6432 2.00731 12.6007L1.96551 12.448L1.71678 11.3971C1.51626 10.4187 1.91789 9.66357 2.87968 9.0979L3.04516 9.00537L3.19484 8.92895C3.2535 8.89998 3.31532 8.86638 3.37892 8.82895L3.51094 8.74552L3.51435 8.72984L3.46099 8.64078L3.39206 8.53746L3.30506 8.41933C2.50511 7.39078 2.41415 6.49173 3.06913 5.60968L3.16778 5.48378L3.87048 4.64712C4.54382 3.89186 5.40601 3.73322 6.45882 4.11832L6.63605 4.18753L6.79044 4.25461C6.84853 4.28077 6.91208 4.30655 6.97972 4.33138L7.09538 4.37084L7.12609 4.3568L7.15477 4.28364L7.19323 4.16977L7.2325 4.03278C7.53884 2.84709 8.15741 2.18144 9.27069 2.09214L9.43312 2.08331L10.618 2.08403ZM10.5702 3.56905H9.43312L9.3142 3.57749C9.07018 3.60823 8.91078 3.73568 8.75743 4.26396L8.72211 4.39312L8.67394 4.56296C8.58441 4.85393 8.44906 5.18136 8.27477 5.49926C7.9297 5.61891 7.60177 5.7734 7.29604 5.95993C6.9363 5.88936 6.59328 5.78586 6.30703 5.67137L6.00846 5.54349C5.79613 5.45549 5.6371 5.41059 5.51107 5.39967L5.43926 5.39712C5.28775 5.40018 5.18771 5.4604 5.09107 5.5561L5.03311 5.6176L4.35995 6.4201L4.27916 6.52358C4.12271 6.74175 4.09931 6.9363 4.44539 7.41123L4.64005 7.67191C4.82081 7.92756 5.00206 8.24267 5.15005 8.58104C5.03965 8.89822 4.96154 9.22978 4.91968 9.57269C4.63488 9.81125 4.3314 10.0157 4.055 10.1676L3.76304 10.3187C3.23683 10.5988 3.16973 10.7836 3.2115 11.046L3.22291 11.1081L3.46201 12.1154L3.49654 12.2407C3.5779 12.4943 3.72193 12.6319 4.32176 12.6604L4.65218 12.6724C4.96861 12.6917 5.33287 12.7466 5.69552 12.8407C5.88725 13.1288 6.10902 13.3964 6.35759 13.6392C6.37176 14.0739 6.33022 14.4976 6.25696 14.8321C6.08541 15.6155 6.24511 15.7417 6.5841 15.9047L7.54468 16.3567C7.64647 16.401 7.73743 16.4309 7.83196 16.4298L7.88922 16.4251C8.04367 16.4023 8.21462 16.2916 8.46102 16.025L8.68092 15.7816C8.8999 15.5515 9.17961 15.3075 9.49003 15.0908L9.7442 15.1091L10.0017 15.1152L10.2591 15.109L10.5135 15.0901C10.8237 15.3074 11.1034 15.5515 11.3224 15.7816L11.5423 16.025C11.8195 16.3249 12.0012 16.4276 12.1714 16.4298L12.2278 16.4268C12.2777 16.4212 12.3275 16.4077 12.3792 16.3888L12.4586 16.3567L13.4192 15.9047L13.5376 15.844C13.793 15.6999 13.8965 15.5176 13.7464 14.8321C13.6731 14.4976 13.6316 14.0739 13.6468 13.6393C13.8943 13.3964 14.1161 13.1288 14.308 12.8393C14.671 12.7463 15.035 12.6916 15.3513 12.6724L15.6816 12.6604C16.3737 12.6276 16.4589 12.4494 16.5413 12.1154L16.7661 11.1733C16.8434 10.8382 16.8474 10.6419 16.2403 10.3187L15.9483 10.1676C15.6719 10.0156 15.3684 9.8111 15.0838 9.57204C15.0418 9.22978 14.9637 8.89822 14.8528 8.58035C15.0012 8.24256 15.1825 7.92754 15.3633 7.67191L15.5579 7.41123C15.904 6.9363 15.8806 6.74175 15.7242 6.52358L15.6858 6.47267L15.0145 5.6687C14.8944 5.52723 14.7935 5.42595 14.6289 5.40228L14.5641 5.39712C14.4277 5.39436 14.2497 5.43789 13.9949 5.54349L13.6964 5.67132C13.4104 5.78571 13.0676 5.889 12.7083 5.95863C12.4014 5.77325 12.0727 5.61846 11.7269 5.5C11.5609 5.19422 11.4297 4.88014 11.3403 4.59805L11.2435 4.25586C11.0799 3.69674 10.9089 3.5919 10.6352 3.57225L10.5702 3.56905ZM10.0017 7.02619C11.7919 7.02619 13.2432 8.43047 13.2432 10.1628C13.2432 11.895 11.7919 13.2993 10.0017 13.2993C8.21142 13.2993 6.76014 11.895 6.76014 10.1628C6.76014 8.43047 8.21142 7.02619 10.0017 7.02619ZM10.0017 8.51193C9.05943 8.51193 8.29559 9.25103 8.29559 10.1628C8.29559 11.0745 9.05943 11.8136 10.0017 11.8136C10.9439 11.8136 11.7077 11.0745 11.7077 10.1628C11.7077 9.25103 10.9439 8.51193 10.0017 8.51193Z" fill="#19191A"/>
</svg>
