<svg width="199" height="156" viewBox="0 0 199 156" fill="none" xmlns="http://www.w3.org/2000/svg">
<circle cx="50.498" cy="50.6191" r="49.498" stroke="#D7DDE8" stroke-width="1.8" stroke-linecap="round" stroke-dasharray="5.1 5.1"/>
<rect x="111.874" y="26.5088" width="85.2738" height="63.7103" rx="16" fill="#B5DCFF" stroke="black" stroke-width="1.8"/>
<rect x="111.874" y="90.4775" width="85.2738" height="63.7103" rx="16" fill="#B5DCFF" stroke="black" stroke-width="1.8"/>
<rect x="29.5406" y="26.5088" width="147.024" height="63.7103" rx="16" fill="#F6F7F9" stroke="black" stroke-width="1.8"/>
<rect x="29.5406" y="90.4775" width="147.024" height="63.7103" rx="16" fill="#F6F7F9" stroke="black" stroke-width="1.8"/>
<path d="M74.6168 50.4483C73.2982 45.6869 68.9348 42.1914 63.7541 42.1914C57.5294 42.1914 52.4832 47.2376 52.4832 53.4623C52.4832 53.872 52.5054 54.2766 52.5484 54.6747C48.3514 55.6478 45.2231 59.4098 45.2231 63.9032C45.2231 68.9894 49.232 73.1389 54.262 73.3659H54.2752C54.4148 73.3725 54.5549 73.3761 54.696 73.3761C54.8371 73.3761 54.9853 73.372 55.1289 73.3659L71.8001 73.3568C72.0186 73.369 72.2391 73.3761 72.4607 73.3761C78.8477 73.3761 84.0254 68.1983 84.0254 61.8113C84.0254 56.1612 79.9731 51.4584 74.6168 50.4483Z" stroke="#0077FF" stroke-width="1.8"/>
<path d="M112.854 51.0127L100.112 63.7548" stroke="#B5DCFF" stroke-width="1.8" stroke-linecap="round"/>
<path d="M131.477 51.0127L119.715 63.7547" stroke="#B5DCFF" stroke-width="1.8" stroke-linecap="round"/>
<path d="M151.08 51.0127L138.338 63.7547" stroke="#B5DCFF" stroke-width="1.8" stroke-linecap="round"/>
</svg>
