<svg width="20" height="20" viewBox="0 0 20 20" fill="none" xmlns="http://www.w3.org/2000/svg">
    <path fill-rule="evenodd" clip-rule="evenodd" d="M18.4997 4.4695C17.6071 3.75401 16.5513 3.26086 15.4201 3.0368C14.0373 2.76288 12.6038 2.90346 11.3012 3.44079C9.99847 3.97812 8.88498 4.88809 8.10154 6.05569C7.31809 7.22328 6.8999 8.59605 6.8999 10.0004C6.8999 11.4047 7.31809 12.7775 8.10154 13.9451C8.88498 15.1127 9.99847 16.0227 11.3012 16.56C12.6038 17.0973 14.0373 17.2379 15.4201 16.964C16.5513 16.7399 17.6071 16.2468 18.4997 15.5313C18.877 15.2289 18.8674 14.6771 18.5353 14.3464C18.2009 14.0133 17.6721 14.0252 17.3089 14.2999C16.6564 14.7934 15.8972 15.1352 15.0872 15.2957C14.0354 15.504 12.9451 15.3971 11.9542 14.9884C10.9634 14.5797 10.1166 13.8876 9.52087 12.9998C8.92512 12.1119 8.60717 11.0681 8.60717 10.0004C8.60717 8.93266 8.92512 7.88887 9.52087 7.00101C10.1166 6.11315 10.9634 5.42108 11.9542 5.01239C12.9451 4.60369 14.0354 4.49675 15.0872 4.70511C15.8972 4.86555 16.6564 5.20738 17.3089 5.70089C17.6721 5.97561 18.2009 5.98747 18.5353 5.6544C18.8674 5.32368 18.877 4.77192 18.4997 4.4695ZM4.3499 16.2504V3.75039C4.3499 3.28095 3.96934 2.90039 3.4999 2.90039C3.26176 2.90039 3.05636 3.0054 2.88439 3.14826C2.71287 3.29075 2.56823 3.47604 2.44921 3.64969C2.24184 3.95225 1.894 4.15039 1.4999 4.15039C1.16853 4.15039 0.899902 4.41902 0.899902 4.75039V5.25039C0.899902 5.58176 1.16853 5.85039 1.4999 5.85039C1.90894 5.85039 2.29807 5.76416 2.6499 5.60883V16.2504C2.6499 16.7198 3.03046 17.1004 3.4999 17.1004C3.96934 17.1004 4.3499 16.7198 4.3499 16.2504Z" fill="#19191A"/>
</svg>
