<svg width="18" height="18" viewBox="0 0 18 18" fill="none" xmlns="http://www.w3.org/2000/svg">
    <path fill-rule="evenodd" clip-rule="evenodd" d="M7.65555 0.407873L1.58997 4.4555C0.136678 5.4253 0.136679 7.57471 1.58997 8.5445L2.27256 9L1.58997 9.4555C0.136678 10.4253 0.136679 12.5747 1.58997 13.5445L7.65555 17.5921C8.47051 18.136 9.52942 18.136 10.3444 17.5921L16.41 13.5445C17.8632 12.5747 17.8632 10.4253 16.41 9.4555L15.7274 9L16.41 8.5445C17.8632 7.57471 17.8632 5.42529 16.41 4.4555L10.3444 0.407873C9.52942 -0.135958 8.47051 -0.135957 7.65555 0.407873ZM14.3762 9.90166L10.3444 12.5921C9.52942 13.136 8.47051 13.136 7.65555 12.5921L3.62374 9.90166L2.42257 10.7032C1.85914 11.0792 1.85914 11.9208 2.42257 12.2968L8.48816 16.3444C8.79901 16.5519 9.20091 16.5519 9.51177 16.3444L15.5774 12.2968C16.1408 11.9208 16.1408 11.0792 15.5774 10.7032L14.3762 9.90166ZM2.42257 7.29679C1.85914 6.92081 1.85914 6.07919 2.42257 5.70321L8.48816 1.65558C8.79901 1.44814 9.20091 1.44814 9.51177 1.65558L15.5774 5.70321C16.1408 6.07919 16.1408 6.92081 15.5774 7.29679L9.51177 11.3444C9.20091 11.5519 8.79901 11.5519 8.48816 11.3444L2.42257 7.29679Z" fill="#19191A"/>
</svg>
