<svg width="20" height="20" viewBox="0 0 20 20" fill="none" xmlns="http://www.w3.org/2000/svg">
    <path d="M16.5253 4.55215C16.3636 4.35889 16.192 4.17114 16.0104 3.98958C14.3508 2.33 12.1742 1.49951 9.99998 1.49951C7.82581 1.49951 5.64916 2.33 3.98958 3.98958C2.33 5.64916 1.49951 7.82581 1.49951 9.99998C1.49951 10.4808 1.54052 10.9616 1.62195 11.4369C1.67881 11.7689 1.97504 11.9991 2.31179 11.9991C2.79923 11.9991 3.14927 11.5283 3.07709 11.0462C3.0252 10.6996 2.99935 10.3498 2.99935 9.99998C2.99935 8.20737 3.68326 6.41722 5.05024 5.05024C6.41722 3.68326 8.20737 2.99935 9.99998 2.99935C11.5333 2.99935 13.0649 3.49973 14.3313 4.49998L12.7499 4.49998C12.3357 4.49998 11.9999 4.83577 11.9999 5.24998C11.9999 5.6642 12.3357 5.99998 12.7499 5.99998L16.1626 5.99903C16.7691 5.99903 17.1468 5.35564 16.7804 4.8723C16.6983 4.76403 16.6133 4.65727 16.5253 4.55215ZM3.86328 14L7.24992 14C7.66414 14 7.99992 14.3358 7.99992 14.75C7.99992 15.1642 7.66414 15.5 7.24992 15.5H5.66864C6.93509 16.5002 8.46663 17.0006 9.99998 17.0006C11.7926 17.0006 13.5828 16.3167 14.9497 14.9497C16.3167 13.5828 17.0006 11.7926 17.0006 9.99998C17.0006 9.64975 16.9748 9.29952 16.9229 8.95253C16.8508 8.47042 17.2008 7.99951 17.6883 7.99951C18.025 7.99951 18.3212 8.22965 18.378 8.5615C18.4595 9.03736 18.5005 9.51871 18.5005 9.99998C18.5005 12.1742 17.67 14.3508 16.0104 16.0104C14.3508 17.67 12.1742 18.5005 9.99998 18.5005C7.82581 18.5005 5.64916 17.67 3.98958 16.0104C3.80809 15.8289 3.63657 15.6412 3.47499 15.448C3.38672 15.3424 3.30141 15.2352 3.21907 15.1265C2.87072 14.6665 3.19528 14.0578 3.74992 14C3.76148 13.9988 3.77329 13.9992 3.78516 13.9996L3.79589 14H3.81035C3.81928 13.9997 3.82826 13.9996 3.8373 13.9996C3.84598 13.9996 3.85464 13.9997 3.86328 14Z" fill="#252629"/>
</svg>
