<svg width="18" height="16" viewBox="0 0 18 16" fill="none" xmlns="http://www.w3.org/2000/svg">
    <path d="M4.75 5C4.33579 5 4 5.33579 4 5.75C4 6.16421 4.33579 6.5 4.75 6.5H13.25C13.6642 6.5 14 6.16421 14 5.75C14 5.33579 13.6642 5 13.25 5H4.75Z" fill="#19191A"/>
    <path d="M13.25 9.5C13.6642 9.5 14 9.83579 14 10.25C14 10.6642 13.6642 11 13.25 11H4.75C4.33579 11 4 10.6642 4 10.25C4 9.83579 4.33579 9.5 4.75 9.5H13.25Z" fill="#19191A"/>
    <path fill-rule="evenodd" clip-rule="evenodd" d="M3.5 0H14.5C16.433 0 18 1.567 18 3.5V12.5C18 14.433 16.433 16 14.5 16H3.5C1.567 16 0 14.433 0 12.5V3.5C0 1.567 1.567 0 3.5 0ZM3.5 1.5C2.39543 1.5 1.5 2.39543 1.5 3.5V12.5C1.5 13.6046 2.39543 14.5 3.5 14.5H14.5C15.6046 14.5 16.5 13.6046 16.5 12.5V3.5C16.5 2.39543 15.6046 1.5 14.5 1.5H3.5Z" fill="#19191A"/>
</svg>
