<svg width="16" height="18" viewBox="0 0 16 18" fill="none" xmlns="http://www.w3.org/2000/svg">
<path d="M7.46774 2.13709C6.22432 2.13709 5.37906 2.13824 4.7257 2.19231C4.08929 2.24499 3.76383 2.34047 3.5368 2.45766C2.99052 2.73964 2.54639 3.18958 2.26805 3.743C2.15237 3.973 2.05812 4.30271 2.00612 4.94744C1.95274 5.60934 1.95161 6.46565 1.95161 7.72533V10.2743C1.95161 10.8477 1.95274 11.1892 1.97316 11.4424C1.98188 11.5506 1.99255 11.6148 2 11.6496V11.7449C2 12.4911 2 12.9838 2.06618 13.3545C1.86773 13.3229 1.70415 13.274 1.55679 13.1979C1.19261 13.0099 0.896516 12.7099 0.710955 12.341C0.5 11.9216 0.5 11.3725 0.5 10.2743V7.72533C0.5 5.25451 0.5 4.0191 0.974649 3.07537C1.39216 2.24524 2.05837 1.57033 2.87778 1.14736C3.80933 0.666504 5.0288 0.666504 7.46774 0.666504H9.40322C10.4872 0.666504 11.0292 0.666504 11.4432 0.880217C11.8074 1.0682 12.1035 1.36817 12.289 1.73711C12.3567 1.87155 12.4026 2.01931 12.4338 2.19419C12.0747 2.13709 11.6014 2.13709 10.9032 2.13709H7.46774Z" fill="#19191A"/>
<path fill-rule="evenodd" clip-rule="evenodd" d="M3.5 6.74493C3.5 5.64679 3.5 5.09772 3.71096 4.67829C3.89652 4.30934 4.19261 4.00938 4.55679 3.82139C4.97082 3.60768 5.5128 3.60768 6.59677 3.60768H12.4032C13.4872 3.60768 14.0292 3.60768 14.4432 3.82139C14.8074 4.00938 15.1035 4.30934 15.289 4.67829C15.5 5.09772 15.5 5.64679 15.5 6.74493V14.1959C15.5 15.2941 15.5 15.8431 15.289 16.2626C15.1035 16.6315 14.8074 16.9315 14.4432 17.1195C14.0292 17.3332 13.4872 17.3332 12.4032 17.3332H6.59678C5.5128 17.3332 4.97082 17.3332 4.55679 17.1195C4.19261 16.9315 3.89652 16.6315 3.71096 16.2626C3.5 15.8431 3.5 15.2941 3.5 14.1959V6.74493ZM6.59677 5.07827H12.4032C12.9692 5.07827 13.3063 5.07941 13.5562 5.1001C13.7088 5.11272 13.7729 5.12938 13.7901 5.13479C13.8765 5.1809 13.9471 5.25243 13.9926 5.33996C13.9979 5.35737 14.0144 5.42232 14.0268 5.57685C14.0473 5.83004 14.0484 6.1716 14.0484 6.74493V14.1959C14.0484 14.7693 14.0473 15.1108 14.0268 15.364C14.0144 15.5185 13.9979 15.5835 13.9926 15.6009C13.9471 15.6884 13.8765 15.7599 13.7901 15.8061C13.7729 15.8115 13.7088 15.8281 13.5562 15.8408C13.3063 15.8614 12.9692 15.8626 12.4032 15.8626H6.59678C6.03084 15.8626 5.69368 15.8614 5.44376 15.8408C5.29123 15.8281 5.22712 15.8115 5.20993 15.8061C5.12353 15.7599 5.05292 15.6884 5.0074 15.6009C5.00207 15.5835 4.98562 15.5185 4.97316 15.364C4.95274 15.1108 4.95161 14.7693 4.95161 14.1959V6.74493C4.95161 6.1716 4.95274 5.83004 4.97316 5.57685C4.98562 5.42232 5.00207 5.35737 5.0074 5.33996C5.05292 5.25243 5.12353 5.1809 5.20993 5.13478C5.22711 5.12938 5.29123 5.11272 5.44376 5.1001C5.69368 5.07941 6.03083 5.07827 6.59677 5.07827ZM13.7951 5.13656L13.7921 5.13546C13.7942 5.13615 13.7951 5.13654 13.7951 5.13656ZM13.9909 5.33489C13.9909 5.33483 13.9913 5.33576 13.9919 5.33786L13.9909 5.33489ZM13.9909 15.606L13.9919 15.603C13.9913 15.6051 13.9909 15.606 13.9909 15.606ZM13.7951 15.8043C13.7952 15.8043 13.7942 15.8047 13.7922 15.8054L13.7951 15.8043ZM5.20492 15.8043L5.20785 15.8054C5.20579 15.8047 5.20486 15.8043 5.20492 15.8043ZM5.00915 15.606C5.00913 15.606 5.00875 15.6051 5.00806 15.603L5.00915 15.606ZM5.00915 5.33489L5.00806 5.33786C5.00875 5.33576 5.00913 5.33483 5.00915 5.33489ZM5.2053 5.13637C5.20502 5.13649 5.20528 5.13636 5.2053 5.13637L5.20785 5.13546C5.20658 5.13588 5.20574 5.13619 5.2053 5.13637Z" fill="#19191A"/>
</svg>
