<svg width="20" height="20" viewBox="0 0 20 20" fill="none" xmlns="http://www.w3.org/2000/svg">
    <path fill-rule="evenodd" clip-rule="evenodd" d="M19 4.5C19 6.433 17.433 8 15.5 8C14.9758 8 14.4785 7.88476 14.0321 7.67823C13.93 7.63101 13.8081 7.65024 13.7309 7.73197L11.898 9.67126C11.7283 9.86103 11.7283 10.148 11.8979 10.3378L13.7249 12.2708C13.8023 12.3527 13.9244 12.3718 14.0266 12.3243C14.4744 12.1162 14.9736 12 15.5 12C17.433 12 19 13.567 19 15.5C19 17.433 17.433 19 15.5 19C13.567 19 12 17.433 12 15.5C12 14.7799 12.2174 14.1107 12.5903 13.5542C12.6582 13.4528 12.652 13.317 12.5685 13.228L10.399 10.9163C10.3042 10.8105 10.1688 10.75 10.0267 10.75H8.12076C8.00324 10.75 7.90249 10.8323 7.87082 10.9454C7.45834 12.4191 6.10539 13.5 4.5 13.5C2.567 13.5 1 11.933 1 10C1 8.067 2.567 6.5 4.5 6.5C6.1054 6.5 7.45834 7.58087 7.87082 9.05458C7.9025 9.16775 8.00324 9.25 8.12076 9.25H10.0272C10.169 9.25 10.3042 9.18981 10.399 9.0844L12.5703 6.77524C12.6541 6.68616 12.6603 6.55009 12.5922 6.44858C12.2182 5.89161 12 5.22128 12 4.5C12 2.567 13.567 1 15.5 1C17.433 1 19 2.567 19 4.5ZM17.5 4.5C17.5 5.60457 16.6046 6.5 15.5 6.5C14.3954 6.5 13.5 5.60457 13.5 4.5C13.5 3.39543 14.3954 2.5 15.5 2.5C16.6046 2.5 17.5 3.39543 17.5 4.5ZM17.5 15.5C17.5 16.6046 16.6046 17.5 15.5 17.5C14.3954 17.5 13.5 16.6046 13.5 15.5C13.5 14.3954 14.3954 13.5 15.5 13.5C16.6046 13.5 17.5 14.3954 17.5 15.5ZM4.5 12C5.60457 12 6.5 11.1046 6.5 10C6.5 8.89543 5.60457 8 4.5 8C3.39543 8 2.5 8.89543 2.5 10C2.5 11.1046 3.39543 12 4.5 12Z" fill="#19191A"/>
</svg>
