<svg width="20" height="20" viewBox="0 0 20 20" fill="none" xmlns="http://www.w3.org/2000/svg">
    <path fill-rule="evenodd" clip-rule="evenodd" d="M19 4.5C19 6.433 17.433 8 15.5 8C13.8946 8 12.5417 6.91914 12.1292 5.44542C12.0975 5.33225 11.9968 5.25 11.8792 5.25H10.1433C9.98179 5.25 9.83026 5.32798 9.7364 5.45938L7.75985 8.22655C7.52521 8.55504 7.14638 8.75 6.74269 8.75H2.5C2.08578 8.75 1.75 8.41421 1.75 8C1.75 7.58579 2.08578 7.25 2.5 7.25H6.35672C6.5182 7.25 6.66973 7.17202 6.76359 7.04062L8.74014 4.27345C8.97478 3.94496 9.35362 3.75 9.75731 3.75H11.8792C11.9968 3.75 12.0975 3.66775 12.1292 3.55458C12.5417 2.08086 13.8946 1 15.5 1C17.433 1 19 2.567 19 4.5ZM17.5 4.5C17.5 5.60457 16.6046 6.5 15.5 6.5C14.3954 6.5 13.5 5.60457 13.5 4.5C13.5 3.39543 14.3954 2.5 15.5 2.5C16.6046 2.5 17.5 3.39543 17.5 4.5Z" fill="#19191A"/>
    <path fill-rule="evenodd" clip-rule="evenodd" d="M19 15.5C19 17.433 17.433 19 15.5 19C13.8946 19 12.5417 17.9191 12.1292 16.4454C12.0975 16.3322 11.9968 16.25 11.8792 16.25H10.7481C10.3001 16.25 9.88625 16.0102 9.66351 15.6214L7.87604 12.5014C7.78695 12.3459 7.62143 12.25 7.4422 12.25H1.75C1.33579 12.25 1 11.9142 1 11.5C1 11.0858 1.33579 10.75 1.75 10.75H7.87688C8.32495 10.75 8.73875 10.9898 8.96149 11.3786L10.749 14.4986C10.8381 14.6541 11.0036 14.75 11.1828 14.75H11.8792C11.9968 14.75 12.0975 14.6678 12.1292 14.5546C12.5417 13.0809 13.8946 12 15.5 12C17.433 12 19 13.567 19 15.5ZM17.5 15.5C17.5 16.6046 16.6046 17.5 15.5 17.5C14.3954 17.5 13.5 16.6046 13.5 15.5C13.5 14.3954 14.3954 13.5 15.5 13.5C16.6046 13.5 17.5 14.3954 17.5 15.5Z" fill="#19191A"/>
</svg>
