<svg width="20" height="20" viewBox="0 0 20 20" fill="none" xmlns="http://www.w3.org/2000/svg">
    <path d="M18.5 10C18.5 11.1457 17.9495 12.1629 17.0985 12.8014C16.7228 13.0833 16.5606 13.6224 16.8357 14.0032C17.0411 14.2877 17.4251 14.3876 17.7194 14.1965C19.0921 13.3052 20 11.7586 20 10C20 7.23859 17.7614 5 15 5C14.9215 5 14.8434 5.00181 14.7658 5.00539C14.556 5.01507 14.3565 4.90757 14.2504 4.72632C13.2961 3.09542 11.526 2 9.5 2C7.1033 2 5.06464 3.533 4.3111 5.67193C4.24062 5.872 4.06202 6.01602 3.85207 6.04629C1.67378 6.36041 0 8.23473 0 10.5C0 12.1809 0.921605 13.6465 2.28708 14.4192C2.58848 14.5897 2.95964 14.4646 3.14319 14.1709C3.39345 13.7705 3.1865 13.239 2.79788 12.9707C2.01382 12.4295 1.5 11.5248 1.5 10.5C1.5 8.90994 2.73788 7.60782 4.30142 7.50641L4.65469 7.4835C5.07805 7.45605 5.43801 7.16445 5.55273 6.756L5.64846 6.41516C6.12123 4.73193 7.66869 3.5 9.5 3.5C11.062 3.5 12.4176 4.39505 13.077 5.70715L13.2341 6.01962C13.4227 6.39489 13.8257 6.61232 14.2429 6.5639L14.5902 6.52359C14.7241 6.50806 14.8608 6.5 15 6.5C16.933 6.5 18.5 8.06702 18.5 10Z" fill="#19191A"/>
    <path fill-rule="evenodd" clip-rule="evenodd" d="M10.0001 10.6998C8.82297 10.6998 7.78691 11.6949 7.70685 13.049C7.70584 13.066 7.70422 13.0829 7.70198 13.0998V14.0572C7.70198 14.2154 7.64839 14.3689 7.54994 14.4928L6.81882 15.4125C6.68539 15.5803 6.66751 15.7985 6.7487 15.9871C6.82912 16.1739 6.97212 16.2641 7.12654 16.2641H12.8736C13.0281 16.2641 13.171 16.1739 13.2515 15.9871C13.3327 15.7985 13.3148 15.5803 13.1814 15.4125L12.4502 14.4928C12.3518 14.3689 12.2982 14.2154 12.2982 14.0572V13.0997C12.296 13.0829 12.2943 13.066 12.2933 13.049C12.2133 11.6949 11.1772 10.6998 10.0001 10.6998ZM6.31123 12.9355C6.44386 10.9454 8.00525 9.2998 10.0001 9.2998C11.995 9.2998 13.5564 10.9455 13.689 12.9356C13.6951 12.9832 13.6982 13.0315 13.6982 13.0802V13.8128L14.2773 14.5413C14.7659 15.156 14.7997 15.9314 14.5373 16.5408C14.2741 17.152 13.6783 17.6641 12.8736 17.6641H12.4103C12.3317 17.9999 12.2133 18.3748 12.0069 18.7005C11.8253 18.9871 11.5716 19.2477 11.2187 19.4315C10.8697 19.6133 10.4623 19.6998 10.0001 19.6998C9.53792 19.6998 9.13052 19.6133 8.78144 19.4315C8.42854 19.2477 8.17489 18.9871 7.99326 18.7005C7.78684 18.3748 7.66844 17.9999 7.58984 17.6641H7.12654C6.32191 17.6641 5.72602 17.152 5.46284 16.5408C5.20044 15.9314 5.23425 15.156 5.72291 14.5413L6.30198 13.8128V13.0802C6.30198 13.0315 6.3051 12.9832 6.31123 12.9355ZM9.04222 17.6641C9.0793 17.7717 9.12232 17.8667 9.1758 17.9511C9.24405 18.0588 9.32318 18.1352 9.42809 18.1898C9.53683 18.2464 9.71226 18.2998 10.0001 18.2998C10.2879 18.2998 10.4634 18.2464 10.5721 18.1898C10.677 18.1352 10.7561 18.0588 10.8244 17.9511C10.8779 17.8667 10.9209 17.7717 10.9579 17.6641H9.04222Z" fill="#19191A"/>
</svg>
