<svg width="20" height="20" viewBox="0 0 20 20" fill="none" xmlns="http://www.w3.org/2000/svg">
    <path d="M13.212 1.66663C14.7058 1.66663 15.4328 1.80702 16.1885 2.21114C16.8763 2.579 17.4208 3.1235 17.7887 3.81134C18.1928 4.56698 18.3332 5.29398 18.3332 6.78779V13.2121C18.3332 14.7059 18.1928 15.4329 17.7887 16.1886C17.4208 16.8764 16.8763 17.4209 16.1885 17.7888C15.4328 18.1929 14.7058 18.3333 13.212 18.3333H6.78766C5.29386 18.3333 4.56686 18.1929 3.81122 17.7888C3.12337 17.4209 2.57888 16.8764 2.21102 16.1886C1.80689 15.4329 1.6665 14.7059 1.6665 13.2121V6.78779C1.6665 5.29398 1.80689 4.56698 2.21102 3.81134C2.57888 3.1235 3.12337 2.579 3.81122 2.21114C4.56686 1.80702 5.29386 1.66663 6.78766 1.66663H13.212ZM13.212 3.22913H6.78766C5.52974 3.22913 5.04642 3.32246 4.54809 3.58897C4.13254 3.81121 3.81109 4.13266 3.58885 4.54821C3.32234 5.04655 3.229 5.52987 3.229 6.78779V13.2121C3.229 14.4701 3.32234 14.9534 3.58885 15.4517C3.81109 15.8673 4.13254 16.1887 4.54809 16.4109C5.04642 16.6775 5.52974 16.7708 6.78766 16.7708H13.212C14.4699 16.7708 14.9532 16.6775 15.4516 16.4109C15.8671 16.1887 16.1886 15.8673 16.4108 15.4517C16.6773 14.9534 16.7707 14.4701 16.7707 13.2121V6.78779C16.7707 5.52987 16.6773 5.04655 16.4108 4.54821C16.1886 4.13266 15.8671 3.81121 15.4516 3.58897C14.9532 3.32246 14.4699 3.22913 13.212 3.22913ZM11.3019 12.6041C11.7334 12.6041 12.0832 12.9539 12.0832 13.3854C12.0832 13.8168 11.7334 14.1666 11.3019 14.1666H6.61442C6.18295 14.1666 5.83317 13.8168 5.83317 13.3854C5.83317 12.9539 6.18295 12.6041 6.61442 12.6041H11.3019ZM13.3853 9.21871C13.8167 9.21871 14.1665 9.56849 14.1665 9.99996C14.1665 10.4314 13.8167 10.7812 13.3853 10.7812H6.61442C6.18295 10.7812 5.83317 10.4314 5.83317 9.99996C5.83317 9.56849 6.18295 9.21871 6.61442 9.21871H13.3853ZM13.3853 5.83329C13.8167 5.83329 14.1665 6.18307 14.1665 6.61454C14.1665 7.04601 13.8167 7.39579 13.3853 7.39579H6.61442C6.18295 7.39579 5.83317 7.04601 5.83317 6.61454C5.83317 6.18307 6.18295 5.83329 6.61442 5.83329H13.3853Z" fill="#19191A"/>
</svg>
