<svg width="24" height="24" viewBox="0 0 24 24" fill="none" xmlns="http://www.w3.org/2000/svg">
<path fill-rule="evenodd" clip-rule="evenodd" d="M9.30202 4.85749H14.6986C15.0946 4.857 15.4432 4.85656 15.7678 4.96155C16.0523 5.05356 16.3144 5.2041 16.5372 5.40348C16.7914 5.63095 16.9667 5.93224 17.1658 6.27461L18.7885 9.05652C18.851 9.16353 18.9061 9.25789 18.9518 9.35865C19.0475 9.56957 19.1083 9.79461 19.132 10.025C19.1432 10.1351 19.1432 10.2443 19.1432 10.3683L19.1431 10.3934C19.1431 11.6754 18.1038 12.7148 16.8217 12.7148C16.198 12.7148 15.6317 12.4688 15.2146 12.0685C14.7975 12.4688 14.2312 12.7148 13.6074 12.7148C12.9837 12.7148 12.4174 12.4688 12.0003 12.0685C11.5832 12.4688 11.0169 12.7148 10.3931 12.7148C9.7694 12.7148 9.20311 12.4688 8.78601 12.0685C8.3689 12.4688 7.80261 12.7148 7.17886 12.7148C5.89677 12.7148 4.85744 11.6754 4.85744 10.3934L4.85743 10.3683C4.85738 10.2444 4.85733 10.1351 4.86863 10.025C4.89228 9.79461 4.95311 9.56957 5.04878 9.35865C5.09449 9.25788 5.14958 9.16351 5.21208 9.05648L6.83476 6.27461C7.03391 5.93224 7.20916 5.63095 7.46339 5.40348C7.68622 5.2041 7.94831 5.05356 8.23281 4.96155C8.5574 4.85656 8.90595 4.857 9.30202 4.85749ZM17.7108 10.1708C17.7137 10.1989 17.7146 10.2308 17.7146 10.3934C17.7146 10.8865 17.3148 11.2862 16.8217 11.2862C16.3286 11.2862 15.9289 10.8865 15.9289 10.3934C15.9289 9.99887 15.6091 9.67907 15.2146 9.67907C14.8201 9.67907 14.5003 9.99887 14.5003 10.3934C14.5003 10.8865 14.1005 11.2862 13.6074 11.2862C13.1143 11.2862 12.7146 10.8865 12.7146 10.3934C12.7146 9.99887 12.3948 9.67907 12.0003 9.67907C11.6058 9.67907 11.286 9.99887 11.286 10.3934C11.286 10.8865 10.8863 11.2862 10.3931 11.2862C9.90004 11.2862 9.50029 10.8865 9.50029 10.3934C9.50029 9.99887 9.1805 9.67907 8.78601 9.67907C8.39152 9.67907 8.07172 9.99887 8.07172 10.3934C8.07172 10.8865 7.67197 11.2862 7.17886 11.2862C6.68575 11.2862 6.28601 10.8865 6.28601 10.3934C6.28601 10.2308 6.28686 10.1989 6.28974 10.1708C6.29762 10.0941 6.3179 10.019 6.34979 9.94873C6.36143 9.92307 6.37678 9.89505 6.45868 9.75465L8.0272 7.06576C8.2924 6.61114 8.35194 6.52539 8.41596 6.4681C8.49024 6.40164 8.5776 6.35146 8.67244 6.32079C8.75418 6.29435 8.85825 6.28613 9.38457 6.28613H14.616C15.1423 6.28613 15.2464 6.29435 15.3281 6.32079C15.423 6.35146 15.5103 6.40164 15.5846 6.4681C15.6486 6.52539 15.7082 6.61114 15.9734 7.06576L17.5419 9.75465C17.6238 9.89505 17.6392 9.92307 17.6508 9.94873C17.6827 10.019 17.703 10.0941 17.7108 10.1708Z" fill="#252629"/>
<path d="M8.42885 14.8576C8.42885 14.4632 8.10905 14.1434 7.71456 14.1434C7.32008 14.1434 7.00028 14.4632 7.00028 14.8576V17.7148H5.57171C5.17722 17.7148 4.85742 18.0346 4.85742 18.4291C4.85742 18.8236 5.17722 19.1434 5.57171 19.1434H18.4288C18.8233 19.1434 19.1431 18.8236 19.1431 18.4291C19.1431 18.0346 18.8233 17.7148 18.4288 17.7148H17.0003V14.8576C17.0003 14.4632 16.6805 14.1434 16.286 14.1434C15.8915 14.1434 15.5717 14.4632 15.5717 14.8576V17.7148H8.42885V14.8576Z" fill="#252629"/>
</svg>
