<svg width="20" height="20" viewBox="0 0 20 20" fill="none" xmlns="http://www.w3.org/2000/svg">
    <path d="M7.03117 13.4636C7.03117 14.0101 6.58812 14.4531 6.04159 14.4531C5.49505 14.4531 5.052 14.0101 5.052 13.4636C5.052 12.917 5.49505 12.474 6.04159 12.474C6.58812 12.474 7.03117 12.917 7.03117 13.4636Z" fill="#19191A"/>
    <path d="M9.99992 13.4636C9.99992 14.0101 9.55687 14.4531 9.01033 14.4531C8.4638 14.4531 8.02075 14.0101 8.02075 13.4636C8.02075 12.917 8.4638 12.474 9.01033 12.474C9.55687 12.474 9.99992 12.917 9.99992 13.4636Z" fill="#19191A"/>
    <path d="M6.04159 7.52605C6.58812 7.52605 7.03117 7.083 7.03117 6.53647C7.03117 5.98994 6.58812 5.54689 6.04159 5.54689C5.49505 5.54689 5.052 5.98994 5.052 6.53647C5.052 7.083 5.49505 7.52605 6.04159 7.52605Z" fill="#19191A"/>
    <path d="M9.01033 7.52605C9.55687 7.52605 9.99992 7.083 9.99992 6.53647C9.99992 5.98994 9.55687 5.54689 9.01033 5.54689C8.4638 5.54689 8.02075 5.98994 8.02075 6.53647C8.02075 7.083 8.4638 7.52605 9.01033 7.52605Z" fill="#19191A"/>
    <path fill-rule="evenodd" clip-rule="evenodd" d="M2.08325 10C2.08325 6.26806 2.08325 4.40208 3.24262 3.24271C4.40199 2.08334 6.26797 2.08334 9.99992 2.08334C13.7319 2.08334 15.5978 2.08334 16.7572 3.24271C17.9166 4.40208 17.9166 6.26806 17.9166 10C17.9166 13.732 17.9166 15.5979 16.7572 16.7573C15.5978 17.9167 13.7319 17.9167 9.99992 17.9167C6.26797 17.9167 4.40199 17.9167 3.24262 16.7573C2.08325 15.5979 2.08325 13.732 2.08325 10ZM9.99992 16.4323C8.09198 16.4323 6.81035 16.4291 5.85434 16.3006C4.94103 16.1778 4.55015 15.9656 4.29223 15.7077C4.03431 15.4498 3.8221 15.0589 3.69931 14.1456C3.6008 13.4129 3.57594 12.4888 3.5697 11.2382C3.56834 10.9645 3.79017 10.7422 4.06378 10.7422H15.9361C16.2097 10.7422 16.4315 10.9645 16.4301 11.2382C16.4239 12.4888 16.399 13.4129 16.3005 14.1456C16.1777 15.0589 15.9655 15.4498 15.7076 15.7077C15.4497 15.9656 15.0588 16.1778 14.1455 16.3006C13.1895 16.4291 11.9079 16.4323 9.99992 16.4323ZM16.4301 8.76187C16.4315 9.03547 16.2097 9.25782 15.9361 9.25782H4.06378C3.79017 9.25782 3.56834 9.03547 3.5697 8.76187C3.57594 7.51118 3.6008 6.58717 3.69931 5.85443C3.8221 4.94112 4.03431 4.55024 4.29223 4.29232C4.55015 4.03441 4.94103 3.82219 5.85434 3.6994C6.81035 3.57087 8.09198 3.56772 9.99992 3.56772C11.9079 3.56772 13.1895 3.57087 14.1455 3.6994C15.0588 3.82219 15.4497 4.03441 15.7076 4.29232C15.9655 4.55024 16.1777 4.94112 16.3005 5.85443C16.399 6.58717 16.4239 7.51118 16.4301 8.76187Z" fill="#19191A"/>
</svg>
