<svg width="20" height="20" viewBox="0 0 20 20" fill="none" xmlns="http://www.w3.org/2000/svg">
<path fill-rule="evenodd" clip-rule="evenodd" d="M13.834 2.39846C16.345 3.84821 17.2054 7.05905 15.7556 9.57009L14.6748 11.4422C14.6599 11.4679 14.6445 11.4931 14.6284 11.5176L16.5468 12.6252C16.9055 12.8323 17.0284 13.291 16.8213 13.6497C15.3716 16.1607 12.1607 17.0211 9.64968 15.5713L7.77753 14.4904C7.74413 14.4711 7.71169 14.4508 7.68024 14.4295L6.57117 16.3505C6.36407 16.7092 5.90537 16.8321 5.54665 16.625C3.03562 15.1753 2.17527 11.9644 3.62502 9.45339L4.7059 7.58124C4.72266 7.55221 4.7402 7.52391 4.75848 7.49635L2.81604 6.37488C2.45732 6.16778 2.33442 5.70908 2.54152 5.35036C3.99127 2.83933 7.20212 1.97898 9.71316 3.42873L11.5853 4.50961C11.6267 4.53352 11.6666 4.559 11.705 4.58595L12.8095 2.67298C13.0166 2.31426 13.4753 2.19135 13.834 2.39846ZM14.4566 8.82009L13.3757 10.6922C13.3513 10.7344 13.2974 10.7489 13.2552 10.7245L11.1665 9.51865C10.9274 9.38058 10.8454 9.07478 10.9835 8.83564L13.696 4.13746C15.0046 5.2942 15.3637 7.24893 14.4566 8.82009ZM4.92406 10.2034L6.00494 8.33124C6.02931 8.28904 6.08327 8.27458 6.12547 8.29895L8.21412 9.50483C8.45327 9.6429 8.53521 9.9487 8.39713 10.1878L5.68464 14.886C4.37601 13.7293 4.01695 11.7745 4.92406 10.2034ZM10.8353 5.80865L8.96316 4.72777C7.392 3.82066 5.43727 4.17972 4.28053 5.48835L8.9787 8.20085C9.21785 8.33892 9.52364 8.25698 9.66171 8.01783L10.8676 5.92918C10.892 5.88698 10.8775 5.83302 10.8353 5.80865ZM10.3997 14.2723L8.52753 13.1914C8.48533 13.167 8.47087 13.1131 8.49524 13.0709L9.70112 10.9822C9.83919 10.7431 10.145 10.6611 10.3841 10.7992L15.0823 13.5117C13.9256 14.8203 11.9708 15.1794 10.3997 14.2723Z" fill="#19191A"/>
</svg>
