<svg width="120" height="90" viewBox="0 0 120 90" fill="none" xmlns="http://www.w3.org/2000/svg">
<path d="M44.5816 40.6784C44.7245 41.371 44.8357 42.0752 44.9135 42.7895C44.5335 42.8248 44.2509 43.1589 44.2806 43.5407C44.3245 44.1064 44.3469 44.6782 44.3469 45.2554C44.3469 45.8326 44.3245 46.4044 44.2806 46.9701C44.2509 47.3519 44.5335 47.686 44.9135 47.7213C44.8357 48.4356 44.7245 49.1398 44.5816 49.8324C44.2091 49.7493 43.8377 49.9803 43.7486 50.3528C43.4802 51.4743 43.1253 52.5622 42.6912 53.609C42.5445 53.9627 42.7094 54.3679 43.0596 54.5194C42.7652 55.1711 42.4406 55.8063 42.0878 56.4231C41.7596 56.2284 41.3347 56.3326 41.1343 56.6589C40.5346 57.6355 39.8601 58.5614 39.1188 59.4285C38.8699 59.7196 38.9015 60.156 39.1878 60.4084C38.7081 60.9356 38.2037 61.44 37.6764 61.9198C37.4241 61.6334 36.9877 61.6018 36.6966 61.8507C35.8294 62.592 34.9036 63.2665 33.927 63.8662C33.6007 64.0666 33.4965 64.4915 33.6912 64.8197C33.0743 65.1726 32.4392 65.4971 31.7875 65.7915C31.636 65.4413 31.2308 65.2765 30.877 65.4232C29.8302 65.8572 28.7424 66.2122 27.6209 66.4805C27.2484 66.5696 27.0174 66.9411 27.1005 67.3135C26.4079 67.4565 25.7036 67.5676 24.9894 67.6454C24.954 67.2654 24.62 66.9829 24.2382 67.0125C23.6725 67.0565 23.1007 67.0789 22.5235 67.0789C21.9463 67.0789 21.3744 67.0565 20.8088 67.0125C20.4269 66.9829 20.0929 67.2654 20.0576 67.6454C19.3433 67.5676 18.6391 67.4565 17.9464 67.3135C18.0295 66.9411 17.7985 66.5696 17.4261 66.4805C16.3045 66.2122 15.2167 65.8572 14.1699 65.4232C13.8162 65.2765 13.411 65.4413 13.2594 65.7915C12.6077 65.4971 11.9726 65.1726 11.3557 64.8197C11.5505 64.4915 11.4463 64.0666 11.1199 63.8662C10.1433 63.2665 9.21748 62.592 8.35034 61.8507C8.05923 61.6018 7.62286 61.6334 7.37049 61.9198C6.84323 61.44 6.33882 60.9356 5.8591 60.4084C6.14541 60.156 6.17701 59.7196 5.92814 59.4285C5.18684 58.5614 4.51236 57.6355 3.91266 56.6589C3.71225 56.3326 3.28737 56.2284 2.95916 56.4231C2.60628 55.8063 2.28174 55.1711 1.98731 54.5194C2.33752 54.3679 2.50239 53.9627 2.3557 53.609C1.92162 52.5622 1.56668 51.4743 1.29836 50.3528C1.20925 49.9803 0.837796 49.7493 0.465357 49.8324C0.322384 49.1398 0.211214 48.4356 0.133438 47.7213C0.513454 47.686 0.796002 47.3519 0.766338 46.9701C0.722393 46.4044 0.7 45.8326 0.7 45.2554C0.7 44.6782 0.722393 44.1064 0.766338 43.5407C0.796002 43.1589 0.513455 42.8248 0.133438 42.7895C0.211214 42.0752 0.322385 41.371 0.465357 40.6784C0.837796 40.7615 1.20925 40.5304 1.29836 40.158C1.56669 39.0365 1.92162 37.9486 2.3557 36.9018C2.50239 36.5481 2.33752 36.1429 1.98731 35.9913C2.28174 35.3397 2.60628 34.7045 2.95916 34.0877C3.28737 34.2824 3.71225 34.1782 3.91266 33.8518C4.51237 32.8753 5.18684 31.9494 5.92815 31.0823C6.17701 30.7912 6.14541 30.3548 5.8591 30.1024C6.33883 29.5752 6.84323 29.0708 7.3705 28.591C7.62286 28.8773 8.05923 28.9089 8.35034 28.6601C9.21748 27.9188 10.1433 27.2443 11.1199 26.6446C11.4463 26.4442 11.5505 26.0193 11.3557 25.6911C11.9726 25.3382 12.6077 25.0137 13.2594 24.7192C13.411 25.0694 13.8162 25.2343 14.1699 25.0876C15.2167 24.6535 16.3045 24.2986 17.4261 24.0303C17.7985 23.9412 18.0295 23.5697 17.9464 23.1973C18.6391 23.0543 19.3433 22.9431 20.0576 22.8654C20.0929 23.2454 20.4269 23.5279 20.8088 23.4983C21.3744 23.4543 21.9463 23.4319 22.5235 23.4319C23.1007 23.4319 23.6725 23.4543 24.2382 23.4983C24.62 23.5279 24.954 23.2454 24.9894 22.8654C25.7036 22.9431 26.4079 23.0543 27.1005 23.1973C27.0174 23.5697 27.2484 23.9412 27.6209 24.0303C28.7424 24.2986 29.8302 24.6535 30.877 25.0876C31.2308 25.2343 31.636 25.0694 31.7875 24.7192C32.4392 25.0137 33.0743 25.3382 33.6912 25.6911C33.4965 26.0193 33.6007 26.4442 33.927 26.6446C34.9036 27.2443 35.8294 27.9188 36.6966 28.6601C36.9877 28.9089 37.4241 28.8773 37.6764 28.591C38.2037 29.0708 38.7081 29.5752 39.1878 30.1024C38.9015 30.3548 38.8699 30.7912 39.1188 31.0823C39.8601 31.9494 40.5346 32.8753 41.1343 33.8518C41.3347 34.1782 41.7596 34.2824 42.0878 34.0877C42.4406 34.7045 42.7652 35.3397 43.0596 35.9913C42.7094 36.1429 42.5445 36.5481 42.6912 36.9018C43.1253 37.9486 43.4802 39.0365 43.7486 40.158C43.8377 40.5304 44.2091 40.7615 44.5816 40.6784Z" stroke="#D7DDE8" stroke-width="1.4" stroke-linecap="round" stroke-dasharray="3.32 3.32"/>
<path d="M49.6578 24.6406H82.4793" stroke="black" stroke-width="1.4" stroke-linecap="round"/>
<path d="M61.7874 67.9443L75.9065 67.9443" stroke="#0077FF" stroke-width="1.4" stroke-linecap="round"/>
<path d="M88.5129 39.5381L88.5129 53.6573" stroke="black" stroke-width="1.4" stroke-linecap="round"/>
<path d="M44.5549 30.8525L44.5549 63.674" stroke="#0077FF" stroke-width="1.4" stroke-linecap="round"/>
<rect x="29.9811" y="7.29375" width="35.988" height="33.562" rx="7.28174" fill="white"/>
<rect x="29.9811" y="7.29375" width="35.988" height="33.562" rx="7.28174" stroke="black" stroke-width="1.4" stroke-linecap="round"/>
<path d="M55.0791 19.4236L55.2026 19.8386L55.629 19.9134C59.3063 20.5589 62.0236 23.5463 62.0236 27.0635C62.0236 31.0371 58.5474 34.3423 54.1519 34.3423C54.0015 34.3423 53.8503 34.3378 53.6985 34.33L53.6802 34.329L53.662 34.329L41.3055 34.3353L41.2919 34.3353L41.2784 34.3359C41.178 34.3398 41.0778 34.3423 40.985 34.3423C40.8913 34.3423 40.7977 34.3401 40.7037 34.336L40.6884 34.3353H40.6784C37.285 34.1857 34.6638 31.5911 34.6638 28.5068C34.6638 25.776 36.712 23.4346 39.5409 22.8241L40.1618 22.6901L40.0885 22.0591C40.0598 21.811 40.0449 21.5588 40.0449 21.3034C40.0449 17.4418 43.4235 14.2273 47.6987 14.2273C51.2499 14.2273 54.1959 16.455 55.0791 19.4236Z" fill="#F6F7F9" stroke="#0077FF" stroke-width="1.4"/>
<rect x="29.9811" y="51.5311" width="35.988" height="33.562" rx="7.28174" fill="#E5EEF7"/>
<rect x="29.9811" y="51.5311" width="35.988" height="33.562" rx="7.28174" stroke="#0077FF" stroke-width="1.4" stroke-linecap="round"/>
<rect x="76.5253" y="7.29375" width="35.988" height="33.562" rx="7.28174" fill="#E5EEF7"/>
<rect x="76.5253" y="7.29375" width="35.988" height="33.562" rx="7.28174" stroke="#0077FF" stroke-width="1.4" stroke-linecap="round"/>
<path fill-rule="evenodd" clip-rule="evenodd" d="M85.6846 57.7766C84.768 58.6458 84.8989 60.3668 85.1668 61.5359C85.1783 61.6453 85.1983 61.7566 85.2272 61.8694L88.6756 75.2933C89.3796 78.0338 94.1989 78.5571 95.3146 76.0143L97.1379 71.8587C97.5326 70.9592 98.5351 70.3357 99.7591 70.2284L105.696 69.7079C106.299 69.655 106.808 69.4977 107.219 69.2681C107.259 69.251 107.301 69.2318 107.346 69.2104C109.438 68.198 108.841 65.5962 108.347 64.3367C108.184 64.7205 107.995 65.1322 107.802 65.5489C107.422 65.1383 106.885 64.7878 106.184 64.554L89.7336 59.0669C88.746 58.7375 87.7588 58.7774 86.9553 59.0727C86.5841 58.0414 86.1406 57.344 85.6846 57.7766Z" fill="black"/>
<path d="M85.1933 59.7315C84.6664 57.6589 87.1833 56.0911 89.6999 56.9243L106.152 62.3715C109.475 63.4717 109.117 67.2102 105.659 67.522L99.6997 68.0593C98.4783 68.1694 97.477 68.7932 97.0807 69.6909L95.238 73.864C94.1157 76.4058 89.3009 75.8892 88.6052 73.1524L85.1933 59.7315Z" fill="#F6F7F9"/>
<path fill-rule="evenodd" clip-rule="evenodd" d="M105.866 62.9952L89.4137 57.548C87.532 56.9249 85.6501 58.0972 86.0441 59.647L89.4559 73.0679C89.9762 75.1142 93.5763 75.5004 94.4154 73.5999L96.2581 69.4268C96.7545 68.3026 98.0083 67.5215 99.5379 67.3836L105.497 66.8463C108.083 66.6132 108.35 63.8178 105.866 62.9952ZM89.6999 56.9243C87.1833 56.0911 84.6664 57.6589 85.1933 59.7315L88.6052 73.1524C89.3009 75.8892 94.1157 76.4058 95.238 73.864L97.0807 69.6909C97.477 68.7932 98.4783 68.1694 99.6997 68.0593L105.659 67.522C109.117 67.2102 109.475 63.4717 106.152 62.3715L89.6999 56.9243Z" fill="black"/>
</svg>
