<svg width="245" height="176" viewBox="0 0 245 176" fill="none" xmlns="http://www.w3.org/2000/svg">
<circle cx="64.498" cy="58.6191" r="49.498" stroke="#D7DDE8" stroke-width="1.8" stroke-linecap="round" stroke-dasharray="5.1 5.1"/>
<rect x="125.874" y="34.5088" width="85.2738" height="63.7103" rx="16" fill="#B5DCFF" stroke="black" stroke-width="1.8"/>
<rect x="125.874" y="98.4775" width="85.2738" height="63.7103" rx="16" fill="#B5DCFF" stroke="black" stroke-width="1.8"/>
<rect x="43.5406" y="34.5088" width="147.024" height="63.7103" rx="16" fill="#F6F7F9" stroke="black" stroke-width="1.8"/>
<rect x="43.5406" y="98.4775" width="147.024" height="63.7103" rx="16" fill="#F6F7F9" stroke="black" stroke-width="1.8"/>
<path d="M88.6168 58.4483C87.2982 53.6869 82.9348 50.1914 77.7541 50.1914C71.5294 50.1914 66.4832 55.2376 66.4832 61.4623C66.4832 61.872 66.5054 62.2766 66.5484 62.6747C62.3514 63.6478 59.2231 67.4098 59.2231 71.9032C59.2231 76.9894 63.232 81.1389 68.262 81.3659H68.2752C68.4148 81.3725 68.5549 81.3761 68.696 81.3761C68.8371 81.3761 68.9853 81.372 69.1289 81.3659L85.8001 81.3568C86.0186 81.369 86.2391 81.3761 86.4607 81.3761C92.8477 81.3761 98.0254 76.1983 98.0254 69.8113C98.0254 64.1612 93.9731 59.4584 88.6168 58.4483Z" stroke="#0077FF" stroke-width="1.8"/>
<path d="M126.854 59.0127L114.112 71.7548" stroke="#B5DCFF" stroke-width="1.8" stroke-linecap="round"/>
<path d="M145.477 59.0127L133.715 71.7547" stroke="#B5DCFF" stroke-width="1.8" stroke-linecap="round"/>
<path d="M165.08 59.0127L152.338 71.7547" stroke="#B5DCFF" stroke-width="1.8" stroke-linecap="round"/>
</svg>
