<svg width="20" height="20" viewBox="0 0 20 20" fill="none" xmlns="http://www.w3.org/2000/svg">
    <g clip-path="url(#clip0_15363_13378)">
        <path fill-rule="evenodd" clip-rule="evenodd" d="M10.8249 13.623C10.4277 14.2025 9.57232 14.2025 9.17512 13.623L8.49879 12.6361C8.36875 12.4464 8.17729 12.3073 7.95667 12.2422L6.80912 11.904C6.13517 11.7053 5.87086 10.8918 6.29932 10.335L7.02887 9.38679C7.16914 9.2045 7.24227 8.97942 7.23594 8.74949L7.20305 7.55358C7.18373 6.85122 7.87571 6.34847 8.53772 6.58389L9.66494 6.98473C9.88166 7.06179 10.1183 7.06179 10.335 6.98473L11.4623 6.58389C12.1243 6.34847 12.8162 6.85122 12.7969 7.55358L12.764 8.74949C12.7577 8.97942 12.8308 9.2045 12.9711 9.38679L13.7007 10.335C14.1291 10.8918 13.8648 11.7053 13.1909 11.904L12.0433 12.2422C11.8227 12.3073 11.6312 12.4464 11.5012 12.6361L10.8249 13.623ZM10 8.15712C11.0177 8.15712 11.8428 8.98216 11.8428 9.9999C11.8428 11.0176 11.0177 11.8427 10 11.8427C8.98226 11.8427 8.15722 11.0176 8.15722 9.9999C8.15722 8.98216 8.98226 8.15712 10 8.15712Z" fill="#19191A"/>
        <path fill-rule="evenodd" clip-rule="evenodd" d="M10.6486 19.4471C10.2749 19.7657 9.72514 19.7657 9.35138 19.4471L7.18491 17.6009C7.02475 17.4644 6.82561 17.3819 6.61584 17.3652L3.77842 17.1388C3.28891 17.0997 2.9002 16.711 2.86114 16.2215L2.63471 13.3841C2.61797 13.1743 2.53548 12.9751 2.39899 12.815L0.552743 10.6485C0.23423 10.2748 0.23423 9.72504 0.552743 9.35128L2.39899 7.18481C2.53548 7.02465 2.61797 6.82551 2.63471 6.61574L2.86114 3.77832C2.9002 3.28881 3.28891 2.9001 3.77842 2.86104L6.61584 2.63461C6.82561 2.61787 7.02475 2.53539 7.18491 2.3989L9.35138 0.552645C9.72514 0.234131 10.2749 0.234131 10.6486 0.552645L12.8151 2.3989C12.9752 2.53539 13.1744 2.61787 13.3841 2.63461L16.2216 2.86104C16.7111 2.9001 17.0998 3.28881 17.1389 3.77832L17.3653 6.61574C17.382 6.82551 17.4645 7.02465 17.601 7.18481L19.4472 9.35128C19.7658 9.72504 19.7658 10.2748 19.4472 10.6485L17.601 12.815C17.4645 12.9751 17.382 13.1743 17.3653 13.3841L17.1389 16.2215C17.0998 16.711 16.7111 17.0997 16.2216 17.1388L13.3841 17.3652C13.1744 17.3819 12.9752 17.4644 12.8151 17.6009L10.6486 19.4471ZM12.7808 15.9086C12.571 15.9253 12.3719 16.0078 12.2117 16.1443L10.6486 17.4764C10.2749 17.7949 9.72513 17.7949 9.35138 17.4764L7.78826 16.1443C7.6281 16.0078 7.42896 15.9253 7.21919 15.9086L5.17198 15.7452C4.68247 15.7061 4.29376 15.3174 4.2547 14.8279L4.09133 12.7807C4.07459 12.5709 3.9921 12.3718 3.85561 12.2116L2.52354 10.6485C2.20502 10.2748 2.20502 9.72504 2.52354 9.35128L3.85561 7.78817C3.9921 7.628 4.07459 7.42886 4.09133 7.2191L4.2547 5.17188C4.29376 4.68237 4.68247 4.29366 5.17198 4.2546L7.21919 4.09123C7.42896 4.07449 7.6281 3.99201 7.78826 3.85551L9.35138 2.52344C9.72514 2.20492 10.2749 2.20493 10.6486 2.52344L12.2117 3.85552C12.3719 3.99201 12.571 4.07449 12.7808 4.09123L14.828 4.2546C15.3175 4.29366 15.7062 4.68237 15.7453 5.17188L15.9087 7.2191C15.9254 7.42886 16.0079 7.628 16.1444 7.78817L17.4765 9.35128C17.795 9.72504 17.795 10.2748 17.4765 10.6485L16.1444 12.2116C16.0079 12.3718 15.9254 12.5709 15.9087 12.7807L15.7453 14.8279C15.7062 15.3174 15.3175 15.7061 14.828 15.7452L12.7808 15.9086Z" fill="#19191A"/>
    </g>
    <defs>
        <clipPath id="clip0_15363_13378">
            <rect width="20" height="20" fill="white"/>
        </clipPath>
    </defs>
</svg>
