<svg width="20" height="20" viewBox="0 0 20 20" fill="none" xmlns="http://www.w3.org/2000/svg">
    <path fill-rule="evenodd" clip-rule="evenodd" d="M5.91683 15.5168C7.05785 16.3627 8.4705 16.8631 10 16.8631C11.5295 16.8631 12.9422 16.3627 14.0832 15.5168C12.8851 14.8146 11.4905 14.4121 10 14.4121C8.50955 14.4121 7.11489 14.8146 5.91683 15.5168ZM4.79966 14.4786C3.76365 13.2767 3.13726 11.7117 3.13726 10.0003C3.13726 6.21014 6.20982 3.13758 10 3.13758C13.7902 3.13758 16.8627 6.21014 16.8627 10.0003C16.8627 11.7117 16.2364 13.2767 15.2003 14.4786C13.7033 13.5063 11.9165 12.9415 10 12.9415C8.08346 12.9415 6.29671 13.5063 4.79966 14.4786ZM10 1.66699C5.39763 1.66699 1.66667 5.39795 1.66667 10.0003C1.66667 14.6027 5.39763 18.3337 10 18.3337C14.6024 18.3337 18.3333 14.6027 18.3333 10.0003C18.3333 5.39795 14.6024 1.66699 10 1.66699ZM8.52942 8.52974C8.52942 9.34192 9.18782 10.0003 10 10.0003C10.8122 10.0003 11.4706 9.34192 11.4706 8.52974C11.4706 7.71755 10.8122 7.05915 10 7.05915C9.18782 7.05915 8.52942 7.71755 8.52942 8.52974ZM10 5.58856C8.37564 5.58856 7.05883 6.90537 7.05883 8.52974C7.05883 10.1541 8.37564 11.4709 10 11.4709C11.6244 11.4709 12.9412 10.1541 12.9412 8.52974C12.9412 6.90537 11.6244 5.58856 10 5.58856Z" fill="#19191A"/>
</svg>
