<svg width="20" height="20" viewBox="0 0 20 20" fill="none" xmlns="http://www.w3.org/2000/svg">
<path fill-rule="evenodd" clip-rule="evenodd" d="M6.35417 3.33337C4.74334 3.33337 3.4375 4.71096 3.4375 6.4103C3.4375 8.10963 4.74334 9.48722 6.35417 9.48722C7.965 9.48722 9.27083 8.10963 9.27083 6.4103C9.27083 4.71096 7.965 3.33337 6.35417 3.33337ZM4.89583 6.4103C4.89583 7.25997 5.54875 7.94876 6.35417 7.94876C7.15958 7.94876 7.8125 7.25997 7.8125 6.4103C7.8125 5.56063 7.15958 4.87184 6.35417 4.87184C5.54875 4.87184 4.89583 5.56063 4.89583 6.4103Z" fill="#19191A"/>
<path fill-rule="evenodd" clip-rule="evenodd" d="M2.89083 11.6094C3.82431 11.0412 5.055 10.7693 6.35417 10.7693C7.65333 10.7693 8.88402 11.0412 9.8175 11.6094C10.7672 12.1874 11.4583 13.1149 11.4583 14.359C11.4583 15.0843 11.1904 15.6984 10.6986 16.1135C10.2286 16.5102 9.6251 16.6667 9.02778 16.6667H3.68056C3.08323 16.6667 2.47975 16.5102 2.00977 16.1135C1.51789 15.6984 1.25 15.0843 1.25 14.359C1.25 13.1149 1.94108 12.1874 2.89083 11.6094ZM3.61959 12.942C2.98947 13.3255 2.70833 13.8083 2.70833 14.359C2.70833 14.6593 2.80503 14.8145 2.92078 14.9122C3.05844 15.0284 3.30566 15.1282 3.68056 15.1282H9.02778C9.40268 15.1282 9.64989 15.0284 9.78755 14.9122C9.90331 14.8145 10 14.6593 10 14.359C10 13.8083 9.71886 13.3255 9.08874 12.942C8.44237 12.5486 7.48556 12.3077 6.35417 12.3077C5.22278 12.3077 4.26597 12.5486 3.61959 12.942Z" fill="#19191A"/>
<path fill-rule="evenodd" clip-rule="evenodd" d="M13.6458 3.33337C12.035 3.33337 10.7292 4.71096 10.7292 6.4103C10.7292 8.10963 12.035 9.48722 13.6458 9.48722C15.2567 9.48722 16.5625 8.10963 16.5625 6.4103C16.5625 4.71096 15.2567 3.33337 13.6458 3.33337ZM12.1875 6.4103C12.1875 7.25997 12.8404 7.94876 13.6458 7.94876C14.4513 7.94876 15.1042 7.25997 15.1042 6.4103C15.1042 5.56063 14.4513 4.87184 13.6458 4.87184C12.8404 4.87184 12.1875 5.56063 12.1875 6.4103Z" fill="#19191A"/>
<path d="M13.6458 12.3077C13.4252 12.3077 13.2049 12.3191 12.9879 12.3416C12.5871 12.3831 12.2303 12.074 12.191 11.6512C12.1517 11.2284 12.4447 10.852 12.8455 10.8105C13.1099 10.7831 13.3777 10.7693 13.6458 10.7693C14.945 10.7693 16.1757 11.0412 17.1092 11.6094C18.0589 12.1874 18.75 13.1149 18.75 14.359C18.75 15.0843 18.4821 15.6984 17.9902 16.1135C17.5202 16.5102 16.9168 16.6667 16.3194 16.6667H13.4028C13.0001 16.6667 12.6736 16.3223 12.6736 15.8975C12.6736 15.4726 13.0001 15.1282 13.4028 15.1282H16.3194C16.6943 15.1282 16.9416 15.0284 17.0792 14.9122C17.195 14.8145 17.2917 14.6593 17.2917 14.359C17.2917 13.8083 17.0105 13.3255 16.3804 12.942C15.734 12.5486 14.7772 12.3077 13.6458 12.3077Z" fill="#19191A"/>
</svg>
