<svg width="18" height="18" viewBox="0 0 18 18" fill="none" xmlns="http://www.w3.org/2000/svg">
<path fill-rule="evenodd" clip-rule="evenodd" d="M15.8951 13.7456C16.289 10.5942 16.289 7.40608 15.8951 4.2547C15.7546 3.13078 14.8693 2.2455 13.7454 2.10501C10.594 1.71109 7.40583 1.71109 4.25446 2.10501C3.13053 2.2455 2.24526 3.13078 2.10477 4.2547C1.71085 7.40608 1.71085 10.5942 2.10477 13.7456C2.24526 14.8695 3.13053 15.7548 4.25446 15.8953C7.40583 16.2892 10.594 16.2892 13.7454 15.8953C14.8693 15.7548 15.7546 14.8695 15.8951 13.7456ZM4.06841 0.616595C2.26357 0.8422 0.841956 2.26381 0.616351 4.06865C0.206985 7.34358 0.206985 10.6567 0.616351 13.9317C0.841956 15.7365 2.26356 17.1581 4.06841 17.3837C7.34333 17.7931 10.6565 17.7931 13.9314 17.3837C15.7363 17.1581 17.1579 15.7365 17.3835 13.9317C17.7928 10.6567 17.7928 7.34358 17.3835 4.06865C17.1579 2.26381 15.7363 0.8422 13.9314 0.616595C10.6565 0.207229 7.34334 0.207229 4.06841 0.616595ZM6.10124 7.5L7.024 8.61732C7.28723 8.93605 7.24331 9.4076 6.92574 9.67224C6.60669 9.93812 6.13239 9.89447 5.86721 9.57483L4.0534 7.38851C3.74623 7.01826 3.74624 6.48175 4.05342 6.1115L5.86722 3.92534C6.13239 3.60572 6.60667 3.56209 6.92571 3.82796C7.24329 4.0926 7.2872 4.56417 7.02394 4.88289L6.10124 6H8.75C9.16421 6 9.5 6.33579 9.5 6.75C9.5 7.16421 9.16421 7.5 8.75 7.5H6.10124ZM11.2987 9.82406L11.8988 10.5925H9.25C8.83579 10.5925 8.5 10.9283 8.5 11.3425C8.5 11.7567 8.83579 12.0925 9.25 12.0925H11.8988L11.206 12.9625C10.9505 13.2834 10.9982 13.7495 11.3132 14.0121C11.6357 14.2807 12.1153 14.2347 12.3807 13.9096L13.962 11.9725C14.2616 11.6055 14.2626 11.0787 13.9643 10.7106L12.4829 8.88214C12.2173 8.55431 11.7348 8.50709 11.4107 8.7772C11.0969 9.03871 11.0473 9.5021 11.2987 9.82406Z" fill="#19191A"/>
</svg>
