<svg width="32" height="32" viewBox="0 0 32 32" fill="none" xmlns="http://www.w3.org/2000/svg">
<path fill-rule="evenodd" clip-rule="evenodd" d="M16.0001 0.800049C12.5538 0.800049 9.76011 3.71659 9.76011 7.31432V14.5524C9.76011 18.1501 12.5538 21.0667 16.0001 21.0667C19.4464 21.0667 22.2401 18.1501 22.2401 14.5524V7.31432C22.2401 3.71659 19.4464 0.800049 16.0001 0.800049ZM19.4668 14.5524V7.31432C19.4668 5.31558 17.9147 3.69528 16.0001 3.69528C14.0855 3.69528 12.5334 5.31558 12.5334 7.31432V14.5524C12.5334 16.5511 14.0855 18.1714 16.0001 18.1714C17.9147 18.1714 19.4668 16.5511 19.4668 14.5524Z" fill="black"/>
<path d="M14.6133 25.4095L14.6133 28.3048H13.2267C12.4608 28.3048 11.84 28.9529 11.84 29.7524C11.84 30.552 12.4608 31.2 13.2267 31.2H18.7733C19.5392 31.2 20.16 30.552 20.16 29.7524C20.16 28.9529 19.5392 28.3048 18.7733 28.3048H17.3867L17.3867 25.4095C22.3646 25.4095 26.4 21.1967 26.4 16C26.4 15.2005 25.7792 14.5524 25.0133 14.5524C24.2475 14.5524 23.6267 15.2005 23.6267 16C23.6267 19.5978 20.833 22.5143 17.3867 22.5143H14.6133C11.1671 22.5143 8.37334 19.5978 8.37334 16C8.37334 15.2005 7.75251 14.5524 6.98667 14.5524C6.22084 14.5524 5.60001 15.2005 5.60001 16C5.60001 21.1967 9.63541 25.4095 14.6133 25.4095Z" fill="black"/>
</svg>
