<svg width="18" height="18" viewBox="0 0 18 18" fill="none" xmlns="http://www.w3.org/2000/svg">
    <path fill-rule="evenodd" clip-rule="evenodd" d="M7.42861 4.36769C7.44605 4.33245 7.46474 4.29764 7.48471 4.26334L9.1673 1.37297C9.48176 0.832773 10.0629 0.5 10.6918 0.5H14.057C14.6859 0.5 15.2671 0.832774 15.5816 1.37297L17.2642 4.26334C17.5786 4.80354 17.5786 5.46908 17.2642 6.00928L15.5816 8.89965C15.5616 8.93395 15.5406 8.96741 15.5185 9C15.5406 9.03259 15.5616 9.06605 15.5816 9.10035L17.2642 11.9907C17.5786 12.5309 17.5786 13.1965 17.2642 13.7367L15.5816 16.627C15.2671 17.1672 14.6859 17.5 14.057 17.5H10.6918C10.0629 17.5 9.48176 17.1672 9.1673 16.627L7.48471 13.7367C7.46472 13.7023 7.446 13.6675 7.42854 13.6322C7.38865 13.6349 7.3485 13.6362 7.30815 13.6362H3.94298C3.31405 13.6362 2.7329 13.3035 2.41843 12.7633L0.735848 9.87289C0.421384 9.3327 0.421384 8.66715 0.735848 8.12696L2.41843 5.23658C2.7329 4.69639 3.31405 4.36361 3.94298 4.36361H7.30815C7.34852 4.36361 7.3887 4.36498 7.42861 4.36769ZM9.11454 5.7183C8.90489 5.35816 8.90489 4.91444 9.11454 4.5543L10.2363 2.62732C10.446 2.26718 10.8334 2.04532 11.2527 2.04532L13.4962 2.04532C13.9155 2.04532 14.303 2.26718 14.5126 2.62732L15.6344 4.5543C15.844 4.91444 15.844 5.35816 15.6344 5.7183L14.5126 7.64528C14.303 8.00542 13.9155 8.22728 13.4962 8.22728H11.2527C10.8334 8.22728 10.446 8.00542 10.2363 7.64528L9.11454 5.7183ZM2.36568 8.41792C2.15603 8.77806 2.15603 9.22177 2.36568 9.58191L3.48744 11.5089C3.69709 11.869 4.08454 12.0909 4.50384 12.0909H6.74737C7.16667 12.0909 7.55412 11.869 7.76377 11.5089L8.88553 9.58191C9.09518 9.22177 9.09518 8.77806 8.88553 8.41792L7.76377 6.49093C7.55412 6.13079 7.16667 5.90893 6.74737 5.90893L4.50384 5.90894C4.08454 5.90894 3.69709 6.13079 3.48744 6.49093L2.36568 8.41792ZM9.11454 12.2817C8.90489 12.6418 8.90489 13.0855 9.11454 13.4457L10.2363 15.3727C10.446 15.7328 10.8334 15.9547 11.2527 15.9547H13.4962C13.9155 15.9547 14.303 15.7328 14.5126 15.3727L15.6344 13.4457C15.844 13.0855 15.844 12.6418 15.6344 12.2817L14.5126 10.3547C14.303 9.99456 13.9155 9.7727 13.4962 9.7727H11.2527C10.8334 9.7727 10.446 9.99456 10.2363 10.3547L9.11454 12.2817Z" fill="#19191A"/>
</svg>
