<svg width="19" height="16" viewBox="0 0 19 16" fill="none" xmlns="http://www.w3.org/2000/svg">
    <path fill-rule="evenodd" clip-rule="evenodd" d="M18.4997 2.4695C17.6071 1.75401 16.5513 1.26086 15.4201 1.0368C14.0373 0.76288 12.6038 0.903464 11.3012 1.44079C9.99847 1.97812 8.88498 2.88809 8.10154 4.05569C7.31809 5.22328 6.8999 6.59605 6.8999 8.00039C6.8999 9.40474 7.31809 10.7775 8.10154 11.9451C8.88498 13.1127 9.99847 14.0227 11.3012 14.56C12.6038 15.0973 14.0373 15.2379 15.4201 14.964C16.5513 14.7399 17.6071 14.2468 18.4997 13.5313C18.877 13.2289 18.8674 12.6771 18.5353 12.3464C18.2009 12.0133 17.6721 12.0252 17.3089 12.2999C16.6564 12.7934 15.8972 13.1352 15.0872 13.2957C14.0354 13.504 12.9451 13.3971 11.9542 12.9884C10.9634 12.5797 10.1166 11.8876 9.52087 10.9998C8.92512 10.1119 8.60717 9.06813 8.60717 8.00039C8.60717 6.93266 8.92512 5.88887 9.52087 5.00101C10.1166 4.11315 10.9634 3.42108 11.9542 3.01239C12.9451 2.60369 14.0354 2.49675 15.0872 2.70511C15.8972 2.86555 16.6564 3.20738 17.3089 3.70089C17.6721 3.97561 18.2009 3.98747 18.5353 3.6544C18.8674 3.32368 18.877 2.77192 18.4997 2.4695ZM4.3499 14.2504V1.75039C4.3499 1.28095 3.96934 0.900394 3.4999 0.900394C3.26176 0.900394 3.05636 1.0054 2.88439 1.14826C2.71287 1.29075 2.56823 1.47604 2.44921 1.64969C2.24184 1.95225 1.894 2.15039 1.4999 2.15039C1.16853 2.15039 0.899902 2.41902 0.899902 2.75039V3.25039C0.899902 3.58176 1.16853 3.85039 1.4999 3.85039C1.90894 3.85039 2.29807 3.76416 2.6499 3.60883V14.2504C2.6499 14.7198 3.03046 15.1004 3.4999 15.1004C3.96934 15.1004 4.3499 14.7198 4.3499 14.2504Z" fill="#19191A"/>
</svg>
