<svg width="20" height="20" viewBox="0 0 20 20" fill="none" xmlns="http://www.w3.org/2000/svg">
    <path d="M17.7494 9.24988C18.1636 9.24988 18.4994 9.58572 18.4994 9.99988C18.4994 12.174 17.6697 14.3511 16.0102 16.0106C14.3508 17.6699 12.1743 18.4997 10.0004 18.4999C9.5862 18.4999 9.25042 18.1641 9.2504 17.7499C9.25048 17.3357 9.58624 16.9999 10.0004 16.9999C11.7926 16.9997 13.5819 16.3165 14.9486 14.9501C16.3156 13.5831 17.0004 11.7925 17.0004 9.99988C17.0005 9.58585 17.3354 9.25011 17.7494 9.24988Z" fill="#252629"/>
    <path fill-rule="evenodd" clip-rule="evenodd" d="M5.37345 2.90125C8.60283 1.03697 12.7326 2.14363 14.5971 5.37293C16.2621 8.25676 15.5557 11.8563 13.0863 13.9218L13.0766 13.9345L13.0209 13.9804C12.9245 14.059 12.8238 14.1332 12.7221 14.2069C12.7098 14.2158 12.6973 14.2244 12.685 14.2333C12.6109 14.2862 12.536 14.3383 12.4594 14.3886C12.4404 14.401 12.4219 14.4143 12.4027 14.4266C12.3243 14.4769 12.2445 14.5257 12.1635 14.5731C12.1507 14.5807 12.1383 14.5891 12.1254 14.5966C12.0816 14.6218 12.0367 14.6447 11.9926 14.6688C11.5285 14.9233 11.0478 15.1192 10.558 15.2557C10.361 15.3106 10.1624 15.3541 9.96329 15.3905C9.8371 15.4136 9.71102 15.4353 9.58439 15.4511C9.47542 15.4646 9.36632 15.4751 9.25724 15.4833C8.9306 15.5077 8.6039 15.5081 8.2797 15.4852C7.84709 15.4547 7.41883 15.3832 7.00138 15.2714C6.58403 15.1596 6.17734 15.0079 5.78751 14.8182C5.59257 14.7233 5.40196 14.6186 5.21622 14.5048C4.28774 13.9362 3.48338 13.1349 2.90079 12.1259C2.8439 12.0273 2.79104 11.9272 2.73966 11.827C2.73234 11.8128 2.72538 11.7984 2.71818 11.7841C2.46917 11.2903 2.28562 10.7793 2.16642 10.2606C2.16245 10.2434 2.15853 10.2261 2.1547 10.2089C1.99117 9.4706 1.95596 8.71886 2.04044 7.98426C2.04344 7.95818 2.04691 7.93217 2.05021 7.90613C2.0742 7.71689 2.10614 7.52893 2.14591 7.34266C2.14923 7.32712 2.15128 7.3113 2.1547 7.29578C2.19695 7.10448 2.24842 6.91533 2.30704 6.7284C2.31843 6.69206 2.33118 6.65616 2.34318 6.62C2.36489 6.55464 2.38686 6.48938 2.41056 6.42469C2.41842 6.40322 2.42592 6.38163 2.434 6.36024C2.46414 6.28047 2.49655 6.20157 2.5297 6.12293C2.54679 6.08236 2.56454 6.04209 2.58243 6.00184C2.65501 5.83865 2.73323 5.67778 2.81876 5.52039C2.82884 5.50184 2.83878 5.4832 2.84904 5.46473C2.88749 5.39553 2.92821 5.32757 2.96915 5.25965C2.98655 5.23078 3.00307 5.20137 3.02091 5.17274C3.05732 5.11433 3.09593 5.05726 3.13419 4.99988C3.15011 4.97601 3.16483 4.95131 3.18107 4.92762C3.23335 4.85136 3.28761 4.7763 3.34318 4.70203C3.37925 4.65379 3.41705 4.60682 3.4545 4.55946C3.47909 4.52838 3.50257 4.49639 3.52775 4.46571C3.56225 4.42362 3.59858 4.38301 3.63419 4.34168C3.64611 4.32786 3.65731 4.31342 3.66935 4.29969C4.14426 3.75767 4.71463 3.28162 5.37345 2.90125ZM3.61173 7.65809C3.57846 7.81454 3.55256 7.97263 3.53361 8.13172C3.50854 8.34186 3.49704 8.55385 3.49747 8.76649C3.49959 9.65331 3.72545 10.5518 4.2006 11.3749C5.46966 13.573 8.08814 14.5069 10.4057 13.7343L10.6527 13.6444C10.7864 13.5923 10.9184 13.5335 11.0492 13.4696C11.1389 13.4258 11.2277 13.3793 11.3158 13.33C11.3358 13.3188 11.3565 13.3082 11.3764 13.2968C11.4793 13.2373 11.5784 13.1736 11.6752 13.1083C11.6929 13.0964 11.7104 13.0842 11.7279 13.0722C11.8238 13.0058 11.9174 12.938 12.0072 12.8671C12.1385 12.6993 12.2438 12.5118 12.3168 12.3016L12.3783 12.0839L12.4086 11.9315C12.5396 11.177 12.3387 10.5305 11.7904 9.94324L11.7914 9.94129C11.4691 9.59818 11.0728 9.38821 10.599 9.29871L10.5981 9.29969C10.1504 9.21466 9.72523 9.27008 9.30704 9.46766C8.99761 9.61316 8.57349 9.82775 8.10294 9.9325C7.55081 10.0547 6.98948 10.0605 6.43009 9.93934C5.73682 9.78771 5.0993 9.47104 4.56583 8.96863C4.20316 8.62761 3.91391 8.2486 3.69962 7.8368L3.61173 7.65809ZM13.2973 6.12293C11.8469 3.61124 8.63532 2.75087 6.12345 4.20106C5.65036 4.47421 5.23572 4.80961 4.88419 5.19129C4.82755 5.35152 4.78905 5.51326 4.76896 5.67664L4.75236 5.87977C4.73217 6.67421 5.00864 7.3262 5.59318 7.87586C5.91379 8.17797 6.29977 8.37431 6.74747 8.47254C7.08946 8.54664 7.43128 8.54428 7.77775 8.46766C7.91267 8.43758 8.04276 8.39289 8.18497 8.33289L8.66837 8.11024C9.36721 7.78041 10.1132 7.67963 10.8783 7.82508C11.6479 7.9706 12.3352 8.32994 12.8871 8.91883L12.8881 8.91981C13.2917 9.3522 13.5817 9.82656 13.7553 10.3339C14.1843 8.97732 14.0647 7.45221 13.2973 6.12293Z" fill="#252629"/>
</svg>
