<svg width="20" height="20" viewBox="0 0 20 20" fill="none" xmlns="http://www.w3.org/2000/svg">
<path d="M14 3C14 2.44772 14.4477 2 15 2C15.5523 2 16 2.44772 16 3V10V17C16 17.5523 15.5523 18 15 18C14.4477 18 14 17.5523 14 17V3ZM10 3C10 2.44772 10.4477 2 11 2C11.5523 2 12 2.44772 12 3V17C12 17.5523 11.5523 18 11 18C10.4477 18 10 17.5523 10 17V3ZM6 3C6 2.44772 6.44772 2 7 2C7.55228 2 8 2.44772 8 3V17C8 17.5523 7.55228 18 7 18C6.44772 18 6 17.5523 6 17V3ZM2 3C2 2.44772 2.44772 2 3 2C3.55228 2 4 2.44772 4 3V17C4 17.5523 3.55228 18 3 18C2.44772 18 2 17.5523 2 17V3Z" fill="#252629"/>
<path d="M16 8L17 8C17.5523 8 18 8.44772 18 9V11C18 11.5523 17.5523 12 17 12H16V10V8Z" fill="#252629"/>
</svg>
