<svg width="20" height="20" viewBox="0 0 20 20" fill="none" xmlns="http://www.w3.org/2000/svg">
<path fill-rule="evenodd" clip-rule="evenodd" d="M5.052 8.02087C6.29909 8.02087 7.36658 7.25193 7.80621 6.16231C7.89157 5.95074 8.08669 5.79431 8.31483 5.79431H12.4739C13.4303 5.79431 14.2056 6.56965 14.2056 7.52608C14.2056 8.48251 13.4303 9.25785 12.4739 9.25785H7.52596C5.74973 9.25785 4.30981 10.6978 4.30981 12.474C4.30981 14.2502 5.74973 15.6901 7.52596 15.6901H11.685C11.9132 15.6901 12.1083 15.8466 12.1936 16.0581C12.6333 17.1478 13.7008 17.9167 14.9478 17.9167C16.5874 17.9167 17.9166 16.5876 17.9166 14.948C17.9166 13.3084 16.5874 11.9792 14.9478 11.9792C13.7008 11.9792 12.6333 12.7481 12.1936 13.8378C12.1083 14.0493 11.9131 14.2058 11.685 14.2058H7.52596C6.56953 14.2058 5.79419 13.4304 5.79419 12.474C5.79419 11.5176 6.56953 10.7422 7.52596 10.7422H12.4739C14.2501 10.7422 15.69 9.30231 15.69 7.52608C15.69 5.74985 14.2501 4.30994 12.4739 4.30994H8.31483C8.08669 4.30994 7.89157 4.15351 7.80621 3.94194C7.36658 2.85232 6.29909 2.08337 5.052 2.08337C3.41241 2.08337 2.08325 3.41253 2.08325 5.05212C2.08325 6.69172 3.41241 8.02087 5.052 8.02087ZM5.052 6.5365C5.8718 6.5365 6.53638 5.87192 6.53638 5.05212C6.53638 4.23233 5.8718 3.56775 5.052 3.56775C4.2322 3.56775 3.56763 4.23233 3.56763 5.05212C3.56763 5.87192 4.2322 6.5365 5.052 6.5365ZM16.4322 14.948C16.4322 15.7678 15.7676 16.4323 14.9478 16.4323C14.128 16.4323 13.4635 15.7678 13.4635 14.948C13.4635 14.1282 14.128 13.4636 14.9478 13.4636C15.7676 13.4636 16.4322 14.1282 16.4322 14.948Z" fill="#19191A"/>
</svg>
