<svg width="16" height="16" viewBox="0 0 16 16" fill="none" xmlns="http://www.w3.org/2000/svg">
    <path fill-rule="evenodd" clip-rule="evenodd" d="M1.68917 0C0.92902 0 0.446813 0.814579 0.81245 1.48101L4.25714 7.7595C4.33933 7.9093 4.33933 8.0907 4.25714 8.24051L0.81245 14.519C0.446813 15.1854 0.92902 16 1.68917 16H14.9999C15.5522 16 15.9999 15.5523 15.9999 15V13.75C15.9999 13.3358 15.6641 13 15.2499 13C14.8357 13 14.4999 13.3358 14.4999 13.75V14.5H7.71012C7.34304 14.5 7.10109 14.1176 7.25828 13.7859L9.89844 8.2141C9.96266 8.07859 9.96266 7.92141 9.89844 7.7859L7.25828 2.2141C7.10109 1.88237 7.34304 1.5 7.71012 1.5H14.4999V2.25C14.4999 2.66421 14.8357 3 15.2499 3C15.6641 3 15.9999 2.66421 15.9999 2.25V1C15.9999 0.447715 15.5522 0 14.9999 0H1.68917ZM5.33516 1.77965C5.25112 1.60847 5.07703 1.5 4.88634 1.5H3.71012C3.34304 1.5 3.10109 1.88237 3.25828 2.2141L5.89844 7.7859C5.96266 7.92141 5.96266 8.07859 5.89844 8.2141L3.25828 13.7859C3.10109 14.1176 3.34304 14.5 3.71012 14.5H4.88634C5.07703 14.5 5.25112 14.3915 5.33516 14.2204L8.28091 8.22035C8.34914 8.08137 8.34914 7.91863 8.28091 7.77965L5.33516 1.77965Z" fill="#19191A"/>
</svg>
