<svg width="12" height="18" viewBox="0 0 12 18" fill="none" xmlns="http://www.w3.org/2000/svg">
<path fill-rule="evenodd" clip-rule="evenodd" d="M0.166748 16.5758C0.166748 16.1574 0.493175 15.8183 0.895843 15.8183H11.1032C11.5058 15.8183 11.8323 16.1574 11.8323 16.5758C11.8323 16.9942 11.5058 17.3334 11.1032 17.3334H0.895843C0.493175 17.3334 0.166748 16.9942 0.166748 16.5758Z" fill="#19191A"/>
<path d="M6.72793 1.39988C6.72793 0.994985 6.4018 0.666748 5.99949 0.666748C5.59719 0.666748 5.27105 0.994985 5.27105 1.39988L5.27105 11.2201L1.41139 7.20969C1.12666 6.91383 0.665024 6.91383 0.380295 7.20969C0.0955657 7.50554 0.0955657 7.98521 0.380295 8.28106L5.47941 13.5794C5.76414 13.8752 6.22578 13.8752 6.51051 13.5794L11.6199 8.27043C11.9046 7.97458 11.9046 7.49491 11.6199 7.19906C11.3351 6.9032 10.8735 6.9032 10.5888 7.19905L6.72793 11.2107L6.72793 1.39988Z" fill="#19191A"/>
</svg>
