<svg width="32" height="32" viewBox="0 0 32 32" fill="none" xmlns="http://www.w3.org/2000/svg">
<path d="M8.14953 6.48307C8.75749 5.91503 8.75749 4.99406 8.14953 4.42603C7.54157 3.85799 6.55588 3.85799 5.94792 4.42603L2.05598 8.0624C1.44802 8.63043 1.44802 9.5514 2.05598 10.1194L5.94792 13.7558C6.55588 14.3238 7.54157 14.3238 8.14953 13.7558C8.75749 13.1878 8.75749 12.2668 8.14953 11.6988L6.91507 10.5454H9.265L18.6387 26.4913C19.1857 27.4217 20.2316 27.9999 21.3678 27.9999H27.287C28.1468 27.9999 28.8438 27.3487 28.8438 26.5454C28.8438 25.7421 28.1468 25.0908 27.287 25.0908H21.3678L11.994 9.1449C11.4471 8.21447 10.4011 7.63627 9.265 7.63627H6.91528L8.14953 6.48307Z" fill="black"/>
<path d="M14.4694 22.0269C13.733 21.6123 12.7763 21.8339 12.3324 22.5219L10.6753 25.0909H4.71432C3.85453 25.0909 3.15754 25.7421 3.15754 26.5455C3.15754 27.3488 3.85453 28 4.71432 28H10.6753C11.7668 28 12.7786 27.466 13.342 26.5926L14.9991 24.0235C15.4429 23.3355 15.2058 22.4416 14.4694 22.0269Z" fill="black"/>
<path d="M23.8505 13.7558C23.2425 13.1878 23.2425 12.2668 23.8505 11.6988L25.0849 10.5454H22.7797L20.1188 15.5556C19.7367 16.2752 18.8025 16.5691 18.0323 16.212C17.2622 15.8549 16.9476 14.9821 17.3298 14.2625L19.9906 9.25232C20.5164 8.26242 21.597 7.63631 22.7797 7.63631H25.0848L23.8505 6.48307C23.2425 5.91503 23.2425 4.99406 23.8505 4.42603C24.4584 3.85799 25.4441 3.85799 26.0521 4.42603L29.944 8.0624C30.552 8.63043 30.552 9.5514 29.944 10.1194L26.0521 13.7558C25.4441 14.3238 24.4584 14.3238 23.8505 13.7558Z" fill="black"/>
</svg>