<svg width="20" height="20" viewBox="0 0 20 20" fill="none" xmlns="http://www.w3.org/2000/svg">
<path fill-rule="evenodd" clip-rule="evenodd" d="M13.8122 4.10438C14.5326 3.46049 15.6357 3.52547 16.2761 4.24891L18.8962 7.2118C19.5365 7.93574 19.4721 9.04518 18.7517 9.68934L18.1198 10.2538C17.8944 10.4552 17.6315 10.587 17.3571 10.6513L15.7888 12.0536C15.4441 12.3615 15.0118 12.505 14.5847 12.494L11.6442 15.2577C10.1927 16.6212 7.99209 16.5553 6.63251 15.1083L2.68915 10.912L2.68232 10.9052C2.32863 10.8404 1.99123 10.6695 1.72529 10.3895L1.14228 9.77528C0.476796 9.07438 0.508159 7.96924 1.21259 7.3075L4.0954 4.59949C4.79986 3.93818 5.91053 3.97003 6.57587 4.67078L7.15888 5.28504C7.29608 5.42961 7.40205 5.59208 7.48017 5.76356C8.15084 5.56988 8.8687 5.63133 9.50165 5.94324C10.4492 5.25918 11.631 5.08001 12.6989 5.3827C12.7945 5.11668 12.9563 4.87002 13.1813 4.66883L13.8122 4.10438ZM8.05829 7.20594C7.77042 7.24545 7.49027 7.37303 7.25751 7.59168L7.09345 7.745C7.09134 7.74701 7.08972 7.74984 7.08759 7.75184L4.26826 10.3993L7.6706 14.0204C8.48634 14.8887 9.80746 14.9274 10.6784 14.1093L13.1872 11.7518L11.4811 9.82313C11.3163 9.63745 11.0327 9.62076 10.8474 9.78602C10.0444 10.5038 8.81497 10.4324 8.10126 9.62586L7.76142 9.24207C7.30918 8.73006 7.32406 7.9629 7.77509 7.46864L7.87177 7.37293L8.05829 7.20594ZM13.2829 7.42567C12.4512 6.56781 11.0884 6.50977 10.1882 7.31434L8.99872 8.37781L9.21943 8.62586C9.3843 8.81204 9.66875 8.82874 9.85419 8.66297C10.6572 7.94552 11.8857 8.01759 12.5993 8.8241L14.4431 10.9091C14.5345 11.0125 14.6927 11.0216 14.7956 10.9296L15.6823 10.1366C15.6738 10.1273 15.6644 10.1188 15.656 10.1093L13.2829 7.42567ZM5.48212 5.69813C5.38709 5.59804 5.22827 5.59296 5.12763 5.68739L2.24579 8.39539C2.14522 8.48987 2.14015 8.6478 2.23505 8.74793L2.81806 9.36219C2.91313 9.46232 3.07192 9.46649 3.17255 9.37196L6.05536 6.66395C6.15568 6.56938 6.1601 6.41143 6.06513 6.31141L5.48212 5.69813ZM15.1579 5.24891C15.0664 5.14582 14.9092 5.13659 14.8063 5.2284L14.1745 5.79285C14.072 5.88482 14.0629 6.04304 14.154 6.14637L14.3347 6.35047C14.3824 6.39891 14.4287 6.4493 14.4743 6.50086L16.8122 9.14344C16.905 9.21295 17.0367 9.21018 17.1267 9.12977L17.7575 8.56531C17.8604 8.47328 17.8695 8.3152 17.778 8.2118L15.1579 5.24891Z" fill="#252629"/>
</svg>
