<svg width="20" height="20" viewBox="0 0 20 20" fill="none" xmlns="http://www.w3.org/2000/svg">
    <path fill-rule="evenodd" clip-rule="evenodd" d="M3.03291 1.26076C3.28818 0.860809 3.83621 0.735286 4.25791 0.964619C4.68486 1.19681 4.83783 1.71491 4.57983 2.12239C4.59383 2.09928 4.53409 2.19965 4.50874 2.24585C4.458 2.33834 4.3845 2.48031 4.30154 2.66551C4.1352 3.03683 3.93341 3.57616 3.79889 4.23458C3.53075 5.54705 3.53105 7.31816 4.60027 9.20116C5.91261 11.5123 5.90012 13.8967 5.58374 15.6604C5.42487 16.5461 5.18687 17.291 4.98779 17.8167C4.88805 18.08 4.79748 18.2899 4.73047 18.4366C4.7134 18.474 4.69785 18.5072 4.68405 18.5363L4.68763 18.5379L4.61518 18.676L4.61421 18.6779L4.6134 18.6795L4.61149 18.6831C4.39009 19.1002 3.85549 19.2638 3.41757 19.0681C2.97324 18.8696 2.77377 18.3652 2.99706 17.9378L2.99763 17.9368L2.99972 17.9326L3.01411 17.9038C3.02766 17.8762 3.04867 17.8326 3.07545 17.774C3.12904 17.6567 3.20547 17.48 3.29127 17.2535C3.46329 16.7993 3.67059 16.1506 3.8086 15.3813C4.08597 13.835 4.07351 11.8636 3.01082 9.99208C1.70501 7.6924 1.70535 5.51162 2.03095 3.91793C2.1933 3.12324 2.43682 2.47088 2.64158 2.01379C2.74417 1.78478 2.83766 1.60336 2.90753 1.47602C2.92314 1.44756 2.93758 1.42178 2.95071 1.39874L3.03291 1.26076ZM15.4175 1.26212L15.4183 1.26086C15.6736 0.860916 16.2217 0.735286 16.6434 0.964619C17.0704 1.1968 17.2233 1.71489 16.9653 2.12236L16.9645 2.12376L16.9635 2.12532L16.9513 2.14549C16.9392 2.16593 16.9196 2.19964 16.8942 2.24585C16.8435 2.33834 16.77 2.48031 16.687 2.66551C16.5207 3.03683 16.3189 3.57616 16.1844 4.23458C15.9162 5.54705 15.9166 7.31816 16.9858 9.20116C18.2981 11.5123 18.2856 13.8967 17.9692 15.6604C17.8104 16.5461 17.5724 17.291 17.3733 17.8167C17.2735 18.08 17.183 18.2899 17.116 18.4366C17.0824 18.51 17.0547 18.5677 17.0347 18.6085C17.0246 18.629 17.0165 18.6452 17.0105 18.657L17.0033 18.671L17.0007 18.6761L16.9997 18.6779L16.999 18.6792C16.7789 19.099 16.2423 19.2644 15.8031 19.0681C15.3587 18.8696 15.1593 18.3652 15.3826 17.9378L15.3831 17.9368L15.3846 17.9338L15.3852 17.9326C15.3988 17.9051 15.4343 17.8322 15.4609 17.774C15.5145 17.6567 15.591 17.48 15.6768 17.2535C15.8488 16.7993 16.0561 16.1506 16.1941 15.3813C16.4715 13.835 16.459 11.8636 15.3963 9.99208C14.0905 7.6924 14.0908 5.51162 14.4164 3.91793C14.5788 3.12324 14.8223 2.47088 15.0271 2.01379C15.1297 1.78478 15.2232 1.60336 15.293 1.47602C15.328 1.4123 15.3571 1.36198 15.3786 1.32587C15.3893 1.30781 15.3984 1.29283 15.4051 1.28194L15.4135 1.2686L15.4164 1.26397L15.4175 1.26212ZM10.4534 0.964619C10.0317 0.735286 9.48367 0.860809 9.22841 1.26076L9.22738 1.26237L9.22637 1.26397L9.1462 1.39874C9.13308 1.42178 9.11863 1.44756 9.10302 1.47602C9.03316 1.60336 8.93966 1.78478 8.83708 2.01379C8.63232 2.47088 8.3888 3.12324 8.22644 3.91793C7.90084 5.51162 7.90051 7.6924 9.20632 9.99208C10.269 11.8636 10.2815 13.835 10.0041 15.3813C9.86609 16.1506 9.65878 16.7993 9.48676 17.2535C9.40096 17.48 9.32453 17.6567 9.27094 17.774C9.24417 17.8326 9.20877 17.9051 9.19522 17.9326C8.97193 18.36 9.16874 18.8696 9.61306 19.0681C10.051 19.2638 10.5856 19.1002 10.807 18.6831C10.8087 18.6801 10.8097 18.6779 10.8097 18.6779L10.8107 18.6761L10.8129 18.6717L10.8831 18.5379L10.8795 18.5363C10.8933 18.5072 10.9089 18.474 10.926 18.4366C10.993 18.2899 11.0835 18.08 11.1833 17.8167C11.3824 17.291 11.6204 16.5461 11.7792 15.6604C12.0956 13.8967 12.1081 11.5123 10.7958 9.20116C9.72655 7.31816 9.72624 5.54705 9.99439 4.23458C10.1289 3.57616 10.3307 3.03683 10.497 2.66551C10.58 2.48031 10.6535 2.33834 10.7042 2.24585C10.7296 2.19965 10.7481 2.16749 10.7753 2.12237L10.7735 2.1253L10.7745 2.12376L10.7753 2.12237C11.0333 1.7149 10.8804 1.1968 10.4534 0.964619Z" fill="#19191A"/>
</svg>
