<svg width="20" height="20" viewBox="0 0 20 20" fill="none" xmlns="http://www.w3.org/2000/svg">
    <path fill-rule="evenodd" clip-rule="evenodd" d="M13.4312 9.1509C14.0848 9.52826 14.0848 10.4716 13.4312 10.849L9.01945 13.3961C8.36585 13.7735 7.54886 13.3018 7.54886 12.5471V7.45282C7.54886 6.69811 8.36585 6.22642 9.01944 6.60377L13.4312 9.1509ZM9.01944 8.30186L11.9606 9.99995L9.01944 11.698V8.30186Z" fill="#19191A"/>
    <path fill-rule="evenodd" clip-rule="evenodd" d="M9.99984 1.66666C7.69885 1.66666 5.61451 2.6002 4.10728 4.10743C2.60005 5.61466 1.6665 7.69901 1.6665 9.99999C1.6665 12.301 2.60005 14.3853 4.10728 15.8925C5.61451 17.3998 7.69885 18.3333 9.99984 18.3333C12.3008 18.3333 14.3852 17.3998 15.8924 15.8925C17.3996 14.3853 18.3332 12.301 18.3332 9.99999C18.3332 7.69901 17.3996 5.61466 15.8924 4.10743C14.3852 2.6002 12.3008 1.66666 9.99984 1.66666ZM5.14714 5.1473C6.38986 3.90458 8.10454 3.13724 9.99984 3.13724C11.8951 3.13724 13.6098 3.90458 14.8525 5.1473C16.0952 6.39001 16.8626 8.10469 16.8626 9.99999C16.8626 11.8953 16.0952 13.61 14.8525 14.8527C13.6098 16.0954 11.8951 16.8627 9.99984 16.8627C8.10454 16.8627 6.38986 16.0954 5.14714 14.8527C3.90443 13.61 3.13709 11.8953 3.13709 9.99999C3.13709 8.10469 3.90443 6.39001 5.14714 5.1473Z" fill="#19191A"/>
</svg>
