<svg width="32" height="32" viewBox="0 0 32 32" fill="none" xmlns="http://www.w3.org/2000/svg">
<path fill-rule="evenodd" clip-rule="evenodd" d="M14.9929 1.60297C18.3451 1.62085 21.5955 3.46496 23.2921 6.37015C23.3401 6.4525 23.4057 6.57051 23.4057 6.57051C23.6385 6.61756 23.7153 6.63772 23.8294 6.66767L23.8672 6.67755C27.0343 7.50358 29.6224 10.1983 30.2502 13.4271C30.8102 16.3078 29.7741 19.4099 27.584 21.4282C27.6037 22.0178 27.5484 22.6176 27.4091 23.2161C26.6951 26.2849 23.7451 28.7672 20.3506 28.7917C16.5793 28.8052 12.8079 28.8081 9.03658 28.7917C6.44463 28.769 3.93352 27.0994 3.09659 24.447C2.85452 23.6799 2.77973 22.8686 2.85948 22.0684C0.729277 20.3808 -0.549244 17.5892 0.230532 14.5278C0.871405 12.0116 2.95214 9.89515 5.51682 9.20607L5.53612 9.11477C6.22344 5.9623 8.61987 3.21576 11.7898 2.12734C12.8178 1.77428 13.9023 1.6001 14.9929 1.60297ZM5.97967 23.5657C6.01405 23.6744 6.05501 23.783 6.10286 23.8911C6.60028 25.0147 7.76637 25.8012 9.05664 25.8124C12.8158 25.8289 16.575 25.8258 20.3341 25.8123C21.933 25.8009 23.4705 24.8115 24.1755 23.3532C23.3677 23.5955 22.5247 23.7257 21.6796 23.7351C18.5215 23.7421 15.3633 23.7398 12.2052 23.7375C10.6342 23.7363 9.06322 23.7352 7.49226 23.7352C6.98164 23.7338 6.47479 23.6755 5.97967 23.5657ZM24.2789 20.0778C23.4721 20.5039 22.5721 20.7456 21.6593 20.7558C16.9282 20.7663 12.1969 20.7684 7.46578 20.7558C7.15775 20.7524 6.85601 20.7155 6.56397 20.649C7.08187 20 7.83073 19.5402 8.65493 19.4326C9.36877 19.3428 9.9328 18.8415 10.0633 18.1694L10.0761 18.0616C10.0761 18.0616 10.0851 17.9451 10.1006 17.8254C10.4101 15.4268 12.6161 13.5791 15.0031 13.5711C15.0416 13.5711 15.0802 13.5715 15.1187 13.5724C16.951 13.6202 18.676 14.7425 19.4599 16.3485C19.714 16.8835 20.1065 17.2644 20.6452 17.3834L20.7574 17.3996C22.4525 17.5804 23.7283 18.6973 24.2789 20.0778ZM26.556 17.9698C25.7189 16.5636 24.4272 15.4383 22.8858 14.8618C22.4305 14.6914 21.9188 14.5658 21.9188 14.5658C20.5303 12.1734 17.8455 10.628 15.0791 10.5921L15.0384 10.5918L14.9979 10.5918C14.9014 10.5921 14.805 10.5933 14.7086 10.5969C11.4155 10.715 8.51998 12.93 7.4829 15.8679C7.34698 16.2527 7.23489 16.6989 7.23489 16.6989C6.65491 16.8779 6.10242 17.135 5.59972 17.4674C4.96114 17.8895 4.4242 18.4211 3.99813 19.0221C3.39364 18.2689 3.02672 17.3379 3.02137 16.37C3.01016 14.325 4.56169 12.4576 6.52742 12.0275C6.63567 12.0038 6.74544 11.9893 6.85506 11.9748C7.0253 11.9522 7.19517 11.9297 7.35843 11.8731C7.79063 11.7233 8.09921 11.3485 8.29462 10.9246L8.36242 10.5889C8.41124 9.99901 8.53735 9.41346 8.74472 8.85739C9.69806 6.30131 12.2596 4.60989 14.9073 4.58233C14.9522 4.58223 14.9973 4.58233 15.0422 4.58287C17.408 4.62075 19.5432 5.91719 20.6776 7.85856C20.7512 7.98453 20.8123 8.11604 20.8731 8.24706C20.9713 8.45845 21.0688 8.66855 21.2175 8.85196C21.3994 9.07633 21.5025 9.12947 21.7001 9.23134C21.7444 9.25415 21.7934 9.27943 21.8491 9.30961L22.2329 9.40197C22.8417 9.46709 23.4388 9.62436 23.9947 9.87345C26.1256 10.8282 27.4866 13.0746 27.3832 15.3194C27.3382 16.2989 27.0368 17.1974 26.556 17.9698Z" fill="black"/>
</svg>
