<svg width="20" height="20" viewBox="0 0 20 20" fill="none" xmlns="http://www.w3.org/2000/svg">
<path d="M8.1938 3.52686C9.53855 3.0577 10.9967 3.01104 12.3692 3.39325C13.493 3.70622 14.5147 4.29426 15.3427 5.098H14.453C14.0431 5.098 13.7108 5.4272 13.7108 5.83329C13.7108 6.23938 14.0431 6.56859 14.453 6.56859C14.7119 6.56859 14.9707 6.56852 15.2295 6.56846C15.7502 6.56834 16.2709 6.56822 16.7916 6.56859C16.8484 6.56863 16.9288 6.56869 17.0015 6.56281C17.0886 6.55575 17.2277 6.53671 17.3763 6.46173C17.5625 6.36774 17.7138 6.21776 17.8087 6.03328C17.8844 5.88614 17.9036 5.74833 17.9107 5.66199C17.9167 5.58996 17.9166 5.51035 17.9166 5.4541C17.9162 4.93892 17.9163 4.42373 17.9164 3.90855C17.9165 3.65244 17.9166 3.39632 17.9166 3.14021C17.9166 2.73411 17.5843 2.40491 17.1744 2.40491C16.7645 2.40491 16.4322 2.73411 16.4322 3.14021V4.09721C15.4179 3.0958 14.1586 2.36397 12.7708 1.97753C11.1042 1.51341 9.33366 1.57007 7.70075 2.13977C6.06784 2.70947 4.65213 3.76446 3.64681 5.16077C2.64149 6.55708 2.09554 8.2267 2.08346 9.94178C2.07137 11.6569 2.59374 13.3339 3.57928 14.744C4.56482 16.154 5.96552 17.2285 7.59024 17.8207C9.21497 18.413 10.9846 18.4941 12.6576 18.0531C13.9804 17.7044 15.1919 17.0426 16.1912 16.1314C16.4928 15.8564 16.5122 15.3912 16.2346 15.0924C15.957 14.7936 15.4875 14.7744 15.1859 15.0494C14.363 15.7998 13.3653 16.3448 12.2759 16.632C10.8981 16.9951 9.4408 16.9283 8.1028 16.4406C6.76479 15.9529 5.61127 15.068 4.79965 13.9068C3.98803 12.7455 3.55784 11.3645 3.56779 9.95205C3.57775 8.53963 4.02736 7.16465 4.85526 6.01474C5.68317 4.86484 6.84905 3.99603 8.1938 3.52686Z" fill="#19191A"/>
<path d="M10.9895 6.81368C10.9895 6.40759 10.6572 6.07839 10.2473 6.07839C9.83741 6.07839 9.50512 6.40759 9.50512 6.81368V10.4902C9.50512 10.7944 9.69425 11.0672 9.98088 11.1764L13.197 12.4019C13.5796 12.5477 14.009 12.3586 14.1562 11.9796C14.3033 11.6006 14.1125 11.1751 13.7299 11.0294L10.9895 9.98516V6.81368Z" fill="#19191A"/>
</svg>
