<?xml version="1.0" encoding="UTF-8" standalone="no"?>
<!-- Created with Inkscape (http://www.inkscape.org/) -->

<svg
   width="12"
   height="16"
   viewBox="0 0 3.175 4.2333332"
   version="1.1"
   id="svg1"
   inkscape:version="1.3.2 (091e20e, 2023-11-25, custom)"
   sodipodi:docname="delete-cross.svg"
   xmlns:inkscape="http://www.inkscape.org/namespaces/inkscape"
   xmlns:sodipodi="http://sodipodi.sourceforge.net/DTD/sodipodi-0.dtd"
   xmlns="http://www.w3.org/2000/svg"
   xmlns:svg="http://www.w3.org/2000/svg">
  <sodipodi:namedview
     id="namedview1"
     pagecolor="#ffffff"
     bordercolor="#000000"
     borderopacity="0.25"
     inkscape:showpageshadow="false"
     inkscape:pageopacity="0.0"
     inkscape:pagecheckerboard="0"
     inkscape:deskcolor="#d1d1d1"
     inkscape:document-units="px"
     showborder="true"
     borderlayer="false"
     inkscape:zoom="64.825589"
     inkscape:cx="11.122151"
     inkscape:cy="13.582599"
     inkscape:window-width="1920"
     inkscape:window-height="991"
     inkscape:window-x="2551"
     inkscape:window-y="-9"
     inkscape:window-maximized="1"
     inkscape:current-layer="layer1"
     showgrid="false" />
  <defs
     id="defs1" />
  <g
     inkscape:label="Слой 1"
     inkscape:groupmode="layer"
     id="layer1">
    <path
       fill-rule="evenodd"
       clip-rule="evenodd"
       d="m 0.43298866,1.3357848 c 0.0790628,-0.078664 0.20724914,-0.078664 0.28630986,0 L 1.5884067,2.2005117 2.4575123,1.3357848 c 0.079064,-0.078664 0.2072496,-0.078664 0.2863101,0 0.079064,0.078664 0.079064,0.2062041 0,0.284869 L 1.8747171,2.485379 2.7438224,3.3501044 c 0.079064,0.078665 0.079064,0.2062051 0,0.2848672 -0.079061,0.078665 -0.2072467,0.078665 -0.2863101,0 L 1.5884067,2.7702464 0.71929852,3.6349716 c -0.0790608,0.078665 -0.20724727,0.078665 -0.28630986,0 -0.0790628,-0.078662 -0.0790628,-0.2062024 0,-0.2848672 L 1.3020963,2.485379 0.43298866,1.6206538 c -0.0790628,-0.078665 -0.0790628,-0.206205 0,-0.284869 z"
       fill="#818c99"
       id="path1"
       style="stroke-width:0.26436" />
  </g>
</svg>
