<svg width="20" height="20" viewBox="0 0 20 20" fill="none" xmlns="http://www.w3.org/2000/svg">
<path d="M8.5 14C8.5 14.5523 8.05228 15 7.5 15C6.94772 15 6.5 14.5523 6.5 14C6.5 13.4477 6.94772 13 7.5 13C8.05228 13 8.5 13.4477 8.5 14Z" fill="#19191A"/>
<path d="M13.5 14C13.5 14.5523 13.0523 15 12.5 15C11.9477 15 11.5 14.5523 11.5 14C11.5 13.4477 11.9477 13 12.5 13C13.0523 13 13.5 13.4477 13.5 14Z" fill="#19191A"/>
<path fill-rule="evenodd" clip-rule="evenodd" d="M5 1.25C2.92893 1.25 1.25 2.92893 1.25 5V6H2.75V5C2.75 3.75736 3.75736 2.75 5 2.75H6V1.25H5ZM8 2C8 2.41421 8.33579 2.75 8.75 2.75H11.25C11.6642 2.75 12 2.41421 12 2C12 1.58579 11.6642 1.25 11.25 1.25H8.75C8.33579 1.25 8 1.58579 8 2ZM14 2.75H15C16.2426 2.75 17.25 3.75736 17.25 5V6H18.75V5C18.75 2.92893 17.0711 1.25 15 1.25H14V2.75ZM2.75 8.75C2.75 8.33579 2.41421 8 2 8C1.58579 8 1.25 8.33579 1.25 8.75V11.25C1.25 11.6642 1.58579 12 2 12C2.41421 12 2.75 11.6642 2.75 11.25V8.75ZM18 8C17.5858 8 17.25 8.33579 17.25 8.75V11.25C17.25 11.6642 17.5858 12 18 12C18.4142 12 18.75 11.6642 18.75 11.25V8.75C18.75 8.33579 18.4142 8 18 8ZM2.75 15V14H1.25V15C1.25 17.0711 2.92893 18.75 5 18.75H6V17.25H5C3.75736 17.25 2.75 16.2426 2.75 15ZM17.25 14V15C17.25 16.2426 16.2426 17.25 15 17.25H14V18.75H15C17.0711 18.75 18.75 17.0711 18.75 15V14H17.25ZM8.75 17.25C8.33579 17.25 8 17.5858 8 18C8 18.4142 8.33579 18.75 8.75 18.75H11.25C11.6642 18.75 12 18.4142 12 18C12 17.5858 11.6642 17.25 11.25 17.25H8.75ZM5.4707 5.75C5.05649 5.75 4.7207 6.08579 4.7207 6.5C4.7207 6.91421 5.05649 7.25 5.4707 7.25H6.12572C6.23763 7.25 6.33591 7.32437 6.36632 7.43207L7.34324 10.892C7.57494 11.7126 8.36436 12.2468 9.21229 12.1567L12.3398 11.8244C13.108 11.7428 13.7318 11.1671 13.8747 10.4079L14.152 8.93499C14.2679 8.31937 13.7957 7.75 13.1693 7.75H8.01473L7.80988 7.02447C7.59702 6.27059 6.90908 5.75 6.12572 5.75H5.4707Z" fill="#19191A"/>
</svg>
