<svg width="20" height="20" viewBox="0 0 20 20" fill="none" xmlns="http://www.w3.org/2000/svg">
    <path fill-rule="evenodd" clip-rule="evenodd" d="M6.25 4.41667C6.25 2.37185 7.94899 0.75 10 0.75C12.051 0.75 13.75 2.37185 13.75 4.41667V9.08333C13.75 11.1282 12.051 12.75 10 12.75C7.94899 12.75 6.25 11.1282 6.25 9.08333V4.41667ZM10 2.25C8.7373 2.25 7.75 3.23983 7.75 4.41667V9.08333C7.75 10.2602 8.7373 11.25 10 11.25C11.2627 11.25 12.25 10.2602 12.25 9.08333V4.41667C12.25 3.23983 11.2627 2.25 10 2.25ZM4.5 9.25C4.91421 9.25 5.25 9.58579 5.25 10C5.25 11.9616 6.00831 12.9607 6.89623 13.5132C7.8442 14.1031 9.05061 14.25 10 14.25C10.9494 14.25 12.1558 14.1031 13.1038 13.5132C13.9917 12.9607 14.75 11.9616 14.75 10C14.75 9.58579 15.0858 9.25 15.5 9.25C15.9142 9.25 16.25 9.58579 16.25 10C16.25 12.4384 15.2583 13.9393 13.8962 14.7868C12.8781 15.4203 11.7123 15.652 10.75 15.7229V17.75H12.5C12.9142 17.75 13.25 18.0858 13.25 18.5C13.25 18.9142 12.9142 19.25 12.5 19.25H7.5C7.08579 19.25 6.75 18.9142 6.75 18.5C6.75 18.0858 7.08579 17.75 7.5 17.75H9.25V15.7229C8.28768 15.652 7.12188 15.4203 6.10377 14.7868C4.74169 13.9393 3.75 12.4384 3.75 10C3.75 9.58579 4.08579 9.25 4.5 9.25Z" fill="#19191A"/>
</svg>
