<svg width="20" height="20" viewBox="0 0 20 20" fill="none" xmlns="http://www.w3.org/2000/svg">
<path fill-rule="evenodd" clip-rule="evenodd" d="M9.99999 5.17334L11.7022 7.6571L14.5904 8.50849L12.7543 10.8949L12.837 13.9049L9.99999 12.896L7.16294 13.9049L7.24572 10.8949L5.40955 8.50849L8.29776 7.6571L9.99999 5.17334ZM9.99999 7.8267L9.23352 8.94507L7.93304 9.32843L8.75982 10.403L8.72255 11.7583L9.99999 11.304L11.2774 11.7583L11.2402 10.403L12.0669 9.32843L10.7665 8.94507L9.99999 7.8267Z" fill="black"/>
<path fill-rule="evenodd" clip-rule="evenodd" d="M10 0L13.0615 2.60896L17.0711 2.92893L17.391 6.93853L20 10L17.391 13.0615L17.0711 17.0711L13.0615 17.391L10 20L6.93853 17.391L2.92893 17.0711L2.60896 13.0615L0 10L2.60896 6.93853L2.92893 2.92893L6.93853 2.60896L10 0ZM12.4581 4.06558L15.6775 4.32249L15.9344 7.54188L18.0292 10L15.9344 12.4581L15.6775 15.6775L12.4581 15.9344L10 18.0292L7.54188 15.9344L4.32249 15.6775L4.06558 12.4581L1.97079 10L4.06558 7.54188L4.32249 4.32249L7.54188 4.06558L10 1.97079L12.4581 4.06558Z" fill="black"/>
</svg>
