<svg class="ButtonIcon__icon--N95hN" width="1em" height="1em" fill="currentColor" xmlns="http://www.w3.org/2000/svg" viewBox="0 0 20 20"><path fill-rule="evenodd" d="M10 9.265a.735.735 0 0 1 .735.735v3.921a.735.735 0 1 1-1.47 0V10c0-.406.329-.735.735-.735Z" clip-rule="evenodd"></path><path d="M10.98 7.059a.98.98 0 1 1-1.96 0 .98.98 0 0 1 1.96 0Z"></path><path fill-rule="evenodd" d="M4.107 4.107C5.615 2.6 7.7 1.667 10 1.667s4.385.933 5.893 2.44A8.31 8.31 0 0 1 18.333 10a8.31 8.31 0 0 1-2.44 5.893A8.31 8.31 0 0 1 10 18.332a8.31 8.31 0 0 1-5.892-2.44A8.31 8.31 0 0 1 1.667 10a8.31 8.31 0 0 1 2.44-5.893ZM10 3.137a6.84 6.84 0 0 0-4.853 2.01A6.84 6.84 0 0 0 3.137 10a6.84 6.84 0 0 0 2.01 4.853A6.839 6.839 0 0 0 10 16.863c1.895 0 3.61-.768 4.853-2.01A6.84 6.84 0 0 0 16.863 10c0-1.895-.768-3.61-2.01-4.853A6.839 6.839 0 0 0 10 3.137Z" clip-rule="evenodd"></path></svg>