<svg width="20" height="20" viewBox="0 0 20 20" fill="none" xmlns="http://www.w3.org/2000/svg">
<path fill-rule="evenodd" clip-rule="evenodd" d="M17.5 10C17.5 14.1421 14.1421 17.5 10 17.5C5.85786 17.5 2.5 14.1421 2.5 10C2.5 5.85786 5.85786 2.5 10 2.5C14.1421 2.5 17.5 5.85786 17.5 10ZM19 10C19 14.9706 14.9706 19 10 19C5.02944 19 1 14.9706 1 10C1 5.02944 5.02944 1 10 1C14.9706 1 19 5.02944 19 10ZM10.4571 14.4571C8.98205 14.4571 7.69351 13.6587 7 12.4705L8.12104 11.3495C8.48035 12.2895 9.39075 12.9571 10.4571 12.9571C11.8378 12.9571 12.9571 11.8378 12.9571 10.4571C12.9571 9.39075 12.2895 8.48035 11.3495 8.12104L12.4705 7C13.6587 7.69351 14.4571 8.98205 14.4571 10.4571C14.4571 12.6662 12.6662 14.4571 10.4571 14.4571Z" fill="black"/>
</svg>
