<svg width="20" height="20" viewBox="0 0 20 20" fill="none" xmlns="http://www.w3.org/2000/svg">
    <path fill-rule="evenodd" clip-rule="evenodd" d="M16.8628 10.0003C16.8628 13.7905 13.7903 16.8631 10.0001 16.8631C6.20989 16.8631 3.13734 13.7905 3.13734 10.0003C3.13734 6.21014 6.20989 3.13758 10.0001 3.13758C13.7903 3.13758 16.8628 6.21014 16.8628 10.0003ZM18.3334 10.0003C18.3334 14.6027 14.6025 18.3337 10.0001 18.3337C5.39771 18.3337 1.66675 14.6027 1.66675 10.0003C1.66675 5.39795 5.39771 1.66699 10.0001 1.66699C14.6025 1.66699 18.3334 5.39795 18.3334 10.0003Z" fill="#19191A"/>
    <path d="M12.4512 10.0007C12.4512 11.3543 11.3538 12.4517 10.0002 12.4517C8.64654 12.4517 7.5492 11.3543 7.5492 10.0007C7.5492 9.90959 7.55417 9.81967 7.56385 9.73116C7.60803 9.32723 7.44993 8.89124 7.07732 8.72914C6.70498 8.56717 6.26423 8.73739 6.17482 9.13347C6.11185 9.41244 6.07861 9.70267 6.07861 10.0007C6.07861 12.1665 7.83436 13.9222 10.0002 13.9222C12.166 13.9222 13.9217 12.1665 13.9217 10.0007C13.9217 8.08477 12.5478 6.48976 10.7315 6.14717C10.3324 6.0719 10.0002 6.4083 10.0002 6.8144C10.0002 7.22049 10.3367 7.53865 10.7247 7.65853C11.7246 7.9675 12.4512 8.89924 12.4512 10.0007Z" fill="#19191A"/>
</svg>
