<svg width="18" height="18" viewBox="0 0 18 18" fill="none" xmlns="http://www.w3.org/2000/svg">
    <path fill-rule="evenodd" clip-rule="evenodd" d="M15.8628 9.00033C15.8628 12.7905 12.7903 15.8631 9.00008 15.8631C5.20989 15.8631 2.13734 12.7905 2.13734 9.00033C2.13734 5.21014 5.20989 2.13758 9.00008 2.13758C12.7903 2.13758 15.8628 5.21014 15.8628 9.00033ZM17.3334 9.00033C17.3334 13.6027 13.6025 17.3337 9.00008 17.3337C4.39771 17.3337 0.666748 13.6027 0.666748 9.00033C0.666748 4.39795 4.39771 0.666992 9.00008 0.666992C13.6025 0.666992 17.3334 4.39795 17.3334 9.00033Z" fill="#19191A"/>
    <path d="M11.4512 9.00067C11.4512 10.3543 10.3538 11.4517 9.00018 11.4517C7.64654 11.4517 6.5492 10.3543 6.5492 9.00067C6.5492 8.90959 6.55417 8.81967 6.56385 8.73116C6.60803 8.32723 6.44993 7.89124 6.07732 7.72914C5.70498 7.56717 5.26423 7.73739 5.17482 8.13347C5.11185 8.41244 5.07861 8.70267 5.07861 9.00067C5.07861 11.1665 6.83436 12.9222 9.00018 12.9222C11.166 12.9222 12.9217 11.1665 12.9217 9.00067C12.9217 7.08477 11.5478 5.48976 9.73149 5.14717C9.33244 5.0719 9.00018 5.4083 9.00018 5.8144C9.00018 6.22049 9.33669 6.53865 9.72468 6.65853C10.7246 6.9675 11.4512 7.89924 11.4512 9.00067Z" fill="#19191A"/>
</svg>
