<svg width="200" height="200" fill="none" xmlns="http://www.w3.org/2000/svg"><path d="M0 95.082C0 50.26 0 27.849 13.924 13.924 27.85 0 50.26 0 95.082 0h9.836c44.822 0 67.233 0 81.158 13.924C200 27.85 200 50.26 200 95.082v9.836c0 44.822 0 67.233-13.924 81.158C172.151 200 149.74 200 104.918 200h-9.836c-44.822 0-67.233 0-81.158-13.924C0 172.151 0 149.74 0 104.918v-9.836Z" fill="#07F"/><path d="M44.242 1.57C57.005 0 73.428 0 95.082 0h9.836c21.654 0 38.077 0 50.84 1.57.828 1.241 1.242 2.471 1.242 3.76 0 5.546-7.669 10.008-23.007 18.934l-1.456.847C117.199 34.037 109.53 38.5 100 38.5c-9.53 0-17.199-4.463-32.537-13.389l-1.456-.847C50.67 15.34 43 10.876 43 5.33c0-1.289.414-2.519 1.242-3.76ZM56.381 42.267c15.514 8.957 23.27 13.435 28.09 21.783 4.82 8.347 4.82 17.304 4.82 35.217v1.7c0 17.914 0 26.87-4.82 29.653-4.82 2.782-12.576-1.696-28.09-10.653l-1.472-.85c-15.514-8.956-23.27-13.435-28.09-21.782C22 88.987 22 80.03 22 62.117v-1.7c0-17.913 0-26.87 4.82-29.652 4.819-2.783 12.575 1.696 28.089 10.652l1.472.85Z" fill="#00D9ED"/><path d="M143.619 43.197c-15.513 8.956-23.27 13.435-28.09 21.782-4.819 8.347-4.819 17.304-4.819 35.218v1.7c0 17.913 0 26.87 4.819 29.652 4.82 2.783 12.576-1.696 28.09-10.652l1.472-.85c15.514-8.957 23.27-13.435 28.09-21.783C178 89.917 178 80.96 178 63.047v-1.7c0-17.914 0-26.87-4.819-29.653-4.82-2.782-12.576 1.696-28.09 10.652l-1.472.85Z" fill="#fff"/></svg>