<svg width="24" height="24" viewBox="0 0 24 24" fill="none" xmlns="http://www.w3.org/2000/svg">
<path fill-rule="evenodd" clip-rule="evenodd" d="M11.9997 6.34706C10.3256 5.35564 8.66803 4.97016 6.41359 4.99961L6.29762 5.00098C5.71344 5.00757 5.1893 5.01348 4.71024 5.26312C4.30767 5.4729 3.94575 5.83958 3.74125 6.24485C3.60196 6.5209 3.54753 6.80114 3.52289 7.0864C3.49997 7.35171 3.49999 7.66878 3.5 8.02968L3.5 8.05879L3.5 14.5646V14.5933V14.5934C3.49999 15.1575 3.49999 15.6222 3.52772 15.9965C3.55618 16.3807 3.61749 16.7437 3.78235 17.0789C4.04827 17.6195 4.39396 17.9819 4.92148 18.2729C5.25977 18.4596 5.65757 18.5359 6.0769 18.5828C6.49852 18.6299 7.03833 18.6553 7.70886 18.6869L7.73565 18.6882C9.24232 18.7591 10.3847 19.0969 11.5887 19.8779C11.5984 19.8843 11.6083 19.8904 11.6183 19.8963C11.6535 19.9171 11.6899 19.9348 11.7273 19.9494C11.766 19.9645 11.8058 19.9763 11.8461 19.9848C11.8709 19.99 11.8959 19.9939 11.921 19.9966C12.0695 20.0123 12.222 19.9836 12.3579 19.9098L12.3736 19.901L12.3817 19.8963C12.3917 19.8904 12.4016 19.8843 12.4113 19.8779C13.6164 19.0962 14.7595 18.7549 16.2657 18.6812L16.2923 18.6799C16.964 18.647 17.5045 18.6205 17.9265 18.5727C18.3459 18.5251 18.7438 18.4482 19.0816 18.2613C19.6086 17.9696 19.9528 17.6082 20.2183 17.0676C20.3828 16.7327 20.444 16.3699 20.4724 15.9859C20.5 15.6117 20.5 15.1472 20.5 14.5831V14.583V8.06202L20.5 8.03293V8.03284C20.5 7.67194 20.5 7.3549 20.4771 7.08963C20.4525 6.80441 20.3981 6.52419 20.2589 6.24817C20.0544 5.84291 19.6928 5.47637 19.2903 5.2665C18.8115 5.01679 18.2872 5.01065 17.7028 5.00382L17.5868 5.00239C15.3324 4.972 13.6745 5.35543 11.9997 6.34706ZM12.75 7.646V17.9774C13.8167 17.4834 14.9138 17.2456 16.1923 17.183C16.8969 17.1485 17.3891 17.124 17.7575 17.0822C18.134 17.0395 18.2865 16.9869 18.3553 16.9489C18.6139 16.8058 18.7417 16.6716 18.872 16.4063C18.9123 16.3241 18.9536 16.1841 18.9764 15.8753C18.9995 15.5631 19 15.1543 19 14.5543V8.06202C19 7.66343 18.9994 7.41172 18.9827 7.21865C18.9671 7.0384 18.9411 6.9664 18.9196 6.92375C18.8566 6.79884 18.7208 6.66121 18.5968 6.59652C18.4742 6.5326 18.3358 6.51262 17.5665 6.50225C15.5414 6.47496 14.1587 6.80829 12.75 7.646ZM11.25 7.64632C9.84085 6.80807 8.45794 6.47303 6.43318 6.49948C5.6643 6.50952 5.52607 6.52943 5.40342 6.59335C5.27939 6.65798 5.14342 6.79573 5.08042 6.92059C5.05888 6.96328 5.03289 7.03529 5.01732 7.21549C5.00065 7.40854 5 7.66022 5 8.05879L5 14.5646C5 15.1647 5.00048 15.5734 5.02362 15.8857C5.04649 16.1945 5.08785 16.3345 5.12834 16.4168C5.25871 16.6819 5.38751 16.8169 5.64613 16.9596C5.71519 16.9977 5.8677 17.0501 6.24347 17.0921C6.61135 17.1332 7.10267 17.1567 7.80623 17.1898C9.0847 17.25 10.1824 17.485 11.25 17.9782V7.64632ZM17.7496 13.718C17.7357 13.3041 17.3889 12.9797 16.9749 12.9936C16.1417 13.0215 15.2871 13.1278 14.5339 13.3597C14.138 13.4815 13.9158 13.9012 14.0377 14.2971C14.1595 14.693 14.5792 14.9151 14.9751 14.7933C15.5599 14.6133 16.2726 14.518 17.0251 14.4927C17.4391 14.4789 17.7634 14.132 17.7496 13.718ZM7.02511 12.9936C6.61113 12.9797 6.26429 13.3041 6.25042 13.718C6.23655 14.132 6.5609 14.4789 6.97488 14.4927C7.72744 14.518 8.44012 14.6133 9.02487 14.7933C9.42076 14.9151 9.84047 14.693 9.96232 14.2971C10.0842 13.9012 9.86203 13.4815 9.46614 13.3597C8.7129 13.1278 7.85832 13.0215 7.02511 12.9936ZM17.7496 9.90322C17.7357 9.48924 17.3889 9.16489 16.9749 9.17876C16.1417 9.20668 15.2871 9.31299 14.5339 9.54484C14.138 9.66669 13.9158 10.0864 14.0377 10.4823C14.1595 10.8782 14.5792 11.1003 14.9751 10.9785C15.5599 10.7985 16.2726 10.7031 17.0251 10.6779C17.4391 10.664 17.7634 10.3172 17.7496 9.90322ZM7.02511 9.17876C6.61113 9.16489 6.26429 9.48924 6.25042 9.90322C6.23655 10.3172 6.5609 10.664 6.97488 10.6779C7.72744 10.7031 8.44012 10.7985 9.02487 10.9785C9.42076 11.1003 9.84047 10.8782 9.96232 10.4823C10.0842 10.0864 9.86203 9.66669 9.46614 9.54484C8.7129 9.31299 7.85832 9.20668 7.02511 9.17876Z" fill="#252629"/>
</svg>
