<svg width="20" height="20" viewBox="0 0 20 20" fill="none" xmlns="http://www.w3.org/2000/svg">
    <path d="M14.25 2.00098C14.6641 2.00106 15 2.33684 15 2.75098V12.8926C15 15.7132 12.7098 17.999 9.89062 17.999C7.07514 17.9989 4.78809 15.7164 4.78809 12.8994C4.78819 12.4853 5.12399 12.1495 5.53809 12.1494C5.95224 12.1494 6.28798 12.4853 6.28809 12.8994C6.28809 14.8865 7.90211 16.4989 9.89062 16.499C11.8828 16.499 13.5 14.8833 13.5 12.8926V2.75098C13.5 2.33683 13.8359 2.00104 14.25 2.00098Z" fill="#252629"/>
    <path d="M9 3.93457C9 3.53522 9.44507 3.29704 9.77734 3.51855L11.5547 4.70312C11.8329 4.88859 12 5.20081 12 5.53516V7.06543C12 7.46478 11.5549 7.70296 11.2227 7.48145L9.44531 6.29688C9.16712 6.11142 9.00001 5.79918 9 5.46484V3.93457Z" fill="#252629"/>
</svg>
