<svg width="20" height="20" viewBox="0 0 20 20" fill="none" xmlns="http://www.w3.org/2000/svg">
<path fill-rule="evenodd" clip-rule="evenodd" d="M10.1537 3.39769C10.0516 3.38599 9.94839 3.38599 9.84633 3.39769C9.74722 3.40906 9.64328 3.43683 9.257 3.55068L4.59245 4.92537C4.38245 4.98726 4.26128 5.02338 4.17248 5.05599C4.11801 5.076 4.09638 5.08756 4.09076 5.09089C4.05882 5.11539 4.03397 5.14687 4.01844 5.18248C4.01671 5.18845 4.01138 5.21104 4.00731 5.26517C4.00068 5.35342 4.00026 5.47129 4.00026 5.67535V10.944C4.00026 12.6632 4.99311 14.0496 6.26225 15.1226C7.53119 16.1954 9.00259 16.8889 9.7683 17.206C9.85737 17.2429 9.89389 17.2577 9.92238 17.2675C9.96927 17.2836 10.0302 17.2837 10.0776 17.2675C10.1061 17.2577 10.1426 17.2429 10.2317 17.206C10.9974 16.8889 12.4688 16.1954 13.7378 15.1226C15.0069 14.0496 15.9997 12.6632 15.9997 10.944V5.67535C15.9997 5.47129 15.9993 5.35342 15.9927 5.26517C15.9886 5.21106 15.9833 5.18846 15.9816 5.18249C15.966 5.14687 15.9412 5.11539 15.9092 5.09089C15.9036 5.08756 15.882 5.076 15.8275 5.05599C15.7387 5.02338 15.6175 4.98726 15.4076 4.92537L10.743 3.55068C10.3567 3.43683 10.2528 3.40906 10.1537 3.39769ZM15.9108 5.09191L15.9092 5.09089L15.9108 5.09191ZM15.981 5.18078L15.9816 5.18249L15.981 5.18078ZM4.01901 5.18078L4.01844 5.18248L4.01901 5.18078ZM4.08918 5.09191L4.09076 5.09089L4.08918 5.09191ZM9.66193 2.01932C9.88645 1.99356 10.1135 1.99356 10.3381 2.01932C10.607 2.05016 10.8634 2.1286 11.1979 2.22718L15.8625 3.60187C15.8891 3.60974 15.916 3.61758 15.9431 3.62547C16.2591 3.7177 16.5957 3.81593 16.8595 4.01626C17.0885 4.19019 17.2661 4.4151 17.3756 4.66992C17.5018 4.96342 17.5008 5.29022 17.4998 5.59708C17.4998 5.62333 17.4997 5.64943 17.4997 5.67535V10.944C17.4997 13.2029 16.1861 14.9334 14.7491 16.1483C13.3119 17.3633 11.6774 18.1287 10.8442 18.4739C10.6918 18.537 10.5261 18.6093 10.293 18.6459C10.1174 18.6736 9.88262 18.6736 9.70695 18.6459C9.47386 18.6093 9.30823 18.537 9.15581 18.4739C8.32259 18.1287 6.68812 17.3633 5.25091 16.1483C3.8139 14.9334 2.50032 13.2029 2.50032 10.944V5.67535C2.50032 5.64943 2.50024 5.62333 2.50016 5.59708C2.49922 5.29022 2.49822 4.96342 2.62438 4.66992C2.73391 4.4151 2.91149 4.19019 3.1405 4.01626C3.40428 3.81593 3.74088 3.7177 4.05695 3.62547C4.08398 3.61758 4.11087 3.60974 4.13755 3.60187L8.8021 2.22718C9.1366 2.1286 9.39305 2.05016 9.66193 2.01932Z" fill="#19191A"/>
</svg>
