<svg width="18" height="18" viewBox="0 0 18 18" fill="none" xmlns="http://www.w3.org/2000/svg">
<path fill-rule="evenodd" clip-rule="evenodd" d="M9.00008 8.26454C9.40617 8.26454 9.73538 8.59375 9.73538 8.99984V12.9214C9.73538 13.3275 9.40617 13.6567 9.00008 13.6567C8.59399 13.6567 8.26479 13.3275 8.26479 12.9214V8.99984C8.26479 8.59375 8.59399 8.26454 9.00008 8.26454Z" fill="#19191A"/>
<path d="M9.98047 6.05866C9.98047 6.60012 9.54154 7.03905 9.00008 7.03905C8.45863 7.03905 8.01969 6.60012 8.01969 6.05866C8.01969 5.5172 8.45863 5.07827 9.00008 5.07827C9.54154 5.07827 9.98047 5.5172 9.98047 6.05866Z" fill="#19191A"/>
<path fill-rule="evenodd" clip-rule="evenodd" d="M3.10752 3.10728C4.61476 1.60005 6.6991 0.666504 9.00008 0.666504C11.3011 0.666504 13.3854 1.60005 14.8926 3.10728C16.3999 4.61451 17.3334 6.69885 17.3334 8.99984C17.3334 11.3008 16.3999 13.3852 14.8926 14.8924C13.3854 16.3996 11.3011 17.3332 9.00008 17.3332C6.6991 17.3332 4.61476 16.3996 3.10752 14.8924C1.60029 13.3852 0.666748 11.3008 0.666748 8.99984C0.666748 6.69885 1.60029 4.61451 3.10752 3.10728ZM9.00008 2.13709C7.10478 2.13709 5.39011 2.90443 4.14739 4.14714C2.90467 5.38986 2.13734 7.10454 2.13734 8.99984C2.13734 10.8951 2.90467 12.6098 4.14739 13.8525C5.39011 15.0952 7.10478 15.8626 9.00008 15.8626C10.8954 15.8626 12.6101 15.0952 13.8528 13.8525C15.0955 12.6098 15.8628 10.8951 15.8628 8.99984C15.8628 7.10454 15.0955 5.38986 13.8528 4.14714C12.6101 2.90443 10.8954 2.13709 9.00008 2.13709Z" fill="#19191A"/>
</svg>
