<svg width="20" height="20" viewBox="0 0 20 20" fill="none" xmlns="http://www.w3.org/2000/svg">
<path d="M8.333 9.58333C8.333 10.2737 7.77336 10.8333 7.083 10.8333C6.39265 10.8333 5.833 10.2737 5.833 9.58333C5.833 8.89297 6.39265 8.33333 7.083 8.33333C7.77336 8.33333 8.333 8.89297 8.333 9.58333Z" fill="#19191A"/>
<path d="M8.10258 12.8109C8.32782 12.4911 8.7697 12.4144 9.08955 12.6396C9.12802 12.6667 9.16771 12.6921 9.20852 12.7157C9.44068 12.85 9.7101 12.9271 9.99967 12.9271C10.2892 12.9271 10.5587 12.85 10.7908 12.7157C10.8316 12.6921 10.8713 12.6667 10.9098 12.6396C11.2296 12.4144 11.6715 12.4911 11.8968 12.8109C12.122 13.1308 12.0453 13.5727 11.7255 13.7979C11.6527 13.8491 11.5776 13.8972 11.5002 13.942C11.0582 14.1977 10.5449 14.3438 9.99967 14.3438C9.45442 14.3438 8.94114 14.1977 8.49916 13.942C8.42178 13.8972 8.34663 13.8491 8.27389 13.7979C7.95403 13.5727 7.87734 13.1308 8.10258 12.8109Z" fill="#19191A"/>
<path d="M12.3544 10.3803C12.4333 10.3347 12.5249 10.3083 12.6247 10.3083C12.7245 10.3083 12.8161 10.3347 12.895 10.3803C12.9273 10.399 12.9577 10.4211 12.9856 10.4461C13.2771 10.707 13.7249 10.6822 13.9858 10.3907C14.2467 10.0992 14.2219 9.65136 13.9304 9.39047C13.8306 9.30111 13.7214 9.22176 13.6044 9.15407C13.3156 8.98703 12.9802 8.89165 12.6247 8.89165C12.2692 8.89165 11.9338 8.98703 11.645 9.15407C11.528 9.22176 11.4188 9.30111 11.319 9.39047C11.0275 9.65136 11.0027 10.0992 11.2636 10.3907C11.5245 10.6822 11.9723 10.707 12.2638 10.4461C12.2917 10.4211 12.322 10.399 12.3544 10.3803Z" fill="#19191A"/>
<path fill-rule="evenodd" clip-rule="evenodd" d="M11.6663 2.49999C11.6663 3.15069 11.2934 3.71429 10.7497 3.98877V5.08331H12.6978C13.3711 5.0833 13.9218 5.08329 14.3694 5.11986C14.8327 5.15771 15.2511 5.23845 15.6418 5.43754C16.2533 5.74913 16.7505 6.24631 17.0621 6.85784C17.2612 7.24858 17.3419 7.66698 17.3798 8.13024C17.4164 8.5778 17.4164 9.12851 17.4163 9.80189V12.6981C17.4164 13.3714 17.4164 13.9221 17.3798 14.3697C17.3419 14.833 17.2612 15.2514 17.0621 15.6421C16.7505 16.2536 16.2533 16.7508 15.6418 17.0624C15.2511 17.2615 14.8327 17.3422 14.3694 17.3801C13.9218 17.4167 13.3711 17.4167 12.6978 17.4166H7.30159C6.62821 17.4167 6.0775 17.4167 5.62994 17.3801C5.16668 17.3422 4.74828 17.2615 4.35754 17.0624C3.74601 16.7508 3.24883 16.2536 2.93724 15.6421C2.73815 15.2514 2.65741 14.833 2.61956 14.3697C2.58299 13.9222 2.583 13.3714 2.58301 12.6981V9.80189C2.583 9.12852 2.58299 8.5778 2.61956 8.13024C2.65741 7.66698 2.73815 7.24858 2.93724 6.85784C3.24883 6.24631 3.74601 5.74913 4.35754 5.43754C4.74828 5.23845 5.16668 5.15771 5.62994 5.11986C6.0775 5.08329 6.62821 5.0833 7.30159 5.08331H9.2497V3.98879C8.70592 3.71433 8.333 3.15071 8.333 2.49999C8.333 1.57952 9.0792 0.833328 9.99967 0.833328C10.9201 0.833328 11.6663 1.57952 11.6663 2.49999ZM5.75209 6.61488C5.38159 6.64515 5.18256 6.70066 5.03853 6.77405C4.70924 6.94183 4.44153 7.20954 4.27375 7.53883C4.20036 7.68286 4.14485 7.88189 4.11458 8.25239C4.08359 8.63164 4.08301 9.12087 4.08301 9.83331V12.6666C4.08301 13.3791 4.08359 13.8683 4.11458 14.2476C4.14485 14.6181 4.20036 14.8171 4.27375 14.9611C4.44153 15.2904 4.70924 15.5581 5.03853 15.7259C5.18256 15.7993 5.38159 15.8548 5.75209 15.8851C6.13134 15.9161 6.62057 15.9166 7.33301 15.9166H12.6663C13.3788 15.9166 13.868 15.9161 14.2473 15.8851C14.6178 15.8548 14.8168 15.7993 14.9608 15.7259C15.2901 15.5581 15.5578 15.2904 15.7256 14.9611C15.799 14.8171 15.8545 14.6181 15.8848 14.2476C15.9158 13.8683 15.9163 13.3791 15.9163 12.6666V9.83331C15.9163 9.12087 15.9158 8.63164 15.8848 8.25239C15.8545 7.88189 15.799 7.68286 15.7256 7.53883C15.5578 7.20954 15.2901 6.94183 14.9608 6.77405C14.8168 6.70066 14.6178 6.64515 14.2473 6.61488C13.868 6.58389 13.3788 6.58331 12.6663 6.58331H7.33301C6.62057 6.58331 6.13134 6.58389 5.75209 6.61488Z" fill="#19191A"/>
</svg>
