<svg width="20" height="20" viewBox="0 0 20 20" fill="none" xmlns="http://www.w3.org/2000/svg">
<path fill-rule="evenodd" clip-rule="evenodd" d="M3.15252 2.28729C3.63603 1.96495 4.24813 1.7749 4.99999 1.7749C6.23629 1.7749 7.07894 2.30626 7.58836 3.01378C8.07115 3.68433 8.22499 4.46722 8.22499 4.9999V6.7749H11.775V4.9999C11.775 4.46722 11.9288 3.68433 12.4116 3.01378C12.921 2.30626 13.7637 1.7749 15 1.7749C15.7519 1.7749 16.364 1.96495 16.8475 2.28729C17.3264 2.6066 17.6367 3.02717 17.836 3.42567C18.0338 3.82134 18.1291 4.20823 18.1761 4.49009C18.1998 4.63273 18.212 4.75319 18.2183 4.84083C18.2214 4.88477 18.2231 4.92081 18.224 4.94767C18.2244 4.96111 18.2247 4.97229 18.2248 4.98104L18.225 4.99234L18.225 4.99659L18.225 4.99837C18.225 4.99874 18.225 4.9999 17.5 4.9999H18.225C18.225 5.53259 18.0712 6.31547 17.5884 6.98602C17.0789 7.69354 16.2363 8.2249 15 8.2249H13.225V11.7749H15C16.2363 11.7749 17.0789 12.3063 17.5884 13.0138C18.0712 13.6843 18.225 14.4672 18.225 14.9999H17.5C18.225 14.9999 18.225 14.9995 18.225 14.9999L18.225 15.0014L18.225 15.0032L18.225 15.0075L18.2248 15.0188C18.2247 15.0275 18.2244 15.0387 18.224 15.0521C18.2231 15.079 18.2214 15.115 18.2183 15.159C18.212 15.2466 18.1998 15.3671 18.1761 15.5097C18.1291 15.7916 18.0338 16.1785 17.836 16.5741C17.6367 16.9726 17.3264 17.3932 16.8475 17.7125C16.364 18.0349 15.7519 18.2249 15 18.2249C13.7637 18.2249 12.921 17.6935 12.4116 16.986C11.9288 16.3155 11.775 15.5326 11.775 14.9999V13.2249H8.22499V14.9999C8.22499 15.5326 8.07115 16.3155 7.58836 16.986C7.07894 17.6935 6.23629 18.2249 4.99999 18.2249C4.24813 18.2249 3.63603 18.0349 3.15252 17.7125C2.67355 17.3932 2.36329 16.9726 2.16403 16.5741C1.9662 16.1785 1.8709 15.7916 1.82392 15.5097C1.80015 15.3671 1.78798 15.2466 1.78172 15.159C1.77858 15.115 1.7769 15.079 1.77601 15.0521C1.77556 15.0387 1.77531 15.0275 1.77516 15.0188L1.77503 15.0075L1.775 15.0032L1.775 15.0014C1.775 15.0011 1.77499 14.9999 2.49999 14.9999H1.77499C1.77499 14.4672 1.92884 13.6843 2.41163 13.0138C2.92104 12.3063 3.7637 11.7749 4.99999 11.7749H6.77499V8.2249H4.99999C3.7637 8.2249 2.92104 7.69354 2.41163 6.98602C1.92884 6.31547 1.77499 5.53259 1.77499 4.9999H2.49999C1.77499 4.9999 1.77499 5.00028 1.77499 4.9999L1.775 4.99837L1.775 4.99659L1.77503 4.99234L1.77516 4.98104C1.77531 4.97229 1.77556 4.96111 1.77601 4.94767C1.7769 4.92081 1.77858 4.88477 1.78172 4.84083C1.78798 4.75319 1.80015 4.63273 1.82392 4.49009C1.8709 4.20823 1.9662 3.82134 2.16403 3.42567C2.36329 3.02717 2.67355 2.6066 3.15252 2.28729ZM3.225 5.00357C3.22578 5.30434 3.32224 5.76917 3.58836 6.13878C3.82894 6.47293 4.23629 6.7749 4.99999 6.7749H6.77499V4.9999C6.77499 4.69925 6.67883 4.23214 6.41163 3.86102C6.17104 3.52687 5.7637 3.2249 4.99999 3.2249C4.50186 3.2249 4.17646 3.34735 3.95684 3.49376C3.73268 3.6432 3.5742 3.84764 3.46095 4.07413C3.34629 4.30346 3.28534 4.54157 3.25419 4.72847C3.2389 4.8202 3.23154 4.89505 3.22803 4.94413C3.22629 4.96855 3.22553 4.98622 3.2252 4.99598L3.225 5.00357ZM8.22499 8.2249V11.7749H11.775V8.2249H8.22499ZM6.77499 13.2249H4.99999C4.23629 13.2249 3.82894 13.5269 3.58836 13.861C3.32224 14.2306 3.22578 14.6955 3.225 14.9962L3.2252 15.0038C3.22553 15.0136 3.22629 15.0313 3.22803 15.0557C3.23154 15.1048 3.2389 15.1796 3.25419 15.2713C3.28534 15.4582 3.34629 15.6963 3.46095 15.9257C3.5742 16.1522 3.73268 16.3566 3.95684 16.506C4.17646 16.6525 4.50186 16.7749 4.99999 16.7749C5.7637 16.7749 6.17104 16.4729 6.41163 16.1388C6.67883 15.7677 6.77499 15.3006 6.77499 14.9999V13.2249ZM3.225 14.9962C3.22499 14.9955 3.22499 14.9959 3.225 14.9962V14.9962ZM13.225 13.2249V14.9999C13.225 15.3006 13.3212 15.7677 13.5884 16.1388C13.8289 16.4729 14.2363 16.7749 15 16.7749C15.4981 16.7749 15.8235 16.6525 16.0431 16.506C16.2673 16.3566 16.4258 16.1522 16.539 15.9257C16.6537 15.6963 16.7146 15.4582 16.7458 15.2713C16.7611 15.1796 16.7684 15.1048 16.772 15.0557C16.7737 15.0313 16.7745 15.0136 16.7748 15.0038L16.775 14.9962C16.7742 14.6955 16.6778 14.2306 16.4116 13.861C16.171 13.5269 15.7637 13.2249 15 13.2249H13.225ZM13.225 6.7749H15C15.7637 6.7749 16.171 6.47293 16.4116 6.13878C16.6778 5.76917 16.7742 5.30434 16.775 5.00357L16.7748 4.99598C16.7745 4.98622 16.7737 4.96855 16.772 4.94413C16.7684 4.89505 16.7611 4.8202 16.7458 4.72847C16.7146 4.54157 16.6537 4.30346 16.539 4.07413C16.4258 3.84764 16.2673 3.6432 16.0431 3.49376C15.8235 3.34735 15.4981 3.2249 15 3.2249C14.2363 3.2249 13.8289 3.52687 13.5884 3.86102C13.3212 4.23214 13.225 4.69925 13.225 4.9999V6.7749Z" fill="#252629"/>
</svg>
