<svg width="16" height="16" viewBox="0 0 16 16" fill="none" xmlns="http://www.w3.org/2000/svg">
<path fill-rule="evenodd" clip-rule="evenodd" d="M11.0443 0.725597C11.4727 0.297675 12.0358 0.0834961 12.5963 0.0834961C13.1569 0.0834961 13.7199 0.297675 14.1484 0.725597L15.2737 1.84957C15.7021 2.27749 15.9166 2.83984 15.9166 3.39974C15.9166 3.95964 15.7021 4.52199 15.2737 4.94991L14.3418 5.8807L5.26726 14.9634C4.65601 15.5739 3.82701 15.9168 2.96261 15.9168H1.07287C0.526338 15.9168 0.0832841 15.4738 0.0832903 14.9272L0.0832791 13.0543C0.0797365 12.1861 0.423542 11.3526 1.03797 10.739L9.07682 2.69119L11.0443 0.725597ZM13.306 4.8173L14.2235 3.90092C14.3622 3.76238 14.4313 3.58228 14.4313 3.39974C14.4313 3.2172 14.3622 3.0371 14.2235 2.89856L13.0981 1.77458C12.9594 1.63604 12.7791 1.56699 12.5963 1.56699C12.4136 1.56699 12.2333 1.63604 12.0946 1.77458L11.1771 2.69096L13.306 4.8173ZM10.1126 3.7546L2.08819 11.788C1.75546 12.1203 1.56853 12.571 1.56853 13.041L1.56782 14.1363C1.56771 14.3003 1.70066 14.4333 1.86469 14.4333H2.96261C3.43311 14.4333 3.88434 14.2467 4.21704 13.9144L12.2415 5.88094L10.1126 3.7546Z" fill="#19191A"/>
</svg>
