<svg width="20" height="20" viewBox="0 0 20 20" fill="none" xmlns="http://www.w3.org/2000/svg">
<path fill-rule="evenodd" clip-rule="evenodd" d="M6.64438 2.5H13.3553C15.0942 2.5 15.7266 2.68056 16.3628 3.0283C16.9894 3.3708 17.4811 3.8734 17.8163 4.51382C18.1565 5.16404 18.3332 5.8103 18.3332 7.58756V12.4124C18.3332 14.1897 18.1565 14.836 17.8163 15.4862C17.4811 16.1266 16.9894 16.6292 16.3628 16.9717C15.7266 17.3194 15.0942 17.5 13.3553 17.5H6.64438C4.90544 17.5 4.27311 17.3194 3.63691 16.9717C3.0103 16.6292 2.51853 16.1266 2.18341 15.4862C1.84317 14.836 1.6665 14.1897 1.6665 12.4124V7.58756C1.6665 5.8103 1.84317 5.16404 2.18341 4.51382C2.51853 3.8734 3.0103 3.3708 3.63691 3.0283C4.27311 2.68056 4.90544 2.5 6.64438 2.5ZM3.13709 12.4124V7.58756C3.13709 5.98996 3.28984 5.5912 3.46003 5.26007L7.83612 9.72368C8.1102 10.0033 8.34665 10.2445 8.55731 10.4269C8.77966 10.6194 9.02119 10.7901 9.31816 10.8885C9.76119 11.0354 10.2384 11.0354 10.6815 10.8885C10.9784 10.7901 11.22 10.6194 11.4423 10.4269C11.653 10.2445 11.8894 10.0033 12.1635 9.72369L16.5396 5.26005C16.7098 5.59119 16.8626 5.98993 16.8626 7.58756V12.4124C16.8626 14.0747 16.6972 14.4391 16.5189 14.7799C16.3205 15.1591 16.0383 15.4473 15.6682 15.6496C15.336 15.8311 14.9809 16 13.3553 16H6.64438C5.0188 16 4.66368 15.8311 4.33151 15.6496C3.96137 15.4473 3.6792 15.1591 3.48077 14.7799C3.30245 14.4391 3.13709 14.0747 3.13709 12.4124ZM13.3553 4H6.64438C5.34424 4 4.85679 4.10802 4.54378 4.24417L8.85596 8.6426C9.15573 8.94836 9.34969 9.14538 9.50905 9.28336C9.66183 9.41566 9.73379 9.4491 9.77259 9.46196C9.92027 9.5109 10.0794 9.5109 10.227 9.46196C10.2658 9.4491 10.3378 9.41566 10.4906 9.28336C10.6499 9.14538 10.8439 8.94836 11.1437 8.6426L15.4559 4.24416C15.1429 4.10802 14.6554 4 13.3553 4Z" fill="#19191A"/>
</svg>
