<svg width="20" height="20" viewBox="0 0 20 20" fill="none" xmlns="http://www.w3.org/2000/svg">
<path fill-rule="evenodd" clip-rule="evenodd" d="M4.79984 4.79969C5.08829 4.51123 5.55597 4.51123 5.84443 4.79969L10.0002 8.95542L14.1559 4.79969C14.4444 4.51123 14.912 4.51123 15.2005 4.79969C15.4889 5.08814 15.4889 5.55582 15.2005 5.84427L11.0448 10L15.2005 14.1557C15.4889 14.4442 15.4889 14.9119 15.2005 15.2003C14.912 15.4888 14.4444 15.4888 14.1559 15.2003L10.0002 11.0446L5.84443 15.2003C5.55597 15.4888 5.08829 15.4888 4.79984 15.2003C4.51138 14.9119 4.51138 14.4442 4.79984 14.1557L8.95557 10L4.79984 5.84427C4.51138 5.55582 4.51138 5.08814 4.79984 4.79969Z" fill="#818C99"/>
</svg>
