<svg xmlns="http://www.w3.org/2000/svg" width="20" height="20" viewBox="0 0 20 20" fill="none">
    <path d="M18.5 10C18.5 11.1457 17.9495 12.1629 17.0985 12.8014C16.7228 13.0833 16.5606 13.6224 16.8357 14.0032C17.0411 14.2877 17.4251 14.3876 17.7194 14.1965C19.0921 13.3052 20 11.7586 20 10C20 7.23859 17.7614 5 15 5C14.9215 5 14.8434 5.00181 14.7658 5.00539C14.556 5.01507 14.3565 4.90757 14.2504 4.72632C13.2961 3.09542 11.526 2 9.5 2C7.1033 2 5.06464 3.533 4.3111 5.67193C4.24062 5.872 4.06202 6.01602 3.85207 6.04629C1.67378 6.36041 0 8.23473 0 10.5C0 12.1809 0.921605 13.6465 2.28708 14.4192C2.58848 14.5897 2.95964 14.4646 3.14319 14.1709C3.39345 13.7705 3.1865 13.239 2.79788 12.9707C2.01382 12.4295 1.5 11.5248 1.5 10.5C1.5 8.90994 2.73788 7.60782 4.30142 7.50641L4.65469 7.4835C5.07805 7.45605 5.43801 7.16445 5.55273 6.756L5.64846 6.41516C6.12123 4.73193 7.66869 3.5 9.5 3.5C11.062 3.5 12.4176 4.39505 13.077 5.70715L13.2341 6.01962C13.4227 6.39489 13.8257 6.61232 14.2429 6.5639L14.5902 6.52359C14.7241 6.50806 14.8608 6.5 15 6.5C16.933 6.5 18.5 8.06702 18.5 10Z" fill="#19191A"/>
    <path fill-rule="evenodd" clip-rule="evenodd" d="M6.10899 13.546C6 13.7599 6 14.0399 6 14.6V17.4C6 17.9601 6 18.2401 6.10899 18.454C6.20487 18.6422 6.35785 18.7951 6.54601 18.891C6.75992 19 7.03995 19 7.6 19H12.4C12.9601 19 13.2401 19 13.454 18.891C13.6422 18.7951 13.7951 18.6422 13.891 18.454C14 18.2401 14 17.9601 14 17.4V14.6C14 14.0399 14 13.7599 13.891 13.546C13.7951 13.3578 13.6422 13.2049 13.454 13.109C13.2532 13.0067 12.9942 13.0004 12.5 13V12.5C12.5 11.1193 11.3807 10 10 10C8.61929 10 7.5 11.1193 7.5 12.5V13C7.00583 13.0004 6.74679 13.0067 6.54601 13.109C6.35785 13.2049 6.20487 13.3578 6.10899 13.546ZM11 12.5V13H9V12.5C9 11.9477 9.44772 11.5 10 11.5C10.5523 11.5 11 11.9477 11 12.5Z" fill="#19191A"/>
</svg>
