<svg width="16" height="16" viewBox="0 0 16 16" fill="none" xmlns="http://www.w3.org/2000/svg">
<path d="M12.3088 3.90734L8.00024 2.53722L3.69165 3.90734V8.50109C3.69175 10.0961 4.7272 11.339 5.92114 12.2364C6.50648 12.6764 7.09654 13.007 7.54224 13.2276C7.72375 13.3175 7.88043 13.3867 8.00024 13.4386C8.12002 13.3867 8.27686 13.3174 8.45825 13.2276C8.90387 13.0071 9.4932 12.6762 10.0784 12.2364C11.2724 11.339 12.3087 10.0962 12.3088 8.50109V3.90734ZM13.8088 8.50109C13.8087 10.8004 12.3148 12.4322 10.9797 13.4357C10.3006 13.9461 9.62598 14.3226 9.12329 14.5714C8.87108 14.6962 8.65947 14.7902 8.50903 14.8536C8.43392 14.8853 8.37384 14.9102 8.3313 14.9269C8.31002 14.9352 8.29271 14.9418 8.28052 14.9464C8.27457 14.9487 8.26954 14.9499 8.26587 14.9513L8.26099 14.9532L8.25903 14.9542C8.13402 15 7.99897 15.0113 7.86938 14.9884L7.74146 14.9542L7.7395 14.9532L7.73462 14.9513C7.73098 14.9499 7.72592 14.9487 7.71997 14.9464C7.70778 14.9418 7.69047 14.9352 7.66919 14.9269C7.62664 14.9102 7.56671 14.8854 7.49146 14.8536C7.34101 14.7902 7.12952 14.6963 6.8772 14.5714C6.37453 14.3226 5.69989 13.9461 5.02075 13.4357C3.68566 12.4322 2.19175 10.8004 2.19165 8.50109V3.36046C2.19165 3.03393 2.40298 2.74471 2.71411 2.64562L7.77271 1.03527L7.88501 1.0089C7.99918 0.991172 8.11669 0.999911 8.22778 1.03527L13.2864 2.64562C13.5974 2.74479 13.8088 3.03401 13.8088 3.36046V8.50109Z" fill="#8F68FE"/>
<path d="M9.96973 5.71984C10.2626 5.42694 10.7374 5.42694 11.0303 5.71984C11.3232 6.01273 11.3232 6.48749 11.0303 6.78039L7.53027 10.2804C7.23738 10.5733 6.76262 10.5733 6.46973 10.2804L4.96973 8.78039C4.67683 8.48749 4.67683 8.01273 4.96973 7.71984C5.26262 7.42694 5.73738 7.42694 6.03027 7.71984L7 8.68956L9.96973 5.71984Z" fill="#8F68FE"/>
</svg>
