<svg xmlns="http://www.w3.org/2000/svg" width="20" height="20" viewBox="0 0 20 20" fill="none">
    <path fill-rule="evenodd" clip-rule="evenodd" d="M16.249 4.49715L11.749 1.95806C10.6666 1.34731 9.33338 1.34731 8.25097 1.95806L3.75097 4.49715C2.66752 5.10848 2 6.23882 2 7.46216V12.5378C2 13.7612 2.66752 14.8915 3.75097 15.5029L8.25097 18.0419C9.33338 18.6527 10.6666 18.6527 11.749 18.0419L16.249 15.5029C17.3325 14.8915 18 13.7612 18 12.5378V7.46216C18 6.23882 17.3325 5.10848 16.249 4.49715ZM9.00056 3.22878C9.61908 2.87978 10.3809 2.87978 10.9994 3.22878L15.4994 5.76787C15.5772 5.81172 15.6512 5.86025 15.7211 5.91298L10.3985 8.59325C10.1044 8.74365 9.75317 8.74153 9.46097 8.58758L4.26764 5.92152C4.3409 5.86549 4.41865 5.81408 4.50056 5.76787L9.00056 3.22878ZM3.51801 7.20002C3.5061 7.28622 3.5 7.37377 3.5 7.46216V12.5378C3.5 13.2369 3.88144 13.8828 4.50056 14.2321L9.00056 16.7712C9.05861 16.804 9.11792 16.8337 9.17826 16.8603V10.6903C9.17826 10.33 8.97568 9.99888 8.65102 9.82853L3.51801 7.20002ZM10.6783 16.9171C10.7884 16.8782 10.8959 16.8296 10.9994 16.7712L15.4994 14.2321C16.1186 13.8828 16.5 13.2369 16.5 12.5378V7.46216C16.5 7.3717 16.4936 7.28213 16.4811 7.19397L11.2177 9.83143C10.8863 9.99961 10.6783 10.3344 10.6783 10.6995V16.9171Z" fill="#19191A"/>
</svg>
