<svg width="20" height="20" viewBox="0 0 20 20" fill="none" xmlns="http://www.w3.org/2000/svg">
<path fill-rule="evenodd" clip-rule="evenodd" d="M9.76477 5.00253C9.76477 4.80371 9.99927 4.69357 10.1592 4.81451L16.7681 9.8104C16.8942 9.90572 16.8942 10.0912 16.7681 10.1865L10.1542 15.1849C9.99419 15.3058 9.75972 15.1956 9.75972 14.9968V12.0111C9.75972 11.6167 9.43051 11.2969 9.02442 11.2969C6.61641 11.2969 4.76759 12.1665 3.30664 13.3889C3.5675 12.0042 4.11494 10.935 4.84648 10.1267C5.89098 8.97256 7.37638 8.27801 9.14497 8.0048C9.50199 7.94965 9.76477 7.65062 9.76477 7.29951V5.00253ZM11.0625 3.68736C9.93528 2.83527 8.29418 3.61656 8.29418 5.00253V6.70726C6.51978 7.08211 4.92712 7.87414 3.74195 9.18368C2.41687 10.6478 1.66663 12.6866 1.66663 15.3201C1.66663 15.6216 1.86156 15.8906 2.15375 15.9923C2.44594 16.0941 2.77245 16.0067 2.96969 15.7739C4.3048 14.1981 5.96827 12.9729 8.28913 12.7586V14.9968C8.28913 16.3827 9.93002 17.164 11.0573 16.3121L17.6712 11.3137C18.5539 10.6467 18.554 9.35045 17.6714 8.68325L11.0625 3.68736Z" fill="#19191A"/>
</svg>
