<svg width="20" height="20" viewBox="0 0 20 20" fill="none" xmlns="http://www.w3.org/2000/svg">
<path fill-rule="evenodd" clip-rule="evenodd" d="M3.77804 8.1453L3.77804 8.1453C3.31381 6.94821 2.98672 6.01833 2.84116 5.42142C2.82073 5.33762 2.79961 5.25238 2.77856 5.16745C2.71449 4.90883 2.65113 4.6531 2.61 4.44986C2.58163 4.30965 2.5505 4.13303 2.53928 3.9502C2.52985 3.79658 2.52008 3.46294 2.66603 3.10343C2.85575 2.63612 3.2554 2.25895 3.79159 2.1299C4.20301 2.03088 4.55625 2.11431 4.7184 2.15945C5.05913 2.25433 5.42572 2.44468 5.72526 2.60646C6.58323 3.06983 9.91685 4.83098 12.4537 6.17117C13.6357 6.79564 14.6447 7.32871 15.1497 7.59651C15.2125 7.62982 15.2749 7.66283 15.3367 7.6955C15.748 7.91299 16.1308 8.11542 16.4086 8.29064C16.568 8.39118 16.7825 8.53699 16.9713 8.73034C17.1526 8.91606 17.4749 9.31385 17.4986 9.91178C17.5232 10.5324 17.213 10.9649 17.017 11.1779C16.8245 11.3871 16.6034 11.5387 16.4501 11.6365C16.1921 11.8011 15.8364 11.9897 15.4677 12.1852C15.3976 12.2224 15.327 12.2598 15.2565 12.2974C14.8764 12.5 14.1526 12.8866 13.2634 13.3617C10.6919 14.7354 6.73679 16.8483 5.70771 17.3864C5.38506 17.5551 5.0086 17.7452 4.67255 17.8394C4.52091 17.8819 4.15106 17.9748 3.72222 17.8655C3.13348 17.7155 2.7395 17.2746 2.58354 16.7846C2.4684 16.4229 2.50063 16.0956 2.51668 15.9592C2.53678 15.7886 2.57354 15.6209 2.60493 15.489C2.63549 15.3606 2.67295 15.2175 2.70903 15.0796L2.71643 15.0514C2.75639 14.8987 2.79821 14.7382 2.84116 14.5621C2.98472 13.9734 3.3068 13.0524 3.76409 11.8642C4.06045 11.0942 4.57675 10.4526 5.2261 9.99637C4.5843 9.54256 4.07345 8.90707 3.77804 8.1453ZM7.24019 9.23671C7.3154 9.25147 7.42031 9.27238 7.54748 9.29791C7.62728 9.31393 7.71584 9.33176 7.81132 9.35103C7.89805 9.36854 7.98074 9.38522 8.05947 9.40123C8.82614 9.55704 9.21706 9.64748 9.3024 9.78863C9.38315 9.9222 9.3826 10.0909 9.301 10.224C9.21474 10.3646 8.82326 10.4524 8.0556 10.6032C7.97683 10.6187 7.8941 10.6348 7.80733 10.6518C7.71184 10.6704 7.62305 10.6877 7.54273 10.7033C7.41762 10.7276 7.31308 10.7478 7.23584 10.7625C7.19173 10.771 7.15652 10.7776 7.13147 10.7823C6.22392 10.9506 5.47258 11.5661 5.14933 12.406C4.74541 13.4554 4.4736 14.2301 4.33389 14.7302C4.31481 14.7984 4.29819 14.8616 4.28404 14.9196C4.2832 14.9231 4.28235 14.9265 4.28151 14.93C4.23394 15.1246 4.1881 15.2997 4.1473 15.4556C3.87209 16.5072 3.82609 16.6829 5.02356 16.0568C5.12467 16.0039 5.25428 15.9357 5.40824 15.8544C5.47062 15.8215 5.537 15.7864 5.6071 15.7493C7.11384 14.9518 10.3406 13.228 12.5548 12.0451C13.4489 11.5674 14.178 11.178 14.562 10.9733C14.6565 10.9229 14.7466 10.8752 14.832 10.8298C14.8363 10.8275 14.8407 10.8252 14.845 10.8229C15.6172 10.4129 16.0122 10.1985 16.0141 9.98045C16.016 9.76463 15.6328 9.5453 14.8491 9.12925C14.8444 9.12674 14.8396 9.12422 14.8348 9.12169C14.718 9.05969 14.5924 8.99335 14.4579 8.92203C13.9589 8.6574 12.9575 8.12838 11.7817 7.50717C9.64619 6.37899 6.93517 4.94676 5.61243 4.24191C5.55464 4.21111 5.49949 4.1817 5.44716 4.15377C5.27263 4.0606 5.12941 3.98384 5.02356 3.92668C3.84516 3.29025 3.89985 3.51105 4.21232 4.77271C4.23499 4.86426 4.25902 4.96129 4.28404 5.06388C4.28492 5.06751 4.28582 5.07116 4.28673 5.07484C4.29894 5.12439 4.31289 5.17752 4.32859 5.23423C4.33034 5.24058 4.33212 5.24697 4.33392 5.25341C4.47535 5.75912 4.75135 6.54131 5.16189 7.59999C5.48628 8.43646 6.2356 9.04909 7.1402 9.21741C7.16239 9.22154 7.19621 9.22807 7.24019 9.23671Z" fill="#19191A"/>
</svg>
