<svg width="20" height="20" viewBox="0 0 20 20" fill="none" xmlns="http://www.w3.org/2000/svg">
<path fill-rule="evenodd" clip-rule="evenodd" d="M8.35 2H8.31739C7.36495 1.99999 6.60439 1.99999 5.99013 2.05018C5.36012 2.10165 4.81824 2.20963 4.32054 2.46322C3.52085 2.87068 2.87068 3.52085 2.46322 4.32054C2.20963 4.81824 2.10165 5.36012 2.05018 5.99013C1.99999 6.60439 1.99999 7.36494 2 8.31738V8.35V11.65V11.6826C1.99999 12.6351 1.99999 13.3956 2.05018 14.0099C2.10165 14.6399 2.20963 15.1818 2.46322 15.6795C2.87068 16.4791 3.52085 17.1293 4.32054 17.5368C4.81824 17.7904 5.36012 17.8984 5.99013 17.9498C6.60439 18 7.36493 18 8.31737 18H8.35H11.65H11.6826C12.6351 18 13.3956 18 14.0099 17.9498C14.6399 17.8984 15.1818 17.7904 15.6795 17.5368C16.4791 17.1293 17.1293 16.4791 17.5368 15.6795C17.7904 15.1818 17.8984 14.6399 17.9498 14.0099C18 13.3956 18 12.6351 18 11.6826V11.65V8.35V8.31737C18 7.36493 18 6.60439 17.9498 5.99013C17.8984 5.36012 17.7904 4.81824 17.5368 4.32054C17.1293 3.52085 16.4791 2.87068 15.6795 2.46322C15.1818 2.20963 14.6399 2.10165 14.0099 2.05018C13.3956 1.99999 12.6351 1.99999 11.6826 2H11.65H8.35ZM5.00153 3.79973C5.25252 3.67184 5.57503 3.58909 6.11228 3.54519C6.19253 3.53864 6.27608 3.53303 6.36339 3.52824C6.35189 3.56553 6.34613 3.60318 6.34613 3.64164C6.34613 3.99713 6.83774 4.28322 7.82096 4.85539L7.91426 4.90968C8.89748 5.48185 9.38909 5.76793 9.99998 5.76793C10.6109 5.76793 11.1025 5.48185 12.0857 4.90968L12.179 4.85539C13.1622 4.28322 13.6538 3.99713 13.6538 3.64164C13.6538 3.60317 13.6481 3.56552 13.6366 3.52824C13.7239 3.53303 13.8075 3.53864 13.8877 3.54519C14.425 3.58909 14.7475 3.67184 14.9985 3.79973C15.5159 4.06338 15.9366 4.48408 16.2003 5.00153C16.3282 5.25252 16.4109 5.57503 16.4548 6.11228C16.4994 6.65829 16.5 7.35753 16.5 8.35V11.65C16.5 12.6425 16.4994 13.3417 16.4548 13.8877C16.4109 14.425 16.3282 14.7475 16.2003 14.9985C15.9366 15.5159 15.5159 15.9366 14.9985 16.2003C14.7475 16.3282 14.425 16.4109 13.8877 16.4548C13.3417 16.4994 12.6425 16.5 11.65 16.5H8.35C7.35753 16.5 6.65829 16.4994 6.11228 16.4548C5.57503 16.4109 5.25252 16.3282 5.00153 16.2003C4.48408 15.9366 4.06338 15.5159 3.79973 14.9985C3.67184 14.7475 3.58909 14.425 3.54519 13.8877C3.50058 13.3417 3.5 12.6425 3.5 11.65V8.35C3.5 7.35753 3.50058 6.65829 3.54519 6.11228C3.58909 5.57503 3.67184 5.25252 3.79973 5.00153C4.06338 4.48408 4.48408 4.06338 5.00153 3.79973ZM7.20394 5.92144C8.19838 6.49559 8.69561 6.78266 9.00454 7.31775C9.31348 7.85285 9.31348 8.427 9.31348 9.57529V9.68424C9.31348 10.8326 9.31348 11.4067 9.00454 11.5851C8.69561 11.7634 8.19838 11.4764 7.20393 10.9022L7.10955 10.8477C6.1151 10.2736 5.61787 9.98649 5.30894 9.45142C5 8.91632 5 8.34217 5 7.19387V7.08491C5 5.93661 5 5.36246 5.30894 5.1841C5.61787 5.00574 6.11508 5.2928 7.10949 5.86691L7.20394 5.92144ZM12.7961 5.92144L12.8904 5.86695C13.8847 5.29295 14.3821 5.00575 14.6911 5.1841C15 5.36246 15 5.93661 15 7.08491V7.19387C15 8.34217 15 8.91632 14.6911 9.45142C14.3821 9.98654 13.8849 10.2736 12.8904 10.8478L12.7961 10.9022C11.8022 11.476 11.3043 11.7634 10.9954 11.5851C10.6865 11.4067 10.6865 10.8326 10.6865 9.68429V9.57532C10.6865 8.427 10.6865 7.85285 10.9954 7.31775C11.3044 6.78269 11.8017 6.49553 12.7961 5.92144Z" fill="#19191A"/>
</svg>
