<svg width="20" height="20" viewBox="0 0 20 20" fill="none" xmlns="http://www.w3.org/2000/svg">
<path fill-rule="evenodd" clip-rule="evenodd" d="M8.41418 2H11.5858C12.0409 1.99999 12.4236 1.99998 12.7398 2.02381C13.0717 2.04881 13.3839 2.10282 13.6881 2.23854C14.1595 2.44882 14.5622 2.78754 14.8502 3.21596C15.036 3.49245 15.1427 3.79071 15.2242 4.11342C15.3019 4.42083 15.3674 4.79787 15.4454 5.24627L15.9243 8H17.75C18.1642 8 18.5 8.33579 18.5 8.75C18.5 9.16421 18.1642 9.5 17.75 9.5H2.25C1.83579 9.5 1.5 9.16421 1.5 8.75C1.5 8.33579 1.83579 8 2.25 8H4.0757L4.55461 5.24628C4.63258 4.79788 4.69814 4.42084 4.77579 4.11342C4.85729 3.79071 4.96398 3.49245 5.14982 3.21596C5.43777 2.78754 5.84049 2.44882 6.3119 2.23854C6.61615 2.10282 6.92828 2.04881 7.26017 2.02381C7.57635 1.99998 7.95905 1.99999 8.41418 2ZM5.59821 8H14.4018L13.9723 5.53021C13.8884 5.04784 13.832 4.72685 13.7699 4.48073C13.71 4.24377 13.657 4.12965 13.6052 4.05271C13.4744 3.85798 13.2913 3.70401 13.077 3.60843C12.9924 3.57066 12.8708 3.53793 12.6271 3.51957C12.374 3.50049 12.0481 3.5 11.5585 3.5H8.44151C7.9519 3.5 7.626 3.50049 7.37287 3.51957C7.12915 3.53793 7.00764 3.57066 6.92297 3.60843C6.70869 3.70401 6.52564 3.85798 6.39475 4.05271C6.34304 4.12965 6.28997 4.24377 6.23012 4.48073C6.16796 4.72685 6.11163 5.04784 6.02774 5.53022L5.59821 8ZM5.5 12.5C4.39543 12.5 3.5 13.3954 3.5 14.5C3.5 15.6046 4.39543 16.5 5.5 16.5C6.60457 16.5 7.5 15.6046 7.5 14.5C7.5 13.3954 6.60457 12.5 5.5 12.5ZM2 14.5C2 12.567 3.567 11 5.5 11C6.96399 11 8.21804 11.8988 8.7404 13.1748C9.12336 13.0774 9.54962 13 9.99998 13C10.4504 13 10.8766 13.0774 11.2596 13.1748C11.782 11.8988 13.036 11 14.5 11C16.433 11 18 12.567 18 14.5C18 16.433 16.433 18 14.5 18C12.6201 18 11.0864 16.518 11.0035 14.6585C10.6515 14.5628 10.3223 14.5 9.99998 14.5C9.6777 14.5 9.34846 14.5628 8.99647 14.6585C8.91358 16.518 7.37987 18 5.5 18C3.567 18 2 16.433 2 14.5ZM14.5 12.5C13.3954 12.5 12.5 13.3954 12.5 14.5C12.5 15.6046 13.3954 16.5 14.5 16.5C15.6046 16.5 16.5 15.6046 16.5 14.5C16.5 13.3954 15.6046 12.5 14.5 12.5Z" fill="#252629"/>
</svg>
