<svg width="74" height="74" viewBox="0 0 74 74" fill="none" xmlns="http://www.w3.org/2000/svg">
<path d="M19.3441 2.59227C10.7547 4.02384 4.02384 10.7547 2.59227 19.3441L2.332 20.9057C0.556 31.5618 0.555999 42.4382 2.332 53.0943L2.59227 54.6559C4.02384 63.2453 10.7547 69.9762 19.3441 71.4077L20.9058 71.668C31.5618 73.444 42.4382 73.444 53.0942 71.668L54.6559 71.4077C63.2453 69.9762 69.9762 63.2453 71.4077 54.6559L71.668 53.0942C73.444 42.4382 73.444 31.5618 71.668 20.9058L71.4077 19.3441C69.9762 10.7547 63.2453 4.02384 54.6559 2.59227L53.0943 2.332C42.4382 0.556 31.5618 0.555999 20.9058 2.332L19.3441 2.59227Z" fill="#FFCC00" stroke="white" stroke-width="2"/>
<path d="M45.9828 20.7236C45.9828 19.5613 46.925 18.6191 48.0873 18.6191C49.2495 18.6191 50.1917 19.5613 50.1917 20.7236V53.6932C50.1917 54.8555 49.2495 55.7977 48.0873 55.7977C46.925 55.7977 45.9828 54.8555 45.9828 53.6932V20.7236ZM36.8635 20.7236C36.8635 19.5613 37.8057 18.6191 38.968 18.6191C40.1302 18.6191 41.0724 19.5613 41.0724 20.7236V53.6932C41.0724 54.8555 40.1302 55.7977 38.968 55.7977C37.8057 55.7977 36.8635 54.8555 36.8635 53.6932V20.7236ZM27.7443 20.7236C27.7443 19.5613 28.6865 18.6191 29.8487 18.6191C31.011 18.6191 31.9532 19.5613 31.9532 20.7236V53.6932C31.9532 54.8555 31.011 55.7977 29.8487 55.7977C28.6865 55.7977 27.7443 54.8555 27.7443 53.6932V20.7236ZM18.625 20.7236C18.625 19.5613 19.5672 18.6191 20.7294 18.6191C21.8917 18.6191 22.8339 19.5613 22.8339 20.7236V53.6932C22.8339 54.8555 21.8917 55.7977 20.7294 55.7977C19.5672 55.7977 18.625 54.8555 18.625 53.6932V20.7236Z" fill="white"/>
<path d="M18.625 52.9858C18.625 51.8235 19.5672 50.8813 20.7294 50.8813C21.8917 50.8813 22.8339 51.8235 22.8339 52.9858V53.6873C22.8339 54.8495 21.8917 55.7917 20.7294 55.7917C19.5672 55.7917 18.625 54.8495 18.625 53.6873V52.9858Z" fill="#FF0000"/>
<path d="M55.1016 35.4584C55.1016 34.2962 56.0438 33.354 57.206 33.354C58.3683 33.354 59.3105 34.2962 59.3105 35.4585V38.9659C59.3105 40.1281 58.3683 41.0703 57.206 41.0703C56.0438 41.0703 55.1016 40.1281 55.1016 38.9659V35.4584Z" fill="white"/>
</svg>
