<svg width="74" height="74" viewBox="0 0 74 74" fill="none" xmlns="http://www.w3.org/2000/svg">
<path d="M19.3441 2.59227C10.7547 4.02384 4.02384 10.7547 2.59227 19.3441L2.332 20.9057C0.556 31.5618 0.555999 42.4382 2.332 53.0943L2.59227 54.6559C4.02384 63.2453 10.7547 69.9762 19.3441 71.4077L20.9058 71.668C31.5618 73.444 42.4382 73.444 53.0942 71.668L54.6559 71.4077C63.2453 69.9762 69.9762 63.2453 71.4077 54.6559L71.668 53.0942C73.444 42.4382 73.444 31.5618 71.668 20.9058L71.4077 19.3441C69.9762 10.7547 63.2453 4.02384 54.6559 2.59227L53.0943 2.332C42.4382 0.556 31.5618 0.555999 20.9058 2.332L19.3441 2.59227Z" fill="#FFCC00" stroke="white" stroke-width="2"/>
<path fill-rule="evenodd" clip-rule="evenodd" d="M11.6201 40.3117H13.4393V33.1544L16.2548 39.3939C16.587 40.1494 17.0421 40.4162 17.9335 40.4162C18.8253 40.4162 19.2624 40.1494 19.5946 39.3939L22.4105 33.1544V40.3117H24.2293V33.1666C24.2293 32.4693 23.9495 32.1325 23.3719 31.9583C21.9902 31.5285 21.064 31.9001 20.6445 32.8298L17.8811 38.9874L15.2057 32.8291C14.8034 31.9001 13.8592 31.5277 12.4775 31.9575C11.8995 32.1321 11.6201 32.4685 11.6201 33.1663V40.3117ZM25.7419 34.4856H27.5599V38.4294C27.5427 38.6433 27.6288 39.1459 28.6247 39.162C29.1334 39.1696 32.5479 39.162 32.5796 39.162V34.4672H34.4023C34.4103 34.4672 34.4004 40.8694 34.4004 40.8966C34.4103 42.4758 32.4346 42.8187 31.5236 42.8451H25.7806V41.6265C25.7913 41.6265 31.5194 41.628 31.5336 41.6265C32.704 41.5028 32.5659 40.923 32.5659 40.7278V40.2524H28.7009C26.902 40.2359 25.7564 39.4536 25.7423 38.5538C25.7411 38.4707 25.7813 34.5258 25.7419 34.4863" fill="#005D7B"/>
<path fill-rule="evenodd" clip-rule="evenodd" d="M35.5117 40.3232H40.7408C41.3524 40.3232 41.9468 40.1953 42.4195 39.9745C43.2061 39.6147 43.5911 39.1263 43.5911 38.4875V37.1632C43.5911 36.64 43.1536 36.152 42.2974 35.8267C41.8419 35.6525 41.2831 35.5592 40.74 35.5592H38.5373C37.8024 35.5592 37.4526 35.3387 37.3657 34.8511C37.3474 34.7929 37.3474 34.7462 37.3474 34.688V33.8636C37.3474 33.8177 37.3474 33.7702 37.3657 33.7128C37.4526 33.3408 37.6451 33.2355 38.292 33.1781C38.3448 33.1781 38.4145 33.1666 38.4669 33.1666H43.6608V31.9575H38.5549C37.8201 31.9575 37.4362 32.0042 37.086 32.1083C36.0016 32.4455 35.5293 32.9802 35.5293 33.9095V34.9667C35.5293 35.78 36.456 36.477 38.0133 36.64C38.1879 36.6515 38.3628 36.663 38.5377 36.663H40.4262C40.4962 36.663 40.5663 36.663 40.6183 36.6749C41.1959 36.7216 41.4408 36.8257 41.6154 37.035C41.7206 37.1391 41.7551 37.244 41.7551 37.3604V38.4179C41.7551 38.5457 41.6678 38.7088 41.4929 38.8477C41.3356 38.987 41.073 39.08 40.7236 39.1034C40.6535 39.1034 40.6011 39.1149 40.5314 39.1149H35.5117V40.3232ZM54.9368 38.22C54.9368 39.4635 55.8634 40.1605 57.7347 40.3002C57.9096 40.3117 58.0845 40.3232 58.259 40.3232H62.9986V39.1149H58.2242C57.1575 39.1149 56.7549 38.8477 56.7549 38.2085V31.9575H54.9368V38.22ZM44.752 38.2835V33.9757C44.752 32.8815 45.5228 32.2174 47.0473 32.0077C47.2054 31.9851 47.3803 31.9732 47.538 31.9732H50.9899C51.1652 31.9732 51.3229 31.9851 51.499 32.008C53.0231 32.2174 53.7939 32.8815 53.7939 33.9757V38.2835C53.7939 39.1715 53.4663 39.6465 52.7119 39.9558L54.5032 41.5675H52.3912L50.9421 40.2639L49.4835 40.3557H47.538C47.1765 40.3533 46.8169 40.3025 46.469 40.2045C45.3123 39.8907 44.752 39.2848 44.752 38.2835ZM46.7147 38.1787C46.7147 38.2368 46.7323 38.295 46.7495 38.3651C46.8548 38.8657 47.3282 39.1455 48.0462 39.1455H49.6989L48.1814 37.7798H50.2926L51.6169 38.9702C51.8607 38.8412 52.0207 38.6426 52.0773 38.3884C52.0942 38.3302 52.0942 38.2721 52.0942 38.2139V34.0802C52.0942 34.0343 52.0942 33.9757 52.0773 33.9176C51.9721 33.4518 51.4986 33.1842 50.7974 33.1842H48.0462C47.2402 33.1842 46.7143 33.5333 46.7143 34.0806V38.1787H46.7147Z" fill="white"/>
</svg>
