<svg width="72" height="72" viewBox="0 0 72 72" fill="none" xmlns="http://www.w3.org/2000/svg">
<path d="M19.6818 2.70591C10.9775 4.15662 4.15662 10.9775 2.70591 19.6818C0.905194 30.4861 0.905195 41.5139 2.70591 52.3182C4.15662 61.0225 10.9775 67.8434 19.6818 69.2941C30.4861 71.0948 41.5139 71.0948 52.3182 69.2941C61.0225 67.8434 67.8434 61.0225 69.2941 52.3182C71.0948 41.5139 71.0948 30.4861 69.2941 19.6818C67.8434 10.9775 61.0225 4.15662 52.3182 2.70591C41.5139 0.905195 30.4861 0.905195 19.6818 2.70591Z" fill="#0077FF" fill-opacity="0.06" stroke="white" stroke-width="2"/>
<path d="M52.2779 31.625C51.603 31.625 51.0558 32.1721 51.0558 32.8471C51.0558 42.9035 42.9035 51.0558 32.8471 51.0558C32.1721 51.0558 31.625 51.603 31.625 52.2779C31.625 52.9529 32.1721 53.5 32.8471 53.5C44.2534 53.5 53.5 44.2534 53.5 32.8471C53.5 32.1721 52.9529 31.625 52.2779 31.625Z" fill="#005EB8"/>
<path d="M44.3822 39.5C45.5581 37.5384 46.6954 34.923 46.4716 31.2614C46.0081 23.6767 39.2899 17.9227 32.9461 18.5463C30.4626 18.7904 27.9125 20.8604 28.1391 24.5682C28.2375 26.1794 29.0087 27.1304 30.2621 27.8615C31.4551 28.5575 32.9878 28.9983 34.7253 29.498C36.8241 30.1016 39.2586 30.7796 41.1297 32.1896C43.3722 33.8795 44.9052 35.8384 44.3822 39.5Z" fill="#003B5C"/>
<path d="M20.6178 26.375C19.4419 28.2548 18.3046 30.7613 18.5284 34.2703C18.9918 41.539 25.7101 47.0532 32.0539 46.4557C34.5374 46.2217 37.0875 44.2379 36.8609 40.6847C36.7625 39.1405 35.9912 38.2292 34.7379 37.5285C33.5449 36.8616 32.0122 36.4391 30.2747 35.9603C28.1759 35.3818 25.7414 34.732 23.8703 33.3808C21.6278 31.7613 20.0948 29.884 20.6178 26.375Z" fill="#005EB8"/>
</svg>
