<svg width="74" height="74" viewBox="0 0 74 74" fill="none" xmlns="http://www.w3.org/2000/svg">
<path d="M19.3441 2.59227C10.7547 4.02384 4.02384 10.7547 2.59227 19.3441L2.332 20.9057C0.556 31.5618 0.555999 42.4382 2.332 53.0943L2.59227 54.6559C4.02384 63.2453 10.7547 69.9762 19.3441 71.4077L20.9058 71.668C31.5618 73.444 42.4382 73.444 53.0942 71.668L54.6559 71.4077C63.2453 69.9762 69.9762 63.2453 71.4077 54.6559L71.668 53.0942C73.444 42.4382 73.444 31.5618 71.668 20.9058L71.4077 19.3441C69.9762 10.7547 63.2453 4.02384 54.6559 2.59227L53.0943 2.332C42.4382 0.556 31.5618 0.555999 20.9058 2.332L19.3441 2.59227Z" fill="#0D6891" stroke="white" stroke-width="2"/>
<path d="M47.4969 49.4536V48.8804H45.1362V49.4673C45.1362 49.4673 45.1431 49.7862 45.1362 49.8899C45.1303 50.0464 45.052 50.6528 45.0124 50.7956C44.947 51.05 44.8618 51.3502 44.8162 51.5126C44.7766 51.6104 44.731 51.7082 44.6855 51.7992C44.2674 52.6209 43.3322 53.0121 42.4228 52.8488C41.0953 52.6209 40.1205 51.3698 40.3038 50.0141C40.3959 49.3362 40.5594 48.6642 40.8724 48.0588C41.4619 46.9124 42.1801 45.8364 42.9132 44.7741C43.0509 44.5726 43.567 43.8165 44.1683 42.6437C44.6604 42.8656 45.1729 43.0402 45.6989 43.165C46.3656 43.3215 46.7718 43.3607 47.0858 43.2883C47.1254 43.2756 47.4187 43.2296 47.491 43.1122C47.5167 43.0731 47.4513 42.989 47.3661 42.9694C46.3795 42.7082 45.4175 42.3825 44.6597 41.6332C45.2997 40.2325 45.9604 38.4337 46.3339 36.3874C46.6142 34.882 46.9412 33.3835 47.0135 31.8321C47.0848 30.541 47.0392 29.108 46.856 27.896C46.4835 25.3411 45.365 23.5295 43.6324 21.672C41.3697 19.2481 38.2116 18.134 34.9484 17.821C31.4959 17.4953 29.4879 18.4529 27.9573 19.7108C26.1405 21.2093 25.774 22.611 25.6432 24.6114C25.5441 26.2146 25.8453 27.1331 26.6566 28.7822C27.2451 29.9814 29.6979 32.06 30.3834 33.2006C31.0442 34.302 30.8679 34.4389 31.3384 35.6381C31.5742 36.2377 32.7769 37.2345 33.8755 37.0848C34.9682 36.9352 35.837 36.1526 36.4393 34.6277C36.6552 34.0672 36.6681 33.5322 36.7335 33.0577C36.897 31.7861 36.8583 30.7376 36.9812 29.1598C37.001 28.9837 37.0149 28.7754 36.9366 28.6776C36.7206 28.4174 36.4393 28.5279 36.3085 28.7754C36.2233 28.9319 36.2035 29.1216 36.151 29.2967C35.6547 30.9792 34.6274 33.4089 34.5818 33.5517C34.4312 33.9498 34.0528 34.7382 33.7913 34.7128C33.6526 34.6991 33.5486 34.6932 33.4703 34.4389C33.3911 34.165 33.0384 32.868 31.8556 31.4086C29.7623 28.8214 28.6122 27.5762 28.2258 25.8693C27.8078 23.9922 28.6577 21.9977 30.2725 21.0988C31.1165 20.6293 32.8749 19.925 34.7651 20.1207C37.0931 20.3691 39.6688 21.1898 41.2717 22.9495C43.1747 25.0418 44.4041 26.2273 44.4695 30.0333C44.5091 32.2684 44.0118 34.8752 43.4689 37.033C43.3966 37.2482 43.3253 37.4692 43.253 37.6903C43.0747 38.2214 42.8874 38.7496 42.6913 39.2749L42.5209 39.0265C42.2336 38.6225 41.978 38.2439 41.6838 37.8996C41.3311 37.4819 40.9705 37.033 40.5326 36.72C39.9779 36.3219 39.3815 36.224 38.8981 36.7591C38.6564 37.0261 38.4919 37.4105 38.6692 37.8468C39.1854 39.138 40.1929 40.0887 41.3044 40.9818C41.3569 41.0278 41.56 41.1637 41.7947 41.3144C41.4024 42.0832 40.9576 42.8256 40.3761 43.8096C39.539 45.2113 38.584 46.8468 38.276 47.6088C37.6944 49.0623 37.636 50.5677 37.9956 52.0868C38.1531 52.7519 38.48 53.3114 38.9506 53.8064C40.4286 55.3842 42.9657 55.7627 44.8816 55.0056C45.3432 54.8158 45.7494 54.5165 46.0654 54.1331C46.8334 53.2018 47.3166 52.0736 47.4583 50.8807C47.4712 50.7506 47.4781 50.4053 47.491 50.1051C47.491 50.0532 47.4969 50.0014 47.4969 49.9681C47.5039 49.838 47.4969 49.4595 47.4969 49.4536ZM43.6136 32.9854C43.6136 33.6564 43.0697 34.2041 42.3971 34.2041C41.7234 34.2041 41.1736 33.6564 41.1736 32.9854C41.1736 32.666 41.3021 32.3597 41.5308 32.1339C41.7595 31.9081 42.0697 31.7813 42.3931 31.7813C42.7165 31.7813 43.0267 31.9081 43.2554 32.1339C43.4841 32.3597 43.6126 32.666 43.6126 32.9854H43.6136Z" fill="white"/>
</svg>
