<svg width="20" height="20" viewBox="0 0 20 20" fill="none" xmlns="http://www.w3.org/2000/svg">
    <path fill-rule="evenodd" clip-rule="evenodd" d="M14.5 0.5H17.5C18.6046 0.5 19.5 1.39543 19.5 2.5V5.5C19.5 6.60457 18.6046 7.5 17.5 7.5H14.5C13.8975 7.5 13.3572 7.23359 12.9906 6.81216C12.8851 6.69094 12.6954 6.66857 12.5818 6.78218L11.1464 8.21755C11.0527 8.31132 11 8.43849 11 8.5711V11.3233C11 11.4278 11.0327 11.5297 11.0936 11.6147C12.9551 12.6724 13.9045 13.1856 14.2883 13.3892C14.4273 13.4629 14.582 13.5 14.7393 13.5H16.5C17.6046 13.5 18.5 14.3954 18.5 15.5V17.5C18.5 18.6046 17.6046 19.5 16.5 19.5H14.5C13.3954 19.5 12.5 18.6046 12.5 17.5V15.5C12.5 15.1834 12.5736 14.884 12.7045 14.6179C12.8007 14.4226 12.9375 14.1836 12.682 14.0097L11.0043 13.0644C10.9219 12.9961 10.8144 13.0005 10.7737 13.0943C10.3506 14.0686 9.3799 14.75 8.25 14.75H3.25C1.73122 14.75 0.5 13.5188 0.5 12V7C0.5 5.48122 1.73122 4.25 3.25 4.25H8.25C9.45904 4.25 10.4858 5.03023 10.8544 6.11465C10.8856 6.20655 11.0039 6.23876 11.0725 6.17013L12.3536 4.88912C12.4473 4.79535 12.5 4.66818 12.5 4.53557V2.5C12.5 1.39543 13.3954 0.5 14.5 0.5ZM14.5 2C14.2239 2 14 2.22386 14 2.5V5.5C14 5.77614 14.2239 6 14.5 6H17.5C17.7761 6 18 5.77614 18 5.5V2.5C18 2.22386 17.7761 2 17.5 2H14.5ZM3.25 5.75C2.55964 5.75 2 6.30964 2 7V12C2 12.6904 2.55964 13.25 3.25 13.25H8.25C8.94036 13.25 9.5 12.6904 9.5 12V7C9.5 6.30964 8.94036 5.75 8.25 5.75H3.25ZM14 15.5C14 15.2239 14.2239 15 14.5 15H16.5C16.7761 15 17 15.2239 17 15.5V17.5C17 17.7761 16.7761 18 16.5 18H14.5C14.2239 18 14 17.7761 14 17.5V15.5Z" fill="#19191A"/>
</svg>