<svg width="20" height="20" viewBox="0 0 20 20" fill="none" xmlns="http://www.w3.org/2000/svg">
<path fill-rule="evenodd" clip-rule="evenodd" d="M18 5C18 6.65685 16.6569 8 15 8C14.5985 8 14.2155 7.92115 13.8655 7.77808C13.6463 7.68847 13.3877 7.72566 13.2299 7.90219L11.648 9.67127C11.4783 9.86103 11.4783 10.148 11.6479 10.3378L13.2236 12.1003C13.3817 12.2772 13.6409 12.3142 13.8603 12.224C14.2117 12.0796 14.5966 12 15 12C16.6569 12 18 13.3431 18 15C18 16.6569 16.6569 18 15 18C13.3431 18 12 16.6569 12 15C12 14.5673 12.0916 14.1559 12.2565 13.7843C12.3455 13.5838 12.3268 13.3455 12.1803 13.1821L10.149 10.9163C10.0542 10.8105 9.91882 10.75 9.77673 10.75H8.29309C8.06495 10.75 7.86979 10.9064 7.78472 11.1181C7.34141 12.2212 6.26166 13 5 13C3.34315 13 2 11.6569 2 10C2 8.34315 3.34315 7 5 7C6.26166 7 7.34141 7.77882 7.78472 8.88193C7.8698 9.09361 8.06495 9.25 8.29309 9.25H9.77725C9.91903 9.25 10.0542 9.18981 10.149 9.0844L12.1822 6.82418C12.3294 6.6605 12.3482 6.42137 12.2586 6.22028C12.0924 5.84748 12 5.43453 12 5C12 3.34315 13.3431 2 15 2C16.6569 2 18 3.34315 18 5ZM16.5 5C16.5 5.82843 15.8284 6.5 15 6.5C14.1716 6.5 13.5 5.82843 13.5 5C13.5 4.17157 14.1716 3.5 15 3.5C15.8284 3.5 16.5 4.17157 16.5 5ZM6.5 10C6.5 10.8284 5.82843 11.5 5 11.5C4.17157 11.5 3.5 10.8284 3.5 10C3.5 9.17157 4.17157 8.5 5 8.5C5.82843 8.5 6.5 9.17157 6.5 10ZM15 16.5C15.8284 16.5 16.5 15.8284 16.5 15C16.5 14.1716 15.8284 13.5 15 13.5C14.1716 13.5 13.5 14.1716 13.5 15C13.5 15.8284 14.1716 16.5 15 16.5Z" fill="#19191A"/>
</svg>
