<svg width="32" height="32" viewBox="0 0 32 32" fill="none" xmlns="http://www.w3.org/2000/svg">
<path fill-rule="evenodd" clip-rule="evenodd" d="M1.75498 13.8682C1.84431 13.2544 1.97212 12.6511 2.13716 12.0659C3.30561 7.9245 6.30572 4.54958 10.148 2.83834C11.9687 2.02744 13.9605 1.60962 15.949 1.59998C15.9799 1.59998 16.0107 1.59998 16.0416 1.59998C19.5367 1.61677 23.0252 2.94481 25.6474 5.3153C26.6188 6.1934 27.472 7.20452 28.1748 8.31429C28.1992 8.35288 28.1994 8.35265 28.2236 8.39147C29.0343 9.69579 29.6425 11.1371 30.0003 12.6241C30.1061 13.0636 30.1899 13.5086 30.2543 13.9564C30.2543 13.9564 30.3631 14.7076 30.3631 14.9977C30.375 15.1592 30.3852 15.3303 30.391 15.4949C30.3927 15.5422 30.3931 15.5422 30.3943 15.5896C30.4019 15.8662 30.4019 16.1427 30.3943 16.4196C30.3931 16.4671 30.3927 16.467 30.391 16.5143C30.3772 16.91 30.3481 17.305 30.3011 17.6981C30.3011 17.6981 30.2075 18.4266 30.0978 18.9505C29.9915 19.459 29.8592 19.96 29.6979 20.4556C28.0815 25.4232 23.6293 29.3091 18.4534 30.1998C13.7708 31.0057 8.7567 29.3459 5.48087 25.847C3.97463 24.2383 2.85078 22.3187 2.20026 20.159C2.14056 19.9607 2.08495 19.7605 2.03376 19.5591C2.02229 19.5142 2.02206 19.5143 2.01094 19.4692C1.65566 18.0229 1.53409 16.504 1.63329 15.0174C1.63329 15.0174 1.60998 15.5451 1.60805 15.5251L1.63329 15.0174C1.66441 14.5511 1.75498 13.8682 1.75498 13.8682ZM5.77916 20.6309C6.17144 21.5089 6.67667 22.3386 7.29006 23.0901C9.77429 26.133 13.9298 27.7531 17.9145 27.0677C20.3802 26.6435 22.6724 25.3588 24.3514 23.4985C24.6754 23.1395 24.6417 23.163 24.7205 23.0656C25.322 22.3222 25.8256 21.5135 26.2199 20.6478C25.54 21.0924 24.8192 21.4815 24.0834 21.8224C18.36 24.4742 11.2751 24.2091 5.86691 20.6884C5.83763 20.6694 5.80833 20.6502 5.77916 20.6309ZM25.8895 10.7019C24.9638 11.7591 23.6077 12.4681 22.2514 12.953C19.3202 14.0009 16.1028 14.1805 13.0402 13.7446C10.8375 13.431 8.60607 12.8167 6.84738 11.39C6.59857 11.1881 6.36247 10.9667 6.1476 10.7267C5.77064 11.4166 5.42831 12.1531 5.24341 12.7668C5.19687 12.9214 5.15374 13.0769 5.1139 13.2335C4.97451 13.7815 4.87928 14.3405 4.82707 14.9043C5.04091 15.9402 5.99733 16.832 6.89915 17.5275C11.5771 21.1354 18.735 21.3454 23.8699 18.3549C25.0422 17.6723 26.1628 16.8095 26.8456 15.6701C26.9849 15.4377 27.1042 15.1876 27.1692 14.9253C27.023 13.4407 26.5741 11.9848 25.8895 10.7019ZM23.8079 7.95401C21.7737 6.00157 18.9956 4.81088 16.1045 4.77864C16.056 4.7783 16.0074 4.77819 15.959 4.77819C13.097 4.79203 10.2492 5.9682 8.19483 7.93721C8.28597 8.65265 8.9711 9.07025 9.59063 9.41236C11.3423 10.3797 13.4094 10.7032 15.4469 10.7636C17.7423 10.8314 20.1048 10.5656 22.1398 9.55663C22.8099 9.22439 23.5609 8.82541 23.7852 8.1463C23.8046 8.08761 23.7997 8.0598 23.8079 7.95401Z" fill="black"/>
</svg>
