<svg width="28" height="28" viewBox="0 0 28 28" fill="none" xmlns="http://www.w3.org/2000/svg">
<path d="M11.4715 4.93758C13.3542 4.28076 15.3956 4.21544 17.3171 4.75053C18.8904 5.18869 20.3208 6.01194 21.4798 7.13718H20.2344C19.6605 7.13718 19.1953 7.59806 19.1953 8.16659C19.1953 8.73511 19.6605 9.19601 20.2344 9.19601C20.5969 9.19601 20.9592 9.19591 21.3215 9.19582C22.0505 9.19566 22.7795 9.19549 23.5084 9.19601C23.588 9.19606 23.7005 9.19615 23.8023 9.18791C23.9242 9.17803 24.119 9.15137 24.3269 9.0464C24.5876 8.91482 24.7995 8.70484 24.9324 8.44657C25.0384 8.24058 25.0652 8.04764 25.0752 7.92677C25.0836 7.82592 25.0834 7.71447 25.0834 7.63572C25.0829 6.91447 25.083 6.1932 25.0832 5.47195C25.0833 5.1134 25.0834 4.75483 25.0834 4.39627C25.0834 3.82773 24.6182 3.36685 24.0444 3.36685C23.4705 3.36685 23.0053 3.82773 23.0053 4.39627V5.73607C21.5853 4.3341 19.8222 3.30954 17.8793 2.76852C15.5461 2.11875 13.0673 2.19808 10.7812 2.99566C8.49517 3.79324 6.51317 5.27022 5.10573 7.22506C3.69829 9.17989 2.93396 11.5174 2.91704 13.9185C2.90011 16.3196 3.63143 18.6674 5.01118 20.6416C6.39094 22.6156 8.35192 24.1199 10.6265 24.949C12.9011 25.7782 15.3786 25.8917 17.7208 25.2743C19.5728 24.7861 21.2689 23.8596 22.6679 22.5839C23.0901 22.1989 23.1173 21.5477 22.7286 21.1293C22.34 20.711 21.6827 20.6841 21.2605 21.0691C20.1084 22.1197 18.7116 22.8827 17.1865 23.2848C15.2575 23.7931 13.2173 23.6996 11.3441 23.0168C9.4709 22.334 7.85597 21.0952 6.7197 19.4695C5.58343 17.8437 4.98117 15.9103 4.99511 13.9329C5.00904 11.9555 5.6385 10.0305 6.79756 8.42062C7.95663 6.81076 9.58886 5.59442 11.4715 4.93758Z" fill="#252629"/>
</svg>
