<svg width="24" height="24" viewBox="0 0 24 24" fill="none" xmlns="http://www.w3.org/2000/svg">
<path fill-rule="evenodd" clip-rule="evenodd" d="M15.3843 3.5H18.4537C19.5838 3.5 20.5 4.41615 20.5 5.54629V13.7314C20.5 14.8616 19.5838 15.7777 18.4537 15.7777H15.7777V18.4537C15.7777 19.5838 14.8616 20.5 13.7314 20.5H5.54629C4.41615 20.5 3.5 19.5838 3.5 18.4537V16.4074L3.5005 10.2229C3.52479 9.11386 4.43142 8.22229 5.54629 8.22229H8.22279V5.50061C8.24707 4.39157 9.15371 3.5 10.2686 3.5H13.8496H15.3843ZM8.22279 9.757H5.54629C5.26375 9.757 5.03471 9.98604 5.03471 10.2686V18.4537C5.03471 18.7362 5.26375 18.9653 5.54629 18.9653H13.7314C14.014 18.9653 14.243 18.7362 14.243 18.4537V15.7777H10.2686C9.13844 15.7777 8.22229 14.8616 8.22229 13.7314V11.6851L8.22279 9.757ZM14.243 14.243H10.2686C9.98604 14.243 9.757 14.014 9.757 13.7314V9.757H13.7314C14.014 9.757 14.243 9.98604 14.243 10.2686V14.243ZM15.7777 14.243V10.2686C15.7777 9.13844 14.8616 8.22229 13.7314 8.22229H10.662H9.757V5.54629C9.757 5.26375 9.98604 5.03471 10.2686 5.03471H18.4537C18.7362 5.03471 18.9653 5.26375 18.9653 5.54629V13.7314C18.9653 14.014 18.7362 14.243 18.4537 14.243H15.7777Z" fill="#252629"/>
</svg>
