<svg width="20" height="16" viewBox="0 0 20 16" fill="none" xmlns="http://www.w3.org/2000/svg">
    <path d="M18.5 8C18.5 9.14575 17.9495 10.1629 17.0985 10.8014C16.7228 11.0833 16.5606 11.6224 16.8357 12.0032C17.0411 12.2877 17.4251 12.3876 17.7194 12.1965C19.0921 11.3052 20 9.7586 20 8C20 5.23859 17.7614 3 15 3C14.9215 3 14.8434 3.00181 14.7658 3.00539C14.556 3.01507 14.3565 2.90757 14.2504 2.72632C13.2961 1.09542 11.526 0 9.5 0C7.1033 0 5.06464 1.533 4.3111 3.67193C4.24062 3.872 4.06202 4.01602 3.85207 4.04629C1.67378 4.36041 0 6.23473 0 8.5C0 10.1809 0.921605 11.6465 2.28708 12.4192C2.58848 12.5897 2.95964 12.4646 3.14319 12.1709C3.39345 11.7705 3.1865 11.239 2.79788 10.9707C2.01382 10.4295 1.5 9.52478 1.5 8.5C1.5 6.90994 2.73788 5.60782 4.30142 5.50641L4.65469 5.4835C5.07805 5.45605 5.43801 5.16445 5.55273 4.756L5.64846 4.41516C6.12123 2.73193 7.66869 1.5 9.5 1.5C11.062 1.5 12.4176 2.39505 13.077 3.70715L13.2341 4.01962C13.4227 4.39489 13.8257 4.61232 14.2429 4.5639L14.5902 4.52359C14.7241 4.50806 14.8608 4.5 15 4.5C16.933 4.5 18.5 6.06702 18.5 8Z" fill="#19191A"/>
    <path fill-rule="evenodd" clip-rule="evenodd" d="M13.5345 16C14.0157 16 14.3608 15.5361 14.2226 15.0752L11.7138 6.71265C11.5869 6.28967 11.1976 6 10.756 6H9.24403C8.80242 6 8.4131 6.28967 8.2862 6.71265L5.77744 15.0752C5.63916 15.5361 5.9843 16 6.46551 16C6.78275 16 7.06243 15.7919 7.15358 15.4881L7.69655 13.6782C7.72828 13.5724 7.82561 13.5 7.93601 13.5H12.064C12.1744 13.5 12.2717 13.5724 12.3034 13.6782L12.8464 15.4881C12.9376 15.7919 13.2173 16 13.5345 16ZM10.5034 7.67816C10.4717 7.57242 10.3744 7.5 10.264 7.5H9.73601C9.62561 7.5 9.52828 7.57242 9.49655 7.67816L8.29655 11.6782C8.24843 11.8386 8.36854 12 8.53601 12H11.464C11.6315 12 11.7516 11.8386 11.7034 11.6782L10.5034 7.67816Z" fill="#19191A"/>
</svg>
