<svg width="20" height="20" viewBox="0 0 20 20" fill="none" xmlns="http://www.w3.org/2000/svg">
    <path fill-rule="evenodd" clip-rule="evenodd" d="M10.3883 3.56547C10.1439 3.44068 9.85608 3.44068 9.61171 3.56547C9.56604 3.58879 9.43396 3.69087 9.19487 4.13831C8.96549 4.56757 8.7042 5.17935 8.33039 6.05716C8.17922 6.41215 8.02249 6.76525 7.87682 7.12261C7.85759 7.16979 7.79719 7.31798 7.69222 7.44097C7.60588 7.54214 7.50011 7.62421 7.38143 7.68211C7.22351 7.75915 7.05122 7.77573 7.02 7.78022L6.3781 7.8725C5.44369 8.00684 4.79198 8.10126 4.32253 8.2129C3.83289 8.32934 3.70081 8.43242 3.66681 8.47095C3.48366 8.67842 3.40753 8.96189 3.46146 9.23548C3.47148 9.28628 3.53364 9.44353 3.89684 9.79781C4.24508 10.1375 4.75877 10.5569 5.49582 11.1574L5.73004 11.3482C5.75611 11.3695 5.9061 11.4799 6.00675 11.6395C6.08229 11.7593 6.13134 11.8944 6.1505 12.0354C6.17382 12.2071 6.13969 12.3749 6.12886 12.4281C6.10184 12.5609 6.07903 12.6947 6.0542 12.828C5.84879 13.9306 5.70426 14.7098 5.64661 15.2817C5.58526 15.8903 5.64935 16.0686 5.67147 16.1056C5.82198 16.357 6.08559 16.5155 6.37436 16.5281C6.4168 16.5299 6.60095 16.5008 7.094 16.1517C7.55735 15.8236 8.15674 15.3178 9.00437 14.6012C9.10334 14.5175 9.20236 14.4339 9.30126 14.3502C9.33694 14.32 9.38928 14.2757 9.44022 14.2388C9.50272 14.1935 9.60215 14.1296 9.73664 14.0906C9.9088 14.0408 10.0912 14.0408 10.2634 14.0906C10.3979 14.1296 10.4973 14.1935 10.5598 14.2388C10.6107 14.2757 10.6631 14.32 10.6987 14.3502L10.9956 14.6012C11.8433 15.3178 12.4426 15.8236 12.906 16.1517C13.3991 16.5008 13.5832 16.5299 13.6256 16.5281C13.9144 16.5155 14.178 16.357 14.3285 16.1056C14.3506 16.0686 14.4147 15.8903 14.3534 15.2817C14.2957 14.7098 14.1512 13.9306 13.9458 12.828C13.921 12.6947 13.8982 12.5609 13.8711 12.4281C13.8603 12.3749 13.8262 12.2071 13.8495 12.0354C13.8687 11.8944 13.9177 11.7593 13.9932 11.6395C14.0939 11.4799 14.2439 11.3695 14.27 11.3482L14.5042 11.1574C15.2412 10.5569 15.7549 10.1375 16.1032 9.79781C16.4664 9.44353 16.5285 9.28628 16.5385 9.23548C16.5925 8.96189 16.5163 8.67842 16.3332 8.47095C16.2992 8.43242 16.1671 8.32934 15.6775 8.2129C15.208 8.10126 14.5563 8.00685 13.6219 7.8725C13.4043 7.84122 13.1869 7.80654 12.9688 7.77875C12.9191 7.77241 12.7628 7.75249 12.6186 7.68211C12.4999 7.62421 12.3941 7.54214 12.3078 7.44097C12.1929 7.30634 12.1314 7.14151 12.1188 7.11204L11.6696 6.05716C11.2958 5.17935 11.0345 4.56757 10.8051 4.13831C10.566 3.69087 10.434 3.58879 10.3883 3.56547ZM8.96455 2.24958C9.61623 1.91681 10.3838 1.91681 11.0354 2.24958C11.5058 2.48975 11.8157 2.95161 12.0737 3.43444C12.3378 3.9286 12.6244 4.60158 12.9799 5.43645L13.3688 6.34965L13.8606 6.42036C14.7495 6.54815 15.4658 6.65112 16.0058 6.77954C16.533 6.90492 17.0544 7.08704 17.4071 7.48662C17.8955 8.03988 18.0985 8.7958 17.9547 9.52538C17.8508 10.0523 17.4931 10.4796 17.102 10.8611C16.7014 11.2518 16.1365 11.712 15.4353 12.2833L15.3305 12.3687L15.3718 12.5907C15.5688 13.6477 15.7256 14.4891 15.7903 15.1313C15.8521 15.7444 15.8583 16.3766 15.5617 16.872C15.1604 17.5425 14.4574 17.9651 13.6874 17.9986C13.1184 18.0234 12.5784 17.7121 12.0817 17.3604C11.5614 16.992 10.9146 16.4451 10.1019 15.7581L10 15.672L9.89813 15.7581C9.08545 16.4451 8.43858 16.992 7.91828 17.3604C7.42161 17.7121 6.88162 18.0234 6.31264 17.9986C5.54259 17.9651 4.83962 17.5425 4.43828 16.872C4.14175 16.3766 4.14791 15.7444 4.20971 15.1313C4.27445 14.4891 4.43121 13.6477 4.62817 12.5906L4.66951 12.3687L4.56469 12.2833C3.86353 11.7121 3.29856 11.2518 2.898 10.8611C2.50689 10.4796 2.14918 10.0523 2.0453 9.52538C1.90146 8.7958 2.10449 8.03988 2.59288 7.48662C2.9456 7.08704 3.46699 6.90492 3.99424 6.77954C4.53423 6.65112 5.25049 6.54815 6.1394 6.42036L6.63125 6.34965L7.02013 5.43643C7.37565 4.60157 7.66222 3.9286 7.92627 3.43444C8.18428 2.95161 8.49424 2.48975 8.96455 2.24958Z" fill="#19191A"/>
</svg>
