<svg width="24" height="24" viewBox="0 0 24 24" fill="none" xmlns="http://www.w3.org/2000/svg">
<path d="M15.1245 10.7185C15.4034 10.4396 15.4034 9.98733 15.1245 9.70838C14.8455 9.42944 14.3932 9.42944 14.1143 9.70838L11.0479 12.7747L9.88635 11.6131C9.60741 11.3342 9.15515 11.3342 8.8762 11.6131C8.59726 11.8921 8.59726 12.3444 8.8762 12.6233L10.5429 14.29C10.8218 14.5689 11.2741 14.5689 11.553 14.29L15.1245 10.7185Z" fill="#252629"/>
<path fill-rule="evenodd" clip-rule="evenodd" d="M12.154 4.50753C12.0519 4.49489 11.9487 4.49489 11.8466 4.50753C11.7475 4.51981 11.6436 4.5498 11.2573 4.67275L6.59254 6.15739C6.38253 6.22423 6.26136 6.26324 6.17255 6.29846C6.11808 6.32007 6.09644 6.33255 6.09083 6.33615C6.05889 6.36261 6.03403 6.39661 6.01851 6.43507C6.01678 6.44151 6.01144 6.46591 6.00737 6.52437C6.00074 6.61968 6.00032 6.74698 6.00032 6.96736V12.6574C6.00032 14.5141 6.99321 16.0114 8.26241 17.1702C9.5314 18.3288 11.0029 19.0777 11.7686 19.4203C11.8577 19.4601 11.8942 19.4761 11.9227 19.4866C11.9696 19.504 12.0306 19.5042 12.0779 19.4866C12.1064 19.4761 12.143 19.4601 12.232 19.4203C12.9978 19.0777 14.4692 18.3288 15.7382 17.1702C17.0074 16.0114 18.0003 14.5141 18.0003 12.6574V6.96736C18.0003 6.74698 17.9999 6.61968 17.9933 6.52437C17.9892 6.46593 17.9839 6.44152 17.9821 6.43507C17.9666 6.39661 17.9418 6.36261 17.9098 6.33615C17.9042 6.33255 17.8826 6.32007 17.8281 6.29846C17.7393 6.26324 17.6181 6.22423 17.4081 6.15739L12.7434 4.67275C12.3571 4.5498 12.2531 4.51981 12.154 4.50753ZM17.9114 6.33725L17.9098 6.33615L17.9114 6.33725ZM17.9816 6.43323L17.9821 6.43507L17.9816 6.43323ZM6.01907 6.43323L6.01851 6.43507L6.01907 6.43323ZM6.08925 6.33725L6.09083 6.33615L6.08925 6.33725ZM11.6622 3.01891C11.8868 2.99109 12.1139 2.99109 12.3384 3.01891C12.6073 3.05222 12.8638 3.13693 13.1983 3.2434L17.863 4.72804C17.8897 4.73653 17.9166 4.74501 17.9436 4.75353C18.2597 4.85314 18.5963 4.95922 18.8601 5.17557C19.0891 5.36341 19.2667 5.60631 19.3763 5.88151C19.5024 6.19848 19.5014 6.55142 19.5005 6.88282C19.5004 6.91117 19.5003 6.93936 19.5003 6.96736V12.6574C19.5003 15.097 18.1867 16.9658 16.7496 18.2779C15.3123 19.5902 13.6778 20.4168 12.8446 20.7895C12.6921 20.8577 12.5265 20.9358 12.2934 20.9753C12.1177 21.0052 11.8829 21.0052 11.7073 20.9753C11.4742 20.9358 11.3085 20.8577 11.1561 20.7895C10.3228 20.4168 8.6883 19.5902 7.25103 18.2779C5.81395 16.9658 4.50032 15.097 4.50032 12.6574V6.96736C4.50032 6.93936 4.50024 6.91117 4.50016 6.88282C4.49922 6.55142 4.49822 6.19848 4.62438 5.88151C4.73392 5.60631 4.91151 5.36341 5.14053 5.17557C5.40432 4.95922 5.74094 4.85313 6.05702 4.75353C6.08405 4.745 6.11094 4.73653 6.13762 4.72804L10.8024 3.2434C11.1369 3.13693 11.3933 3.05222 11.6622 3.01891Z" fill="#252629"/>
</svg>
