<svg width="28" height="28" viewBox="0 0 28 28" fill="none" xmlns="http://www.w3.org/2000/svg">
<path d="M6.29289 6.29289C6.68342 5.90237 7.31658 5.90237 7.70711 6.29289L14 12.585L20.2929 6.29289C20.6534 5.93241 21.2206 5.90468 21.6129 6.2097L21.7071 6.29289C22.0976 6.68342 22.0976 7.31658 21.7071 7.70711L15.415 14L21.7071 20.2929C22.0676 20.6534 22.0953 21.2206 21.7903 21.6129L21.7071 21.7071C21.3166 22.0976 20.6834 22.0976 20.2929 21.7071L14 15.415L7.70711 21.7071C7.34662 22.0676 6.77939 22.0953 6.3871 21.7903L6.29289 21.7071C5.90237 21.3166 5.90237 20.6834 6.29289 20.2929L12.585 14L6.29289 7.70711C5.93241 7.34662 5.90468 6.77939 6.2097 6.3871L6.29289 6.29289Z" fill="#818c99"/>
</svg>
