<svg width="20" height="20" viewBox="0 0 20 20" fill="none" xmlns="http://www.w3.org/2000/svg">
    <path d="M17 10C17 9.36707 16.4673 8.59204 15.1445 7.93066C13.9466 7.33175 12.2742 6.92807 10.3818 6.87988L10 6.875C7.95117 6.875 6.13335 7.29177 4.85547 7.93066C3.53272 8.59204 3 9.36707 3 10L3.00586 10.1201C3.06912 10.7292 3.61526 11.4492 4.85547 12.0693C6.13335 12.7082 7.95117 13.125 10 13.125L10.3818 13.1201C12.2742 13.0719 13.9466 12.6683 15.1445 12.0693C16.4673 11.408 17 10.6329 17 10ZM16.2334 13.1836C16.0969 13.2626 15.958 13.3399 15.8154 13.4111C14.2884 14.1746 12.2312 14.625 10 14.625C7.76879 14.625 5.71162 14.1746 4.18457 13.4111C4.04179 13.3397 3.90239 13.2627 3.76562 13.1836C4.92469 15.4488 7.2807 17 10 17L10.3604 16.9912C12.9263 16.8611 15.1258 15.3479 16.2334 13.1836ZM10 3C7.281 3 4.92483 4.55062 3.76562 6.81543C3.90225 6.73638 4.04194 6.66018 4.18457 6.58887C5.71162 5.82538 7.76879 5.375 10 5.375C12.2312 5.375 14.2884 5.82538 15.8154 6.58887C15.9578 6.66006 16.097 6.73653 16.2334 6.81543C15.0741 4.55083 12.7188 3 10 3ZM18.5 10C18.5 14.6944 14.6944 18.5 10 18.5C5.30558 18.5 1.5 14.6944 1.5 10C1.5 5.30558 5.30558 1.5 10 1.5C14.6944 1.5 18.5 5.30558 18.5 10Z" fill="#252629"/>
</svg>
