<svg width="20" height="20" viewBox="0 0 20 20" fill="none" xmlns="http://www.w3.org/2000/svg">
<path fill-rule="evenodd" clip-rule="evenodd" d="M2 10C2 5.58172 5.58172 2 10 2C14.4183 2 18 5.58172 18 10V13.75C18 15.2688 16.7688 16.5 15.25 16.5C13.7312 16.5 12.5 15.2688 12.5 13.75V11.25C12.5 9.73122 13.7312 8.5 15.25 8.5C15.6521 8.5 16.034 8.58629 16.3782 8.74135C15.7921 5.75386 13.1592 3.5 10 3.5C6.84076 3.5 4.20794 5.75386 3.62177 8.74135C3.96602 8.58629 4.34793 8.5 4.75 8.5C6.26878 8.5 7.5 9.73122 7.5 11.25V13.75C7.5 15.2688 6.26878 16.5 4.75 16.5C3.23122 16.5 2 15.2688 2 13.75V10ZM3.5 11.25V13.75C3.5 14.4404 4.05964 15 4.75 15C5.44036 15 6 14.4404 6 13.75V11.25C6 10.5596 5.44036 10 4.75 10C4.05964 10 3.5 10.5596 3.5 11.25ZM16.5 11.25C16.5 10.5596 15.9404 10 15.25 10C14.5596 10 14 10.5596 14 11.25V13.75C14 14.4404 14.5596 15 15.25 15C15.9404 15 16.5 14.4404 16.5 13.75V11.25Z" fill="#19191A"/>
<path fill-rule="evenodd" clip-rule="evenodd" d="M3.8004 15.7859L3.77602 15.6958L5.22398 15.3041L5.24835 15.3942C5.52382 16.4125 5.6181 16.708 5.77764 16.9152C5.93799 17.1234 6.15023 17.2858 6.39311 17.3862C6.63479 17.4862 6.94458 17.5 7.99946 17.5H8.28508L8.35668 17.3568C8.36188 17.3464 8.36746 17.3351 8.37344 17.3229C8.43171 17.2044 8.52778 17.009 8.68298 16.857C8.81535 16.7273 8.97488 16.6287 9.15004 16.5683C9.35541 16.4975 9.57313 16.4989 9.70521 16.4998C9.71876 16.4999 9.73141 16.5 9.74305 16.5H10.75C11.4403 16.5 12 17.0597 12 17.75C12 18.4403 11.4403 19 10.75 19H7.99946C7.9515 19 7.9042 19.0001 7.85754 19.0001C7.01053 19.0008 6.37358 19.0013 5.82008 18.7725C5.33432 18.5717 4.90983 18.2468 4.58915 17.8303C4.22375 17.3558 4.05791 16.7408 3.83739 15.923C3.82524 15.8779 3.81292 15.8322 3.8004 15.7859Z" fill="#19191A"/>
</svg>
