<svg class="ButtonIcon__icon--N95hN" width="1em" height="1em" fill="currentColor" xmlns="http://www.w3.org/2000/svg" viewBox="0 0 20 20"><path fill-rule="evenodd" d="M13.044 2.725a2.192 2.192 0 0 1 1.552-.642c.561 0 1.124.215 1.552.642l1.126 1.124c.428.428.643.99.643 1.55a2.187 2.187 0 0 1-.643 1.55l-.932.932-9.075 9.082a3.261 3.261 0 0 1-2.304.954h-1.89a.99.99 0 0 1-.99-.99v-1.873a3.253 3.253 0 0 1 .955-2.315l8.039-8.048 1.967-1.966Zm2.262 4.092.918-.916a.704.704 0 0 0 .207-.501.704.704 0 0 0-.207-.502l-1.126-1.124a.706.706 0 0 0-.502-.207.705.705 0 0 0-.501.207l-.918.917 2.13 2.126Zm-3.193-1.063-8.025 8.034a1.77 1.77 0 0 0-.52 1.253v1.095a.297.297 0 0 0 .297.297h1.098c.47 0 .921-.187 1.254-.519l8.025-8.033-2.13-2.127Z" clip-rule="evenodd"></path></svg>