<svg width="20" height="18" viewBox="0 0 20 18" fill="none" xmlns="http://www.w3.org/2000/svg">
    <path d="M18.5 8C18.5 9.14575 17.9495 10.1629 17.0985 10.8014C16.7228 11.0833 16.5606 11.6224 16.8357 12.0032C17.0411 12.2877 17.4251 12.3876 17.7194 12.1965C19.0921 11.3052 20 9.7586 20 8C20 5.23859 17.7614 3 15 3C14.9215 3 14.8434 3.00181 14.7658 3.00539C14.556 3.01507 14.3565 2.90757 14.2504 2.72632C13.2961 1.09542 11.526 0 9.5 0C7.1033 0 5.06464 1.533 4.3111 3.67193C4.24062 3.872 4.06202 4.01602 3.85207 4.04629C1.67378 4.36041 0 6.23473 0 8.5C0 10.1809 0.921605 11.6465 2.28708 12.4192C2.58848 12.5897 2.95964 12.4646 3.14319 12.1709C3.39345 11.7705 3.1865 11.239 2.79788 10.9707C2.01382 10.4295 1.5 9.52478 1.5 8.5C1.5 6.90994 2.73788 5.60782 4.30142 5.50641L4.65469 5.4835C5.07805 5.45605 5.43801 5.16445 5.55273 4.756L5.64846 4.41516C6.12123 2.73193 7.66869 1.5 9.5 1.5C11.062 1.5 12.4176 2.39505 13.077 3.70715L13.2341 4.01962C13.4227 4.39489 13.8257 4.61232 14.2429 4.5639L14.5902 4.52359C14.7241 4.50806 14.8608 4.5 15 4.5C16.933 4.5 18.5 6.06702 18.5 8Z" fill="#19191A"/>
    <path fill-rule="evenodd" clip-rule="evenodd" d="M5.66992 9.07735C5.66992 8.72008 5.86052 8.38996 6.16992 8.21132L9.50005 6.28868C9.80945 6.11004 10.1906 6.11004 10.5 6.28867L13.8302 8.21132C14.1396 8.38996 14.3302 8.72009 14.3302 9.07735V14.9226C14.3302 15.2799 14.1396 15.61 13.8302 15.7887L10.5 17.7113C10.1906 17.89 9.80945 17.89 9.50005 17.7113L6.16992 15.7887C5.86052 15.61 5.66992 15.2799 5.66992 14.9226V9.07735ZM7.16992 9.6547C7.16992 9.47607 7.26522 9.311 7.41992 9.22169L9.75005 7.87639C9.90475 7.78707 10.0953 7.78707 10.25 7.87639L12.7052 9.29386C12.7825 9.33852 12.8302 9.42105 12.8302 9.51036V10.4896C12.8302 10.579 12.7825 10.6615 12.7052 10.7061L10.25 12.1236C10.0953 12.2129 9.90475 12.2129 9.75005 12.1236L7.41992 10.7783C7.26522 10.689 7.16992 10.5239 7.16992 10.3453V9.6547ZM12.4552 12.5825C12.6218 12.4863 12.8302 12.6066 12.8302 12.799V14.3453C12.8302 14.5239 12.7349 14.689 12.5802 14.7783L10.25 16.1236C10.0953 16.2129 9.90475 16.2129 9.75005 16.1236L7.41992 14.7783C7.26522 14.689 7.16992 14.5239 7.16992 14.3453V12.799C7.16992 12.6066 7.37826 12.4863 7.54492 12.5825L9.75005 13.8557C9.90475 13.945 10.0953 13.945 10.25 13.8557L12.4552 12.5825Z" fill="#19191A"/>
</svg>