<svg width="74" height="74" viewBox="0 0 74 74" fill="none" xmlns="http://www.w3.org/2000/svg">
<path d="M19.3441 2.59227C10.7547 4.02384 4.02384 10.7547 2.59227 19.3441L2.332 20.9057C0.556 31.5618 0.555999 42.4382 2.332 53.0943L2.59227 54.6559C4.02384 63.2453 10.7547 69.9762 19.3441 71.4077L20.9058 71.668C31.5618 73.444 42.4382 73.444 53.0942 71.668L54.6559 71.4077C63.2453 69.9762 69.9762 63.2453 71.4077 54.6559L71.668 53.0942C73.444 42.4382 73.444 31.5618 71.668 20.9058L71.4077 19.3441C69.9762 10.7547 63.2453 4.02384 54.6559 2.59227L53.0943 2.332C42.4382 0.556 31.5618 0.555999 20.9058 2.332L19.3441 2.59227Z" fill="#00684A" stroke="white" stroke-width="2"/>
<g clip-path="url(#clip0_9284_11059)">
<path d="M41.0924 19.5296C38.9511 17.1768 37.1073 14.7872 36.7306 14.2908C36.691 14.2541 36.6315 14.2541 36.5918 14.2908C36.2151 14.7872 34.3713 17.1768 32.23 19.5296C13.8511 41.2383 35.1247 55.8885 35.1247 55.8885L35.3031 55.9988C35.4617 58.2598 35.8582 61.5133 35.8582 61.5133H36.6513H37.4443C37.4443 61.5133 37.8409 58.2781 37.9995 55.9988L38.1779 55.8702C38.1977 55.8702 59.4713 41.2383 41.0924 19.5296ZM36.6513 55.5576C36.6513 55.5576 35.6996 54.804 35.4419 54.4179V54.3813L36.5918 30.7424C36.5918 30.6689 36.7108 30.6689 36.7108 30.7424L37.8607 54.3813V54.4179C37.6029 54.804 36.6513 55.5576 36.6513 55.5576Z" fill="white"/>
</g>
<defs>
<clipPath id="clip0_9284_11059">
<rect width="23.625" height="47.25" fill="white" transform="translate(24.75 14.2568)"/>
</clipPath>
</defs>
</svg>
