<svg width="74" height="74" viewBox="0 0 74 74" fill="none" xmlns="http://www.w3.org/2000/svg">
<path d="M19.3441 2.59227C10.7547 4.02384 4.02384 10.7547 2.59227 19.3441L2.332 20.9057C0.556 31.5618 0.555999 42.4382 2.332 53.0943L2.59227 54.6559C4.02384 63.2453 10.7547 69.9762 19.3441 71.4077L20.9058 71.668C31.5618 73.444 42.4382 73.444 53.0942 71.668L54.6559 71.4077C63.2453 69.9762 69.9762 63.2453 71.4077 54.6559L71.668 53.0942C73.444 42.4382 73.444 31.5618 71.668 20.9058L71.4077 19.3441C69.9762 10.7547 63.2453 4.02384 54.6559 2.59227L53.0943 2.332C42.4382 0.556 31.5618 0.555999 20.9058 2.332L19.3441 2.59227Z" fill="#D82C20" stroke="white" stroke-width="2"/>
<path d="M56.1055 46.4944C53.9265 47.6298 42.6395 52.2708 40.2363 53.5238C37.833 54.776 36.4985 54.765 34.6002 53.857C32.7019 52.9499 20.6888 48.0979 18.5255 47.0637C17.4435 46.5462 16.875 46.111 16.875 45.6978V41.5703C16.875 41.5703 32.5129 38.1658 35.0385 37.2602C37.5633 36.3545 38.4383 36.3239 40.5868 37.1096C42.7352 37.8945 55.5817 40.2138 57.7051 40.9917L57.7043 45.0603C57.7043 45.468 57.2142 45.9158 56.1055 46.4936V46.4944Z" fill="#A41E11"/>
<path d="M56.1053 42.3588C53.9263 43.4942 42.6393 48.136 40.2353 49.3882C37.832 50.6404 36.4975 50.6294 34.5992 49.7214C32.7009 48.8143 20.6886 43.9623 18.5253 42.9281C16.362 41.8938 16.3165 41.1819 18.4422 40.35L35.0383 33.9243C37.5623 33.0187 38.4381 32.9881 40.5865 33.773C42.7349 34.5579 53.9561 39.0256 56.0786 39.8035C58.202 40.5821 58.2843 41.2235 56.1029 42.3588H56.1053Z" fill="#D82C20"/>
<path d="M56.1055 39.7527C53.9265 40.8897 42.6395 45.5299 40.2355 46.7837C37.8322 48.0367 36.4977 48.0241 34.5994 47.1161C32.7011 46.2089 20.6888 41.357 18.5255 40.3228C17.4435 39.806 16.875 39.3693 16.875 38.9577V34.8302C16.875 34.8302 32.5129 31.4257 35.0385 30.52C37.5633 29.6144 38.4383 29.5838 40.5868 30.3687C42.7352 31.1536 55.5817 33.4729 57.7051 34.2507L57.7043 38.3202C57.7043 38.7279 57.2142 39.1756 56.1055 39.7535V39.7527Z" fill="#A41E11"/>
<path d="M56.1053 35.6186C53.9263 36.754 42.6393 41.395 40.236 42.6488C37.8328 43.9017 36.4983 43.8892 34.6 42.982C32.7017 42.074 20.6886 37.2221 18.5253 36.1878C16.362 35.1536 16.3165 34.4417 18.4422 33.609L35.0383 27.1841C37.5631 26.2785 38.4389 26.2479 40.5873 27.0328C42.7357 27.8184 53.9561 32.2862 56.0794 33.064C58.202 33.8418 58.2843 34.4832 56.1029 35.6186H56.1053Z" fill="#D82C20"/>
<path d="M56.1055 32.7801C53.9265 33.9154 42.6395 38.5573 40.2355 39.8126C37.8322 41.0687 36.4977 41.053 34.5994 40.1458C32.7011 39.2379 20.6888 34.3859 18.5255 33.3517C17.4435 32.835 16.875 32.399 16.875 31.9874V27.8591C16.875 27.8591 32.5129 24.4522 35.0385 23.5474C37.5633 22.6418 38.4383 22.6112 40.5868 23.396C42.7352 24.1801 55.5817 26.5003 57.7051 27.2781L57.7043 31.3467C57.7043 31.7545 57.2142 32.2022 56.1055 32.7801Z" fill="#A41E11"/>
<path d="M56.1053 28.6459C53.9263 29.7821 42.6393 34.4231 40.236 35.6761C37.8328 36.9291 36.4983 36.9165 34.6 36.0093C32.7017 35.1021 20.6886 30.2494 18.5253 29.2152C16.362 28.181 16.3165 27.469 18.4422 26.6371L35.0383 20.2114C37.5623 19.3058 38.4381 19.2752 40.5865 20.0601C42.7349 20.845 53.9561 25.3127 56.0786 26.0906C58.202 26.8692 58.2843 27.5106 56.1029 28.6451L56.1053 28.6459Z" fill="#D82C20"/>
<path d="M39.1032 25.0318L38.3107 26.9385L37.0301 24.8119L32.9449 24.4447L35.9932 23.3446L35.0811 21.6572L37.9343 22.7738L40.6267 21.8929L39.898 23.6374L42.6415 24.6643L39.1032 25.0318ZM31.4951 31.1726L40.957 29.7204L38.0999 33.9113L31.4951 31.1726Z" fill="white"/>
<path d="M28.9438 29.6486C31.7368 29.6486 34.001 28.771 34.001 27.6883C34.001 26.6057 31.7368 25.728 28.9438 25.728C26.1509 25.728 23.8867 26.6057 23.8867 27.6883C23.8867 28.771 26.1509 29.6486 28.9438 29.6486Z" fill="white"/>
<path d="M52.4205 27.4052L46.8244 29.6148L46.8213 25.1909L52.4205 27.4052Z" fill="#7A0C00"/>
<path d="M46.823 25.1909L46.8262 29.614L46.2201 29.8531L40.6279 27.6404L46.823 25.1909Z" fill="#AD2115"/>
</svg>
