<svg width="74" height="74" viewBox="0 0 74 74" fill="none" xmlns="http://www.w3.org/2000/svg">
<path d="M19.3441 2.59227C10.7547 4.02384 4.02384 10.7547 2.59227 19.3441L2.332 20.9057C0.556 31.5618 0.555999 42.4382 2.332 53.0943L2.59227 54.6559C4.02384 63.2453 10.7547 69.9762 19.3441 71.4077L20.9058 71.668C31.5618 73.444 42.4382 73.444 53.0942 71.668L54.6559 71.4077C63.2453 69.9762 69.9762 63.2453 71.4077 54.6559L71.668 53.0942C73.444 42.4382 73.444 31.5618 71.668 20.9058L71.4077 19.3441C69.9762 10.7547 63.2453 4.02384 54.6559 2.59227L53.0943 2.332C42.4382 0.556 31.5618 0.555999 20.9058 2.332L19.3441 2.59227Z" fill="#00D9ED" stroke="white" stroke-width="2"/>
<path d="M12.7734 35.8065C12.7734 24.9486 12.7734 19.5197 16.1465 16.1465C19.5197 12.7734 24.9486 12.7734 35.8065 12.7734H38.1892C49.0471 12.7734 54.476 12.7734 57.8491 16.1465C61.2222 19.5197 61.2222 24.9486 61.2222 35.8065V38.1892C61.2222 49.0471 61.2222 54.476 57.8491 57.8491C54.476 61.2222 49.0471 61.2222 38.1892 61.2222H35.8065C24.9486 61.2222 19.5197 61.2222 16.1465 57.8491C12.7734 54.476 12.7734 49.0471 12.7734 38.1892V35.8065Z" fill="#00D9ED"/>
<path d="M31.2389 20.7743C34.0494 19.1548 35.4547 18.345 36.9978 18.345C38.5409 18.345 39.9462 19.1548 42.7567 20.7743L48.196 23.9085C51.0065 25.5279 52.4118 26.3377 53.1833 27.6714C53.9549 29.0052 53.9549 30.6247 53.9549 33.8636V40.132C53.9549 43.371 53.9549 44.9905 53.1833 46.3242C52.4118 47.658 51.0065 48.4677 48.196 50.0872L42.7567 53.2214C39.9462 54.8409 38.5409 55.6506 36.9978 55.6506C35.4547 55.6506 34.0494 54.8409 31.2389 53.2214L25.7997 50.0872C22.9891 48.4677 21.5838 47.658 20.8123 46.3242C20.0407 44.9905 20.0407 43.371 20.0407 40.132V33.8636C20.0407 30.6247 20.0407 29.0052 20.8123 27.6714C21.5838 26.3377 22.9891 25.5279 25.7997 23.9085L31.2389 20.7743Z" fill="#0077FF"/>
<path d="M29.9727 30.4572C29.5714 30.4572 29.246 30.7826 29.246 31.184V33.75C29.246 34.1513 29.5714 34.4767 29.9727 34.4767H34.2613C34.6627 34.4767 34.9881 34.8021 34.9881 35.2034L34.9881 45.2341C34.9881 45.6355 35.3134 45.9609 35.7148 45.9609H38.2808C38.6822 45.9609 39.0075 45.6355 39.0075 45.2341L39.0075 35.2034C39.0075 34.8021 39.3329 34.4767 39.7343 34.4767H44.0229C44.4242 34.4767 44.7496 34.1513 44.7496 33.75V31.184C44.7496 30.7826 44.4242 30.4572 44.0229 30.4572H29.9727Z" fill="white"/>
</svg>
