<svg width="20" height="20" viewBox="0 0 20 20" fill="none" xmlns="http://www.w3.org/2000/svg">
<path d="M7.5 12C7.5 12.5523 7.05228 13 6.5 13C5.94772 13 5.5 12.5523 5.5 12C5.5 11.4477 5.94772 11 6.5 11C7.05228 11 7.5 11.4477 7.5 12Z" fill="#19191A"/>
<path d="M10.75 13.5C10.75 14.1234 11.5037 14.4356 11.9445 13.9948L11.9697 13.9697C12.2626 13.6768 12.7374 13.6768 13.0303 13.9697C13.3232 14.2626 13.3232 14.7374 13.0303 15.0303L13.0052 15.0555C12.1129 15.9477 10.8128 15.8586 10 15.1588C9.18719 15.8586 7.88708 15.9477 6.9948 15.0555L6.96967 15.0303C6.67678 14.7374 6.67678 14.2626 6.96967 13.9697C7.26256 13.6768 7.73744 13.6768 8.03033 13.9697L8.05546 13.9948C8.49627 14.4356 9.25 14.1234 9.25 13.5V12.75C8.83579 12.75 8.5 12.4142 8.5 12C8.5 11.5858 8.83579 11.25 9.25 11.25H10.75C11.1642 11.25 11.5 11.5858 11.5 12C11.5 12.4142 11.1642 12.75 10.75 12.75V13.5Z" fill="#19191A"/>
<path d="M13.5 13C14.0523 13 14.5 12.5523 14.5 12C14.5 11.4477 14.0523 11 13.5 11C12.9477 11 12.5 11.4477 12.5 12C12.5 12.5523 12.9477 13 13.5 13Z" fill="#19191A"/>
<path fill-rule="evenodd" clip-rule="evenodd" d="M5.05119 1.65428C6.62302 1.13033 8.32198 1.97981 8.84593 3.55164L8.86006 3.59405L9.61143 7.25033H10.3886L11.1399 3.59405L11.1541 3.55164C11.678 1.97981 13.377 1.13033 14.9488 1.65428C16.5206 2.17822 17.3701 3.87718 16.8462 5.44901L16.8372 5.47583L15.446 8.7931C16.834 9.7746 17.75 11.2148 17.75 13.0002C17.75 14.8104 16.8053 16.2744 15.3744 17.2575C13.957 18.2313 12.0501 18.7502 10 18.7502C7.94985 18.7502 6.04298 18.2313 4.62555 17.2575C3.19471 16.2744 2.25 14.8104 2.25 13.0002C2.25 11.2148 3.16596 9.7746 4.55399 8.7931L3.16277 5.47583L3.15383 5.44901C2.62988 3.87718 3.47936 2.17822 5.05119 1.65428ZM7.40967 3.98795C7.13333 3.22644 6.29868 2.81959 5.52554 3.0773C4.74769 3.33658 4.32364 4.17137 4.569 4.95044L6.43792 9.40674L5.86248 9.73619C4.51536 10.5075 3.75 11.6423 3.75 13.0002C3.75 14.2275 4.37229 15.2636 5.47495 16.0211C6.59103 16.7879 8.18415 17.2502 10 17.2502C11.8158 17.2502 13.409 16.7879 14.525 16.0211C15.6277 15.2636 16.25 14.2275 16.25 13.0002C16.25 11.6423 15.4846 10.5075 14.1375 9.73619L13.5621 9.40674L15.431 4.95044C15.6764 4.17137 15.2523 3.33658 14.4745 3.0773C13.7013 2.81959 12.8667 3.22644 12.5903 3.98794L11.6101 8.75785L10.9917 8.75088L10.9799 8.75083L10.9452 8.75075H9.05481L9.02012 8.75083L9.00908 8.75088L8.38987 8.75785L7.40967 3.98795Z" fill="#19191A"/>
</svg>
