<svg width="20" height="20" viewBox="0 0 20 20" fill="none" xmlns="http://www.w3.org/2000/svg">
    <g clip-path="url(#clip0_15363_25103)">
        <path d="M5.87554 2.85324C7.08825 2.15173 8.49607 1.75 10 1.75C14.5563 1.75 18.25 5.44365 18.25 10C18.25 14.5563 14.5563 18.25 10 18.25C5.44365 18.25 1.75 14.5563 1.75 10C1.75 9.30958 1.83465 8.63978 1.9939 8.00001C2.09396 7.59806 1.8911 7.17094 1.5 7.03451C1.1089 6.89807 0.678241 7.10398 0.572488 7.50446C0.36199 8.30162 0.25 9.1382 0.25 10C0.25 15.3848 4.61522 19.75 10 19.75C15.3848 19.75 19.75 15.3848 19.75 10C19.75 4.61522 15.3848 0.25 10 0.25C8.22535 0.25 6.55931 0.724814 5.12446 1.55484C4.63811 1.83617 4.17842 2.15825 3.75 2.5164V1.25C3.75 0.835787 3.41421 0.5 3 0.5C2.58579 0.5 2.25 0.835786 2.25 1.25V4.09267C2.25 4.64495 2.69772 5.09267 3.25 5.09267H5.75C6.16421 5.09267 6.5 4.75688 6.5 4.34267C6.5 3.92845 6.16421 3.59267 5.75 3.59267H4.80256C5.13932 3.31913 5.49801 3.07163 5.87554 2.85324Z" fill="#19191A"/>
        <path fill-rule="evenodd" clip-rule="evenodd" d="M9.9182 5.5C8.78918 5.5 7.83918 5.87077 7.18661 6.63972C6.67987 7.23683 6.40937 8.00761 6.32058 8.87031C5.00123 9.16397 4.26407 10.2625 4.2502 11.3878C4.24227 12.0318 4.47071 12.6923 4.96025 13.1945C5.4575 13.7046 6.17326 14 7.04117 14L12.0601 14C13.1571 14 14.0472 13.6673 14.6869 13.1061C15.3219 12.5489 15.6678 11.8024 15.737 11.0544C15.8057 10.3109 15.6023 9.54185 15.109 8.94876C14.7266 8.48894 14.1938 8.16418 13.5485 8.03394C13.1897 6.76291 11.8733 5.5 9.9182 5.5ZM7.7872 9.54415C7.7872 8.61909 8.00474 7.99389 8.33028 7.6103C8.63869 7.24688 9.1292 7 9.9182 7C11.4435 7 12.1473 8.13488 12.1473 8.72056C12.1473 8.91948 12.2263 9.11026 12.367 9.25093C12.5076 9.39159 12.6984 9.47061 12.8973 9.47061C13.4212 9.47061 13.7539 9.66524 13.9557 9.90792C14.1688 10.1641 14.2793 10.5274 14.2433 10.9163C14.2078 11.3006 14.0305 11.6865 13.6976 11.9785C13.3693 12.2666 12.8466 12.5 12.0601 12.5L7.04117 12.5C6.52491 12.5 6.21444 12.3322 6.03437 12.1474C5.84659 11.9548 5.7466 11.6888 5.75009 11.4063C5.75671 10.8685 6.13483 10.2942 7.0372 10.2942C7.45142 10.2942 7.7872 9.95836 7.7872 9.54415Z" fill="#19191A"/>
    </g>
    <defs>
        <clipPath id="clip0_15363_25103">
            <rect width="20" height="20" fill="white"/>
        </clipPath>
    </defs>
</svg>
