<svg width="18" height="16" viewBox="0 0 18 16" fill="none" xmlns="http://www.w3.org/2000/svg">
    <path fill-rule="evenodd" clip-rule="evenodd" d="M10.4453 0.229C9.93752 -0.0763331 9.31191 -0.0763333 8.80413 0.229L6.89935 1.37436C6.39157 1.67969 6.07876 2.24397 6.07876 2.85464V5.14536C6.07876 5.75603 6.39157 6.32031 6.89935 6.62564L8.80413 7.771C9.31191 8.07633 9.93752 8.07633 10.4453 7.771L12.3501 6.62564C12.8579 6.32031 13.1707 5.75603 13.1707 5.14536V2.85464C13.1707 2.24397 12.8579 1.67969 12.3501 1.37436L10.4453 0.229ZM9.10866 1.62839C9.42801 1.43637 9.82146 1.43637 10.1408 1.62839L11.3387 2.34872C11.6581 2.54075 11.8548 2.89562 11.8548 3.27968V4.72033C11.8548 5.10438 11.6581 5.45926 11.3387 5.65128L10.1408 6.37161C9.82146 6.56363 9.42801 6.56363 9.10866 6.37161L7.91073 5.65128C7.59139 5.45926 7.39466 5.10438 7.39466 4.72033V3.27968C7.39466 2.89562 7.59139 2.54075 7.91073 2.34872L9.10866 1.62839Z" fill="#19191A"/>
    <path d="M0.758737 0C0.339698 0 0 0.335296 0 0.748904C0 1.16251 0.339698 1.49781 0.758737 1.49781H1.13977L4.03779 11.0681C4.18911 11.5678 4.70415 11.8688 5.22083 11.7595L15.4281 9.59985C15.7727 9.52694 16.0541 9.28248 16.1713 8.95436L17.9552 3.95655C18.1069 3.53159 17.8601 3.06909 17.4192 2.95217C17.0235 2.84719 16.6126 3.0608 16.4764 3.44231L14.828 8.06036C14.7698 8.22338 14.6305 8.34517 14.4595 8.38245L5.80073 10.2701C5.54152 10.3266 5.28208 10.1761 5.2061 9.925L2.41859 0.713795C2.29041 0.290237 1.89569 0 1.44784 0H0.758737Z" fill="#19191A"/>
    <path d="M7.25 14.5C7.25 15.3284 6.57843 16 5.75 16C4.92157 16 4.25 15.3284 4.25 14.5C4.25 13.6716 4.92157 13 5.75 13C6.57843 13 7.25 13.6716 7.25 14.5Z" fill="#19191A"/>
    <path d="M15.25 14.5C15.25 15.3284 14.5784 16 13.75 16C12.9216 16 12.25 15.3284 12.25 14.5C12.25 13.6716 12.9216 13 13.75 13C14.5784 13 15.25 13.6716 15.25 14.5Z" fill="#19191A"/>
</svg>
