<svg width="20" height="20" viewBox="0 0 20 20" fill="none" xmlns="http://www.w3.org/2000/svg">
<path fill-rule="evenodd" clip-rule="evenodd" d="M6.6182 8.27307L7.26119 7.82276C7.40266 7.72368 7.50063 7.57369 7.53473 7.40399L8.24643 3.86184C8.51931 2.50368 9.91027 1.68699 11.2239 2.11363C12.1775 2.42333 12.8235 3.31447 12.8235 4.32022V6.67011H13.0588C14.5489 6.67011 15.8269 6.97857 16.7237 7.84095C17.6266 8.70918 18 9.99973 18 11.6283V12.1005C18 13.729 17.6266 15.0196 16.7237 15.8878C15.8269 16.7502 14.5489 17.0586 13.0588 17.0586H6.83944C6.54066 17.5173 6.06641 17.849 5.50984 17.9601C5.30982 18 5.06929 18 4.58824 18C4.10718 18 3.86665 18 3.66664 17.9601C2.84525 17.7961 2.20317 17.1518 2.03979 16.3276C2 16.1269 2 15.8856 2 15.4029V10.2117C2 9.72895 2 9.4876 2.03979 9.28689C2.20317 8.46269 2.84525 7.81839 3.66664 7.65445C3.86665 7.61453 4.10718 7.61453 4.58824 7.61453C5.06929 7.61453 5.30982 7.61453 5.50984 7.65445C5.94419 7.74114 6.3284 7.96216 6.6182 8.27307ZM9.63035 4.14182C9.73656 3.61322 10.2779 3.29536 10.7892 3.46141C11.1603 3.58195 11.4118 3.92878 11.4118 4.32022V7.37842C11.4118 7.76961 11.7278 8.08673 12.1176 8.08673H13.0588C14.3923 8.08673 15.2319 8.36853 15.7469 8.86373C16.2558 9.35309 16.5882 10.1875 16.5882 11.6283V12.1005C16.5882 13.5413 16.2558 14.3756 15.7469 14.865C15.2319 15.3602 14.3923 15.642 13.0588 15.642H7.17624C7.17647 15.5694 7.17647 15.4901 7.17647 15.4029V10.2117C7.17647 9.95367 7.17647 9.76462 7.1704 9.61388L8.06918 8.98442C8.50852 8.67673 8.81276 8.21096 8.91865 7.68396L9.63035 4.14182ZM5.76471 10.2117V15.4029C5.76471 15.6538 5.76451 15.8066 5.76056 15.9225C5.75741 16.0148 5.75267 16.0473 5.75196 16.0517C5.69986 16.3136 5.49585 16.5183 5.23487 16.5706C5.23052 16.5713 5.1981 16.5761 5.10612 16.5792C4.99061 16.5832 4.83834 16.5834 4.58824 16.5834C4.33813 16.5834 4.18586 16.5832 4.07035 16.5792C3.97838 16.5761 3.94595 16.5713 3.94161 16.5706C3.68062 16.5183 3.47662 16.3136 3.42451 16.0517C3.4238 16.0474 3.41906 16.0148 3.41591 15.9225C3.41196 15.8066 3.41177 15.6538 3.41177 15.4029V10.2117C3.41177 9.9607 3.41196 9.8079 3.41591 9.69199C3.41906 9.59975 3.4238 9.5672 3.42451 9.56281C3.47662 9.30093 3.68063 9.09622 3.94161 9.04394C3.94599 9.04322 3.97844 9.03846 4.07035 9.03531C4.18586 9.03134 4.33813 9.03114 4.58824 9.03114C4.83834 9.03114 4.99061 9.03134 5.10612 9.03531C5.19803 9.03846 5.23048 9.04322 5.23486 9.04394C5.49584 9.09622 5.69986 9.30093 5.75196 9.56282C5.75268 9.56721 5.75741 9.59978 5.76056 9.69199C5.76451 9.8079 5.76471 9.9607 5.76471 10.2117Z" fill="#0077FF"/>
</svg>
