<svg width="20" height="20" viewBox="0 0 20 20" fill="none" xmlns="http://www.w3.org/2000/svg">
<path d="M9.46774 3.13709C8.22432 3.13709 7.37906 3.13824 6.7257 3.19231C6.08929 3.24499 5.76383 3.34047 5.5368 3.45766C4.99052 3.73964 4.54639 4.18958 4.26805 4.743C4.15237 4.973 4.05812 5.30271 4.00612 5.94744C3.95274 6.60934 3.95161 7.46565 3.95161 8.72533V11.2743C3.95161 11.8477 3.95274 12.1892 3.97316 12.4424C3.98188 12.5506 3.99255 12.6148 4 12.6496V12.7449C4 13.4911 4 13.9838 4.06618 14.3545C3.86773 14.3229 3.70415 14.274 3.55679 14.1979C3.19261 14.0099 2.89652 13.7099 2.71096 13.341C2.5 12.9216 2.5 12.3725 2.5 11.2743V8.72533C2.5 6.25451 2.5 5.0191 2.97465 4.07537C3.39216 3.24524 4.05837 2.57033 4.87778 2.14736C5.80933 1.6665 7.0288 1.6665 9.46774 1.6665H11.4032C12.4872 1.6665 13.0292 1.6665 13.4432 1.88022C13.8074 2.0682 14.1035 2.36817 14.289 2.73711C14.3567 2.87155 14.4026 3.01931 14.4338 3.19419C14.0747 3.13709 13.6014 3.13709 12.9032 3.13709H9.46774Z" fill="#818C99"/>
<path fill-rule="evenodd" clip-rule="evenodd" d="M5.5 7.74493C5.5 6.64679 5.5 6.09772 5.71096 5.67829C5.89652 5.30934 6.19261 5.00938 6.55679 4.82139C6.97082 4.60768 7.5128 4.60768 8.59677 4.60768H14.4032C15.4872 4.60768 16.0292 4.60768 16.4432 4.82139C16.8074 5.00938 17.1035 5.30934 17.289 5.67829C17.5 6.09772 17.5 6.64679 17.5 7.74493V15.1959C17.5 16.2941 17.5 16.8431 17.289 17.2626C17.1035 17.6315 16.8074 17.9315 16.4432 18.1195C16.0292 18.3332 15.4872 18.3332 14.4032 18.3332H8.59678C7.5128 18.3332 6.97082 18.3332 6.55679 18.1195C6.19261 17.9315 5.89652 17.6315 5.71096 17.2626C5.5 16.8431 5.5 16.2941 5.5 15.1959V7.74493ZM8.59677 6.07827H14.4032C14.9692 6.07827 15.3063 6.07941 15.5562 6.1001C15.7088 6.11272 15.7729 6.12938 15.7901 6.13479C15.8765 6.1809 15.9471 6.25243 15.9926 6.33996C15.9979 6.35737 16.0144 6.42232 16.0268 6.57685C16.0473 6.83004 16.0484 7.1716 16.0484 7.74493V15.1959C16.0484 15.7693 16.0473 16.1108 16.0268 16.364C16.0144 16.5185 15.9979 16.5835 15.9926 16.6009C15.9471 16.6884 15.8765 16.7599 15.7901 16.8061C15.7729 16.8115 15.7088 16.8281 15.5562 16.8408C15.3063 16.8614 14.9692 16.8626 14.4032 16.8626H8.59678C8.03084 16.8626 7.69368 16.8614 7.44376 16.8408C7.29123 16.8281 7.22712 16.8115 7.20993 16.8061C7.12353 16.7599 7.05292 16.6884 7.0074 16.6009C7.00207 16.5835 6.98562 16.5185 6.97316 16.364C6.95274 16.1108 6.95161 15.7693 6.95161 15.1959V7.74493C6.95161 7.1716 6.95274 6.83004 6.97316 6.57685C6.98562 6.42232 7.00207 6.35737 7.0074 6.33996C7.05292 6.25243 7.12353 6.1809 7.20993 6.13478C7.22711 6.12938 7.29123 6.11272 7.44376 6.1001C7.69368 6.07941 8.03083 6.07827 8.59677 6.07827ZM15.7951 6.13656L15.7921 6.13546C15.7942 6.13615 15.7951 6.13654 15.7951 6.13656ZM15.9909 6.33489C15.9909 6.33483 15.9913 6.33576 15.9919 6.33786L15.9909 6.33489ZM15.9909 16.606L15.9919 16.603C15.9913 16.6051 15.9909 16.606 15.9909 16.606ZM15.7951 16.8043C15.7952 16.8043 15.7942 16.8047 15.7922 16.8054L15.7951 16.8043ZM7.20492 16.8043L7.20785 16.8054C7.20579 16.8047 7.20486 16.8043 7.20492 16.8043ZM7.00915 16.606C7.00913 16.606 7.00875 16.6051 7.00806 16.603L7.00915 16.606ZM7.00915 6.33489L7.00806 6.33786C7.00875 6.33576 7.00913 6.33483 7.00915 6.33489ZM7.2053 6.13637C7.20502 6.13649 7.20528 6.13636 7.2053 6.13637L7.20785 6.13546C7.20658 6.13588 7.20574 6.13619 7.2053 6.13637Z" fill="#818C99"/>
</svg>
