<svg width="20" height="20" viewBox="0 0 20 20" fill="none" xmlns="http://www.w3.org/2000/svg">
<path fill-rule="evenodd" clip-rule="evenodd" d="M13.3818 11.7269L12.7388 12.1772C12.5973 12.2763 12.4994 12.4263 12.4653 12.596L11.7536 16.1382C11.4807 17.4963 10.0897 18.313 8.77608 17.8864C7.82248 17.5767 7.17647 16.6855 7.17647 15.6798V13.3299H6.94118C5.45111 13.3299 4.1731 13.0214 3.2763 12.159C2.37343 11.2908 2 10.0003 2 8.37173L2 7.89952C2 6.27098 2.37343 4.98044 3.27631 4.11221C4.1731 3.24983 5.45111 2.94138 6.94118 2.94138L13.1606 2.94138C13.4593 2.48265 13.9336 2.15101 14.4902 2.03992C14.6902 2 14.9307 2 15.4118 2C15.8928 2 16.1333 2 16.3334 2.03992C17.1547 2.20387 17.7968 2.84816 17.9602 3.67237C18 3.87307 18 4.11442 18 4.59713V9.78834C18 10.271 18 10.5124 17.9602 10.7131C17.7968 11.5373 17.1547 12.1816 16.3334 12.3455C16.1333 12.3855 15.8928 12.3855 15.4118 12.3855C14.9307 12.3855 14.6902 12.3855 14.4902 12.3455C14.0558 12.2589 13.6716 12.0378 13.3818 11.7269ZM10.3697 15.8582C10.2634 16.3868 9.72208 16.7046 9.21081 16.5386C8.83966 16.4181 8.58824 16.0712 8.58824 15.6798V12.6216C8.58824 12.2304 8.2722 11.9133 7.88235 11.9133H6.94118C5.60772 11.9133 4.76808 11.6315 4.25311 11.1363C3.74422 10.6469 3.41176 9.81252 3.41177 8.37173L3.41177 7.89952C3.41177 6.45873 3.74422 5.62435 4.25311 5.135C4.76808 4.63979 5.60771 4.35799 6.94118 4.35799L12.8238 4.358C12.8235 4.43062 12.8235 4.50994 12.8235 4.59713L12.8235 9.78834C12.8235 10.0463 12.8235 10.2354 12.8296 10.3861L11.9308 11.0156C11.4915 11.3233 11.1872 11.789 11.0813 12.316L10.3697 15.8582ZM14.2353 9.78834L14.2353 4.59713C14.2353 4.34617 14.2355 4.19338 14.2394 4.07747C14.2426 3.98521 14.2473 3.95266 14.248 3.94828C14.3001 3.6864 14.5042 3.48169 14.7651 3.42941C14.7695 3.4287 14.8019 3.42394 14.8939 3.42078C15.0094 3.41681 15.1617 3.41662 15.4118 3.41662C15.6619 3.41662 15.8141 3.41681 15.9296 3.42078C16.0216 3.42394 16.054 3.42869 16.0584 3.42941C16.3194 3.48169 16.5234 3.6864 16.5755 3.94828C16.5762 3.95264 16.5809 3.98518 16.5841 4.07747C16.588 4.19338 16.5882 4.34617 16.5882 4.59713V9.78834C16.5882 10.0393 16.588 10.1921 16.5841 10.308C16.5809 10.4002 16.5762 10.4328 16.5755 10.4372C16.5234 10.6991 16.3194 10.9038 16.0584 10.9561C16.054 10.9568 16.0216 10.9615 15.9296 10.9647C15.8141 10.9687 15.6619 10.9689 15.4118 10.9689C15.1617 10.9689 15.0094 10.9687 14.8939 10.9647C14.802 10.9615 14.7695 10.9568 14.7651 10.9561C14.5042 10.9038 14.3001 10.6991 14.248 10.4372C14.2473 10.4328 14.2426 10.4002 14.2394 10.308C14.2355 10.1921 14.2353 10.0393 14.2353 9.78834Z" fill="#19191A"/>
</svg>
