<svg width="20" height="18" viewBox="0 0 20 18" fill="none" xmlns="http://www.w3.org/2000/svg">
    <path d="M18.5 8C18.5 9.14575 17.9495 10.1629 17.0985 10.8014C16.7228 11.0833 16.5606 11.6224 16.8357 12.0032C17.0411 12.2877 17.4251 12.3876 17.7194 12.1965C19.0921 11.3052 20 9.7586 20 8C20 5.23859 17.7614 3 15 3C14.9215 3 14.8434 3.00181 14.7658 3.00539C14.556 3.01507 14.3565 2.90757 14.2504 2.72632C13.2961 1.09542 11.526 0 9.5 0C7.1033 0 5.06464 1.533 4.3111 3.67193C4.24062 3.872 4.06202 4.01602 3.85207 4.04629C1.67378 4.36041 0 6.23473 0 8.5C0 10.1809 0.921605 11.6465 2.28708 12.4192C2.58848 12.5897 2.95964 12.4646 3.14319 12.1709C3.39345 11.7705 3.1865 11.239 2.79788 10.9707C2.01382 10.4295 1.5 9.52478 1.5 8.5C1.5 6.90994 2.73788 5.60782 4.30142 5.50641L4.65469 5.4835C5.07805 5.45605 5.43801 5.16445 5.55273 4.756L5.64846 4.41516C6.12123 2.73193 7.66869 1.5 9.5 1.5C11.062 1.5 12.4176 2.39505 13.077 3.70715L13.2341 4.01962C13.4227 4.39489 13.8257 4.61232 14.2429 4.5639L14.5902 4.52359C14.7241 4.50806 14.8608 4.5 15 4.5C16.933 4.5 18.5 6.06702 18.5 8Z" fill="#19191A"/>
    <path fill-rule="evenodd" clip-rule="evenodd" d="M10.0001 8.6998C8.82297 8.6998 7.78691 9.69488 7.70685 11.049C7.70584 11.066 7.70422 11.0829 7.70198 11.0998V12.0572C7.70198 12.2154 7.64839 12.3689 7.54994 12.4928L6.81882 13.4125C6.68539 13.5803 6.66751 13.7985 6.7487 13.9871C6.82912 14.1739 6.97212 14.2641 7.12654 14.2641H12.8736C13.0281 14.2641 13.171 14.1739 13.2515 13.9871C13.3327 13.7985 13.3148 13.5803 13.1814 13.4125L12.4502 12.4928C12.3518 12.3689 12.2982 12.2154 12.2982 12.0572V11.0997C12.296 11.0829 12.2943 11.066 12.2933 11.049C12.2133 9.6949 11.1772 8.6998 10.0001 8.6998ZM6.31123 10.9355C6.44386 8.9454 8.00525 7.2998 10.0001 7.2998C11.995 7.2998 13.5564 8.94547 13.689 10.9356C13.6951 10.9832 13.6982 11.0315 13.6982 11.0802V11.8128L14.2773 12.5413C14.7659 13.156 14.7997 13.9314 14.5373 14.5408C14.2741 15.152 13.6783 15.6641 12.8736 15.6641H12.4103C12.3317 15.9999 12.2133 16.3748 12.0069 16.7005C11.8253 16.9871 11.5716 17.2477 11.2187 17.4315C10.8697 17.6133 10.4623 17.6998 10.0001 17.6998C9.53792 17.6998 9.13052 17.6133 8.78144 17.4315C8.42854 17.2477 8.17489 16.9871 7.99326 16.7005C7.78684 16.3748 7.66844 15.9999 7.58984 15.6641H7.12654C6.32191 15.6641 5.72602 15.152 5.46284 14.5408C5.20044 13.9314 5.23425 13.156 5.72291 12.5413L6.30198 11.8128V11.0802C6.30198 11.0315 6.3051 10.9832 6.31123 10.9355ZM9.04222 15.6641C9.0793 15.7717 9.12232 15.8667 9.1758 15.9511C9.24405 16.0588 9.32318 16.1352 9.42809 16.1898C9.53683 16.2464 9.71226 16.2998 10.0001 16.2998C10.2879 16.2998 10.4634 16.2464 10.5721 16.1898C10.677 16.1352 10.7561 16.0588 10.8244 15.9511C10.8779 15.8667 10.9209 15.7717 10.9579 15.6641H9.04222Z" fill="#19191A"/>
</svg>