<svg width="32" height="32" viewBox="0 0 32 32" fill="none" xmlns="http://www.w3.org/2000/svg">
<path d="M23.4094 9.13794C21.7419 6.13721 18.4068 4.19995 14.9942 4.19995H14.6064C10.108 4.35181 6.3464 7.65649 5.49325 11.7969C4.21352 12.1387 3.01135 12.8223 2.08064 13.772C1.03359 14.8735 0.296784 16.2791 0.0641029 17.7983C-0.0522301 18.5579 0.0253226 19.5835 0.0253226 19.5835C0.180443 21.4827 1.18871 23.3059 2.66234 24.5215C2.6685 24.5215 2.88149 24.7957 2.97257 24.8254C3.20525 24.9392 3.47671 24.9773 3.74816 24.9392C4.56254 24.8633 5.18301 24.0657 5.10545 23.3059C5.07443 23.0325 5.01859 22.9292 4.91807 22.7432L4.88648 22.6846C4.87005 22.6538 4.85258 22.6206 4.83399 22.5842L4.56254 22.3184C3.82572 21.7107 3.28281 20.9131 3.05013 20.0015C2.46844 17.7224 3.8645 15.4434 5.9586 14.7595C6.14266 14.7104 6.33395 14.6824 6.52622 14.6543C6.77955 14.6174 7.03459 14.5801 7.27711 14.4937C7.70368 14.3418 8.01392 13.9619 8.20782 13.5439L8.28538 13.2021C8.28538 13.187 8.2869 13.1707 8.28933 13.1528C8.29243 13.1304 8.29701 13.106 8.30183 13.0801C8.3124 13.0237 8.32416 12.9612 8.32416 12.8984C8.75073 9.70776 11.5429 7.39062 14.5677 7.23877C17.0883 7.12476 19.4927 8.49219 20.6948 10.5813C20.775 10.7068 20.8352 10.8389 20.8948 10.9695L20.944 11.0762C20.9869 11.1677 21.0322 11.2573 21.0865 11.342C21.12 11.3943 21.157 11.4448 21.199 11.4929C21.3743 11.7334 21.4862 11.7874 21.7353 11.908L21.8194 11.9487L22.2072 12.0247C23.6421 12.1765 24.9994 12.8604 25.9301 13.9238C26.6669 14.7595 27.0935 15.8232 27.2486 16.5449C27.5976 18.292 27.0547 20.1533 25.8525 21.4448C25.8107 21.4917 25.767 21.5359 25.7222 21.5781C25.6474 21.6489 25.5695 21.7146 25.4918 21.7803L25.4859 21.7854C25.3098 21.9338 25.1349 22.0813 24.9994 22.2805C24.8443 22.5083 24.7667 22.7363 24.7279 23.0022C24.6891 23.7998 25.3484 24.5215 26.124 24.5974C26.4392 24.5974 26.533 24.5664 26.8053 24.4766L26.8996 24.4456L27.2486 24.2175L27.2874 24.1797C29.8468 22.0525 30.9714 18.4819 30.1183 15.3293C29.3039 12.3665 26.9383 10.0874 24.0299 9.28979C23.9261 9.26074 23.8111 9.23169 23.7085 9.20703C23.5427 9.16699 23.4094 9.13794 23.4094 9.13794Z" fill="black"/>
<path fill-rule="evenodd" clip-rule="evenodd" d="M10.4146 19.5754C10.7548 17.1938 12.7944 15.425 15.2 15.425C17.6057 15.425 19.6452 17.1938 19.9855 19.5754L20.5296 23.3847L21.9299 26.185C22.143 26.6113 22.1202 27.1176 21.8697 27.5229C21.6191 27.9282 21.1766 28.175 20.7 28.175H9.70001C9.22347 28.175 8.78091 27.9282 8.53037 27.5229C8.27983 27.1176 8.25706 26.6113 8.47018 26.185L9.87039 23.3847L10.4146 19.5754ZM15.2 18.175C14.1629 18.175 13.2836 18.9377 13.1369 19.9643L12.5635 23.9782C12.5411 24.1352 12.4935 24.2875 12.4226 24.4294L11.9248 25.425H18.4752L17.9775 24.4294C17.9435 24.3615 17.9149 24.2912 17.8918 24.2192C17.8667 24.1408 17.8482 24.0603 17.8365 23.9782L17.2631 19.9643C17.1164 18.9377 16.2371 18.175 15.2 18.175Z" fill="black"/>
<path d="M15.2 26.8C14.3716 26.8 13.7 27.4716 13.7 28.3C13.7 29.1284 14.3716 29.8 15.2 29.8C16.0284 29.8 16.7 29.1284 16.7 28.3C16.7 27.4716 16.0284 26.8 15.2 26.8Z" fill="black"/>
</svg>
