<svg width="24" height="24" viewBox="0 0 24 24" fill="none" xmlns="http://www.w3.org/2000/svg">
<path d="M17.0606 10.4983C17.3357 10.1887 17.3079 9.71464 16.9983 9.43945C16.6887 9.16426 16.2146 9.19215 15.9394 9.50174L13.5829 12.2778C13.4933 12.3787 13.3397 12.3902 13.236 12.3038L11.6817 11.0085C10.9864 10.429 9.96394 10.4754 9.32393 11.1154L6.96967 13.4697C6.67678 13.7626 6.67678 14.2374 6.96967 14.5303C7.26256 14.8232 7.73744 14.8232 8.03033 14.5303L10.3846 12.1761C10.476 12.0846 10.6221 12.078 10.7214 12.1608L12.2758 13.4561C13.0016 14.0609 14.0764 13.9805 14.7041 13.2743L17.0606 10.4983Z" fill="#252629"/>
<path fill-rule="evenodd" clip-rule="evenodd" d="M17.5 4H6.5C4.567 4 3 5.567 3 7.5V16.5C3 18.433 4.567 20 6.5 20H17.5C19.433 20 21 18.433 21 16.5V7.5C21 5.567 19.433 4 17.5 4ZM4.5 7.5C4.5 6.39543 5.39543 5.5 6.5 5.5H17.5C18.6046 5.5 19.5 6.39543 19.5 7.5V16.5C19.5 17.6046 18.6046 18.5 17.5 18.5H6.5C5.39543 18.5 4.5 17.6046 4.5 16.5V7.5Z" fill="#252629"/>
</svg>
