<svg width="20" height="20" viewBox="0 0 20 20" fill="none" xmlns="http://www.w3.org/2000/svg">
    <g id="LakekeeperStyledLogoIcon_20">
        <path id="Vector" fill-rule="evenodd" clip-rule="evenodd" d="M14.1609 4.49887C14.1758 4.33146 14.1615 4.15366 14.1137 3.97513C13.9351 3.3087 13.357 2.88457 12.8224 3.02782C12.2908 3.17024 12.0025 3.81995 12.1747 4.48245C9.70993 3.8997 7.60522 3.81164 5.90735 4.30955C3.99118 4.8716 2.6666 6.15767 1.96497 8.09177C1.46715 9.46412 1.42188 10.9953 1.57434 12.373C1.7274 13.7561 2.08567 15.0415 2.44739 15.957C2.71252 16.628 3.36221 17 4.01672 17H5.67981C6.33851 17 6.86024 16.4975 6.93372 15.8779C6.9908 15.3964 7.08884 14.8288 7.23157 14.2871C7.34695 14.7064 7.51517 15.1194 7.7384 15.4902C8.21307 16.2786 9.0134 17 10.1447 17H12.0636C12.8488 17 13.2842 16.1708 12.9611 15.5302C12.636 14.8859 12.3304 14.0422 12.2775 13.292C12.236 12.7044 12.3487 12.2839 12.6222 12.0039C13.3016 12.2204 14.2112 12.3482 15.1505 12.1943C16.3346 12.0004 17.5711 11.3585 18.3995 9.9238C18.5142 9.72527 18.531 9.48258 18.4464 9.26951L18.4425 9.25974L18.4347 9.24119C18.4288 9.2274 18.4208 9.2099 18.4113 9.18943C18.3921 9.14846 18.3654 9.09452 18.3302 9.03122C18.2598 8.90481 18.1532 8.73642 18.004 8.55759C17.787 8.29747 17.4705 8.00705 17.0372 7.79294C16.9799 7.11452 16.77 6.28374 16.2472 5.61423C15.8971 5.16608 15.4092 4.79481 14.7609 4.60935C14.57 4.55477 14.37 4.51784 14.1609 4.49887ZM6.32922 5.749C7.81295 5.31382 9.85636 5.40031 12.5245 6.11521C12.6517 6.14928 12.786 6.14928 12.9132 6.11521C13.5681 5.93976 14.0292 5.95937 14.3488 6.05076C14.6612 6.14017 14.8899 6.31311 15.0656 6.53806C15.4418 7.02014 15.5733 7.75177 15.5548 8.28806C15.5429 8.63678 15.7734 8.94767 16.1105 9.03806C16.4579 9.13116 16.6958 9.33058 16.8527 9.51853C16.8547 9.52095 16.8616 9.53058 16.8634 9.53318C16.314 10.2696 15.6073 10.6003 14.9083 10.7148C14.0731 10.8516 13.2571 10.6754 12.8009 10.4746C12.6096 10.3903 12.393 10.3903 12.2032 10.4717L12.1232 10.5117C10.966 11.1801 10.7085 12.3665 10.7814 13.3984C10.833 14.1286 11.0503 14.868 11.3048 15.5H10.1447C9.7319 15.5 9.34349 15.2481 9.02356 14.7168C8.7029 14.1841 8.53605 13.4918 8.54895 12.9336C8.55775 12.5511 8.59992 12.2384 8.68274 12.0566C8.80312 11.7925 8.76093 11.4823 8.57336 11.2607C8.38586 11.0392 8.08709 10.9464 7.80676 11.0215C7.30671 11.1554 6.93663 11.4956 6.672 11.8506C6.40515 12.2086 6.20021 12.6411 6.04016 13.0742C5.74713 13.8672 5.57022 14.7713 5.47278 15.5H4.01672C3.90972 15.5 3.85777 15.4436 3.8429 15.4062C3.52671 14.6061 3.203 13.4499 3.06555 12.208C2.9275 10.9605 2.98373 9.68246 3.37512 8.60349C3.92316 7.09267 4.89667 6.1692 6.32922 5.749Z" fill="#2C2D2E"/>
    </g>
</svg>