<svg width="20" height="20" viewBox="0 0 20 20" fill="none" xmlns="http://www.w3.org/2000/svg">
    <path fill-rule="evenodd" clip-rule="evenodd" d="M16.8951 14.7456C17.289 11.5942 17.289 8.40608 16.8951 5.2547C16.7546 4.13078 15.8693 3.2455 14.7454 3.10501C11.594 2.71109 8.40583 2.71109 5.25446 3.10501C4.13053 3.2455 3.24526 4.13078 3.10477 5.2547C2.71085 8.40608 2.71085 11.5942 3.10477 14.7456C3.24526 15.8695 4.13053 16.7548 5.25446 16.8953C8.40583 17.2892 11.594 17.2892 14.7454 16.8953C15.8693 16.7548 16.7546 15.8695 16.8951 14.7456ZM5.06841 1.61659C3.26357 1.8422 1.84196 3.26381 1.61635 5.06865C1.20698 8.34358 1.20698 11.6567 1.61635 14.9317C1.84196 16.7365 3.26356 18.1581 5.06841 18.3837C8.34333 18.7931 11.6565 18.7931 14.9314 18.3837C16.7363 18.1581 18.1579 16.7365 18.3835 14.9317C18.7928 11.6567 18.7928 8.34358 18.3835 5.06865C18.1579 3.26381 16.7363 1.8422 14.9314 1.61659C11.6565 1.20723 8.34334 1.20723 5.06841 1.61659ZM7.10124 8.5L8.024 9.61732C8.28723 9.93605 8.24331 10.4076 7.92574 10.6722C7.60669 10.9381 7.13239 10.8945 6.86721 10.5748L5.0534 8.38851C4.74623 8.01826 4.74624 7.48175 5.05342 7.1115L6.86722 4.92534C7.13239 4.60572 7.60667 4.56209 7.92571 4.82796C8.24329 5.0926 8.2872 5.56417 8.02394 5.88289L7.10124 7H9.75C10.1642 7 10.5 7.33579 10.5 7.75C10.5 8.16421 10.1642 8.5 9.75 8.5H7.10124ZM12.2987 10.8241L12.8988 11.5925H10.25C9.83579 11.5925 9.5 11.9283 9.5 12.3425C9.5 12.7567 9.83579 13.0925 10.25 13.0925H12.8988L12.206 13.9625C11.9505 14.2834 11.9982 14.7495 12.3132 15.0121C12.6357 15.2807 13.1153 15.2347 13.3807 14.9096L14.962 12.9725C15.2616 12.6055 15.2626 12.0787 14.9643 11.7106L13.4829 9.88214C13.2173 9.55431 12.7348 9.50709 12.4107 9.7772C12.0969 10.0387 12.0473 10.5021 12.2987 10.8241Z" fill="#19191A"/>
</svg>
