<svg width="20" height="20" viewBox="0 0 20 20" fill="none" xmlns="http://www.w3.org/2000/svg">
<path fill-rule="evenodd" clip-rule="evenodd" d="M7.968 3.41666L10.9167 3.41666C11.3309 3.41666 11.6667 3.75245 11.6667 4.16666C11.6667 4.58088 11.3309 4.91666 10.9167 4.91666H8.00001C7.17089 4.91666 6.59416 4.91725 6.14542 4.95391C5.70544 4.98986 5.45497 5.05672 5.26636 5.15282C4.85868 5.36054 4.52722 5.692 4.3195 6.09969C4.2234 6.28829 4.15654 6.53877 4.12059 6.97874C4.08393 7.42748 4.08334 8.00421 4.08334 8.83333V12C4.08334 12.8291 4.08393 13.4058 4.12059 13.8546C4.15654 14.2946 4.2234 14.545 4.3195 14.7336C4.52722 15.1413 4.85868 15.4728 5.26636 15.6805C5.45497 15.7766 5.70544 15.8435 6.14542 15.8794C6.59416 15.9161 7.17089 15.9167 8.00001 15.9167H11.1667C11.9958 15.9167 12.5725 15.9161 13.0213 15.8794C13.4612 15.8435 13.7117 15.7766 13.9003 15.6805C14.308 15.4728 14.6395 15.1413 14.8472 14.7336C14.9433 14.545 15.0101 14.2946 15.0461 13.8546C15.0828 13.4058 15.0833 12.8291 15.0833 12V9.08333C15.0833 8.66912 15.4191 8.33333 15.8333 8.33333C16.2476 8.33333 16.5833 8.66912 16.5833 9.08333V12.032C16.5834 12.8216 16.5834 13.4597 16.5411 13.9767C16.4976 14.5095 16.4055 14.9793 16.1837 15.4146C15.8322 16.1046 15.2712 16.6655 14.5813 17.017C14.146 17.2388 13.6762 17.3309 13.1434 17.3744C12.6264 17.4167 11.9883 17.4167 11.1987 17.4167H7.968C7.17842 17.4167 6.54029 17.4167 6.02328 17.3744C5.49053 17.3309 5.02068 17.2388 4.58538 17.017C3.89545 16.6655 3.33452 16.1046 2.98299 15.4146C2.76119 14.9793 2.6691 14.5095 2.62557 13.9767C2.58333 13.4597 2.58334 12.8216 2.58334 12.032V8.80133C2.58334 8.01174 2.58333 7.37361 2.62557 6.8566C2.6691 6.32386 2.76119 5.85401 2.98299 5.4187C3.33452 4.72877 3.89545 4.16784 4.58538 3.81631C5.02068 3.59451 5.49053 3.50242 6.02327 3.45889C6.54029 3.41665 7.17842 3.41666 7.968 3.41666Z" fill="black"/>
<path fill-rule="evenodd" clip-rule="evenodd" d="M15.9372 2.77128C16.2952 2.4133 16.8756 2.4133 17.2336 2.77128C17.5916 3.12926 17.5916 3.70966 17.2336 4.06764L16.939 4.36227C16.8088 4.49245 16.5977 4.49245 16.4676 4.36227L15.6426 3.53731C15.5124 3.40714 15.5124 3.19608 15.6426 3.06591L15.9372 2.77128ZM15.4367 4.91685L15.0831 4.56329C14.7191 4.19923 14.4832 4.22046 14.1403 4.56329C12.7163 5.98733 11.2923 7.41136 9.86823 8.8354C8.24104 10.4626 7.21215 12.0719 7.57013 12.4299C7.92811 12.7878 9.53741 11.7589 11.1646 10.1318C12.5886 8.70773 14.0126 7.28365 15.4367 5.85966C15.8008 5.49559 15.7795 5.25968 15.4367 4.91685Z" fill="black"/>
</svg>
