<svg width="18" height="20" viewBox="0 0 18 20" fill="none" xmlns="http://www.w3.org/2000/svg">
    <path fill-rule="evenodd" clip-rule="evenodd" d="M2.03291 1.26076C2.28818 0.860809 2.83621 0.735286 3.25791 0.964619C3.68486 1.19681 3.83783 1.71491 3.57983 2.12239C3.59383 2.09928 3.53409 2.19965 3.50874 2.24585C3.458 2.33834 3.3845 2.48031 3.30154 2.66551C3.1352 3.03683 2.93341 3.57616 2.79889 4.23458C2.53075 5.54705 2.53105 7.31816 3.60027 9.20116C4.91261 11.5123 4.90012 13.8967 4.58374 15.6604C4.42487 16.5461 4.18687 17.291 3.98779 17.8167C3.88805 18.08 3.79748 18.2899 3.73047 18.4366C3.7134 18.474 3.69785 18.5072 3.68405 18.5363L3.68763 18.5379L3.61518 18.676L3.61421 18.6779L3.6134 18.6795L3.61149 18.6831C3.39009 19.1002 2.85549 19.2638 2.41757 19.0681C1.97324 18.8696 1.77377 18.3652 1.99706 17.9378L1.99763 17.9368L1.99972 17.9326L2.01411 17.9038C2.02766 17.8762 2.04867 17.8326 2.07545 17.774C2.12904 17.6567 2.20547 17.48 2.29127 17.2535C2.46329 16.7993 2.67059 16.1506 2.8086 15.3813C3.08597 13.835 3.07351 11.8636 2.01082 9.99208C0.70501 7.6924 0.705349 5.51162 1.03095 3.91793C1.1933 3.12324 1.43682 2.47088 1.64158 2.01379C1.74417 1.78478 1.83766 1.60336 1.90753 1.47602C1.92314 1.44756 1.93758 1.42178 1.95071 1.39874L2.03291 1.26076ZM14.4175 1.26212L14.4183 1.26086C14.6736 0.860916 15.2217 0.735286 15.6434 0.964619C16.0704 1.1968 16.2233 1.71489 15.9653 2.12236L15.9645 2.12376L15.9635 2.12532L15.9513 2.14549C15.9392 2.16593 15.9196 2.19964 15.8942 2.24585C15.8435 2.33834 15.77 2.48031 15.687 2.66551C15.5207 3.03683 15.3189 3.57616 15.1844 4.23458C14.9162 5.54705 14.9166 7.31816 15.9858 9.20116C17.2981 11.5123 17.2856 13.8967 16.9692 15.6604C16.8104 16.5461 16.5724 17.291 16.3733 17.8167C16.2735 18.08 16.183 18.2899 16.116 18.4366C16.0824 18.51 16.0547 18.5677 16.0347 18.6085C16.0246 18.629 16.0165 18.6452 16.0105 18.657L16.0033 18.671L16.0007 18.6761L15.9997 18.6779L15.999 18.6792C15.7789 19.099 15.2423 19.2644 14.8031 19.0681C14.3587 18.8696 14.1593 18.3652 14.3826 17.9378L14.3831 17.9368L14.3846 17.9338L14.3852 17.9326C14.3988 17.9051 14.4343 17.8322 14.4609 17.774C14.5145 17.6567 14.591 17.48 14.6768 17.2535C14.8488 16.7993 15.0561 16.1506 15.1941 15.3813C15.4715 13.835 15.459 11.8636 14.3963 9.99208C13.0905 7.6924 13.0908 5.51162 13.4164 3.91793C13.5788 3.12324 13.8223 2.47088 14.0271 2.01379C14.1297 1.78478 14.2232 1.60336 14.293 1.47602C14.328 1.4123 14.3571 1.36198 14.3786 1.32587C14.3893 1.30781 14.3984 1.29283 14.4051 1.28194L14.4135 1.2686L14.4164 1.26397L14.4175 1.26212ZM9.45341 0.964619C9.0317 0.735286 8.48367 0.860809 8.22841 1.26076L8.22738 1.26237L8.22637 1.26397L8.1462 1.39874C8.13308 1.42178 8.11863 1.44756 8.10302 1.47602C8.03316 1.60336 7.93966 1.78478 7.83708 2.01379C7.63232 2.47088 7.3888 3.12324 7.22644 3.91793C6.90084 5.51162 6.90051 7.6924 8.20632 9.99208C9.269 11.8636 9.28146 13.835 9.0041 15.3813C8.86609 16.1506 8.65878 16.7993 8.48676 17.2535C8.40096 17.48 8.32453 17.6567 8.27094 17.774C8.24417 17.8326 8.20877 17.9051 8.19522 17.9326C7.97193 18.36 8.16874 18.8696 8.61306 19.0681C9.05099 19.2638 9.58559 19.1002 9.80698 18.6831C9.80869 18.6801 9.80973 18.6779 9.80973 18.6779L9.81067 18.6761L9.81292 18.6717L9.88313 18.5379L9.87954 18.5363C9.89335 18.5072 9.9089 18.474 9.92596 18.4366C9.99298 18.2899 10.0835 18.08 10.1833 17.8167C10.3824 17.291 10.6204 16.5461 10.7792 15.6604C11.0956 13.8967 11.1081 11.5123 9.79576 9.20116C8.72655 7.31816 8.72624 5.54705 8.99439 4.23458C9.1289 3.57616 9.3307 3.03683 9.49703 2.66551C9.57999 2.48031 9.65349 2.33834 9.70423 2.24585C9.72958 2.19965 9.7481 2.16749 9.77534 2.12237L9.77352 2.1253L9.77446 2.12376L9.77534 2.12237C10.0333 1.7149 9.88035 1.1968 9.45341 0.964619Z" fill="#19191A"/>
</svg>