<svg width="20" height="20" viewBox="0 0 20 20" fill="none" xmlns="http://www.w3.org/2000/svg">
    <path fill-rule="evenodd" clip-rule="evenodd" d="M8.65555 1.40787L2.58997 5.4555C1.13668 6.4253 1.13668 8.57471 2.58997 9.5445L3.27256 10L2.58997 10.4555C1.13668 11.4253 1.13668 13.5747 2.58997 14.5445L8.65555 18.5921C9.47051 19.136 10.5294 19.136 11.3444 18.5921L17.41 14.5445C18.8632 13.5747 18.8632 11.4253 17.41 10.4555L16.7274 10L17.41 9.5445C18.8632 8.57471 18.8632 6.42529 17.41 5.4555L11.3444 1.40787C10.5294 0.864042 9.47051 0.864043 8.65555 1.40787ZM15.3762 10.9017L11.3444 13.5921C10.5294 14.136 9.47051 14.136 8.65555 13.5921L4.62374 10.9017L3.42257 11.7032C2.85914 12.0792 2.85914 12.9208 3.42257 13.2968L9.48816 17.3444C9.79901 17.5519 10.2009 17.5519 10.5118 17.3444L16.5774 13.2968C17.1408 12.9208 17.1408 12.0792 16.5774 11.7032L15.3762 10.9017ZM3.42257 8.29679C2.85914 7.92081 2.85914 7.07919 3.42257 6.70321L9.48816 2.65558C9.79901 2.44814 10.2009 2.44814 10.5118 2.65558L16.5774 6.70321C17.1408 7.07919 17.1408 7.92081 16.5774 8.29679L10.5118 12.3444C10.2009 12.5519 9.79901 12.5519 9.48816 12.3444L3.42257 8.29679Z" fill="#19191A"/>
</svg>
