<svg width="20" height="20" viewBox="0 0 20 20" fill="none" xmlns="http://www.w3.org/2000/svg">
<path d="M7.81153 2.24976C8.22566 2.24976 8.56139 2.58566 8.56153 2.99976C8.56153 3.41398 8.22574 3.74976 7.81153 3.74976C6.18635 3.74976 5.0383 3.75127 4.16895 3.86109C3.3166 3.9688 2.84623 4.16963 2.51172 4.48414C2.18367 4.79272 1.97884 5.21615 1.86719 5.99488C1.75173 6.80066 1.75 7.86948 1.75 9.40015C1.75 10.9306 1.7519 11.9986 1.86719 12.8045C1.9787 13.5834 2.18282 14.0071 2.51074 14.3152C2.84588 14.6298 3.3167 14.8304 4.16895 14.9382C5.03822 15.0482 6.18623 15.0496 7.81153 15.0496H11.2178C12.8434 15.0496 13.9919 15.0481 14.8613 14.9382C15.7133 14.8306 16.1831 14.6305 16.5176 14.3162L16.6006 14.2332C16.9984 13.8061 17.1895 13.1556 17.251 11.7664C17.2695 11.3528 17.6196 11.0322 18.0332 11.0505C18.4469 11.0689 18.7671 11.4191 18.749 11.8328C18.682 13.3461 18.4676 14.5414 17.5449 15.408C16.8824 16.0309 16.0512 16.2998 15.0488 16.4265C14.0634 16.551 12.8033 16.5496 11.2178 16.5496H10.25V18.2498H12.9004L12.9766 18.2537C13.3547 18.292 13.6503 18.6115 13.6504 18.9998C13.6504 19.3881 13.3548 19.7075 12.9766 19.7459L12.9004 19.7498H6.09961C5.68558 19.7495 5.34961 19.4138 5.34961 18.9998C5.34974 18.5858 5.68566 18.25 6.09961 18.2498H8.75V16.5496H7.81153C6.2259 16.5496 4.96575 16.5512 3.98047 16.4265C2.9782 16.2997 2.14707 16.0311 1.48438 15.4089C0.814851 14.7803 0.51974 13.9807 0.381838 13.0173C0.247778 12.0806 0.250002 10.8857 0.250002 9.40015C0.250002 7.91451 0.248661 6.71963 0.382815 5.78297C0.520863 4.81972 0.815651 4.02024 1.48438 3.39136C2.14688 2.76842 2.97808 2.49948 3.98047 2.37281C4.96583 2.2483 6.22603 2.24976 7.81153 2.24976ZM15.1348 2.00855C15.2423 2.02151 15.3457 2.05406 15.4795 2.09547L17.3447 2.67261L17.377 2.68238C17.5034 2.72112 17.6386 2.7623 17.7441 2.84644C17.8357 2.91949 17.9064 3.01482 17.9502 3.12183C18.0005 3.24492 18.0004 3.38184 18 3.51051V5.7566C18 6.70529 17.4742 7.43191 16.8994 7.94215C16.3247 8.45229 15.6713 8.77369 15.3379 8.91871C15.2769 8.94522 15.2104 8.97558 15.1172 8.99097C15.0469 9.00258 14.9531 9.00258 14.8828 8.99097C14.7896 8.97557 14.7231 8.94522 14.6621 8.91871C14.3287 8.77369 13.6753 8.45229 13.1006 7.94215C12.5258 7.43191 12 6.70529 12 5.7566V3.51051C11.9996 3.38184 11.9995 3.24492 12.0498 3.12183C12.0936 3.01482 12.1643 2.91949 12.2559 2.84644C12.3614 2.7623 12.4966 2.72112 12.623 2.68238L12.6553 2.67261L14.5205 2.09547C14.6543 2.05406 14.7577 2.02151 14.8652 2.00855C14.9548 1.9978 15.0452 1.9978 15.1348 2.00855Z" fill="#252629"/>
</svg>
