<svg width="18" height="18" viewBox="0 0 18 18" fill="none" xmlns="http://www.w3.org/2000/svg">
    <path fill-rule="evenodd" clip-rule="evenodd" d="M4.91683 14.5168C6.05785 15.3627 7.4705 15.8631 9 15.8631C10.5295 15.8631 11.9422 15.3627 13.0832 14.5168C11.8851 13.8146 10.4905 13.4121 9 13.4121C7.50955 13.4121 6.11489 13.8146 4.91683 14.5168ZM3.79966 13.4786C2.76365 12.2767 2.13726 10.7117 2.13726 9.00033C2.13726 5.21014 5.20982 2.13758 9 2.13758C12.7902 2.13758 15.8627 5.21014 15.8627 9.00033C15.8627 10.7117 15.2364 12.2767 14.2003 13.4786C12.7033 12.5063 10.9165 11.9415 9 11.9415C7.08346 11.9415 5.29671 12.5063 3.79966 13.4786ZM9 0.666992C4.39763 0.666992 0.666672 4.39795 0.666672 9.00033C0.666672 13.6027 4.39763 17.3337 9 17.3337C13.6024 17.3337 17.3333 13.6027 17.3333 9.00033C17.3333 4.39795 13.6024 0.666992 9 0.666992ZM7.52942 7.52974C7.52942 8.34192 8.18782 9.00033 9 9.00033C9.81219 9.00033 10.4706 8.34192 10.4706 7.52974C10.4706 6.71755 9.81219 6.05915 9 6.05915C8.18782 6.05915 7.52942 6.71755 7.52942 7.52974ZM9 4.58856C7.37564 4.58856 6.05883 5.90537 6.05883 7.52974C6.05883 9.1541 7.37564 10.4709 9 10.4709C10.6244 10.4709 11.9412 9.1541 11.9412 7.52974C11.9412 5.90537 10.6244 4.58856 9 4.58856Z" fill="#19191A"/>
</svg>
