<svg width="24" height="24" viewBox="0 0 24 24" fill="none" xmlns="http://www.w3.org/2000/svg">
<path d="M12.6175 4.0847C13.6478 4.11574 14.3178 4.66426 14.6711 5.6983L14.727 5.87513L14.7703 6.03345C14.7861 6.09442 14.8057 6.15934 14.8287 6.22676L14.8776 6.3583L14.9066 6.37233L14.9654 6.35351L15.0794 6.31126L15.2124 6.25528C16.4184 5.71199 17.3462 5.81282 18.1017 6.61613L18.2084 6.73568L18.9081 7.57471C19.5316 8.36904 19.5127 9.21807 18.9045 10.1345L18.7977 10.2878L18.6978 10.42C18.6579 10.4713 18.6172 10.5282 18.5768 10.5893L18.5163 10.6839L18.4876 10.7313L18.491 10.7478L18.5692 10.7978L18.6772 10.8608L18.808 10.9296C19.993 11.5148 20.482 12.2842 20.2933 13.3532L20.2618 13.5079L20.0535 14.3814C19.9187 14.9467 19.8128 15.2143 19.396 15.5815C18.9912 15.9382 18.5293 16.0854 17.919 16.1342L17.7313 16.1461L17.5621 16.1513C17.4965 16.1524 17.426 16.1564 17.3521 16.163L17.1978 16.1807L17.2091 16.2982L17.2204 16.3773L17.248 16.5248C17.5237 17.7841 17.2135 18.6362 16.2347 19.1677L16.0903 19.2415L15.088 19.7124C14.1479 20.1215 13.2972 19.9127 12.5112 19.1332L12.3808 18.998L12.2702 18.8741C12.227 18.8244 12.1784 18.7728 12.1253 18.7203L12.0427 18.6412L12.0003 18.6033L11.9221 18.6753L11.8326 18.7644L11.7322 18.8741C10.9197 19.8098 10.0621 20.1457 9.02276 19.7545L8.87302 19.6937L7.97613 19.2719L7.7097 19.14C7.30361 18.9254 7.07572 18.7199 6.85303 18.2648C6.61858 17.7858 6.60283 17.3153 6.71648 16.7104L6.75437 16.5248C6.76794 16.4629 6.77981 16.3957 6.78973 16.3247L6.80535 16.1832L6.80194 16.1799L6.7135 16.1684L6.58853 16.1576L6.4402 16.1513C5.11008 16.128 4.32191 15.6438 4.00683 14.6014L3.96502 14.4486L3.71629 13.3977C3.51577 12.4193 3.9174 11.6642 4.87919 11.0986L5.04467 11.006L5.19435 10.9296C5.25301 10.9007 5.31484 10.8671 5.37843 10.8296L5.51045 10.7462L5.51386 10.7305L5.4605 10.6415L5.39157 10.5381L5.30457 10.42C4.50463 9.39145 4.41366 8.4924 5.06864 7.61035L5.16729 7.48445L5.86999 6.6478C6.54333 5.89253 7.40552 5.73389 8.45833 6.11899L8.63556 6.1882L8.78995 6.25528C8.84804 6.28144 8.9116 6.30722 8.97923 6.33206L9.09489 6.37151L9.1256 6.35748L9.15428 6.28431L9.19274 6.17044L9.23201 6.03345C9.53835 4.84777 10.1569 4.18211 11.2702 4.09281L11.4326 4.08398L12.6175 4.0847ZM12.5697 5.56973H11.4326L11.3137 5.57816C11.0697 5.6089 10.9103 5.73635 10.7569 6.26463L10.7216 6.39379L10.6735 6.56363C10.5839 6.8546 10.4486 7.18203 10.2743 7.49993C9.92921 7.61958 9.60128 7.77408 9.29555 7.9606C8.93581 7.89003 8.59279 7.78653 8.30654 7.67205L8.00797 7.54417C7.79564 7.45616 7.63661 7.41127 7.51059 7.40034L7.43877 7.39779C7.28726 7.40086 7.18722 7.46107 7.09058 7.55677L7.03262 7.61827L6.35946 8.42077L6.27867 8.52425C6.12223 8.74242 6.09882 8.93697 6.4449 9.4119L6.63956 9.67258C6.82032 9.92823 7.00157 10.2433 7.14956 10.5817C7.03916 10.8989 6.96105 11.2304 6.91919 11.5734C6.63439 11.8119 6.33091 12.0163 6.05451 12.1683L5.76255 12.3194C5.23634 12.5995 5.16924 12.7842 5.21101 13.0467L5.22242 13.1087L5.46152 14.1161L5.49605 14.2414C5.57741 14.495 5.72144 14.6326 6.32128 14.6611L6.65169 14.6731C6.96812 14.6924 7.33238 14.7473 7.69503 14.8414C7.88676 15.1294 8.10853 15.397 8.35711 15.6399C8.37127 16.0746 8.32973 16.4983 8.25647 16.8328C8.08493 17.6162 8.24462 17.7424 8.58361 17.9054L9.54419 18.3574C9.64598 18.4017 9.73694 18.4315 9.83147 18.4304L9.88873 18.4258C10.0432 18.403 10.2141 18.2923 10.4605 18.0257L10.6804 17.7823C10.8994 17.5522 11.1791 17.3082 11.4895 17.0915L11.7437 17.1097L12.0012 17.1159L12.2587 17.1096L12.513 17.0908C12.8232 17.3081 13.1029 17.5522 13.3219 17.7823L13.5418 18.0257C13.819 18.3256 14.0007 18.4282 14.1709 18.4304L14.2273 18.4275C14.2772 18.4218 14.327 18.4083 14.3788 18.3894L14.4581 18.3574L15.4187 17.9054L15.5372 17.8446C15.7925 17.7006 15.896 17.5183 15.7459 16.8328C15.6726 16.4983 15.6311 16.0746 15.6463 15.64C15.8938 15.397 16.1156 15.1294 16.3075 14.84C16.6705 14.747 17.0345 14.6923 17.3508 14.6731L17.6811 14.6611C18.3732 14.6282 18.4585 14.4501 18.5408 14.1161L18.7656 13.174C18.8429 12.8388 18.847 12.6425 18.2398 12.3194L17.9478 12.1683C17.6714 12.0163 17.3679 11.8118 17.0833 11.5727C17.0413 11.2304 16.9632 10.8989 16.8523 10.581C17.0007 10.2432 17.182 9.92822 17.3628 9.67258L17.5574 9.4119C17.9035 8.93697 17.8801 8.74242 17.7237 8.52425L17.6853 8.47334L17.014 7.66937C16.8939 7.5279 16.793 7.42662 16.6284 7.40295L16.5636 7.39779C16.4272 7.39503 16.2492 7.43856 15.9944 7.54417L15.6959 7.672C15.4099 7.78638 15.0671 7.88967 14.7078 7.9593C14.4009 7.77392 14.0722 7.61913 13.7264 7.50067C13.5604 7.1949 13.4292 6.88081 13.3398 6.59873L13.243 6.25653C13.0794 5.69741 12.9084 5.59257 12.6347 5.57292L12.5697 5.56973ZM12.0012 9.02686C13.7914 9.02686 15.2427 10.4311 15.2427 12.1634C15.2427 13.8957 13.7914 15.3 12.0012 15.3C10.2109 15.3 8.75965 13.8957 8.75965 12.1634C8.75965 10.4311 10.2109 9.02686 12.0012 9.02686ZM12.0012 10.5126C11.0589 10.5126 10.2951 11.2517 10.2951 12.1634C10.2951 13.0751 11.0589 13.8142 12.0012 13.8142C12.9434 13.8142 13.7072 13.0751 13.7072 12.1634C13.7072 11.2517 12.9434 10.5126 12.0012 10.5126Z" fill="#252629"/>
</svg>
