<svg width="20" height="20" viewBox="0 0 20 20" fill="none" xmlns="http://www.w3.org/2000/svg">
<path fill-rule="evenodd" clip-rule="evenodd" d="M7.64932 15.5445C7.35919 15.4378 7.03326 15.5199 6.82845 15.7515C6.21926 16.4403 5.18838 16.8584 3.70517 16.9738C4.38697 15.6243 4.75014 14.5951 4.78944 13.8394C4.7986 13.6634 4.74548 13.4898 4.63941 13.349C3.89926 12.3669 3.5 11.2108 3.5 10C3.5 6.69372 6.47776 4 10.25 4C14.0222 4 17 6.69372 17 10C17 13.3063 14.0222 16 10.25 16C9.34083 16 8.46246 15.8438 7.64932 15.5445ZM2.6418 18.3608C2.82641 18.4586 3.03326 18.5067 3.24205 18.5003C5.13438 18.4427 6.59352 17.9884 7.59029 17.1068C8.43685 17.3661 9.33199 17.5 10.25 17.5C14.819 17.5 18.5 14.1701 18.5 10C18.5 5.82989 14.819 2.5 10.25 2.5C5.681 2.5 2 5.82989 2 10C2 11.4399 2.44334 12.8188 3.26217 14.0034C3.15699 14.5928 2.78485 15.5166 2.14095 16.7328C1.82968 17.3206 2.05391 18.0496 2.6418 18.3608ZM10.25 14.4004C10.7471 14.4004 11.15 13.9975 11.15 13.5004C11.15 13.0034 10.7471 12.6004 10.25 12.6004C9.75295 12.6004 9.35001 13.0034 9.35001 13.5004C9.35001 13.9975 9.75295 14.4004 10.25 14.4004ZM9.4015 7.98741C9.4959 7.62064 9.82972 7.35046 10.2248 7.35046C10.6942 7.35046 11.0748 7.73102 11.0748 8.20046C11.0748 8.56431 10.9412 8.72256 10.588 9.05218L10.5318 9.10438C10.1676 9.44188 9.61692 9.95218 9.48232 10.8944C9.42374 11.3044 9.70866 11.6843 10.1187 11.7429C10.5288 11.8015 10.9087 11.5166 10.9672 11.1065C11.0255 10.6986 11.2225 10.5119 11.6115 10.1488C12.0083 9.77837 12.5748 9.23662 12.5748 8.20047C12.5748 6.90259 11.5226 5.85046 10.2248 5.85046C9.12873 5.85046 8.20967 6.60011 7.94884 7.61352C7.84559 8.01466 8.08709 8.42355 8.48822 8.52679C8.88936 8.63004 9.29825 8.38855 9.4015 7.98741Z" fill="black"/>
</svg>
