<svg width="222" height="212" viewBox="0 0 222 212" fill="none" xmlns="http://www.w3.org/2000/svg">
<path d="M159.326 153.298C193.188 153.298 220.638 142.521 220.638 129.227V102.128H98.0127V129.227C98.0127 142.521 125.463 153.298 159.326 153.298Z" fill="#E5EEF7" stroke="#0077FF" stroke-width="1.8"/>
<path d="M98.0127 100.766V129.227" stroke="#0077FF" stroke-width="1.8"/>
<path d="M220.638 100.766V129.227" stroke="#0077FF" stroke-width="1.8"/>
<ellipse cx="159.326" cy="100.766" rx="61.3128" ry="24.071" fill="#E5EEF7" stroke="#0077FF" stroke-width="1.8"/>
<rect x="157.054" y="135.434" width="4.54169" height="6.66115" rx="2.27085" fill="#E5EEF7" stroke="#0077FF" stroke-width="1.8"/>
<path d="M159.326 115.45C193.188 115.45 220.638 104.674 220.638 91.3795V64.2808H98.0127V91.3795C98.0127 104.674 125.463 115.45 159.326 115.45Z" fill="#E5EEF7" stroke="#0077FF" stroke-width="1.8"/>
<path d="M98.0127 62.9182V91.3795" stroke="#0077FF" stroke-width="1.8"/>
<path d="M220.638 62.9182V91.3795" stroke="#0077FF" stroke-width="1.8"/>
<ellipse cx="159.326" cy="62.9181" rx="61.3128" ry="24.071" fill="#E5EEF7" stroke="#0077FF" stroke-width="1.8"/>
<rect x="157.054" y="97.5867" width="4.54169" height="6.66115" rx="2.27085" fill="#E5EEF7" stroke="#0077FF" stroke-width="1.8"/>
<path d="M159.326 77.6031C193.188 77.6031 220.638 66.8261 220.638 53.5321V26.4333H98.0127V53.5321C98.0127 66.8261 125.463 77.6031 159.326 77.6031Z" fill="#E5EEF7" stroke="#0077FF" stroke-width="1.8"/>
<path d="M98.0127 25.0708V53.5321" stroke="#0077FF" stroke-width="1.8"/>
<path d="M220.638 25.0708V53.5321" stroke="#0077FF" stroke-width="1.8"/>
<ellipse cx="159.326" cy="25.071" rx="61.3128" ry="24.071" fill="#E5EEF7" stroke="#0077FF" stroke-width="1.8"/>
<ellipse cx="159.326" cy="25.071" rx="61.3128" ry="24.071" fill="#F6F7F9" stroke="#0077FF" stroke-width="1.8"/>
<rect x="157.054" y="59.7393" width="4.54169" height="6.66115" rx="2.27085" fill="#E5EEF7" stroke="#0077FF" stroke-width="1.8"/>
<path d="M82.2699 210.239C116.132 210.239 143.583 199.462 143.583 186.168V159.07H20.957V186.168C20.957 199.462 48.4077 210.239 82.2699 210.239Z" fill="#F6F7F9" stroke="black" stroke-width="1.8"/>
<path d="M20.957 157.707V186.169" stroke="black" stroke-width="1.8"/>
<path d="M143.583 157.707V186.169" stroke="black" stroke-width="1.8"/>
<ellipse cx="82.2699" cy="157.707" rx="61.3128" ry="24.071" fill="#F6F7F9" stroke="black" stroke-width="1.8"/>
<rect x="79.999" y="192.375" width="4.54169" height="6.66115" rx="2.27085" fill="#F6F7F9" stroke="black" stroke-width="1.8"/>
<path d="M82.2699 172.392C116.132 172.392 143.583 161.615 143.583 148.321V121.222H20.957V148.321C20.957 161.615 48.4077 172.392 82.2699 172.392Z" fill="#F6F7F9" stroke="black" stroke-width="1.8"/>
<path d="M20.957 119.86V148.321" stroke="black" stroke-width="1.8"/>
<path d="M143.583 119.86V148.321" stroke="black" stroke-width="1.8"/>
<ellipse cx="82.2699" cy="119.86" rx="61.3128" ry="24.071" fill="#F6F7F9" stroke="black" stroke-width="1.8"/>
<rect x="79.999" y="154.528" width="4.54169" height="6.66115" rx="2.27085" fill="#F6F7F9" stroke="black" stroke-width="1.8"/>
<path d="M82.2699 134.545C116.132 134.545 143.583 123.768 143.583 110.474V83.375H20.957V110.474C20.957 123.768 48.4077 134.545 82.2699 134.545Z" fill="#F6F7F9" stroke="black" stroke-width="1.8"/>
<path d="M20.957 82.0122V110.473" stroke="black" stroke-width="1.8"/>
<path d="M143.583 82.0122V110.473" stroke="black" stroke-width="1.8"/>
<ellipse cx="82.2699" cy="82.0126" rx="61.3128" ry="24.071" fill="#F6F7F9" stroke="black" stroke-width="1.8"/>
<ellipse cx="82.2699" cy="82.0126" rx="61.3128" ry="24.071" fill="#F6F7F9" stroke="black" stroke-width="1.8"/>
<rect x="79.999" y="116.681" width="4.54169" height="6.66115" rx="2.27085" fill="#F6F7F9" stroke="black" stroke-width="1.8"/>
<mask id="path-33-inside-1_19707_4016" fill="white">
<path fill-rule="evenodd" clip-rule="evenodd" d="M44.2932 96.0742C23.211 88.1703 23.0565 75.4136 43.9479 67.5812C64.8393 59.7488 98.8655 59.8068 119.948 67.7107C141.03 75.6145 141.184 88.3713 120.293 96.2036C99.4015 104.036 65.3753 103.978 44.2932 96.0742ZM57.1486 91.2546C43.2328 86.0374 43.132 77.6164 56.9236 72.4458C70.7152 67.2753 93.1766 67.313 107.092 72.5302C121.008 77.7474 121.109 86.1683 107.317 91.3389C93.5258 96.5095 71.0645 96.4717 57.1486 91.2546Z"/>
</mask>
<path fill-rule="evenodd" clip-rule="evenodd" d="M44.2932 96.0742C23.211 88.1703 23.0565 75.4136 43.9479 67.5812C64.8393 59.7488 98.8655 59.8068 119.948 67.7107C141.03 75.6145 141.184 88.3713 120.293 96.2036C99.4015 104.036 65.3753 103.978 44.2932 96.0742ZM57.1486 91.2546C43.2328 86.0374 43.132 77.6164 56.9236 72.4458C70.7152 67.2753 93.1766 67.313 107.092 72.5302C121.008 77.7474 121.109 86.1683 107.317 91.3389C93.5258 96.5095 71.0645 96.4717 57.1486 91.2546Z" fill="#F6F7F9"/>
<path d="M43.9479 67.5812L44.5797 69.2666L43.9479 67.5812ZM44.2932 96.0742L43.6613 97.7596H43.6613L44.2932 96.0742ZM119.948 67.7107L119.316 69.3961L119.948 67.7107ZM120.293 96.2036L119.661 94.5182L120.293 96.2036ZM56.9236 72.4458L57.5555 74.1313L56.9236 72.4458ZM57.1486 91.2546L56.5167 92.94L57.1486 91.2546ZM107.092 72.5302L107.724 70.8448L107.092 72.5302ZM43.316 65.8958C37.9639 67.9023 33.8216 70.2725 30.9954 72.9101C28.1618 75.5547 26.5413 78.5835 26.5806 81.8227C26.6198 85.0555 28.3072 88.0746 31.1915 90.7165C34.0721 93.355 38.2633 95.7359 43.6613 97.7596L44.925 94.3887C39.782 92.4606 36.048 90.2829 33.6231 88.0618C31.202 85.8441 30.2036 83.7025 30.1803 81.7791C30.1571 79.8621 31.0975 77.7391 33.4517 75.542C35.8135 73.3378 39.4861 71.1763 44.5797 69.2666L43.316 65.8958ZM120.58 66.0252C109.779 61.9758 95.7739 59.9685 81.8793 59.9448C67.9856 59.9212 54.0257 61.8806 43.316 65.8958L44.5797 69.2666C54.7614 65.4494 68.2603 63.5216 81.8732 63.5448C95.485 63.568 109.035 65.5416 119.316 69.3961L120.58 66.0252ZM120.925 97.8891C126.277 95.8825 130.419 93.5123 133.245 90.8747C136.079 88.2301 137.699 85.2014 137.66 81.9621C137.621 78.7294 135.934 75.7103 133.049 73.0684C130.169 70.4299 125.977 68.049 120.58 66.0252L119.316 69.3961C124.459 71.3243 128.193 73.5019 130.618 75.723C133.039 77.9407 134.037 80.0823 134.06 82.0058C134.084 83.9227 133.143 86.0457 130.789 88.2429C128.427 90.4471 124.755 92.6085 119.661 94.5182L120.925 97.8891ZM43.6613 97.7596C54.4623 101.809 68.4669 103.816 82.3615 103.84C96.2552 103.864 110.215 101.904 120.925 97.8891L119.661 94.5182C109.479 98.3354 95.9804 100.263 82.3676 100.24C68.7557 100.217 55.2062 98.2432 44.925 94.3887L43.6613 97.7596ZM56.2917 70.7604C52.7146 72.1015 49.9002 73.7017 47.9555 75.5164C46.0032 77.3381 44.8177 79.4913 44.846 81.8543C44.8742 84.2108 46.1049 86.353 48.0874 88.1691C50.0661 89.9818 52.9103 91.5879 56.5167 92.94L57.7805 89.5691C54.429 88.3126 52.0421 86.9097 50.5192 85.5145C48.9999 84.1228 48.4582 82.8583 48.4457 81.8112C48.4333 80.7704 48.9387 79.5228 50.4116 78.1484C51.892 76.7669 54.2368 75.3755 57.5555 74.1313L56.2917 70.7604ZM107.724 70.8448C100.506 68.1387 91.1846 66.8081 81.9645 66.7926C72.7453 66.7771 63.4515 68.0761 56.2917 70.7604L57.5555 74.1313C64.1873 71.645 73.0201 70.3776 81.9584 70.3926C90.8958 70.4076 99.7626 71.7045 106.461 74.2156L107.724 70.8448ZM107.949 93.0244C111.526 91.6833 114.341 90.0831 116.286 88.2684C118.238 86.4466 119.423 84.2934 119.395 81.9305C119.367 79.5739 118.136 77.4318 116.154 75.6157C114.175 73.803 111.331 72.1968 107.724 70.8448L106.461 74.2156C109.812 75.4722 112.199 76.875 113.722 78.2702C115.241 79.662 115.783 80.9264 115.795 81.9736C115.808 83.0143 115.302 84.2619 113.829 85.6364C112.349 87.0178 110.004 88.4093 106.686 89.6535L107.949 93.0244ZM56.5167 92.94C63.7346 95.6461 73.0564 96.9767 82.2766 96.9921C91.4958 97.0077 100.79 95.7086 107.949 93.0244L106.686 89.6535C100.054 92.1398 91.221 93.4072 82.2826 93.3922C73.3452 93.3771 64.4785 92.0802 57.7805 89.5691L56.5167 92.94Z" fill="#B5DCFF" mask="url(#path-33-inside-1_19707_4016)"/>
<mask id="path-35-inside-2_19707_4016" fill="white">
<path d="M43.9488 67.5818C53.9812 63.8206 67.6244 61.7212 81.8772 61.7454C96.1299 61.7697 109.825 63.9157 119.949 67.7112C130.073 71.5068 135.797 76.6411 135.861 81.9845C135.926 87.328 130.326 92.443 120.294 96.2042L86.9217 83.6927C88.1833 83.2197 88.8875 82.5765 88.8793 81.9045C88.8712 81.2326 88.1514 80.5869 86.8782 80.1096C85.6051 79.6323 83.883 79.3624 82.0906 79.3594C80.2983 79.3563 78.5826 79.6203 77.321 80.0933L43.9488 67.5818Z"/>
</mask>
<path d="M43.9488 67.5818C53.9812 63.8206 67.6244 61.7212 81.8772 61.7454C96.1299 61.7697 109.825 63.9157 119.949 67.7112C130.073 71.5068 135.797 76.6411 135.861 81.9845C135.926 87.328 130.326 92.443 120.294 96.2042L86.9217 83.6927C88.1833 83.2197 88.8875 82.5765 88.8793 81.9045C88.8712 81.2326 88.1514 80.5869 86.8782 80.1096C85.6051 79.6323 83.883 79.3624 82.0906 79.3594C80.2983 79.3563 78.5826 79.6203 77.321 80.0933L43.9488 67.5818Z" fill="#F6F7F9" stroke="#0077FF" stroke-width="3.6" mask="url(#path-35-inside-2_19707_4016)"/>
<mask id="path-36-inside-3_19707_4016" fill="white">
<path d="M43.9488 67.5818C51.7648 64.6515 61.832 62.7092 72.7665 62.0218L80.9449 79.3941C79.5699 79.4806 78.3039 79.7248 77.321 80.0933L43.9488 67.5818Z"/>
</mask>
<path d="M43.9488 67.5818C51.7648 64.6515 61.832 62.7092 72.7665 62.0218L80.9449 79.3941C79.5699 79.4806 78.3039 79.7248 77.321 80.0933L43.9488 67.5818Z" fill="#F6F7F9" stroke="#0077FF" stroke-width="3.6" mask="url(#path-36-inside-3_19707_4016)"/>
<ellipse cx="5.67485" cy="5.62352" rx="5.67485" ry="5.62352" transform="matrix(-0.936357 -0.351049 -0.936357 0.351049 92.7002 81.9109)" fill="#F6F7F9" stroke="#0077FF" stroke-width="1.8"/>
<rect y="129.882" width="42.0463" height="42.0463" rx="12.5154" fill="#0077FF"/>
<path d="M8.46695 146.821C10.7289 144.579 14.3962 144.579 16.6581 146.821L20.7537 150.88L16.6581 154.939C14.3962 157.181 10.7289 157.181 8.46695 154.939C6.20503 152.698 6.20503 149.063 8.46695 146.821Z" fill="#0077FF"/>
<path d="M33.0403 154.939C30.7784 157.181 27.1111 157.181 24.8492 154.939L20.7537 150.88L24.8492 146.821C27.1111 144.579 30.7784 144.579 33.0403 146.821C35.3023 149.063 35.3023 152.698 33.0403 154.939Z" fill="#0077FF"/>
<path d="M20.7537 150.88L16.6581 146.821C14.3962 144.579 10.7289 144.579 8.46695 146.821C6.20503 149.063 6.20503 152.698 8.46695 154.939C10.7289 157.181 14.3962 157.181 16.6581 154.939L20.7537 150.88ZM20.7537 150.88L24.8492 154.939C27.1111 157.181 30.7784 157.181 33.0403 154.939C35.3023 152.698 35.3023 149.063 33.0403 146.821C30.7784 144.579 27.1111 144.579 24.8492 146.821L20.7537 150.88Z" stroke="white" stroke-width="1.8"/>
</svg>
