<svg width="122" height="76" viewBox="0 0 122 76" fill="none" xmlns="http://www.w3.org/2000/svg">
<path d="M43.2584 71.6919H42.5739C34.9522 71.6919 31.1413 71.6919 28.7246 69.3851C28.6311 69.2958 28.5396 69.2044 28.4503 69.1108C26.1436 66.6941 26.1436 62.8832 26.1436 55.2615V55.2615" stroke="black" stroke-width="1.2" stroke-linecap="round"/>
<path d="M76.971 3.93115H77.6555C85.2773 3.93115 89.0882 3.93115 91.5049 6.23794C91.5984 6.32724 91.6899 6.41869 91.7791 6.51224C94.0859 8.92893 94.0859 12.7398 94.0859 20.3615V20.3615" stroke="black" stroke-width="1.2" stroke-linecap="round"/>
<path d="M43.2584 3.93115H42.5739C34.9522 3.93115 31.1413 3.93115 28.7246 6.23794C28.6311 6.32724 28.5396 6.41869 28.4503 6.51224C26.1436 8.92893 26.1436 12.7398 26.1436 20.3615V20.3615" stroke="black" stroke-width="1.2" stroke-linecap="round"/>
<path d="M76.971 71.6919H77.6555C85.2773 71.6919 89.0882 71.6919 91.5049 69.3851C91.5984 69.2958 91.6899 69.2044 91.7791 69.1108C94.0859 66.6941 94.0859 62.8832 94.0859 55.2615V55.2615" stroke="black" stroke-width="1.2" stroke-linecap="round"/>
<path d="M104.45 43.3345H87.3242" stroke="#D7DDE8" stroke-width="1.2" stroke-linecap="round" stroke-dasharray="3.49 3.49"/>
<path d="M34.6777 43.3345H17.5517" stroke="#D7DDE8" stroke-width="1.2" stroke-linecap="round" stroke-dasharray="3.49 3.49"/>
<path d="M73.9429 27.6677C72.141 21.1216 66.1779 16.3159 59.0979 16.3159C50.5912 16.3159 43.695 23.2535 43.695 31.8113C43.695 32.3746 43.7254 32.9309 43.7842 33.4781C38.0486 34.816 33.7734 39.9881 33.7734 46.1657C33.7734 53.1582 39.2519 58.863 46.126 59.1752H46.144C46.3347 59.1842 46.5262 59.1891 46.7191 59.1891C46.9119 59.1891 47.1144 59.1835 47.3107 59.1752L70.0936 59.1627C70.3922 59.1794 70.6936 59.1891 70.9963 59.1891C79.7249 59.1891 86.8008 52.0707 86.8008 43.2897C86.8008 35.5218 81.2628 29.0563 73.9429 27.6677Z" fill="#E5EEF7" stroke="black" stroke-width="1.2"/>
<path d="M9.67546 28.9702H8.05895C5.34048 28.9702 3.98125 28.9702 2.98274 29.5821C2.42402 29.9245 1.95427 30.3942 1.61189 30.953C1 31.9515 1 33.3107 1 36.0292V44.719C1 47.4375 1 48.7967 1.61189 49.7952C1.95427 50.3539 2.42402 50.8237 2.98274 51.1661C3.98125 51.778 5.34048 51.778 8.05895 51.778H12.5782C15.2967 51.778 16.6559 51.778 17.6545 51.1661C18.2132 50.8237 18.6829 50.3539 19.0253 49.7952C19.6372 48.7967 19.6372 47.4375 19.6372 44.719V38.9319C19.6372 37.7464 19.6372 37.1536 19.4813 36.6009C19.3927 36.2866 19.2673 35.9839 19.1078 35.6991C18.8271 35.198 18.408 34.7788 17.5697 33.9405L17.5697 33.9405L14.6669 31.0377C13.8286 30.1994 13.4094 29.7803 12.9083 29.4997C12.6235 29.3401 12.3208 29.2147 12.0065 29.1261C11.4538 28.9702 10.861 28.9702 9.67546 28.9702Z" fill="#F3F4F6" stroke="#0077FF" stroke-width="1.2"/>
<path d="M19.6292 37.1801V37.7801H20.2716L20.2278 37.1391L19.6292 37.1801ZM18.6446 35.0155L19.0689 34.5913V34.5913L18.6446 35.0155ZM13.5918 29.9627L13.1675 30.387L13.1675 30.387L13.5918 29.9627ZM10.9053 28.9702V28.3702H10.3053V28.9702H10.9053ZM11.6983 35.4684L12.1837 35.1158H12.1837L11.6983 35.4684ZM12.6169 36.3871L12.9696 35.9016L12.9696 35.9016L12.6169 36.3871ZM20.2278 37.1391C20.1622 36.1808 19.7524 35.2748 19.0689 34.5913L18.2203 35.4398C18.6982 35.9177 18.9847 36.5511 19.0306 37.2211L20.2278 37.1391ZM19.0689 34.5913L14.016 29.5384L13.1675 30.387L18.2203 35.4398L19.0689 34.5913ZM14.016 29.5384C13.268 28.7904 12.2535 28.3702 11.1957 28.3702V29.5702C11.9352 29.5702 12.6445 29.864 13.1675 30.387L14.016 29.5384ZM11.1957 28.3702H10.9053V29.5702H11.1957V28.3702ZM10.3053 28.9702V29.7059H11.5053V28.9702H10.3053ZM10.3053 29.7059C10.3053 31.2495 10.3044 32.4555 10.4079 33.4102C10.5126 34.3762 10.7297 35.156 11.2129 35.8211L12.1837 35.1158C11.8739 34.6893 11.6945 34.1449 11.6009 33.281C11.5061 32.4059 11.5053 31.2763 11.5053 29.7059H10.3053ZM11.2129 35.8211C11.506 36.2246 11.8608 36.5793 12.2643 36.8725L12.9696 35.9016C12.668 35.6825 12.4028 35.4173 12.1837 35.1158L11.2129 35.8211ZM12.2643 36.8725C12.9293 37.3557 13.7091 37.5728 14.6751 37.6775C15.6299 37.7809 16.8358 37.7801 18.3795 37.7801V36.5801C16.8091 36.5801 15.6795 36.5793 14.8044 36.4844C13.9405 36.3908 13.396 36.2115 12.9696 35.9016L12.2643 36.8725ZM18.3795 37.7801H19.6292V36.5801H18.3795V37.7801Z" fill="#0077FF"/>
<path d="M111.038 31.9937H109.421C106.703 31.9937 105.344 31.9937 104.345 32.6055C103.786 32.9479 103.317 33.4177 102.974 33.9764C102.362 34.9749 102.362 36.3341 102.362 39.0526V47.7424C102.362 50.4609 102.362 51.8202 102.974 52.8187C103.317 53.3774 103.786 53.8471 104.345 54.1895C105.344 54.8014 106.703 54.8014 109.421 54.8014H113.941C116.659 54.8014 118.018 54.8014 119.017 54.1895C119.575 53.8471 120.045 53.3774 120.388 52.8187C120.999 51.8202 120.999 50.4609 120.999 47.7424V41.9554C120.999 40.7699 120.999 40.1771 120.844 39.6243C120.755 39.3101 120.63 39.0074 120.47 38.7225C120.189 38.2214 119.77 37.8023 118.932 36.964L118.932 36.964L116.029 34.0612C115.191 33.2229 114.772 32.8037 114.271 32.5231C113.986 32.3636 113.683 32.2382 113.369 32.1496C112.816 31.9937 112.223 31.9937 111.038 31.9937Z" fill="#F3F4F6" stroke="#0077FF" stroke-width="1.2"/>
<path d="M120.992 40.2035V40.8035H121.634L121.59 40.1626L120.992 40.2035ZM120.007 38.0385L120.431 37.6142L120.431 37.6142L120.007 38.0385ZM114.954 32.9857L114.53 33.4099L114.53 33.4099L114.954 32.9857ZM112.267 31.9932V31.3932H111.667V31.9932H112.267ZM113.06 38.4919L113.545 38.1392L113.06 38.4919ZM113.978 39.4105L114.331 38.9251L114.331 38.9251L113.978 39.4105ZM121.59 40.1626C121.525 39.2041 121.115 38.2979 120.431 37.6142L119.583 38.4628C120.061 38.9407 120.347 39.5743 120.393 40.2444L121.59 40.1626ZM120.431 37.6142L115.378 32.5614L114.53 33.4099L119.583 38.4628L120.431 37.6142ZM115.378 32.5614C114.63 31.8134 113.616 31.3932 112.558 31.3932V32.5932C113.298 32.5932 114.007 32.887 114.53 33.4099L115.378 32.5614ZM112.558 31.3932H112.267V32.5932H112.558V31.3932ZM111.667 31.9932V32.7293H112.867V31.9932H111.667ZM111.667 32.7293C111.667 34.273 111.666 35.4789 111.769 36.4337C111.874 37.3997 112.091 38.1795 112.574 38.8445L113.545 38.1392C113.235 37.7128 113.056 37.1683 112.962 36.3044C112.867 35.4293 112.867 34.2997 112.867 32.7293H111.667ZM112.574 38.8445C112.867 39.248 113.222 39.6028 113.626 39.8959L114.331 38.9251C114.029 38.706 113.764 38.4408 113.545 38.1392L112.574 38.8445ZM113.626 39.8959C114.291 40.3791 115.07 40.5962 116.036 40.7009C116.991 40.8043 118.197 40.8035 119.741 40.8035V39.6035C118.17 39.6035 117.041 39.6027 116.166 39.5079C115.302 39.4143 114.757 39.2349 114.331 38.9251L113.626 39.8959ZM119.741 40.8035H120.992V39.6035H119.741V40.8035Z" fill="#0077FF"/>
</svg>
