<svg width="20" height="20" viewBox="0 0 20 20" fill="none" xmlns="http://www.w3.org/2000/svg">
<path fill-rule="evenodd" clip-rule="evenodd" d="M7 11C6.58579 11 6.25 10.6642 6.25 10.25V1.75C6.25 1.33579 6.58579 1 7 1C7.41421 1 7.75 1.33579 7.75 1.75V5.25H10.75C14.3399 5.25 17.25 8.16015 17.25 11.75C17.25 15.3399 14.3399 18.25 10.75 18.25H10.25C6.38401 18.25 3.25 15.116 3.25 11.25V3.75C3.25 3.33579 3.58579 3 4 3C4.41421 3 4.75 3.33579 4.75 3.75V11.25C4.75 14.2876 7.21243 16.75 10.25 16.75H10.75C13.5114 16.75 15.75 14.5114 15.75 11.75C15.75 8.98858 13.5114 6.75 10.75 6.75H7.75V10.25C7.75 10.6642 7.41421 11 7 11Z" fill="#19191A"/>
</svg>
