<svg width="20" height="20" viewBox="0 0 20 20" fill="none" xmlns="http://www.w3.org/2000/svg">
<path fill-rule="evenodd" clip-rule="evenodd" d="M15.8738 9.5L18 5.7023L15.3674 1L10.1021 1L7.97596 4.7977L3.63262 4.7977L1 9.5L3.63262 14.2023H7.97595L10.1021 18H15.3674L18 13.2977L15.8738 9.5ZM10.9641 2.53961L9.29888 5.51396L11.024 8.59539L14.6564 8.59539L16.2761 5.7023L14.5054 2.53961L10.9641 2.53961ZM9.29888 13.486L11.024 10.4046H14.6564L16.2761 13.2977L14.5054 16.4604H10.9641L9.29888 13.486ZM9.59567 9.5L7.82501 12.6627H4.49459L2.72392 9.5L4.49459 6.3373L7.82501 6.3373L9.59567 9.5Z" fill="black"/>
</svg>
