<svg width="122" height="90" viewBox="0 0 122 90" fill="none" xmlns="http://www.w3.org/2000/svg">
<path d="M108.697 14.542L108.697 13.942L108.697 14.542ZM28.4311 82.4294L28.3139 81.841L28.4311 82.4294ZM110.848 55.1779C110.986 54.8766 111.342 54.7441 111.643 54.882C111.944 55.02 112.077 55.376 111.939 55.6773L110.848 55.1779ZM113.517 52.2915C113.377 52.5919 113.02 52.7219 112.72 52.5819C112.42 52.4419 112.29 52.0849 112.43 51.7846L113.517 52.2915ZM113.978 48.4022C114.113 48.0997 114.468 47.9641 114.771 48.0994C115.073 48.2347 115.209 48.5896 115.074 48.8921L113.978 48.4022ZM116.565 45.4475C116.437 45.7533 116.086 45.8978 115.78 45.7702C115.474 45.6426 115.33 45.2913 115.457 44.9855L116.565 45.4475ZM116.834 41.5305C116.951 41.2205 117.297 41.0642 117.607 41.1813C117.917 41.2985 118.073 41.6448 117.956 41.9547L116.834 41.5305ZM119.213 38.4051C119.109 38.72 118.77 38.8915 118.455 38.7882C118.141 38.6849 117.969 38.3459 118.072 38.031L119.213 38.4051ZM119.128 34.4824C119.212 34.162 119.54 33.9707 119.861 34.0553C120.181 34.1398 120.372 34.4681 120.288 34.7885L119.128 34.4824ZM121.111 31.0928C121.053 31.419 120.742 31.6366 120.416 31.5786C120.089 31.5207 119.872 31.2092 119.93 30.883L121.111 31.0928ZM120.366 27.2447C120.384 26.9139 120.667 26.6602 120.998 26.6782C121.329 26.6961 121.582 26.9789 121.564 27.3098L120.366 27.2447ZM121.432 23.4651C121.478 23.7933 121.249 24.0965 120.92 24.1422C120.592 24.188 120.289 23.959 120.243 23.6308L121.432 23.4651ZM119.257 20.2426C119.112 19.9447 119.236 19.5856 119.534 19.4403C119.832 19.2951 120.191 19.4189 120.336 19.7167L119.257 20.2426ZM117.893 16.599C118.149 16.8094 118.186 17.1875 117.976 17.4435C117.765 17.6995 117.387 17.7365 117.131 17.5262L117.893 16.599ZM114.054 15.8857C113.739 15.7825 113.568 15.4437 113.671 15.1287C113.774 14.8138 114.113 14.6421 114.428 14.7452L114.054 15.8857ZM110.628 14.0174C110.959 14.0443 111.205 14.3338 111.178 14.6641C111.151 14.9943 110.861 15.2403 110.531 15.2134L110.628 14.0174ZM107.002 15.2723C106.675 15.3222 106.369 15.097 106.319 14.7694C106.269 14.4418 106.494 14.1358 106.822 14.086L107.002 15.2723ZM103.255 15.109C103.561 14.9818 103.912 15.1266 104.039 15.4326C104.167 15.7386 104.022 16.0898 103.716 16.217L103.255 15.109ZM100.626 17.8369C100.345 18.0129 99.9751 17.9279 99.7991 17.6472C99.6231 17.3664 99.7081 16.9961 99.9889 16.8201L100.626 17.8369ZM97.0245 18.9278C97.2844 18.7222 97.6618 18.7663 97.8674 19.0262C98.0729 19.2861 98.0289 19.6634 97.769 19.869L97.0245 18.9278ZM95.0756 22.1788C94.8317 22.4032 94.4521 22.3874 94.2278 22.1435C94.0034 21.8997 94.0192 21.5201 94.263 21.2957L95.0756 22.1788ZM91.6657 23.8211C91.8976 23.5843 92.2774 23.5803 92.5142 23.8122C92.7509 24.0441 92.7549 24.4239 92.523 24.6607L91.6657 23.8211ZM90.0854 27.2482C89.8624 27.4933 89.4829 27.5112 89.2379 27.2882C88.9928 27.0652 88.9749 26.6857 89.1979 26.4406L90.0854 27.2482ZM86.8136 29.1347C87.0301 28.8839 87.409 28.8561 87.6598 29.0726C87.9107 29.2892 87.9385 29.668 87.7219 29.9189L86.8136 29.1347ZM85.4133 32.6463C85.2014 32.9011 84.8231 32.9358 84.5683 32.7239C84.3136 32.5119 84.2789 32.1336 84.4908 31.8789L85.4133 32.6463ZM82.2114 34.6558C82.4202 34.3985 82.798 34.3592 83.0553 34.5679C83.3127 34.7767 83.352 35.1546 83.1432 35.4119L82.2114 34.6558ZM80.8977 38.202C80.6908 38.4608 80.3132 38.5029 80.0544 38.296C79.7956 38.089 79.7535 37.7115 79.9604 37.4527L80.8977 38.202ZM77.7253 40.2593C77.9314 39.9998 78.3088 39.9565 78.5683 40.1627C78.8277 40.3688 78.871 40.7462 78.6649 41.0057L77.7253 40.2593ZM76.4341 43.8139C76.2279 44.0733 75.8504 44.1163 75.5911 43.9101C75.3317 43.7038 75.2887 43.3264 75.4949 43.067L76.4341 43.8139ZM73.2596 45.8681C73.4669 45.6095 73.8445 45.568 74.1031 45.7752C74.3616 45.9825 74.4032 46.3601 74.1959 46.6186L73.2596 45.8681ZM71.9416 49.4123C71.7325 49.6693 71.3546 49.7083 71.0975 49.4992C70.8404 49.2901 70.8015 48.9122 71.0106 48.6551L71.9416 49.4123ZM68.7394 51.4207C68.951 51.1658 69.3293 51.1307 69.5843 51.3423C69.8392 51.554 69.8743 51.9323 69.6627 52.1872L68.7394 51.4207ZM67.351 54.9361C67.136 55.1882 66.7573 55.2183 66.5051 55.0033C66.253 54.7883 66.2229 54.4096 66.4379 54.1575L67.351 54.9361ZM64.0968 56.859C64.3159 56.6105 64.6951 56.5866 64.9436 56.8057C65.1922 57.0249 65.2161 57.404 64.9969 57.6526L64.0968 56.859ZM62.5922 60.3278C62.3681 60.572 61.9886 60.5883 61.7444 60.3643C61.5003 60.1402 61.4839 59.7607 61.708 59.5165L62.5922 60.3278ZM59.2633 62.12C59.4931 61.8812 59.8729 61.8739 60.1117 62.1036C60.3505 62.3333 60.3578 62.7132 60.1281 62.952L59.2633 62.12ZM57.5958 65.5137C57.3595 65.746 56.9797 65.7428 56.7473 65.5065C56.515 65.2702 56.5182 64.8903 56.7545 64.658L57.5958 65.5137ZM54.1728 67.1175C54.4165 66.893 54.7961 66.9085 55.0207 67.1521C55.2452 67.3958 55.2297 67.7754 54.986 68L54.1728 67.1175ZM52.2891 70.3955C52.0372 70.6107 51.6584 70.581 51.4432 70.3291C51.2279 70.0771 51.2577 69.6984 51.5096 69.4832L52.2891 70.3955ZM48.756 71.7368C49.017 71.5327 49.3941 71.5788 49.5982 71.8399C49.8024 72.1009 49.7562 72.478 49.4952 72.6821L48.756 71.7368ZM46.595 74.8382C46.3241 75.0291 45.9498 74.9642 45.7589 74.6933C45.5681 74.4224 45.633 74.048 45.9039 73.8572L46.595 74.8382ZM42.9463 75.8191C43.2277 75.6441 43.5976 75.7304 43.7726 76.0117C43.9476 76.2931 43.8614 76.6631 43.58 76.8381L42.9463 75.8191ZM40.4443 78.6517C40.1521 78.8079 39.7886 78.6977 39.6323 78.4055C39.4761 78.1132 39.5863 77.7497 39.8785 77.5935L40.4443 78.6517ZM36.6999 79.1475C37.0029 79.0133 37.3573 79.1501 37.4915 79.4531C37.6257 79.756 37.4889 80.1104 37.186 80.2447L36.6999 79.1475ZM33.809 81.5797C33.496 81.6885 33.154 81.523 33.0452 81.21C32.9364 80.897 33.102 80.5551 33.4149 80.4463L33.809 81.5797ZM30.0354 81.4549C30.3569 81.3747 30.6825 81.5704 30.7627 81.892C30.8428 82.2135 30.6472 82.5391 30.3256 82.6193L30.0354 81.4549ZM26.8491 83.328C26.5222 83.382 26.2133 83.1608 26.1593 82.8339C26.1052 82.507 26.3264 82.1981 26.6533 82.144L26.8491 83.328ZM23.335 82.5705C23.6651 82.5409 23.9566 82.7845 23.9863 83.1145C24.0159 83.4446 23.7723 83.7361 23.4423 83.7657L23.335 82.5705ZM20.006 83.9237C19.6746 83.9236 19.4062 83.6548 19.4063 83.3234C19.4065 82.9921 19.6753 82.7236 20.0066 82.7237L20.006 83.9237ZM16.6825 82.5439C17.0118 82.5808 17.2488 82.8777 17.2119 83.207C17.175 83.5363 16.8781 83.7734 16.5488 83.7364L16.6825 82.5439ZM13.1319 83.1209C12.8108 83.0389 12.6169 82.7122 12.6988 82.3912C12.7808 82.0701 13.1075 81.8762 13.4286 81.9581L13.1319 83.1209ZM10.3265 80.8864C10.6288 81.0221 10.764 81.3771 10.6284 81.6795C10.4927 81.9818 10.1377 82.117 9.83535 81.9813L10.3265 80.8864ZM6.7948 80.2289C6.52694 80.0338 6.46795 79.6585 6.66304 79.3907C6.85812 79.1228 7.23341 79.0638 7.50127 79.2589L6.7948 80.2289ZM5.11667 77.0588C5.33192 77.3107 5.30217 77.6894 5.05022 77.9047C4.79828 78.1199 4.41955 78.0902 4.2043 77.8382L5.11667 77.0588ZM2.25002 74.9037C2.10002 74.6083 2.21796 74.2471 2.51344 74.0971C2.80891 73.9471 3.17004 74.0651 3.32004 74.3605L2.25002 74.9037ZM2.17567 71.3142C2.259 71.635 2.06656 71.9625 1.74583 72.0458C1.42511 72.1292 1.09756 71.9367 1.01423 71.616L2.17567 71.3142ZM0.456146 68.1623C0.432358 67.8318 0.681015 67.5446 1.01154 67.5208C1.34205 67.4971 1.62926 67.7457 1.65305 68.0762L0.456146 68.1623ZM1.67144 64.7737C1.64569 65.1041 1.357 65.351 1.02663 65.3252C0.696266 65.2995 0.449318 65.0108 0.475067 64.6804L1.67144 64.7737ZM0.961739 61.251C1.02766 60.9262 1.34437 60.7164 1.66911 60.7823C1.99387 60.8483 2.20367 61.165 2.13775 61.4897L0.961739 61.251ZM2.96918 58.269C2.87064 58.5854 2.53429 58.762 2.2179 58.6634C1.90153 58.5649 1.72494 58.2285 1.82348 57.9122L2.96918 58.269ZM2.99 54.6769C3.11535 54.3702 3.46563 54.2231 3.77238 54.3485C4.07912 54.4738 4.22617 54.8241 4.10082 55.1309L2.99 54.6769ZM5.48483 52.0804C5.33707 52.377 4.97685 52.4977 4.68024 52.3499C4.38363 52.2022 4.26295 51.8419 4.41071 51.5453L5.48483 52.0804ZM110.091 56.9126C110.278 56.4432 110.537 55.857 110.848 55.1779L111.939 55.6773C111.63 56.353 111.381 56.9164 111.206 57.3563L110.091 56.9126ZM112.43 51.7846C112.914 50.7455 113.438 49.6101 113.978 48.4022L115.074 48.8921C114.53 50.108 114.003 51.2496 113.517 52.2915L112.43 51.7846ZM115.457 44.9855C115.925 43.8649 116.388 42.7083 116.834 41.5305L117.956 41.9547C117.505 43.1471 117.037 44.3164 116.565 45.4475L115.457 44.9855ZM118.072 38.031C118.46 36.8487 118.817 35.6612 119.128 34.4824L120.288 34.7885C119.97 35.9933 119.607 37.2037 119.213 38.4051L118.072 38.031ZM119.93 30.883C120.152 29.6334 120.303 28.4148 120.366 27.2447L121.564 27.3098C121.498 28.5366 121.34 29.8041 121.111 31.0928L119.93 30.883ZM120.243 23.6308C120.07 22.3877 119.749 21.2505 119.257 20.2426L120.336 19.7167C120.893 20.8588 121.245 22.1218 121.432 23.4651L120.243 23.6308ZM117.131 17.5262C116.306 16.8479 115.291 16.2906 114.054 15.8857L114.428 14.7452C115.792 15.1918 116.941 15.8169 117.893 16.599L117.131 17.5262ZM110.531 15.2134C109.952 15.1663 109.341 15.142 108.697 15.142L108.697 13.942C109.371 13.942 110.014 13.9674 110.628 14.0174L110.531 15.2134ZM108.697 15.142C108.134 15.142 107.57 15.186 107.002 15.2723L106.822 14.086C107.447 13.991 108.072 13.942 108.697 13.942L108.697 15.142ZM103.716 16.217C102.697 16.6406 101.668 17.1839 100.626 17.8369L99.9889 16.8201C101.078 16.1377 102.166 15.562 103.255 15.109L103.716 16.217ZM97.769 19.869C96.8789 20.5729 95.9814 21.3452 95.0756 22.1788L94.263 21.2957C95.1875 20.445 96.1078 19.6529 97.0245 18.9278L97.769 19.869ZM92.523 24.6607C91.7169 25.4838 90.9046 26.3479 90.0854 27.2482L89.1979 26.4406C90.0255 25.5311 90.8479 24.6561 91.6657 23.8211L92.523 24.6607ZM87.7219 29.9189C86.9585 30.8033 86.1891 31.7137 85.4133 32.6463L84.4908 31.8789C85.2704 30.9417 86.0445 30.0256 86.8136 29.1347L87.7219 29.9189ZM83.1432 35.4119C82.4007 36.327 81.6524 37.258 80.8977 38.202L79.9604 37.4527C80.7163 36.5072 81.4666 35.5737 82.2114 34.6558L83.1432 35.4119ZM78.6649 41.0057C77.9277 41.9337 77.1838 42.8712 76.4341 43.8139L75.4949 43.067C76.2444 42.1246 76.9874 41.1881 77.7253 40.2593L78.6649 41.0057ZM74.1959 46.6186C73.451 47.548 72.6996 48.4801 71.9416 49.4123L71.0106 48.6551C71.7665 47.7256 72.516 46.7957 73.2596 45.8681L74.1959 46.6186ZM69.6627 52.1872C68.8991 53.107 68.1286 54.0242 67.351 54.9361L66.4379 54.1575C67.2117 53.2501 67.9787 52.337 68.7394 51.4207L69.6627 52.1872ZM64.9969 57.6526C64.203 58.5532 63.4015 59.4459 62.5922 60.3278L61.708 59.5165C62.5114 58.6409 63.3076 57.7542 64.0968 56.859L64.9969 57.6526ZM60.1281 62.952C59.2925 63.8205 58.4485 64.6753 57.5958 65.5137L56.7545 64.658C57.5987 63.828 58.4349 62.9811 59.2633 62.12L60.1281 62.952ZM54.986 68C54.0967 68.8196 53.1978 69.6191 52.2891 70.3955L51.5096 69.4832C52.4061 68.7171 53.2938 67.9276 54.1728 67.1175L54.986 68ZM49.4952 72.6821C48.5395 73.4295 47.5728 74.1493 46.595 74.8382L45.9039 73.8572C46.8644 73.1805 47.815 72.4727 48.756 71.7368L49.4952 72.6821ZM43.58 76.8381C42.5474 77.4803 41.5023 78.0861 40.4443 78.6517L39.8785 77.5935C40.9122 77.0408 41.9346 76.4483 42.9463 75.8191L43.58 76.8381ZM37.186 80.2447C36.0744 80.7371 34.9489 81.1834 33.809 81.5797L33.4149 80.4463C34.5223 80.0613 35.6171 79.6272 36.6999 79.1475L37.186 80.2447ZM30.3256 82.6193C29.7369 82.766 29.1445 82.899 28.5484 83.0178L28.3139 81.841C28.8911 81.726 29.4649 81.5971 30.0354 81.4549L30.3256 82.6193ZM28.5484 83.0178C27.9737 83.1323 27.4073 83.2356 26.8491 83.328L26.6533 82.144C27.1982 82.0539 27.7518 81.953 28.3139 81.841L28.5484 83.0178ZM23.4423 83.7657C22.2539 83.8724 21.1082 83.9243 20.006 83.9237L20.0066 82.7237C21.0708 82.7243 22.1804 82.6741 23.335 82.5705L23.4423 83.7657ZM16.5488 83.7364C15.3471 83.6017 14.2076 83.3954 13.1319 83.1209L13.4286 81.9581C14.4473 82.2181 15.532 82.4149 16.6825 82.5439L16.5488 83.7364ZM9.83535 81.9813C8.72911 81.4851 7.7147 80.8989 6.7948 80.2289L7.50127 79.2589C8.35077 79.8776 9.29253 80.4226 10.3265 80.8864L9.83535 81.9813ZM4.2043 77.8382C3.43849 76.9419 2.7865 75.9605 2.25002 74.9037L3.32004 74.3605C3.81435 75.3342 4.41376 76.236 5.11667 77.0588L4.2043 77.8382ZM1.01423 71.616C0.72863 70.5168 0.542542 69.3631 0.456146 68.1623L1.65305 68.0762C1.73454 69.2089 1.90957 70.2901 2.17567 71.3142L1.01423 71.616ZM0.475067 64.6804C0.561874 63.5667 0.724007 62.422 0.961739 61.251L2.13775 61.4897C1.90916 62.6157 1.7542 63.7117 1.67144 64.7737L0.475067 64.6804ZM1.82348 57.9122C2.15424 56.8502 2.54297 55.7708 2.99 54.6769L4.10082 55.1309C3.66619 56.1945 3.28925 57.2415 2.96918 58.269L1.82348 57.9122ZM4.41071 51.5453C4.66331 51.0382 4.92799 50.5286 5.20479 50.0168L6.26032 50.5876C5.98981 51.0878 5.73133 51.5855 5.48483 52.0804L4.41071 51.5453Z" fill="#D7DDE8"/>
<path d="M59.3472 22.3487C56.9108 13.4977 48.8482 7 39.2753 7C27.7734 7 18.4491 16.3803 18.4491 27.9513C18.4491 28.7129 18.4902 29.465 18.5697 30.2049C10.8145 32.0139 5.03418 39.007 5.03418 47.3597C5.03418 56.8143 12.4416 64.5277 21.736 64.9498H21.7603C22.0183 64.9621 22.2772 64.9686 22.5379 64.9686C22.7986 64.9686 23.0725 64.9611 23.3379 64.9498L54.1425 64.9329C54.5463 64.9555 54.9538 64.9686 55.3631 64.9686C67.165 64.9686 76.7322 55.3439 76.7322 43.4711C76.7322 32.9682 69.2444 24.2262 59.3472 22.3487Z" fill="#E5EEF7" stroke="black" stroke-width="1.2"/>
<rect x="60.5137" y="28.9946" width="50.2879" height="50.2879" rx="10.314" fill="#F3F4F6"/>
<rect x="60.5137" y="28.9946" width="50.2879" height="50.2879" rx="10.314" stroke="#0077FF" stroke-width="1.2" stroke-linecap="round"/>
<path d="M95.8819 42.0679H75.2687C72.9861 42.0679 71.1357 43.9182 71.1357 46.2008V58.0472C71.1357 60.3297 72.9861 62.1801 75.2687 62.1801H95.8819C98.1645 62.1801 100.015 60.3297 100.015 58.0472V46.2008C100.015 43.9182 98.1645 42.0679 95.8819 42.0679Z" fill="white" stroke="#B5DCFF" stroke-width="1.2"/>
<path d="M70.8652 57.8566V49.0939C70.8652 46.4904 70.8652 45.1887 71.4307 44.222C71.789 43.6095 72.2989 43.0996 72.9114 42.7413C73.8782 42.1758 75.1799 42.1758 77.7833 42.1758H79.9951C81.5251 42.1758 82.8971 43.1181 83.4464 44.5461C83.9956 45.9742 85.3676 46.9165 86.8977 46.9165H91.773C95.6696 46.9165 97.6179 46.9165 98.8284 48.127C100.039 49.3375 100.039 51.2858 100.039 55.1824V57.8566C100.039 61.7532 100.039 63.7015 98.8284 64.912C97.6179 66.1225 95.6696 66.1225 91.773 66.1225H79.1311C75.2345 66.1225 73.2863 66.1225 72.0757 64.912C70.8652 63.7015 70.8652 61.7532 70.8652 57.8566Z" fill="#B5DCFF" stroke="#B5DCFF" stroke-width="0.928257"/>
<circle cx="3.0017" cy="3.0017" r="3.0017" transform="matrix(-1 0 0 1 8.62988 47.7407)" fill="white" stroke="black" stroke-width="1.2"/>
</svg>
