<svg width="260" height="166" viewBox="0 0 260 166" fill="none" xmlns="http://www.w3.org/2000/svg">
<path d="M232.404 17.2053L232.404 16.3053L232.404 17.2053ZM59.9323 163.078L59.7565 162.196L59.9323 163.078ZM236.996 105.526C237.2 105.073 237.733 104.872 238.186 105.076C238.639 105.281 238.841 105.814 238.636 106.267L236.996 105.526ZM241.271 100.589C241.06 101.039 240.524 101.233 240.074 101.022C239.624 100.811 239.43 100.275 239.641 99.825L241.271 100.589ZM242.274 94.1626C242.481 93.7109 243.016 93.513 243.467 93.7205C243.919 93.928 244.117 94.4624 243.909 94.9141L242.274 94.1626ZM246.477 89.219C246.277 89.6738 245.745 89.8797 245.291 89.679C244.836 89.4783 244.63 88.947 244.831 88.4922L246.477 89.219ZM247.289 82.7707C247.481 82.3119 248.008 82.0952 248.466 82.2866C248.925 82.478 249.142 83.005 248.951 83.4637L247.289 82.7707ZM251.296 77.6415C251.116 78.1049 250.595 78.3351 250.131 78.1555C249.668 77.9759 249.438 77.4546 249.617 76.9911L251.296 77.6415ZM251.775 71.1615C251.94 70.6926 252.454 70.4462 252.923 70.6111C253.392 70.7761 253.638 71.2899 253.473 71.7588L251.775 71.1615ZM255.446 65.7957C255.299 66.2707 254.796 66.5369 254.321 66.3903C253.846 66.2438 253.579 65.7399 253.726 65.265L255.446 65.7957ZM255.416 59.2923C255.539 58.8107 256.029 58.5201 256.511 58.6431C256.992 58.7661 257.283 59.2563 257.16 59.7379L255.416 59.2923ZM258.532 53.5971C258.439 54.0855 257.969 54.4068 257.48 54.3146C256.992 54.2224 256.671 53.7517 256.763 53.2633L258.532 53.5971ZM257.661 47.1483C257.711 46.6537 258.152 46.2933 258.647 46.3432C259.141 46.3931 259.502 46.8345 259.452 47.3291L257.661 47.1483ZM259.731 40.9847C259.741 41.4816 259.346 41.8925 258.849 41.9024C258.352 41.9122 257.941 41.5174 257.931 41.0204L259.731 40.9847ZM257.313 34.9789C257.216 34.4914 257.533 34.0177 258.021 33.9209C258.508 33.8242 258.982 34.1409 259.079 34.6285L257.313 34.9789ZM257.063 28.4951C257.281 28.9419 257.095 29.4807 256.649 29.6985C256.202 29.9163 255.663 29.7307 255.445 29.2839L257.063 28.4951ZM252.032 24.4575C251.68 24.106 251.68 23.5361 252.032 23.1847C252.383 22.8333 252.953 22.8334 253.305 23.1849L252.032 24.4575ZM248.016 19.4091C248.46 19.6316 248.64 20.1723 248.417 20.6168C248.195 21.0612 247.654 21.2411 247.21 21.0185L248.016 19.4091ZM241.524 19.0302C241.039 18.9198 240.736 18.4374 240.846 17.9528C240.957 17.4681 241.439 17.1648 241.924 17.2752L241.524 19.0302ZM235.64 16.4028C236.137 16.4337 236.514 16.8609 236.483 17.357C236.452 17.8531 236.025 18.2302 235.529 18.1994L235.64 16.4028ZM229.485 18.2832C228.991 18.3428 228.543 17.9911 228.483 17.4977C228.424 17.0042 228.776 16.5558 229.269 16.4962L229.485 18.2832ZM223.168 17.9108C223.639 17.7512 224.15 18.0033 224.31 18.474C224.47 18.9447 224.217 19.4558 223.747 19.6154L223.168 17.9108ZM218.321 21.9621C217.88 22.1921 217.337 22.0213 217.107 21.5807C216.877 21.14 217.047 20.5964 217.488 20.3664L218.321 21.9621ZM212.194 23.5386C212.607 23.2609 213.166 23.3701 213.444 23.7823C213.721 24.1946 213.612 24.7539 213.2 25.0316L212.194 23.5386ZM208.365 28.5971C207.977 28.9073 207.41 28.8439 207.1 28.4555C206.79 28.0671 206.854 27.5008 207.242 27.1906L208.365 28.5971ZM202.57 31.1676C202.939 30.8348 203.508 30.8642 203.841 31.2334C204.174 31.6025 204.145 32.1716 203.776 32.5045L202.57 31.1676ZM199.386 36.6531C199.032 37.0022 198.462 36.9983 198.113 36.6445C197.764 36.2906 197.768 35.7208 198.122 35.3717L199.386 36.6531ZM193.849 39.7402C194.19 39.3792 194.76 39.3637 195.121 39.7055C195.482 40.0472 195.497 40.6168 195.156 40.9778L193.849 39.7402ZM191.049 45.4345C190.717 45.8042 190.148 45.8346 189.778 45.5024C189.409 45.1701 189.378 44.6011 189.711 44.2314L191.049 45.4345ZM185.676 48.8158C186.001 48.4396 186.57 48.3979 186.946 48.7227C187.322 49.0475 187.364 49.6158 187.039 49.9921L185.676 48.8158ZM183.101 54.6268C182.782 55.0079 182.214 55.0582 181.833 54.739C181.452 54.4199 181.402 53.8523 181.721 53.4712L183.101 54.6268ZM177.838 58.1638C178.153 57.7793 178.72 57.7228 179.104 58.0377C179.489 58.3526 179.545 58.9197 179.23 59.3042L177.838 58.1638ZM175.41 64.0092C175.098 64.3962 174.531 64.457 174.144 64.145C173.757 63.8331 173.696 63.2665 174.008 62.8795L175.41 64.0092ZM170.202 67.6261C170.513 67.2376 171.079 67.1741 171.467 67.4842C171.856 67.7943 171.919 68.3606 171.609 68.749L170.202 67.6261ZM167.818 73.5111C167.509 73.9003 166.943 73.9652 166.554 73.656C166.165 73.3468 166.1 72.7806 166.409 72.3914L167.818 73.5111ZM162.621 77.1609C162.93 76.7717 163.497 76.7069 163.886 77.0161C164.275 77.3253 164.34 77.8914 164.031 78.2806L162.621 77.1609ZM160.249 83.0317C159.939 83.4202 159.373 83.4838 158.984 83.1738C158.596 82.8638 158.532 82.2975 158.842 81.909L160.249 83.0317ZM155.042 86.6522C155.354 86.2649 155.921 86.2036 156.308 86.5152C156.695 86.8268 156.756 87.3934 156.445 87.7806L155.042 86.6522ZM152.612 92.5152C152.298 92.9006 151.731 92.9584 151.346 92.6445C150.961 92.3305 150.903 91.7636 151.217 91.3782L152.612 92.5152ZM147.362 96.0726C147.679 95.6898 148.246 95.6364 148.629 95.9534C149.012 96.2705 149.065 96.8378 148.748 97.2206L147.362 96.0726ZM144.843 101.892C144.522 102.271 143.954 102.319 143.574 101.998C143.195 101.677 143.147 101.109 143.468 100.73L144.843 101.892ZM139.522 105.345C139.847 104.969 140.416 104.928 140.791 105.254C141.167 105.579 141.208 106.147 140.883 106.523L139.522 105.345ZM136.864 111.102C136.534 111.473 135.965 111.506 135.594 111.176C135.223 110.845 135.19 110.276 135.52 109.905L136.864 111.102ZM131.45 114.405C131.786 114.039 132.355 114.015 132.721 114.352C133.087 114.688 133.111 115.258 132.774 115.623L131.45 114.405ZM128.604 120.076C128.261 120.436 127.691 120.449 127.332 120.106C126.972 119.763 126.959 119.193 127.302 118.834L128.604 120.076ZM123.073 123.174C123.423 122.822 123.993 122.821 124.345 123.172C124.698 123.522 124.699 124.092 124.348 124.444L123.073 123.174ZM119.999 128.713C119.64 129.057 119.07 129.045 118.726 128.686C118.382 128.327 118.395 127.757 118.753 127.414L119.999 128.713ZM114.319 131.552C114.687 131.217 115.256 131.245 115.59 131.613C115.924 131.981 115.897 132.55 115.529 132.884L114.319 131.552ZM110.944 136.925C110.566 137.248 109.998 137.203 109.675 136.825C109.353 136.447 109.397 135.879 109.775 135.556L110.944 136.925ZM105.114 139.407C105.503 139.097 106.069 139.161 106.379 139.549C106.689 139.938 106.625 140.504 106.237 140.814L105.114 139.407ZM101.396 144.532C100.996 144.827 100.432 144.742 100.137 144.342C99.8419 143.942 99.9269 143.379 100.327 143.083L101.396 144.532ZM95.3833 146.576C95.7953 146.298 96.3547 146.406 96.6327 146.818C96.9107 147.23 96.802 147.79 96.39 148.068L95.3833 146.576ZM91.2342 151.376C90.8096 151.634 90.2559 151.499 89.9975 151.075C89.7392 150.65 89.8739 150.096 90.2986 149.838L91.2342 151.376ZM85.0684 152.84C85.5059 152.604 86.0518 152.767 86.2877 153.205C86.5237 153.642 86.3603 154.188 85.9228 154.424L85.0684 152.84ZM80.4522 157.179C80.0019 157.389 79.4662 157.195 79.2557 156.745C79.0452 156.294 79.2395 155.759 79.6898 155.548L80.4522 157.179ZM74.16 157.929C74.6226 157.747 75.1451 157.974 75.327 158.437C75.509 158.899 75.2814 159.422 74.8189 159.604L74.16 157.929ZM69.0299 161.659C68.556 161.809 68.0502 161.547 67.9001 161.073C67.7499 160.599 68.0123 160.094 68.4862 159.943L69.0299 161.659ZM62.6947 161.552C63.1782 161.437 63.6637 161.735 63.7791 162.219C63.8946 162.702 63.5962 163.188 63.1128 163.303L62.6947 161.552ZM56.8685 164.558C56.3784 164.641 55.9139 164.311 55.831 163.821C55.748 163.331 56.0781 162.867 56.5682 162.784L56.8685 164.558ZM50.2336 163.652C50.728 163.601 51.1703 163.96 51.2215 164.455C51.2726 164.949 50.9132 165.391 50.4188 165.442L50.2336 163.652ZM43.8609 165.874C43.364 165.887 42.9507 165.495 42.9377 164.998C42.9247 164.501 43.317 164.088 43.8139 164.075L43.8609 165.874ZM37.4439 163.959C37.9399 163.991 38.3157 164.42 38.2832 164.916C38.2508 165.412 37.8224 165.787 37.3264 165.755L37.4439 163.959ZM30.7788 164.97C30.2895 164.882 29.9638 164.415 30.0512 163.926C30.1387 163.436 30.6063 163.111 31.0956 163.198L30.7788 164.97ZM24.9294 161.673C25.4023 161.826 25.6619 162.333 25.5091 162.806C25.3563 163.279 24.849 163.539 24.3761 163.386L24.9294 161.673ZM18.2616 160.859C17.8198 160.631 17.6464 160.089 17.8742 159.647C18.1019 159.205 18.6447 159.032 19.0865 159.259L18.2616 160.859ZM13.7858 155.865C14.1763 156.173 14.2434 156.739 13.9358 157.129C13.6281 157.52 13.0623 157.587 12.6718 157.279L13.7858 155.865ZM7.90239 152.642C7.58459 152.26 7.6368 151.692 8.019 151.374C8.40118 151.057 8.96864 151.109 9.28644 151.491L7.90239 152.642ZM5.80763 146.265C6.03827 146.706 5.8683 147.25 5.42799 147.48C4.98769 147.711 4.44377 147.541 4.21313 147.101L5.80763 146.265ZM1.72891 140.94C1.58783 140.464 1.8598 139.963 2.33643 139.822C2.81302 139.681 3.31378 139.953 3.45488 140.429L1.72891 140.94ZM2.19315 134.239C2.25217 134.733 1.89993 135.181 1.40637 135.24C0.912842 135.299 0.464905 134.946 0.405884 134.453L2.19315 134.239ZM0.103088 127.857C0.114563 127.36 0.526703 126.966 1.02362 126.978C1.52054 126.989 1.91409 127.401 1.90259 127.898L0.103088 127.857ZM2.43973 121.545C2.36938 122.037 1.91345 122.379 1.42142 122.308C0.929352 122.238 0.587494 121.782 0.657867 121.29L2.43973 121.545ZM1.91663 114.859C2.03568 114.376 2.52338 114.082 3.00598 114.201C3.48857 114.32 3.78328 114.807 3.66425 115.29L1.91663 114.859ZM5.46718 109.15C5.30743 109.62 4.79637 109.873 4.32568 109.713C3.855 109.553 3.60292 109.042 3.76266 108.571L5.46718 109.15ZM6.10109 102.452C6.29518 101.994 6.82347 101.78 7.28107 101.974C7.73866 102.169 7.95229 102.697 7.75821 103.154L6.10109 102.452ZM10.4562 97.3364C10.2329 97.7805 9.69186 97.9595 9.2478 97.7362C8.80373 97.5128 8.62477 96.9718 8.84808 96.5277L10.4562 97.3364ZM235.76 108.393C236.079 107.591 236.499 106.627 236.996 105.526L238.636 106.267C238.143 107.359 237.737 108.294 237.433 109.059L235.76 108.393ZM239.641 99.825C240.455 98.0875 241.342 96.1903 242.274 94.1626L243.909 94.9141C242.975 96.9483 242.085 98.8508 241.271 100.589L239.641 99.825ZM244.831 88.4922C245.644 86.6488 246.469 84.7359 247.289 82.7707L248.951 83.4637C248.125 85.4419 247.295 87.3662 246.477 89.219L244.831 88.4922ZM249.617 76.9911C250.36 75.0738 251.084 73.1258 251.775 71.1615L253.473 71.7588C252.775 73.7428 252.045 75.7086 251.296 77.6415L249.617 76.9911ZM253.726 65.265C254.341 63.2706 254.909 61.2749 255.416 59.2923L257.16 59.7379C256.645 61.7522 256.069 63.7764 255.446 65.7957L253.726 65.265ZM256.763 53.2633C257.155 51.1849 257.46 49.1407 257.661 47.1483L259.452 47.3291C259.245 49.3794 258.932 51.475 258.532 53.5971L256.763 53.2633ZM257.931 41.0204C257.889 38.9019 257.69 36.8802 257.313 34.9789L259.079 34.6285C259.48 36.6492 259.687 38.7778 259.731 40.9847L257.931 41.0204ZM255.445 29.2839C254.569 27.4873 253.443 25.8688 252.032 24.4575L253.305 23.1849C254.866 24.7469 256.106 26.532 257.063 28.4951L255.445 29.2839ZM247.21 21.0185C245.554 20.1897 243.667 19.5186 241.524 19.0302L241.924 17.2752C244.193 17.7921 246.218 18.5089 248.016 19.4091L247.21 21.0185ZM235.529 18.1994C234.528 18.1371 233.487 18.1053 232.404 18.1053L232.404 16.3053C233.522 16.3053 234.601 16.3382 235.64 16.4028L235.529 18.1994ZM232.404 18.1053C231.433 18.1053 230.461 18.1653 229.485 18.2832L229.269 16.4962C230.314 16.3699 231.359 16.3053 232.404 16.3053L232.404 18.1053ZM223.747 19.6154C221.952 20.2243 220.144 21.0106 218.321 21.9621L217.488 20.3664C219.383 19.3775 221.276 18.5529 223.168 17.9108L223.747 19.6154ZM213.2 25.0316C211.599 26.1098 209.988 27.3013 208.365 28.5971L207.242 27.1906C208.898 25.8682 210.548 24.6473 212.194 23.5386L213.2 25.0316ZM203.776 32.5045C202.321 33.8156 200.859 35.2007 199.386 36.6531L198.122 35.3717C199.611 33.9025 201.094 32.4988 202.57 31.1676L203.776 32.5045ZM195.156 40.9778C193.795 42.4146 192.427 43.9019 191.049 45.4345L189.711 44.2314C191.097 42.6885 192.476 41.1896 193.849 39.7402L195.156 40.9778ZM187.039 49.9921C185.734 51.5033 184.422 53.0496 183.101 54.6268L181.721 53.4712C183.047 51.888 184.365 50.3348 185.676 48.8158L187.039 49.9921ZM179.23 59.3042C177.965 60.8499 176.691 62.4194 175.41 64.0092L174.008 62.8795C175.292 61.2868 176.569 59.7137 177.838 58.1638L179.23 59.3042ZM171.609 68.749C170.354 70.3219 169.09 71.9103 167.818 73.5111L166.409 72.3914C167.681 70.7902 168.946 69.2006 170.202 67.6261L171.609 68.749ZM164.031 78.2806C162.778 79.8567 161.518 81.4415 160.249 83.0317L158.842 81.909C160.11 80.3202 161.369 78.7365 162.621 77.1609L164.031 78.2806ZM156.445 87.7806C155.176 89.3573 153.899 90.9365 152.612 92.5152L151.217 91.3782C152.5 89.8028 153.776 88.2265 155.042 86.6522L156.445 87.7806ZM148.748 97.2206C147.456 98.7818 146.154 100.34 144.843 101.892L143.468 100.73C144.775 99.1829 146.073 97.6296 147.362 96.0726L148.748 97.2206ZM140.883 106.523C139.553 108.059 138.214 109.586 136.864 111.102L135.52 109.905C136.863 108.396 138.197 106.875 139.522 105.345L140.883 106.523ZM132.774 115.623C131.395 117.123 130.005 118.609 128.604 120.076L127.302 118.834C128.695 117.374 130.077 115.897 131.45 114.405L132.774 115.623ZM124.348 124.444C122.91 125.889 121.46 127.313 119.999 128.713L118.753 127.414C120.204 126.024 121.644 124.61 123.073 123.174L124.348 124.444ZM115.529 132.884C114.013 134.26 112.485 135.608 110.944 136.925L109.775 135.556C111.302 134.252 112.816 132.916 114.319 131.552L115.529 132.884ZM106.237 140.814C104.637 142.09 103.024 143.331 101.396 144.532L100.327 143.083C101.936 141.896 103.531 140.67 105.114 139.407L106.237 140.814ZM96.39 148.068C94.6872 149.216 92.9687 150.32 91.2342 151.376L90.2986 149.838C92.008 148.798 93.7027 147.709 95.3833 146.576L96.39 148.068ZM85.9228 154.424C84.1167 155.398 82.2933 156.318 80.4522 157.179L79.6898 155.548C81.4985 154.702 83.2912 153.798 85.0684 152.84L85.9228 154.424ZM74.8189 159.604C72.9082 160.355 70.9786 161.042 69.0299 161.659L68.4862 159.943C70.3948 159.339 72.2859 158.666 74.16 157.929L74.8189 159.604ZM63.1128 163.303C62.1162 163.541 61.1147 163.761 60.1082 163.961L59.7565 162.196C60.7404 162 61.7198 161.785 62.6947 161.552L63.1128 163.303ZM60.1082 163.961C59.0142 164.179 57.9343 164.378 56.8685 164.558L56.5682 162.784C57.6165 162.606 58.6792 162.41 59.7565 162.196L60.1082 163.961ZM50.4188 165.442C48.1613 165.676 45.9751 165.819 43.8609 165.874L43.8139 164.075C45.8795 164.021 48.0197 163.881 50.2336 163.652L50.4188 165.442ZM37.3264 165.755C35.0449 165.606 32.8619 165.342 30.7788 164.97L31.0956 163.198C33.1089 163.558 35.2253 163.814 37.4439 163.959L37.3264 165.755ZM24.3761 163.386C22.1984 162.683 20.1593 161.838 18.2616 160.859L19.0865 159.259C20.8924 160.191 22.8402 160.998 24.9294 161.673L24.3761 163.386ZM12.6718 157.279C10.8991 155.882 9.30807 154.332 7.90239 152.642L9.28644 151.491C10.6106 153.083 12.1108 154.545 13.7858 155.865L12.6718 157.279ZM4.21313 147.101C3.19865 145.164 2.37012 143.106 1.72891 140.94L3.45488 140.429C4.06425 142.488 4.84961 144.437 5.80763 146.265L4.21313 147.101ZM0.405884 134.453C0.151825 132.328 0.0506592 130.126 0.103088 127.857L1.90259 127.898C1.85202 130.088 1.9498 132.204 2.19315 134.239L0.405884 134.453ZM0.657867 121.29C0.958008 119.191 1.37738 117.045 1.91663 114.859L3.66425 115.29C3.1386 117.421 2.73099 119.508 2.43973 121.545L0.657867 121.29ZM3.76266 108.571C4.44591 106.558 5.22517 104.517 6.10109 102.452L7.75821 103.154C6.8989 105.18 6.13557 107.18 5.46718 109.15L3.76266 108.571ZM8.84808 96.5277C9.33392 95.5616 9.84024 94.5912 10.3671 93.617L11.9504 94.4732C11.4319 95.432 10.9339 96.3865 10.4562 97.3364L8.84808 96.5277Z" fill="#D7DDE8"/>
<path d="M126.363 33.9805C121.128 14.9619 103.804 1 83.2338 1C58.5192 1 38.4836 21.156 38.4836 46.0191C38.4836 47.6555 38.5719 49.2717 38.7426 50.8617C22.0788 54.7486 9.6582 69.7752 9.6582 87.723C9.6582 108.039 25.575 124.613 45.5463 125.52H45.5985C46.1528 125.546 46.7091 125.56 47.2693 125.56C47.8296 125.56 48.418 125.544 48.9884 125.52L115.18 125.483C116.047 125.532 116.923 125.56 117.803 125.56C143.162 125.56 163.72 104.879 163.72 79.3673C163.72 56.7992 147.63 38.0149 126.363 33.9805Z" fill="#E5EEF7" stroke="black" stroke-width="1.8"/>
<rect x="128.87" y="48.2603" width="108.056" height="108.056" rx="20" fill="#F3F4F6"/>
<rect x="128.87" y="48.2603" width="108.056" height="108.056" rx="20" stroke="#0077FF" stroke-width="1.8" stroke-linecap="round"/>
<path d="M206.382 76.3513H159.057C154.99 76.3513 151.692 79.6485 151.692 83.7158V112.203C151.692 116.27 154.99 119.568 159.057 119.568H206.382C210.449 119.568 213.746 116.27 213.746 112.203V83.7158C213.746 79.6485 210.449 76.3513 206.382 76.3513Z" fill="white" stroke="#B5DCFF" stroke-width="1.8"/>
<path d="M151.11 113.31V91.3121C151.11 84.3689 151.11 80.8972 153.267 78.7402C155.424 76.5833 158.896 76.5833 165.839 76.5833H170.728C171.111 76.5833 171.302 76.5833 171.477 76.5916C174.267 76.7242 176.742 78.424 177.868 80.9807C177.938 81.1408 178.007 81.3194 178.144 81.6766C178.281 82.0338 178.35 82.2124 178.421 82.3725C179.546 84.9291 182.021 86.629 184.811 86.7616C184.986 86.7699 185.177 86.7699 185.56 86.7699H199.068C206.012 86.7699 209.483 86.7699 211.64 88.9269C213.797 91.0839 213.797 94.5555 213.797 101.499V113.31C213.797 120.253 213.797 123.725 211.64 125.882C209.483 128.039 206.012 128.039 199.068 128.039H165.839C158.896 128.039 155.424 128.039 153.267 125.882C151.11 123.725 151.11 120.253 151.11 113.31Z" fill="#B5DCFF" stroke="#B5DCFF" stroke-width="1.65405"/>
<circle cx="6.4499" cy="6.4499" r="6.4499" transform="matrix(-1 0 0 1 17.3857 88.5408)" fill="white" stroke="black" stroke-width="1.8"/>
</svg>
