<svg width="100" height="96" viewBox="0 0 100 96" fill="none" xmlns="http://www.w3.org/2000/svg">
<path d="M71.3297 69.1837C86.4898 69.1837 98.7794 64.3589 98.7794 58.4072V46.2751H43.88V58.4072C43.88 64.3589 56.1697 69.1837 71.3297 69.1837Z" fill="#E5EEF7" stroke="#0077FF" stroke-width="1.8"/>
<path d="M43.88 45.6649V58.407" stroke="#0077FF" stroke-width="1.8"/>
<path d="M98.7792 45.6649V58.407" stroke="#0077FF" stroke-width="1.8"/>
<ellipse cx="71.3298" cy="45.6651" rx="27.4497" ry="10.7766" fill="#E5EEF7" stroke="#0077FF" stroke-width="1.8"/>
<rect x="70.3129" y="61.186" width="2.03331" height="2.98219" rx="1.01666" fill="#E5EEF7" stroke="#0077FF" stroke-width="1.8"/>
<path d="M71.3297 52.2394C86.4898 52.2394 98.7794 47.4146 98.7794 41.4628V29.3307H43.88V41.4628C43.88 47.4146 56.1697 52.2394 71.3297 52.2394Z" fill="#E5EEF7" stroke="#0077FF" stroke-width="1.8"/>
<path d="M43.88 28.7207V41.4628" stroke="#0077FF" stroke-width="1.8"/>
<path d="M98.7792 28.7207V41.4628" stroke="#0077FF" stroke-width="1.8"/>
<ellipse cx="71.3298" cy="28.7207" rx="27.4497" ry="10.7766" fill="#E5EEF7" stroke="#0077FF" stroke-width="1.8"/>
<rect x="70.3129" y="44.2418" width="2.03331" height="2.98219" rx="1.01666" fill="#E5EEF7" stroke="#0077FF" stroke-width="1.8"/>
<path d="M71.3298 35.2951C86.4899 35.2951 98.7796 30.4703 98.7796 24.5186V12.3865H43.8801V24.5186C43.8801 30.4703 56.1698 35.2951 71.3298 35.2951Z" fill="#E5EEF7" stroke="#0077FF" stroke-width="1.8"/>
<path d="M43.8801 11.7764V24.5185" stroke="#0077FF" stroke-width="1.8"/>
<path d="M98.7793 11.7764V24.5185" stroke="#0077FF" stroke-width="1.8"/>
<ellipse cx="71.3299" cy="11.7765" rx="27.4497" ry="10.7766" fill="#E5EEF7" stroke="#0077FF" stroke-width="1.8"/>
<ellipse cx="71.3299" cy="11.7765" rx="27.4497" ry="10.7766" fill="#F6F7F9" stroke="#0077FF" stroke-width="1.8"/>
<rect x="70.313" y="27.2975" width="2.03331" height="2.98219" rx="1.01666" fill="#E5EEF7" stroke="#0077FF" stroke-width="1.8"/>
<path d="M36.8324 94.6764C51.9925 94.6764 64.2821 89.8516 64.2821 83.8998V71.7677H9.38269V83.8998C9.38269 89.8516 21.6724 94.6764 36.8324 94.6764Z" fill="#F6F7F9" stroke="black" stroke-width="1.8"/>
<path d="M9.38269 71.1578V83.8999" stroke="black" stroke-width="1.8"/>
<path d="M64.2823 71.1578V83.8999" stroke="black" stroke-width="1.8"/>
<ellipse cx="36.8324" cy="71.1578" rx="27.4497" ry="10.7766" fill="#F6F7F9" stroke="black" stroke-width="1.8"/>
<rect x="35.8156" y="86.6788" width="2.03331" height="2.98219" rx="1.01666" fill="#F6F7F9" stroke="black" stroke-width="1.8"/>
<path d="M36.8324 77.7322C51.9925 77.7322 64.2821 72.9073 64.2821 66.9556V54.8235H9.38269V66.9556C9.38269 72.9073 21.6724 77.7322 36.8324 77.7322Z" fill="#F6F7F9" stroke="black" stroke-width="1.8"/>
<path d="M9.38269 54.2136V66.9557" stroke="black" stroke-width="1.8"/>
<path d="M64.2823 54.2136V66.9557" stroke="black" stroke-width="1.8"/>
<ellipse cx="36.8324" cy="54.2136" rx="27.4497" ry="10.7766" fill="#F6F7F9" stroke="black" stroke-width="1.8"/>
<rect x="35.8156" y="69.7345" width="2.03331" height="2.98219" rx="1.01666" fill="#F6F7F9" stroke="black" stroke-width="1.8"/>
<path d="M36.8324 60.788C51.9925 60.788 64.2821 55.9631 64.2821 50.0114V37.8793H9.38269V50.0114C9.38269 55.9631 21.6724 60.788 36.8324 60.788Z" fill="#F6F7F9" stroke="black" stroke-width="1.8"/>
<path d="M9.38269 37.2692V50.0113" stroke="black" stroke-width="1.8"/>
<path d="M64.2823 37.2692V50.0113" stroke="black" stroke-width="1.8"/>
<ellipse cx="36.8324" cy="37.2693" rx="27.4497" ry="10.7766" fill="#F6F7F9" stroke="black" stroke-width="1.8"/>
<ellipse cx="36.8324" cy="37.2693" rx="27.4497" ry="10.7766" fill="#F6F7F9" stroke="black" stroke-width="1.8"/>
<rect x="35.8156" y="52.7902" width="2.03331" height="2.98219" rx="1.01666" fill="#F6F7F9" stroke="black" stroke-width="1.8"/>
<mask id="path-33-inside-1_1_9" fill="white">
<path fill-rule="evenodd" clip-rule="evenodd" d="M19.8303 43.5647C10.3919 40.0261 10.3227 34.3149 19.6757 30.8084C29.0288 27.3018 44.2623 27.3278 53.7008 30.8664C63.1392 34.4049 63.2084 40.1161 53.8554 43.6226C44.5023 47.1292 29.2688 47.1032 19.8303 43.5647ZM25.5857 41.4069C19.3556 39.0712 19.3105 35.3012 25.485 32.9863C31.6595 30.6714 41.7154 30.6883 47.9455 33.0241C54.1756 35.3598 54.2207 39.1298 48.0462 41.4447C41.8717 43.7596 31.8158 43.7427 25.5857 41.4069Z"/>
</mask>
<path fill-rule="evenodd" clip-rule="evenodd" d="M19.8303 43.5647C10.3919 40.0261 10.3227 34.3149 19.6757 30.8084C29.0288 27.3018 44.2623 27.3278 53.7008 30.8664C63.1392 34.4049 63.2084 40.1161 53.8554 43.6226C44.5023 47.1292 29.2688 47.1032 19.8303 43.5647ZM25.5857 41.4069C19.3556 39.0712 19.3105 35.3012 25.485 32.9863C31.6595 30.6714 41.7154 30.6883 47.9455 33.0241C54.1756 35.3598 54.2207 39.1298 48.0462 41.4447C41.8717 43.7596 31.8158 43.7427 25.5857 41.4069Z" fill="#F6F7F9"/>
<path d="M19.6757 30.8084L20.3076 32.4938L19.6757 30.8084ZM19.8303 43.5647L19.1984 45.2501L19.1984 45.2501L19.8303 43.5647ZM53.7008 30.8664L54.3327 29.1809L54.3327 29.1809L53.7008 30.8664ZM53.8554 43.6226L54.4872 45.3081L54.4872 45.3081L53.8554 43.6226ZM25.485 32.9863L24.8531 31.3008L24.8531 31.3008L25.485 32.9863ZM25.5857 41.4069L24.9538 43.0924L24.9538 43.0924L25.5857 41.4069ZM47.9455 33.0241L48.5774 31.3386L48.5774 31.3386L47.9455 33.0241ZM48.0462 41.4447L48.6781 43.1301L48.6781 43.1301L48.0462 41.4447ZM19.0438 29.123C16.5763 30.048 14.5921 31.1668 13.1986 32.4673C11.7976 33.7749 10.8843 35.381 10.9063 37.1963C10.9283 39.0052 11.874 40.5992 13.2932 41.8991C14.7087 43.1957 16.7114 44.3177 19.1984 45.2501L20.4622 41.8792C18.23 41.0424 16.6846 40.1236 15.7248 39.2445C14.7688 38.3687 14.5121 37.6523 14.5061 37.1527C14.5001 36.6596 14.7333 35.9593 15.6549 35.0992C16.584 34.2321 18.0986 33.322 20.3076 32.4938L19.0438 29.123ZM54.3327 29.1809C49.3535 27.3142 42.958 26.4062 36.6593 26.3955C30.3615 26.3847 23.9844 27.2707 19.0438 29.123L20.3076 32.4938C24.7201 30.8395 30.6363 29.9852 36.6532 29.9955C42.6691 30.0057 48.6096 30.88 53.0689 32.5518L54.3327 29.1809ZM54.4872 45.3081C56.9547 44.383 58.939 43.2642 60.3324 41.9637C61.7335 40.6561 62.6467 39.05 62.6247 37.2347C62.6028 35.4258 61.657 33.8318 60.2378 32.5319C58.8224 31.2354 56.8197 30.1133 54.3327 29.1809L53.0689 32.5518C55.301 33.3887 56.8465 34.3075 57.8062 35.1866C58.7623 36.0623 59.019 36.7788 59.025 37.2783C59.031 37.7714 58.7978 38.4717 57.8762 39.3318C56.947 40.199 55.4325 41.109 53.2235 41.9372L54.4872 45.3081ZM19.1984 45.2501C24.1776 47.1169 30.5731 48.0248 36.8718 48.0356C43.1695 48.0463 49.5467 47.1603 54.4872 45.3081L53.2235 41.9372C48.8109 43.5915 42.8948 44.4458 36.8779 44.4356C30.862 44.4253 24.9215 43.5511 20.4622 41.8792L19.1984 45.2501ZM24.8531 31.3008C23.1802 31.928 21.7905 32.702 20.7917 33.6341C19.7853 34.5733 19.0667 35.7873 19.0837 37.2103C19.1007 38.627 19.842 39.8284 20.8575 40.7586C21.8692 41.6854 23.2688 42.4607 24.9538 43.0924L26.2176 39.7215C24.7875 39.1854 23.8452 38.6134 23.2892 38.1041C22.737 37.5982 22.6848 37.2745 22.6835 37.1673C22.6823 37.0664 22.7208 36.758 23.2478 36.2662C23.7824 35.7673 24.7025 35.202 26.1169 34.6717L24.8531 31.3008ZM48.5774 31.3386C45.2024 30.0733 40.9033 29.4683 36.6974 29.4612C32.4924 29.4541 28.2043 30.0444 24.8531 31.3008L26.1169 34.6717C28.9401 33.6133 32.7672 33.0546 36.6913 33.0612C40.6145 33.0678 44.4585 33.6391 47.3136 34.7095L48.5774 31.3386ZM48.6781 43.1301C50.351 42.503 51.7407 41.729 52.7395 40.7969C53.7459 39.8577 54.4645 38.6437 54.4475 37.2207C54.4305 35.804 53.6892 34.6026 52.6737 33.6724C51.662 32.7455 50.2624 31.9703 48.5774 31.3386L47.3136 34.7095C48.7437 35.2456 49.686 35.8176 50.242 36.3269C50.7942 36.8328 50.8464 37.1565 50.8477 37.2637C50.8489 37.3646 50.8104 37.673 50.2834 38.1648C49.7488 38.6637 48.8287 39.229 47.4143 39.7593L48.6781 43.1301ZM24.9538 43.0924C28.3288 44.3577 32.6279 44.9627 36.8338 44.9698C41.0388 44.9769 45.3269 44.3866 48.6781 43.1301L47.4143 39.7593C44.5911 40.8177 40.764 41.3764 36.8398 41.3698C32.9167 41.3632 29.0727 40.7919 26.2176 39.7215L24.9538 43.0924Z" fill="#B5DCFF" mask="url(#path-33-inside-1_1_9)"/>
<mask id="path-35-inside-2_1_9" fill="white">
<path d="M19.6758 30.8086C24.1673 29.1247 30.2754 28.1848 36.6563 28.1957C43.0372 28.2065 49.1683 29.1673 53.7008 30.8666C58.2333 32.5658 60.796 34.8644 60.825 37.2567C60.854 39.649 58.3469 41.9389 53.8554 43.6228L38.9147 38.0214C39.4795 37.8097 39.7948 37.5217 39.7912 37.2209C39.7875 36.92 39.4653 36.631 38.8953 36.4173C38.3253 36.2036 37.5543 36.0828 36.7519 36.0814C35.9494 36.08 35.1813 36.1982 34.6165 36.41L19.6758 30.8086Z"/>
</mask>
<path d="M19.6758 30.8086C24.1673 29.1247 30.2754 28.1848 36.6563 28.1957C43.0372 28.2065 49.1683 29.1673 53.7008 30.8666C58.2333 32.5658 60.796 34.8644 60.825 37.2567C60.854 39.649 58.3469 41.9389 53.8554 43.6228L38.9147 38.0214C39.4795 37.8097 39.7948 37.5217 39.7912 37.2209C39.7875 36.92 39.4653 36.631 38.8953 36.4173C38.3253 36.2036 37.5543 36.0828 36.7519 36.0814C35.9494 36.08 35.1813 36.1982 34.6165 36.41L19.6758 30.8086Z" fill="#F6F7F9" stroke="#0077FF" stroke-width="3.6" mask="url(#path-35-inside-2_1_9)"/>
<mask id="path-36-inside-3_1_9" fill="white">
<path d="M19.6758 30.8086C23.175 29.4967 27.6821 28.6271 32.5775 28.3194L36.2389 36.097C35.6233 36.1357 35.0566 36.245 34.6165 36.41L19.6758 30.8086Z"/>
</mask>
<path d="M19.6758 30.8086C23.175 29.4967 27.6821 28.6271 32.5775 28.3194L36.2389 36.097C35.6233 36.1357 35.0566 36.245 34.6165 36.41L19.6758 30.8086Z" fill="#F6F7F9" stroke="#0077FF" stroke-width="3.6" mask="url(#path-36-inside-3_1_9)"/>
<ellipse cx="2.54063" cy="2.51764" rx="2.54063" ry="2.51764" transform="matrix(-0.936357 -0.351049 -0.936357 0.351049 41.5022 37.2238)" fill="#F6F7F9" stroke="#0077FF" stroke-width="1.8"/>
<rect y="58.7005" width="18.8241" height="18.8241" rx="9.41205" fill="#0077FF"/>
<path d="M3.79061 66.2841C4.80327 65.2804 6.44511 65.2804 7.45777 66.2841L9.29136 68.1013L7.45777 69.9186C6.44511 70.9222 4.80327 70.9222 3.79061 69.9186C2.77795 68.915 2.77795 67.2877 3.79061 66.2841Z" fill="#0077FF"/>
<path d="M14.7921 69.9186C13.7794 70.9222 12.1376 70.9222 11.1249 69.9186L9.29136 68.1013L11.1249 66.2841C12.1376 65.2804 13.7794 65.2804 14.7921 66.2841C15.8048 67.2877 15.8048 68.915 14.7921 69.9186Z" fill="#0077FF"/>
<path d="M9.29136 68.1013L7.45777 66.2841C6.44511 65.2804 4.80327 65.2804 3.79061 66.2841C2.77795 67.2877 2.77795 68.915 3.79061 69.9186C4.80327 70.9222 6.44511 70.9222 7.45777 69.9186L9.29136 68.1013ZM9.29136 68.1013L11.1249 69.9186C12.1376 70.9222 13.7794 70.9222 14.7921 69.9186C15.8048 68.915 15.8048 67.2877 14.7921 66.2841C13.7794 65.2804 12.1376 65.2804 11.1249 66.2841L9.29136 68.1013Z" stroke="white" stroke-width="1.8"/>
</svg>
