<svg width="227" height="136" viewBox="0 0 227 136" fill="none" xmlns="http://www.w3.org/2000/svg">
    <path d="M81.2386 129.33H79.9996C66.2034 129.33 59.3053 129.33 54.9308 125.155C54.7615 124.993 54.596 124.827 54.4343 124.658C50.2588 120.284 50.2588 113.385 50.2588 99.5893V99.5893" stroke="black" stroke-width="1.8" stroke-linecap="round"/>
    <path d="M142.26 6.67627H143.499C157.296 6.67627 164.194 6.67627 168.568 10.8518C168.738 11.0134 168.903 11.179 169.065 11.3483C173.24 15.7228 173.24 22.6209 173.24 36.4171V36.4171" stroke="black" stroke-width="1.8" stroke-linecap="round"/>
    <path d="M81.2386 6.67627H79.9996C66.2034 6.67627 59.3053 6.67627 54.9308 10.8518C54.7615 11.0134 54.596 11.179 54.4343 11.3483C50.2588 15.7228 50.2588 22.6209 50.2588 36.4171V36.4171" stroke="black" stroke-width="1.8" stroke-linecap="round"/>
    <path d="M142.26 129.33H143.499C157.296 129.33 164.194 129.33 168.568 125.155C168.738 124.993 168.903 124.827 169.065 124.658C173.24 120.284 173.24 113.385 173.24 99.5893V99.5893" stroke="black" stroke-width="1.8" stroke-linecap="round"/>
    <path d="M192 78H161" stroke="#D7DDE8" stroke-width="1.8" stroke-linecap="round" stroke-dasharray="5.87 5.87"/>
    <path d="M136.78 49.6412C133.518 37.792 122.724 29.0933 109.908 29.0933C94.5104 29.0933 82.0275 41.6511 82.0275 57.1417C82.0275 58.1612 82.0826 59.1682 82.1889 60.1587C71.8068 62.5804 64.0684 71.9425 64.0684 83.1246C64.0684 95.7819 73.9851 106.108 86.4279 106.673H86.4604C86.8057 106.69 87.1523 106.698 87.5014 106.698C87.8504 106.698 88.217 106.688 88.5724 106.673L129.812 106.651C130.352 106.681 130.898 106.698 131.446 106.698C147.246 106.698 160.054 93.8133 160.054 77.9187C160.054 63.858 150.029 52.1548 136.78 49.6412Z" fill="#E5EEF7" stroke="black" stroke-width="1.8"/>
    <path d="M16.7035 52H13.7775C8.85675 52 6.39639 52 4.58898 53.1076C3.57764 53.7273 2.72733 54.5776 2.10758 55.589C1 57.3964 1 59.8568 1 64.7775V80.5071C1 85.4278 1 87.8882 2.10758 89.6956C2.72733 90.7069 3.57764 91.5572 4.58898 92.177C6.39639 93.2845 8.85675 93.2845 13.7775 93.2845H21.9579C26.8786 93.2845 29.339 93.2845 31.1464 92.177C32.1577 91.5572 33.008 90.7069 33.6278 89.6956C34.7354 87.8882 34.7354 85.4278 34.7354 80.5071V70.0318C34.7354 67.8859 34.7354 66.8129 34.4532 65.8123C34.2928 65.2435 34.0658 64.6956 33.777 64.18C33.2691 63.2729 32.5104 62.5142 30.9929 60.9968L30.9929 60.9968L25.7386 55.7424C24.2212 54.225 23.4625 53.4663 22.5554 52.9583C22.0398 52.6696 21.4918 52.4426 20.923 52.2822C19.9225 52 18.8495 52 16.7035 52Z" fill="#F3F4F6" stroke="#0077FF" stroke-width="1.8"/>
    <path d="M34.7218 66.8624V67.7624H35.6852L35.6197 66.8012L34.7218 66.8624ZM32.9395 62.9427L33.5759 62.3063L32.9395 62.9427ZM23.7933 53.7965L23.1569 54.4329L23.1569 54.4329L23.7933 53.7965ZM18.9307 52V51.1H18.0307V52H18.9307ZM20.3661 63.7641L19.638 64.2931L19.638 64.2931L20.3661 63.7641ZM22.0289 65.4269L22.5579 64.6988L22.5579 64.6988L22.0289 65.4269ZM35.6197 66.8012C35.5044 65.1106 34.7816 63.5121 33.5759 62.3063L32.3031 63.5791C33.2003 64.4763 33.7381 65.6657 33.8239 66.9236L35.6197 66.8012ZM33.5759 62.3063L24.4297 53.1601L23.1569 54.4329L32.3031 63.5791L33.5759 62.3063ZM24.4297 53.1601C23.1106 51.841 21.3215 51.1 19.4561 51.1V52.9C20.8442 52.9 22.1754 53.4514 23.1569 54.4329L24.4297 53.1601ZM19.4561 51.1H18.9307V52.9H19.4561V51.1ZM18.0307 52V53.3333H19.8307V52H18.0307ZM18.0307 53.3333C18.0307 56.1316 18.0294 58.3026 18.2153 60.0185C18.4031 61.7513 18.7902 63.1263 19.638 64.2931L21.0942 63.2351C20.5066 62.4262 20.176 61.4042 20.0049 59.8246C19.8319 58.2282 19.8307 56.1717 19.8307 53.3333H18.0307ZM19.638 64.2931C20.1571 65.0076 20.7854 65.636 21.4999 66.1551L22.5579 64.6988C21.9963 64.2907 21.5023 63.7968 21.0942 63.2351L19.638 64.2931ZM21.4999 66.1551C22.6668 67.0028 24.0418 67.39 25.7745 67.5777C27.4904 67.7636 29.6615 67.7624 32.4598 67.7624V65.9624C29.6214 65.9624 27.5648 65.9612 25.9684 65.7882C24.3889 65.6171 23.3668 65.2865 22.5579 64.6988L21.4999 66.1551ZM32.4598 67.7624H34.7218V65.9624H32.4598V67.7624Z" fill="#0077FF"/>
    <path d="M207.673 57.4727H204.747C199.826 57.4727 197.366 57.4727 195.559 58.5802C194.547 59.2 193.697 60.0503 193.077 61.0616C191.97 62.869 191.97 65.3294 191.97 70.2501V85.9797C191.97 90.9004 191.97 93.3608 193.077 95.1682C193.697 96.1796 194.547 97.0299 195.559 97.6496C197.366 98.7572 199.826 98.7572 204.747 98.7572H212.928C217.848 98.7572 220.309 98.7572 222.116 97.6496C223.127 97.0299 223.978 96.1796 224.598 95.1682C225.705 93.3608 225.705 90.9004 225.705 85.9797V75.5045C225.705 73.3585 225.705 72.2856 225.423 71.285C225.262 70.7162 225.036 70.1683 224.747 69.6526C224.239 68.7456 223.48 67.9869 221.963 66.4695L221.963 66.4694L216.708 61.2151C215.191 59.6977 214.432 58.939 213.525 58.431C213.009 58.1422 212.462 57.9153 211.893 57.7548C210.892 57.4727 209.819 57.4727 207.673 57.4727Z" fill="#F3F4F6" stroke="#0077FF" stroke-width="1.8"/>
    <path d="M225.692 72.3351V73.2351H226.655L226.59 72.2738L225.692 72.3351ZM223.909 68.4154L224.546 67.779L223.909 68.4154ZM214.763 59.2692L214.127 59.9056L214.127 59.9056L214.763 59.2692ZM209.899 57.4727V56.5727H208.999V57.4727H209.899ZM211.335 69.2368L210.607 69.7658L210.607 69.7658L211.335 69.2368ZM212.998 70.8996L213.527 70.1715L213.527 70.1715L212.998 70.8996ZM226.59 72.2738C226.474 70.5832 225.752 68.9848 224.546 67.779L223.273 69.0518C224.17 69.949 224.708 71.1384 224.794 72.3963L226.59 72.2738ZM224.546 67.779L215.4 58.6328L214.127 59.9056L223.273 69.0518L224.546 67.779ZM215.4 58.6328C214.08 57.3137 212.291 56.5727 210.426 56.5727V58.3727C211.814 58.3727 213.145 58.9241 214.127 59.9056L215.4 58.6328ZM210.426 56.5727H209.899V58.3727H210.426V56.5727ZM208.999 57.4727V58.806H210.799V57.4727H208.999ZM208.999 58.806C208.999 61.6043 208.998 63.7753 209.184 65.4912C209.372 67.2239 209.759 68.5989 210.607 69.7658L212.063 68.7078C211.475 67.8989 211.145 66.8769 210.974 65.2973C210.801 63.7009 210.799 61.6444 210.799 58.806H208.999ZM210.607 69.7658C211.126 70.4803 211.754 71.1086 212.469 71.6277L213.527 70.1715C212.965 69.7634 212.471 69.2695 212.063 68.7078L210.607 69.7658ZM212.469 71.6277C213.636 72.4755 215.011 72.8627 216.743 73.0504C218.459 73.2363 220.63 73.2351 223.429 73.2351V71.4351C220.59 71.4351 218.534 71.4338 216.937 71.2609C215.358 71.0897 214.336 70.7592 213.527 70.1715L212.469 71.6277ZM223.429 73.2351H225.692V71.4351H223.429V73.2351Z" fill="#0077FF"/>
</svg>
