<svg width="203" height="163" viewBox="0 0 203 163" fill="none" xmlns="http://www.w3.org/2000/svg">
    <path d="M1 94.8778V46.6228C1 32.4813 1 25.4105 5.39322 21.0172C9.78645 16.624 16.8572 16.624 30.9988 16.624H46.5315C48.0764 16.624 48.8489 16.624 49.5553 16.691C54.5701 17.1665 59.0114 20.1276 61.3789 24.5739C61.7124 25.2002 62.0094 25.9133 62.6035 27.3394C63.1977 28.7655 63.4947 29.4786 63.8282 30.1049C66.1957 34.5512 70.637 37.5122 75.6518 37.9878C76.3582 38.0547 77.1307 38.0547 78.6756 38.0547H113.85C127.992 38.0547 135.062 38.0547 139.456 42.448C143.849 46.8412 143.849 53.912 143.849 68.0536V94.8778C143.849 109.019 143.849 116.09 139.456 120.483C135.062 124.877 127.992 124.877 113.85 124.877H30.9988C16.8572 124.877 9.78645 124.877 5.39322 120.483C1 116.09 1 109.019 1 94.8778Z" fill="#F6F7F9" stroke="black" stroke-width="1.8"/>
    <circle cx="128.753" cy="93.5113" r="50.2203" stroke="#D7DDE8" stroke-width="1.8" stroke-linecap="round" stroke-dasharray="4.47 4.47"/>
    <rect x="122.645" y="1" width="79.2952" height="92.511" rx="14.3069" fill="#F3F4F6"/>
    <rect x="122.645" y="1" width="79.2952" height="92.511" rx="14.3069" stroke="#0077FF" stroke-width="1.8" stroke-linecap="round"/>
    <rect x="142.732" y="46.7563" width="39.0602" height="5.58003" rx="2.79002" fill="#B5DCFF"/>
    <rect x="142.732" y="55.6846" width="29.0162" height="5.58003" rx="2.79002" fill="#B5DCFF"/>
    <path d="M1 129.561V77.1538C1 61.8635 1 54.2184 5.75007 49.4683C10.5001 44.7183 18.1453 44.7183 33.4355 44.7183H45.7131C46.9592 44.7183 47.5822 44.7183 48.1504 44.7582C54.0227 45.1712 59.2102 48.7339 61.7037 54.0666C61.9449 54.5826 62.1686 55.164 62.6158 56.3269L62.6159 56.3271C63.0632 57.49 63.2868 58.0715 63.5281 58.5875C66.0216 63.9202 71.2091 67.4829 77.0814 67.8959C77.6496 67.9358 78.2726 67.9358 79.5186 67.9358H111.442C126.732 67.9358 134.377 67.9358 139.127 72.6859C143.877 77.436 143.877 85.0811 143.877 100.371V129.561C143.877 144.852 143.877 152.497 139.127 157.247C134.377 161.997 126.732 161.997 111.442 161.997H33.4355C18.1453 161.997 10.5001 161.997 5.75007 157.247C1 152.497 1 144.852 1 129.561Z" fill="#E5EEF7" stroke="black" stroke-width="1.8"/>
</svg>
