<svg width="98" height="79" viewBox="0 0 98 79" fill="none" xmlns="http://www.w3.org/2000/svg">
<path d="M1 42.2954V24.8433C1 17.8678 1 14.3801 2.83959 11.9748C3.32019 11.3464 3.88204 10.7845 4.51043 10.3039C6.91572 8.46436 10.4035 8.46436 17.379 8.46436H22.7531C26.1114 8.46436 29.1403 10.4837 30.4317 13.5837C31.7232 16.6837 34.752 18.7031 38.1103 18.7031H51.3598C59.7921 18.7031 64.0083 18.7031 66.6279 21.3227C69.2475 23.9423 69.2475 28.1585 69.2475 36.5908V42.2954C69.2475 50.7278 69.2475 54.9439 66.6279 57.5635C64.0083 60.1831 59.7921 60.1831 51.3598 60.1831H18.8877C10.4553 60.1831 6.23918 60.1831 3.61959 57.5635C1 54.9439 1 50.7278 1 42.2954Z" fill="#F6F7F9" stroke="black" stroke-width="1.2"/>
<circle cx="62.0352" cy="45.1978" r="23.9932" stroke="#D7DDE8" stroke-width="1.2" stroke-linecap="round" stroke-dasharray="3.49 3.49"/>
<rect x="59.1162" y="0.999512" width="37.8841" height="44.1981" rx="8.53093" fill="#F3F4F6"/>
<rect x="59.1162" y="0.999512" width="37.8841" height="44.1981" rx="8.53093" stroke="#0077FF" stroke-width="1.2" stroke-linecap="round"/>
<rect x="68.7139" y="22.8604" width="18.6614" height="2.66592" rx="1.33296" fill="#B5DCFF"/>
<rect x="68.7139" y="27.1255" width="13.8628" height="2.66592" rx="1.33296" fill="#B5DCFF"/>
<path d="M1 58.5771V38.0739C1 31.9822 1 28.9364 2.32317 26.6744C3.16146 25.2413 4.35459 24.0482 5.78768 23.2099C8.04972 21.8867 11.0955 21.8867 17.1871 21.8867H22.3622C25.9422 21.8867 29.1525 24.0915 30.4376 27.4329C31.7228 30.7743 34.9331 32.9792 38.5131 32.9792H49.9205C59.0378 32.9792 63.5964 32.9792 66.4288 35.8115C69.2611 38.6439 69.2611 43.2025 69.2611 52.3198V58.5771C69.2611 67.6944 69.2611 72.253 66.4288 75.0854C63.5964 77.9177 59.0378 77.9177 49.9205 77.9177H20.3407C11.2234 77.9177 6.66475 77.9177 3.83237 75.0854C1 72.253 1 67.6944 1 58.5771Z" fill="#E5EEF7" stroke="black" stroke-width="1.2"/>
</svg>
