<svg width="20" height="20" viewBox="0 0 20 20" fill="none" xmlns="http://www.w3.org/2000/svg">
<path fill-rule="evenodd" clip-rule="evenodd" d="M9.31739 1.5H10.6826C11.6351 1.49999 12.3956 1.49999 13.0099 1.55018C13.6399 1.60165 14.1818 1.70963 14.6795 1.96322C15.4791 2.37068 16.1293 3.02085 16.5368 3.82054C16.7904 4.31824 16.8984 4.86012 16.9498 5.49013C17 6.10439 17 6.86493 17 7.81737V14.3871C17 15.1634 17 15.7979 16.9556 16.2876C16.9118 16.7707 16.8159 17.268 16.5041 17.6561C16.0729 18.1929 15.4197 18.5027 14.7312 18.4969C14.2333 18.4927 13.7875 18.2523 13.3858 17.9806C12.9784 17.705 12.4872 17.3036 11.8861 16.8123L11.0441 16.1242C10.765 15.8961 10.5869 15.7512 10.442 15.6497C10.3049 15.5536 10.2405 15.5281 10.203 15.5175C10.0702 15.4802 9.92977 15.4802 9.79702 15.5175C9.75946 15.5281 9.69513 15.5536 9.55801 15.6497C9.41314 15.7512 9.23499 15.8961 8.95589 16.1242L8.11389 16.8123C7.51279 17.3036 7.02155 17.705 6.61422 17.9806C6.21249 18.2523 5.76673 18.4927 5.26883 18.4969C4.58035 18.5027 3.92713 18.1929 3.49592 17.6561C3.18408 17.268 3.08819 16.7707 3.04439 16.2876C2.99998 15.7979 2.99999 15.1635 3 14.3871V7.81739C2.99999 6.86494 2.99999 6.1044 3.05018 5.49013C3.10165 4.86012 3.20963 4.31824 3.46322 3.82054C3.87068 3.02085 4.52085 2.37068 5.32054 1.96322C5.81824 1.70963 6.36012 1.60165 6.99013 1.55018C7.6044 1.49999 8.36495 1.49999 9.31739 1.5ZM7.11228 3.04519C6.57503 3.08909 6.25252 3.17184 6.00153 3.29973C5.48408 3.56338 5.06338 3.98408 4.79973 4.50153C4.67184 4.75252 4.58909 5.07503 4.54519 5.61228C4.50058 6.15829 4.5 6.85753 4.5 7.85V14.3492C4.5 15.1727 4.50075 15.7384 4.53826 16.1522C4.57712 16.5806 4.64654 16.6933 4.66531 16.7167C4.80904 16.8956 5.02678 16.9989 5.25628 16.997C5.28625 16.9967 5.41748 16.9791 5.77381 16.7381C6.11791 16.5053 6.55644 16.1479 7.19411 15.6268L8.02633 14.9467C8.28011 14.7393 8.50144 14.5584 8.69737 14.4211C8.90607 14.2749 9.12755 14.1476 9.39105 14.0735C9.7893 13.9616 10.2107 13.9616 10.609 14.0735C10.8725 14.1476 11.0939 14.2749 11.3026 14.4211C11.4986 14.5584 11.7199 14.7393 11.9737 14.9467L12.8059 15.6268C13.4436 16.1479 13.8821 16.5053 14.2262 16.7381C14.5825 16.9791 14.7138 16.9967 14.7437 16.997C14.9732 16.9989 15.191 16.8956 15.3347 16.7167C15.3535 16.6933 15.4229 16.5806 15.4617 16.1522C15.4993 15.7384 15.5 15.1727 15.5 14.3492V7.85C15.5 6.85753 15.4994 6.15829 15.4548 5.61228C15.4109 5.07503 15.3282 4.75252 15.2003 4.50153C14.9366 3.98408 14.5159 3.56338 13.9985 3.29973C13.7475 3.17184 13.425 3.08909 12.8877 3.04519C12.3417 3.00058 11.6425 3 10.65 3H9.35C8.35753 3 7.65829 3.00058 7.11228 3.04519Z" fill="#818C99"/>
</svg>
