<svg width="24" height="24" viewBox="0 0 24 24" fill="none" xmlns="http://www.w3.org/2000/svg">
<path d="M12.5 13.2463C12.5 12.8321 12.8358 12.4963 13.25 12.4963H14.75C15.1642 12.4963 15.5 12.8321 15.5 13.2463C15.5 13.6605 15.1642 13.9963 14.75 13.9963H13.25C12.8358 13.9963 12.5 13.6605 12.5 13.2463Z" fill="#252629"/>
<path d="M13.25 15.5008C12.8358 15.5008 12.5 15.8366 12.5 16.2508C12.5 16.665 12.8358 17.0008 13.25 17.0008H14.75C15.1642 17.0008 15.5 16.665 15.5 16.2508C15.5 15.8366 15.1642 15.5008 14.75 15.5008H13.25Z" fill="#252629"/>
<path d="M8 13.2463C8 12.8321 8.33579 12.4963 8.75 12.4963H10.25C10.6642 12.4963 11 12.8321 11 13.2463C11 13.6605 10.6642 13.9963 10.25 13.9963H8.75C8.33579 13.9963 8 13.6605 8 13.2463Z" fill="#252629"/>
<path d="M8.75 15.5008C8.33579 15.5008 8 15.8366 8 16.2508C8 16.665 8.33579 17.0008 8.75 17.0008H10.25C10.6642 17.0008 11 16.665 11 16.2508C11 15.8366 10.6642 15.5008 10.25 15.5008H8.75Z" fill="#252629"/>
<path fill-rule="evenodd" clip-rule="evenodd" d="M12.1745 3.5H11C10.1939 3.50057 9.53458 3.50569 8.99013 3.55018C8.36012 3.60165 7.81824 3.70963 7.32054 3.96322C6.52085 4.37068 5.87068 5.02085 5.46322 5.82054C5.20963 6.31824 5.10165 6.86012 5.05018 7.49013C4.99999 8.1044 4.99999 8.86494 5 9.81739V14.1826C4.99999 15.1351 4.99999 15.8956 5.05018 16.5099C5.10165 17.1399 5.20963 17.6818 5.46322 18.1795C5.87068 18.9791 6.52085 19.6293 7.32054 20.0368C7.81824 20.2904 8.36012 20.3983 8.99013 20.4498C9.60438 20.5 10.3649 20.5 11.3173 20.5H12.6826C13.635 20.5 14.3956 20.5 15.0099 20.4498C15.6399 20.3983 16.1818 20.2904 16.6795 20.0368C17.4791 19.6293 18.1293 18.9791 18.5368 18.1795C18.7904 17.6818 18.8984 17.1399 18.9498 16.5099C19 15.8956 19 15.1351 19 14.1826V10.3255C19 9.8363 19 9.59171 18.9447 9.36154C18.8957 9.15746 18.8149 8.96237 18.7053 8.78343C18.5816 8.5816 18.4086 8.40865 18.0627 8.06275L14.4373 4.43726C14.0914 4.09137 13.9184 3.9184 13.7166 3.79472C13.5376 3.68506 13.3425 3.60425 13.1385 3.55526C12.9083 3.5 12.6637 3.5 12.1745 3.5ZM17.5 14.15C17.5 15.1425 17.4994 15.8417 17.4548 16.3877C17.4109 16.925 17.3282 17.2475 17.2003 17.4985C16.9366 18.0159 16.5159 18.4366 15.9985 18.7003C15.7475 18.8282 15.425 18.9109 14.8877 18.9548C14.3417 18.9994 13.6425 19 12.65 19H11.35C10.3575 19 9.65829 18.9994 9.11228 18.9548C8.57503 18.9109 8.25252 18.8282 8.00153 18.7003C7.48408 18.4366 7.06338 18.0159 6.79973 17.4985C6.67184 17.2475 6.58909 16.925 6.54519 16.3877C6.50058 15.8417 6.5 15.1425 6.5 14.15V9.85C6.5 8.85753 6.50058 8.15829 6.54519 7.61228C6.58909 7.07503 6.67184 6.75252 6.79973 6.50153C7.06338 5.98408 7.48408 5.56338 8.00153 5.29973C8.25252 5.17184 8.57503 5.08909 9.11228 5.04519C9.65829 5.00058 10.3575 5 11.35 5H12V7.3499C12 7.75855 12 8.11113 12.0245 8.40118C12.0503 8.7075 12.1074 9.01178 12.2615 9.30284C12.4726 9.70145 12.7986 10.0274 13.1972 10.2385C13.4882 10.3926 13.7925 10.4497 14.0988 10.4755C14.3889 10.5 14.7414 10.5 15.1501 10.5L17.5 10.5V14.15ZM16.8787 9L13.5 5.62132V7.32C13.5 7.767 13.5006 8.05564 13.5191 8.27505C13.5369 8.48525 13.5669 8.56272 13.5872 8.60095C13.6575 8.73382 13.7662 8.84247 13.8991 8.91282C13.9373 8.93307 14.0147 8.96312 14.225 8.98086C14.4444 8.99938 14.733 9 15.18 9H16.8787Z" fill="#252629"/>
</svg>
