<svg fill="currentColor" xmlns="http://www.w3.org/2000/svg" width="1em" height="1em" viewBox="0 0 20 20"><path fill-rule="evenodd" d="M6.87 4.117H2.825a.74.74 0 0 0-.742.736c0 .406.333.735.742.735h.54l.897 9.066c.051.514.093.941.156 1.29.065.362.16.696.349 1.007A2.86 2.86 0 0 0 6 18.06c.33.155.675.217 1.047.246.355.027.789.027 1.31.027h3.284c.521 0 .955 0 1.31-.027.372-.03.716-.091 1.047-.246a2.86 2.86 0 0 0 1.234-1.11c.188-.31.284-.643.349-1.007.062-.348.105-.775.155-1.289l.898-9.066h.54c.41 0 .742-.33.742-.735a.739.739 0 0 0-.743-.736H13.13A3.211 3.211 0 0 0 10 1.667a3.211 3.211 0 0 0-3.13 2.45Zm1.565 0h3.13A1.734 1.734 0 0 0 10 3.137c-.69 0-1.287.401-1.565.98Zm6.708 1.471H4.857l.88 8.895c.054.549.091.918.142 1.203.05.276.103.414.161.51.14.232.348.419.596.535.102.047.246.087.527.108.291.023.666.024 1.223.024h3.228c.556 0 .931 0 1.222-.023.282-.022.426-.062.528-.11.247-.115.455-.302.596-.535.057-.095.111-.233.16-.509.052-.285.089-.654.143-1.203l.88-8.895Zm-2.855 1.963c.409.034.712.39.678.794l-.495 5.885a.74.74 0 0 1-.8.672.737.737 0 0 1-.679-.794l.495-5.885a.74.74 0 0 1 .801-.672Zm-4.576 0a.74.74 0 0 1 .801.672l.495 5.885a.737.737 0 0 1-.678.794.74.74 0 0 1-.801-.672l-.495-5.885a.737.737 0 0 1 .678-.794Z" clip-rule="evenodd"></path></svg>
