<svg width="18" height="18" viewBox="0 0 18 18" fill="none" xmlns="http://www.w3.org/2000/svg">
    <path fill-rule="evenodd" clip-rule="evenodd" d="M18 3.5C18 5.433 16.433 7 14.5 7C13.9758 7 13.4785 6.88476 13.0321 6.67823C12.93 6.63101 12.8081 6.65024 12.7309 6.73197L10.898 8.67126C10.7283 8.86103 10.7283 9.14799 10.8979 9.33778L12.7249 11.2708C12.8023 11.3527 12.9244 11.3718 13.0266 11.3243C13.4744 11.1162 13.9736 11 14.5 11C16.433 11 18 12.567 18 14.5C18 16.433 16.433 18 14.5 18C12.567 18 11 16.433 11 14.5C11 13.7799 11.2174 13.1107 11.5903 12.5542C11.6582 12.4528 11.652 12.317 11.5685 12.228L9.39903 9.91625C9.30419 9.81045 9.16882 9.75 9.02673 9.75H7.12076C7.00324 9.75 6.90249 9.83225 6.87082 9.94542C6.45834 11.4191 5.10539 12.5 3.5 12.5C1.567 12.5 0 10.933 0 9C0 7.067 1.567 5.5 3.5 5.5C5.1054 5.5 6.45834 6.58087 6.87082 8.05458C6.9025 8.16775 7.00324 8.25 7.12076 8.25H9.02725C9.16903 8.25 9.30415 8.18981 9.39897 8.0844L11.5703 5.77524C11.6541 5.68616 11.6603 5.55009 11.5922 5.44858C11.2182 4.89161 11 4.22128 11 3.5C11 1.567 12.567 0 14.5 0C16.433 0 18 1.567 18 3.5ZM16.5 3.5C16.5 4.60457 15.6046 5.5 14.5 5.5C13.3954 5.5 12.5 4.60457 12.5 3.5C12.5 2.39543 13.3954 1.5 14.5 1.5C15.6046 1.5 16.5 2.39543 16.5 3.5ZM16.5 14.5C16.5 15.6046 15.6046 16.5 14.5 16.5C13.3954 16.5 12.5 15.6046 12.5 14.5C12.5 13.3954 13.3954 12.5 14.5 12.5C15.6046 12.5 16.5 13.3954 16.5 14.5ZM3.5 11C4.60457 11 5.5 10.1046 5.5 9C5.5 7.89543 4.60457 7 3.5 7C2.39543 7 1.5 7.89543 1.5 9C1.5 10.1046 2.39543 11 3.5 11Z" fill="#19191A"/>
</svg>
