<svg width="32" height="32" viewBox="0 0 32 32" fill="none" xmlns="http://www.w3.org/2000/svg">
<path fill-rule="evenodd" clip-rule="evenodd" d="M10.7083 25.6782C5.42891 24.6853 1.60001 19.5819 1.60001 13.7263C1.60001 7.19521 6.3632 1.59998 12.5895 1.59998C16.194 1.59998 19.3082 3.47525 21.2917 6.32173C26.5711 7.3147 30.4 12.418 30.4 18.2737C30.4 24.8047 25.6368 30.4 19.4105 30.4C15.806 30.4 12.6918 28.5247 10.7083 25.6782ZM4.63158 13.7263C4.63158 8.53731 8.35141 4.63155 12.5895 4.63155C14.3037 4.63155 15.9331 5.27053 17.2658 6.37495C12.123 7.4855 8.42106 12.5159 8.42106 18.2737C8.42106 19.4811 8.58386 20.6565 8.88861 21.7706C6.40058 20.2728 4.63158 17.3046 4.63158 13.7263ZM23.1114 10.2294C25.5994 11.7272 27.3684 14.6953 27.3684 18.2737C27.3684 23.4626 23.6486 27.3684 19.4105 27.3684C17.6963 27.3684 16.0669 26.7294 14.7342 25.625C19.877 24.5144 23.579 19.484 23.579 13.7263C23.579 12.5189 23.4162 11.3434 23.1114 10.2294ZM19.4865 9.17934C20.1576 10.5012 20.5474 12.0465 20.5474 13.7263C20.5474 18.9153 16.8275 22.821 12.5895 22.821C12.5641 22.821 12.5388 22.8209 12.5135 22.8206C11.8425 21.4987 11.4526 19.9534 11.4526 18.2737C11.4526 13.0847 15.1725 9.17892 19.4105 9.17892C19.4359 9.17892 19.4612 9.17906 19.4865 9.17934Z" fill="black"/>
</svg>
