<svg width="20" height="20" viewBox="0 0 20 20" fill="none" xmlns="http://www.w3.org/2000/svg">
    <path fill-rule="evenodd" clip-rule="evenodd" d="M5.05206 8.021C6.29915 8.021 7.36664 7.25205 7.80627 6.16243C7.89163 5.95086 8.08675 5.79443 8.31489 5.79443H12.4739C13.4304 5.79443 14.2057 6.56977 14.2057 7.5262C14.2057 8.48264 13.4304 9.25798 12.4739 9.25798H7.52602C5.74979 9.25798 4.30988 10.6979 4.30988 12.4741C4.30988 14.2503 5.74979 15.6903 7.52602 15.6903H11.6851C11.9132 15.6903 12.1083 15.8467 12.1937 16.0583C12.6333 17.1479 13.7008 17.9168 14.9479 17.9168C16.5875 17.9168 17.9166 16.5877 17.9166 14.9481C17.9166 13.3085 16.5875 11.9793 14.9479 11.9793C13.7008 11.9793 12.6333 12.7483 12.1937 13.8379C12.1083 14.0495 11.9132 14.2059 11.6851 14.2059H7.52602C6.56959 14.2059 5.79425 13.4306 5.79425 12.4741C5.79425 11.5177 6.56959 10.7423 7.52602 10.7423H12.4739C14.2502 10.7423 15.6901 9.30243 15.6901 7.5262C15.6901 5.74998 14.2502 4.31006 12.4739 4.31006H8.31489C8.08675 4.31006 7.89163 4.15364 7.80627 3.94207C7.36664 2.85244 6.29915 2.0835 5.05206 2.0835C3.41247 2.0835 2.08331 3.41265 2.08331 5.05225C2.08331 6.69184 3.41247 8.021 5.05206 8.021ZM5.05206 6.53662C5.87186 6.53662 6.53644 5.87204 6.53644 5.05225C6.53644 4.23245 5.87186 3.56787 5.05206 3.56787C4.23227 3.56787 3.56769 4.23245 3.56769 5.05225C3.56769 5.87204 4.23227 6.53662 5.05206 6.53662ZM16.4323 14.9481C16.4323 15.7679 15.7677 16.4325 14.9479 16.4325C14.1281 16.4325 13.4635 15.7679 13.4635 14.9481C13.4635 14.1283 14.1281 13.4637 14.9479 13.4637C15.7677 13.4637 16.4323 14.1283 16.4323 14.9481Z" fill="#19191A"/>
</svg>
