<svg width="20" height="20" viewBox="0 0 20 20" fill="none" xmlns="http://www.w3.org/2000/svg">
<path fill-rule="evenodd" clip-rule="evenodd" d="M12.9451 1C14.4906 1 15.2428 1.14477 16.0246 1.56153C16.7363 1.9409 17.2996 2.5024 17.6802 3.21176C18.0983 3.99104 18.2436 4.74073 18.2436 6.28126V7.22848L18.2365 7.22765V8.75468C18.2365 9.19894 17.8752 9.55907 17.4295 9.55907C16.9839 9.55907 16.6225 9.19894 16.6225 8.75468V7.18757H16.627V6.28126C16.627 4.98399 16.5304 4.48559 16.2547 3.97167C16.0247 3.54313 15.6922 3.21163 15.2622 2.98244C14.7467 2.70759 14.2466 2.61135 12.9451 2.61135H6.29842C4.99697 2.61135 4.49691 2.70759 3.98133 2.98244C3.5514 3.21163 3.21881 3.54313 2.98888 3.97167C2.71315 4.48559 2.61658 4.98399 2.61658 6.28126V12.9064C2.61658 14.2037 2.71315 14.7021 2.98888 15.216C3.21881 15.6446 3.5514 15.9761 3.98133 16.2053C4.49691 16.4801 4.99697 16.5764 6.29842 16.5764H8.2423V16.5719H9.81894C10.2646 16.5719 10.6259 16.9321 10.6259 17.3763C10.6259 17.8206 10.2646 18.1807 9.81894 18.1807H9.67986L9.68526 18.1877H6.29842C4.75293 18.1877 4.00074 18.0429 3.21895 17.6262C2.5073 17.2468 1.94395 16.6853 1.56336 15.9759C1.14525 15.1967 1 14.447 1 12.9064V6.28126C1 4.74073 1.14525 3.99104 1.56336 3.21176C1.94395 2.5024 2.5073 1.9409 3.21895 1.56153C4.00074 1.14477 4.75293 1 6.29842 1H12.9451ZM10.6565 8.7948C11.1029 8.7948 11.4648 9.15551 11.4648 9.60048C11.4648 10.0454 11.1029 10.4062 10.6565 10.4062H8.16381H5.66124C5.21484 10.4062 4.85295 10.0454 4.85295 9.60048C4.85295 9.15551 5.21484 8.7948 5.66124 8.7948H10.6565ZM14.4805 6.11653C14.4805 5.67156 14.1186 5.31085 13.6722 5.31085H5.65721C5.21081 5.31085 4.84893 5.67156 4.84893 6.11653C4.84893 6.5615 5.21081 6.92222 5.65721 6.92222H9.15978H13.6722C14.1186 6.92222 14.4805 6.5615 14.4805 6.11653ZM8.08131 12.2866C8.52771 12.2866 8.88959 12.6474 8.88959 13.0923C8.88959 13.5373 8.52771 13.898 8.08131 13.898H7.0762H5.66124C5.21484 13.898 4.85295 13.5373 4.85295 13.0923C4.85295 12.6474 5.21484 12.2866 5.66124 12.2866H8.08131ZM16.1293 10.569L16.1121 10.5112C16.0011 10.1421 15.927 10.1421 15.7419 10.1421L15.3377 10.1422C15.1727 10.1435 15.0708 10.1651 15.0013 10.5112C14.9348 10.8429 14.8383 11.1747 14.2805 11.4938C13.6975 11.6497 13.4104 11.4938 13.1226 11.3376L13.0694 11.3088C12.7291 11.1261 12.6767 11.1783 12.5458 11.3088L12.2601 11.5937C12.1444 11.711 12.0876 11.7981 12.284 12.0917C12.4723 12.3733 12.6395 12.676 12.4711 13.2951C12.1695 13.8158 11.856 13.9079 11.5418 14.0003L11.4838 14.0174C11.1135 14.1281 11.1135 14.202 11.1135 14.3865L11.1136 14.7893C11.1149 14.9538 11.1366 15.0554 11.4838 15.1247C11.8166 15.191 12.1495 15.2872 12.4696 15.8432C12.626 16.4243 12.4696 16.7105 12.3128 16.9973L12.284 17.0503C12.1007 17.3896 12.1531 17.4418 12.284 17.5723L12.5698 17.8571C12.6874 17.9724 12.7749 18.029 13.0694 17.8333C13.352 17.6455 13.6556 17.4789 14.2767 17.6468C14.7991 17.9473 14.8915 18.2599 14.9841 18.5731L15.0013 18.6309C15.1124 19 15.1865 19 15.3716 19L15.7757 18.9999C15.9408 18.9986 16.0427 18.9769 16.1121 18.6309C16.1787 18.2991 16.2752 17.9673 16.833 17.6483C17.416 17.4924 17.7031 17.6483 17.9909 17.8045L18.044 17.8333C18.3844 18.016 18.4368 17.9638 18.5677 17.8333L18.8534 17.5484C18.9691 17.4311 19.0259 17.3439 18.8295 17.0503C18.6412 16.7687 18.474 16.466 18.6424 15.847C18.9439 15.3263 19.2575 15.2341 19.5717 15.1418L19.6297 15.1247C20 15.0139 20 14.9401 20 14.7556L19.9999 14.3528C19.9986 14.1883 19.9769 14.0866 19.6297 14.0174C19.2969 13.9511 18.964 13.8549 18.6439 13.2989C18.4875 12.7178 18.6439 12.4316 18.8007 12.1447L18.8295 12.0917C19.0128 11.7525 18.9604 11.7003 18.8295 11.5698L18.5437 11.285C18.426 11.1696 18.3386 11.1131 18.044 11.3088C17.7615 11.4965 17.4578 11.6632 16.8368 11.4953C16.3144 11.1947 16.222 10.8822 16.1293 10.569ZM17.5013 14.5711C17.5013 15.6461 16.6307 16.5176 15.5569 16.5176C14.4831 16.5176 13.6126 15.6461 13.6126 14.5711C13.6126 13.496 14.4831 12.6245 15.5569 12.6245C16.6307 12.6245 17.5013 13.496 17.5013 14.5711Z" fill="#19191A"/>
</svg>
