<svg width="24" height="24" viewBox="0 0 24 24" fill="none" xmlns="http://www.w3.org/2000/svg">
<path d="M20.5 11C20.5 12.1457 19.9495 13.1629 19.0985 13.8014C18.7228 14.0833 18.5606 14.6224 18.8357 15.0032C19.0411 15.2877 19.4251 15.3876 19.7194 15.1965C21.0921 14.3052 22 12.7586 22 11C22 8.23859 19.7614 6 17 6C16.9215 6 16.8434 6.00181 16.7658 6.00539C16.556 6.01507 16.3565 5.90757 16.2504 5.72632C15.2961 4.09542 13.526 3 11.5 3C9.1033 3 7.06464 4.533 6.3111 6.67193C6.24062 6.872 6.06202 7.01602 5.85207 7.04629C3.67378 7.36041 2 9.23473 2 11.5C2 13.1809 2.9216 14.6465 4.28708 15.4192C4.58848 15.5897 4.95964 15.4646 5.14319 15.1709C5.39345 14.7705 5.1865 14.239 4.79788 13.9707C4.01382 13.4295 3.5 12.5248 3.5 11.5C3.5 9.90994 4.73788 8.60782 6.30142 8.50641L6.65469 8.4835C7.07805 8.45605 7.43801 8.16445 7.55273 7.756L7.64846 7.41516C8.12123 5.73193 9.66869 4.5 11.5 4.5C13.062 4.5 14.4176 5.39505 15.077 6.70715L15.2341 7.01962C15.4227 7.39489 15.8257 7.61232 16.2429 7.5639L16.5902 7.52359C16.7241 7.50806 16.8608 7.5 17 7.5C18.933 7.5 20.5 9.06702 20.5 11Z" fill="#252629"/>
<path fill-rule="evenodd" clip-rule="evenodd" d="M7.66992 12.0773C7.66992 11.7201 7.86052 11.39 8.16992 11.2113L11.5 9.28868C11.8095 9.11004 12.1906 9.11004 12.5 9.28867L15.8302 11.2113C16.1396 11.39 16.3302 11.7201 16.3302 12.0774V17.9226C16.3302 18.2799 16.1396 18.61 15.8302 18.7887L12.5 20.7113C12.1906 20.89 11.8095 20.89 11.5 20.7113L8.16992 18.7887C7.86052 18.61 7.66992 18.2799 7.66992 17.9226V12.0773ZM9.16992 12.6547C9.16992 12.4761 9.26522 12.311 9.41992 12.2217L11.75 10.8764C11.9047 10.7871 12.0953 10.7871 12.25 10.8764L14.7052 12.2939C14.7825 12.3385 14.8302 12.421 14.8302 12.5104V13.4896C14.8302 13.579 14.7825 13.6615 14.7052 13.7061L12.25 15.1236C12.0953 15.2129 11.9047 15.2129 11.75 15.1236L9.41992 13.7783C9.26522 13.689 9.16992 13.5239 9.16992 13.3453V12.6547ZM14.4552 15.5825C14.6218 15.4863 14.8302 15.6066 14.8302 15.799V17.3453C14.8302 17.5239 14.7349 17.689 14.5802 17.7783L12.25 19.1236C12.0953 19.2129 11.9047 19.2129 11.75 19.1236L9.41992 17.7783C9.26522 17.689 9.16992 17.5239 9.16992 17.3453V15.799C9.16992 15.6066 9.37826 15.4863 9.54492 15.5825L11.75 16.8557C11.9047 16.945 12.0953 16.945 12.25 16.8557L14.4552 15.5825Z" fill="#252629"/>
</svg>
