<svg width="20" height="20" viewBox="0 0 20 20" fill="none" xmlns="http://www.w3.org/2000/svg">
<path d="M1 2H3.17404L6.27167 12.3704L15.5435 10.3225L17.5011 4.76611L19 5.16889L16.7756 11.4825L5.13772 14L1.96243 3.36962H1V2Z" fill="black"/>
<path fill-rule="evenodd" clip-rule="evenodd" d="M9.69003 2.229C10.1912 1.92367 10.8087 1.92367 11.3099 2.229L13.19 3.37436C13.6912 3.67969 14 4.24397 14 4.85464V7.14536C14 7.75603 13.6912 8.32031 13.19 8.62564L11.3099 9.771C10.8087 10.0763 10.1912 10.0763 9.69003 9.771L7.80993 8.62564C7.30873 8.32031 6.99998 7.75603 6.99998 7.14536V4.85464C6.99998 4.24397 7.30873 3.67969 7.80993 3.37436L9.69003 2.229ZM10.6157 3.49781C10.5441 3.45419 10.4559 3.45419 10.3843 3.49781L8.50418 4.64317C8.43258 4.68679 8.38847 4.7674 8.38847 4.85464V7.14536C8.38847 7.2326 8.43258 7.31321 8.50418 7.35683L10.3843 8.50219C10.4559 8.54581 10.5441 8.54581 10.6157 8.50219L12.4958 7.35683C12.5674 7.31321 12.6115 7.2326 12.6115 7.14536V4.85464C12.6115 4.7674 12.5674 4.68679 12.4958 4.64317L10.6157 3.49781Z" fill="black"/>
<path d="M8.24998 16.5C8.24998 17.3284 7.57841 18 6.74998 18C5.92155 18 5.24998 17.3284 5.24998 16.5C5.24998 15.6716 5.92155 15 6.74998 15C7.57841 15 8.24998 15.6716 8.24998 16.5Z" fill="black"/>
<path d="M14.75 18C15.5784 18 16.25 17.3284 16.25 16.5C16.25 15.6716 15.5784 15 14.75 15C13.9216 15 13.25 15.6716 13.25 16.5C13.25 17.3284 13.9216 18 14.75 18Z" fill="black"/>
</svg>
