<svg width="16" height="12" viewBox="0 0 16 12" fill="none" xmlns="http://www.w3.org/2000/svg">
<path fill-rule="evenodd" clip-rule="evenodd" d="M3.14806 3.37955C3.46717 4.36111 4.38698 5.07037 5.47191 5.07037C6.55684 5.07037 7.47665 4.36111 7.79576 3.37955C10.111 3.37955 12.4263 3.37955 14.7416 3.37955C15.1604 3.37955 15.5 3.0389 15.5 2.61868C15.5 2.19847 15.1604 1.85781 14.7416 1.85781C12.4263 1.85781 10.111 1.85781 7.79576 1.85781C7.78757 1.83214 7.79853 1.86635 7.79576 1.85781C7.47665 0.876257 6.55684 0.166992 5.47191 0.166992C4.38698 0.166992 3.46717 0.876257 3.14806 1.85781C2.51818 1.85781 1.88831 1.85781 1.25843 1.85781C0.839559 1.85781 0.5 2.19847 0.5 2.61868C0.5 3.0389 0.839559 3.37955 1.25843 3.37955C1.88831 3.37955 2.51818 3.37955 3.14806 3.37955ZM5.47191 1.68873C4.95996 1.68873 4.54494 2.10509 4.54494 2.61868C4.54494 3.13228 4.95996 3.54863 5.47191 3.54863C5.98386 3.54863 6.39888 3.13228 6.39888 2.61868C6.39888 2.10509 5.98386 1.68873 5.47191 1.68873Z" fill="#19191A"/>
<path fill-rule="evenodd" clip-rule="evenodd" d="M0.5 9.38197C0.5 8.96175 0.839559 8.6211 1.25843 8.6211C3.5737 8.6211 5.88897 8.6211 8.20424 8.6211C8.52335 7.63954 9.44316 6.93028 10.5281 6.93028C11.613 6.93028 12.5328 7.63954 12.8519 8.6211C12.8519 8.6211 14.3022 8.6211 14.7416 8.6211C15.1604 8.6211 15.5 8.96175 15.5 9.38197C15.5 9.80218 15.1604 10.1428 14.7416 10.1428C14.5543 10.1428 12.8519 10.1428 12.8519 10.1428C12.5328 11.1244 11.613 11.8337 10.5281 11.8337C9.44316 11.8337 8.52335 11.1244 8.20424 10.1428C5.88897 10.1428 3.5737 10.1428 1.25843 10.1428C0.839559 10.1428 0.5 9.80218 0.5 9.38197ZM9.60112 9.38197C9.60112 8.86837 10.0161 8.45202 10.5281 8.45202C11.04 8.45202 11.4551 8.86837 11.4551 9.38197C11.4551 9.89557 11.04 10.3119 10.5281 10.3119C10.0161 10.3119 9.60112 9.89557 9.60112 9.38197Z" fill="#19191A"/>
</svg>
