<svg width="28" height="28" viewBox="0 0 28 28" fill="none" xmlns="http://www.w3.org/2000/svg">
<path fill-rule="evenodd" clip-rule="evenodd" d="M5.5 8.75C5.5 8.33579 5.83579 8 6.25 8H21.75C22.1642 8 22.5 8.33579 22.5 8.75C22.5 9.16421 22.1642 9.5 21.75 9.5H6.25C5.83579 9.5 5.5 9.16421 5.5 8.75ZM5.5 14C5.5 13.5858 5.83579 13.25 6.25 13.25H21.75C22.1642 13.25 22.5 13.5858 22.5 14C22.5 14.4142 22.1642 14.75 21.75 14.75H6.25C5.83579 14.75 5.5 14.4142 5.5 14ZM5.5 19.25C5.5 18.8358 5.83579 18.5 6.25 18.5H21.75C22.1642 18.5 22.5 18.8358 22.5 19.25C22.5 19.6642 22.1642 20 21.75 20H6.25C5.83579 20 5.5 19.6642 5.5 19.25Z" fill="#676C82"/>
</svg>
