<svg width="18" height="18" viewBox="0 0 18 18" fill="none" xmlns="http://www.w3.org/2000/svg">
<path fill-rule="evenodd" clip-rule="evenodd" d="M10.6667 2.229H7.33341C6.14086 2.229 5.34041 2.23022 4.72399 2.28058C4.12582 2.32945 3.83982 2.41671 3.65115 2.51284C3.16114 2.76251 2.76276 3.1609 2.51309 3.6509C2.41695 3.83957 2.3297 4.12558 2.28083 4.72375C2.23046 5.34016 2.22925 6.14061 2.22925 7.33317V10.6665C2.22925 11.8591 2.23046 12.6595 2.28083 13.2759C2.3297 13.8741 2.41695 14.1601 2.51309 14.3488C2.76276 14.8388 3.16114 15.2372 3.65115 15.4868C3.83982 15.583 4.12582 15.6702 4.72399 15.7191C5.34041 15.7695 6.14086 15.7707 7.33341 15.7707H10.6667C11.8593 15.7707 12.6598 15.7695 13.2762 15.7191C13.8743 15.6702 14.1603 15.583 14.349 15.4868C14.839 15.2372 15.2374 14.8388 15.4871 14.3488C15.5832 14.1601 15.6705 13.8741 15.7193 13.2759C15.7697 12.6595 15.7709 11.8591 15.7709 10.6665V7.33317C15.7709 6.14061 15.7697 5.34016 15.7193 4.72375C15.6705 4.12558 15.5832 3.83957 15.4871 3.6509C15.2374 3.1609 14.839 2.76251 14.349 2.51284C14.1603 2.41671 13.8743 2.32945 13.2762 2.28058C12.6598 2.23022 11.8593 2.229 10.6667 2.229ZM1.12089 2.94154C0.666748 3.83284 0.666748 4.99962 0.666748 7.33317V10.6665C0.666748 13.0001 0.666748 14.1668 1.12089 15.0581C1.52036 15.8421 2.15778 16.4796 2.94179 16.879C3.83309 17.3332 4.99986 17.3332 7.33341 17.3332H10.6667C13.0003 17.3332 14.1671 17.3332 15.0584 16.879C15.8424 16.4796 16.4798 15.8421 16.8793 15.0581C17.3334 14.1668 17.3334 13.0001 17.3334 10.6665V7.33317C17.3334 4.99962 17.3334 3.83284 16.8793 2.94154C16.4798 2.15753 15.8424 1.52012 15.0584 1.12064C14.1671 0.666504 13.0003 0.666504 10.6667 0.666504H7.33341C4.99986 0.666504 3.83309 0.666504 2.94179 1.12064C2.15778 1.52012 1.52036 2.15753 1.12089 2.94154ZM9.00008 4.83662C9.43155 4.83662 9.78133 5.18639 9.78133 5.61787V8.21859H12.3814C12.8129 8.21859 13.1627 8.56836 13.1627 8.99984C13.1627 9.43131 12.8129 9.78109 12.3814 9.78109H9.78133V12.3853C9.78133 12.8167 9.43155 13.1665 9.00008 13.1665C8.56861 13.1665 8.21883 12.8167 8.21883 12.3853V9.78109H5.61875C5.18728 9.78109 4.8375 9.43131 4.8375 8.99984C4.8375 8.56836 5.18728 8.21859 5.61875 8.21859H8.21883V5.61787C8.21883 5.18639 8.56861 4.83662 9.00008 4.83662Z" fill="#19191A"/>
</svg>
