<svg width="16" height="18" viewBox="0 0 16 18" fill="none" xmlns="http://www.w3.org/2000/svg">
<path fill-rule="evenodd" clip-rule="evenodd" d="M14.249 3.49715L9.74903 0.958056C8.66662 0.347314 7.33338 0.347315 6.25097 0.958056L1.75097 3.49715C0.66752 4.10848 0 5.23882 0 6.46216V11.5378C0 12.7612 0.66752 13.8915 1.75097 14.5029L6.25097 17.0419C7.33338 17.6527 8.66662 17.6527 9.74903 17.0419L14.249 14.5029C15.3325 13.8915 16 12.7612 16 11.5378V6.46216C16 5.23882 15.3325 4.10848 14.249 3.49715ZM7.00056 2.22878C7.61908 1.87978 8.38093 1.87978 8.99944 2.22878L13.4994 4.76787C13.5772 4.81172 13.6512 4.86025 13.7211 4.91298L8.39855 7.59325C8.10443 7.74365 7.75317 7.74153 7.46097 7.58758L2.26764 4.92152C2.3409 4.86549 2.41865 4.81408 2.50056 4.76787L7.00056 2.22878ZM1.51801 6.20002C1.5061 6.28622 1.5 6.37377 1.5 6.46216V11.5378C1.5 12.2369 1.88144 12.8828 2.50056 13.2321L7.00056 15.7712C7.05861 15.804 7.11792 15.8337 7.17826 15.8603V9.69035C7.17826 9.33002 6.97568 8.99888 6.65102 8.82853L1.51801 6.20002ZM8.67826 15.9171C8.78844 15.8782 8.89595 15.8296 8.99944 15.7712L13.4994 13.2321C14.1186 12.8828 14.5 12.2369 14.5 11.5378V6.46216C14.5 6.3717 14.4936 6.28213 14.4811 6.19397L9.21769 8.83143C8.88627 8.99961 8.67826 9.33437 8.67826 9.69954V15.9171Z" fill="#19191A"/>
</svg>
