<svg width="24" height="24" viewBox="0 0 24 24" fill="none" xmlns="http://www.w3.org/2000/svg">
<path fill-rule="evenodd" clip-rule="evenodd" d="M5.03242 3.26173C5.28769 2.86179 5.83572 2.73626 6.25742 2.9656C6.68438 3.19778 6.83734 3.71589 6.57934 4.12336C6.59334 4.10026 6.5336 4.20062 6.50825 4.24682C6.45751 4.33932 6.38401 4.48129 6.30105 4.66649C6.13471 5.03781 5.93292 5.57714 5.7984 6.23555C5.53026 7.54802 5.53056 9.31914 6.59978 11.2021C7.91212 13.5133 7.89963 15.8976 7.58325 17.6614C7.42438 18.547 7.18638 19.292 6.9873 19.8176C6.88756 20.081 6.79699 20.2909 6.72998 20.4376C6.71292 20.4749 6.69737 20.5082 6.68356 20.5373L6.68714 20.5389L6.61469 20.677L6.61372 20.6789L6.61292 20.6805L6.611 20.6841C6.3896 21.1012 5.855 21.2648 5.41708 21.0691C4.97275 20.8706 4.77328 20.3661 4.99658 19.9388L4.99714 19.9377L4.99924 19.9336L5.01362 19.9048C5.02717 19.8772 5.04818 19.8336 5.07496 19.7749C5.12855 19.6576 5.20498 19.481 5.29078 19.2545C5.4628 18.8003 5.67011 18.1516 5.80811 17.3822C6.08548 15.836 6.07302 13.8646 5.01033 11.9931C3.70452 9.69337 3.70486 7.5126 4.03046 5.91891C4.19282 5.12422 4.43634 4.47186 4.64109 4.01476C4.74368 3.78575 4.83718 3.60434 4.90704 3.47699C4.92265 3.44854 4.9371 3.42275 4.95022 3.39971L5.03242 3.26173ZM17.4171 3.2631L17.4179 3.26184C17.6731 2.86189 18.2212 2.73626 18.6429 2.9656C19.0699 3.19778 19.2228 3.71586 18.9649 4.12334L18.964 4.12474L18.963 4.1263L18.9508 4.14647C18.9387 4.16691 18.9191 4.20062 18.8937 4.24682C18.843 4.33932 18.7695 4.48129 18.6865 4.66648C18.5202 5.03781 18.3184 5.57714 18.1839 6.23555C17.9158 7.54802 17.9161 9.31914 18.9853 11.2021C20.2976 13.5133 20.2851 15.8976 19.9688 17.6614C19.8099 18.547 19.5719 19.292 19.3728 19.8176C19.2731 20.081 19.1825 20.2909 19.1155 20.4376C19.0819 20.511 19.0543 20.5687 19.0342 20.6095C19.0241 20.6299 19.016 20.6461 19.01 20.658L19.0028 20.672L19.0002 20.677L18.9992 20.6788L18.9985 20.6802C18.7784 21.1 18.2418 21.2654 17.8026 21.0691C17.3583 20.8706 17.1588 20.3661 17.3821 19.9388L17.3826 19.9377L17.3841 19.9348L17.3847 19.9336C17.3983 19.906 17.4339 19.8332 17.4605 19.7749C17.514 19.6576 17.5905 19.481 17.6763 19.2545C17.8483 18.8003 18.0556 18.1516 18.1936 17.3822C18.471 15.836 18.4585 13.8646 17.3958 11.9931C16.09 9.69337 16.0904 7.5126 16.416 5.91891C16.5783 5.12422 16.8218 4.47186 17.0266 4.01476C17.1292 3.78575 17.2227 3.60434 17.2925 3.47699C17.3275 3.41328 17.3566 3.36296 17.3781 3.32685C17.3888 3.30879 17.3979 3.2938 17.4047 3.28292L17.413 3.26957L17.4159 3.26494L17.4171 3.2631ZM12.4529 2.9656C12.0312 2.73626 11.4832 2.86179 11.2279 3.26173L11.2269 3.26334L11.2259 3.26494L11.1457 3.39971C11.1326 3.42275 11.1181 3.44854 11.1025 3.47699C11.0327 3.60434 10.9392 3.78575 10.8366 4.01476C10.6318 4.47186 10.3883 5.12422 10.226 5.91891C9.90036 7.5126 9.90002 9.69337 11.2058 11.9931C12.2685 13.8646 12.281 15.836 12.0036 17.3822C11.8656 18.1516 11.6583 18.8003 11.4863 19.2545C11.4005 19.481 11.324 19.6576 11.2705 19.7749C11.2437 19.8336 11.2083 19.9061 11.1947 19.9336C10.9714 20.3609 11.1682 20.8706 11.6126 21.0691C12.0505 21.2648 12.5851 21.1012 12.8065 20.6841C12.8082 20.6811 12.8092 20.6788 12.8092 20.6788L12.8102 20.677L12.8124 20.6727L12.8826 20.5389L12.8791 20.5373C12.8929 20.5082 12.9084 20.4749 12.9255 20.4376C12.9925 20.2909 13.0831 20.081 13.1828 19.8176C13.3819 19.292 13.6199 18.547 13.7787 17.6614C14.0951 15.8976 14.1076 13.5133 12.7953 11.2021C11.7261 9.31914 11.7258 7.54802 11.9939 6.23555C12.1284 5.57714 12.3302 5.03781 12.4965 4.66649C12.5795 4.48129 12.653 4.33932 12.7037 4.24682C12.7291 4.20062 12.7476 4.16846 12.7748 4.12335L12.773 4.12627L12.774 4.12474L12.7748 4.12335C13.0328 3.71587 12.8799 3.19778 12.4529 2.9656Z" fill="#252629"/>
</svg>
