<svg width="20" height="20" viewBox="0 0 20 20" fill="none" xmlns="http://www.w3.org/2000/svg">
    <path d="M18.5 10C18.5 11.1457 17.9495 12.1629 17.0985 12.8014C16.7228 13.0833 16.5606 13.6224 16.8357 14.0032C17.0411 14.2877 17.4251 14.3876 17.7194 14.1965C19.0921 13.3052 20 11.7586 20 10C20 7.23859 17.7614 5 15 5C14.9215 5 14.8434 5.00181 14.7658 5.00539C14.556 5.01507 14.3565 4.90757 14.2504 4.72632C13.2961 3.09542 11.526 2 9.5 2C7.1033 2 5.06464 3.533 4.3111 5.67193C4.24062 5.872 4.06202 6.01602 3.85207 6.04629C1.67378 6.36041 0 8.23473 0 10.5C0 12.1809 0.921605 13.6465 2.28708 14.4192C2.58848 14.5897 2.95964 14.4646 3.14319 14.1709C3.39345 13.7705 3.1865 13.239 2.79788 12.9707C2.01382 12.4295 1.5 11.5248 1.5 10.5C1.5 8.90994 2.73788 7.60782 4.30142 7.50641L4.65469 7.4835C5.07805 7.45605 5.43801 7.16445 5.55273 6.756L5.64846 6.41516C6.12123 4.73193 7.66869 3.5 9.5 3.5C11.062 3.5 12.4176 4.39505 13.077 5.70715L13.2341 6.01962C13.4227 6.39489 13.8257 6.61232 14.2429 6.5639L14.5902 6.52359C14.7241 6.50806 14.8608 6.5 15 6.5C16.933 6.5 18.5 8.06702 18.5 10Z" fill="#19191A"/>
    <path fill-rule="evenodd" clip-rule="evenodd" d="M13.5345 18C14.0157 18 14.3608 17.5361 14.2226 17.0752L11.7138 8.71265C11.5869 8.28967 11.1976 8 10.756 8H9.24403C8.80242 8 8.4131 8.28967 8.2862 8.71265L5.77744 17.0752C5.63916 17.5361 5.9843 18 6.46551 18C6.78275 18 7.06243 17.7919 7.15358 17.4881L7.69655 15.6782C7.72828 15.5724 7.82561 15.5 7.93601 15.5H12.064C12.1744 15.5 12.2717 15.5724 12.3034 15.6782L12.8464 17.4881C12.9376 17.7919 13.2173 18 13.5345 18ZM10.5034 9.67816C10.4717 9.57242 10.3744 9.5 10.264 9.5H9.73601C9.62561 9.5 9.52828 9.57242 9.49655 9.67816L8.29655 13.6782C8.24843 13.8386 8.36854 14 8.53601 14H11.464C11.6315 14 11.7516 13.8386 11.7034 13.6782L10.5034 9.67816Z" fill="#19191A"/>
</svg>
