<svg width="24" height="24" viewBox="0 0 24 24" fill="none" xmlns="http://www.w3.org/2000/svg">
<path fill-rule="evenodd" clip-rule="evenodd" d="M10.6556 3.40787L4.58997 7.4555C3.13668 8.4253 3.13668 10.5747 4.58997 11.5445L5.27256 12L4.58997 12.4555C3.13668 13.4253 3.13668 15.5747 4.58997 16.5445L10.6556 20.5921C11.4705 21.136 12.5294 21.136 13.3444 20.5921L19.41 16.5445C20.8632 15.5747 20.8632 13.4253 19.41 12.4555L18.7274 12L19.41 11.5445C20.8632 10.5747 20.8632 8.42529 19.41 7.4555L13.3444 3.40787C12.5294 2.86404 11.4705 2.86404 10.6556 3.40787ZM17.3762 12.9017L13.3444 15.5921C12.5294 16.136 11.4705 16.136 10.6556 15.5921L6.62374 12.9017L5.42257 13.7032C4.85914 14.0792 4.85914 14.9208 5.42257 15.2968L11.4882 19.3444C11.799 19.5519 12.2009 19.5519 12.5118 19.3444L18.5774 15.2968C19.1408 14.9208 19.1408 14.0792 18.5774 13.7032L17.3762 12.9017ZM5.42257 10.2968C4.85914 9.92081 4.85914 9.07919 5.42257 8.70321L11.4882 4.65558C11.799 4.44814 12.2009 4.44814 12.5118 4.65558L18.5774 8.70321C19.1408 9.07919 19.1408 9.92081 18.5774 10.2968L12.5118 14.3444C12.2009 14.5519 11.799 14.5519 11.4882 14.3444L5.42257 10.2968Z" fill="#252629"/>
</svg>
