<svg width="20" height="20" viewBox="0 0 20 20" fill="none" xmlns="http://www.w3.org/2000/svg">
    <path fill-rule="evenodd" clip-rule="evenodd" d="M3.68917 2C2.92902 2 2.44681 2.81458 2.81245 3.48101L6.25714 9.7595C6.33933 9.9093 6.33933 10.0907 6.25714 10.2405L2.81245 16.519C2.44681 17.1854 2.92902 18 3.68917 18H16.9999C17.5522 18 17.9999 17.5523 17.9999 17V15.75C17.9999 15.3358 17.6641 15 17.2499 15C16.8357 15 16.4999 15.3358 16.4999 15.75V16.5H9.71012C9.34304 16.5 9.10109 16.1176 9.25828 15.7859L11.8984 10.2141C11.9627 10.0786 11.9627 9.92141 11.8984 9.7859L9.25828 4.2141C9.10109 3.88237 9.34304 3.5 9.71012 3.5H16.4999V4.25C16.4999 4.66421 16.8357 5 17.2499 5C17.6641 5 17.9999 4.66421 17.9999 4.25V3C17.9999 2.44772 17.5522 2 16.9999 2H3.68917ZM7.33516 3.77965C7.25112 3.60847 7.07703 3.5 6.88634 3.5H5.71012C5.34304 3.5 5.10109 3.88237 5.25828 4.2141L7.89844 9.7859C7.96266 9.92141 7.96266 10.0786 7.89844 10.2141L5.25828 15.7859C5.10109 16.1176 5.34304 16.5 5.71012 16.5H6.88634C7.07703 16.5 7.25112 16.3915 7.33516 16.2204L10.2809 10.2204C10.3491 10.0814 10.3491 9.91863 10.2809 9.77965L7.33516 3.77965Z" fill="#19191A"/>
</svg>
