<svg width="32" height="32" viewBox="0 0 17 15" fill="none" xmlns="http://www.w3.org/2000/svg">
    <path fill-rule="evenodd" clip-rule="evenodd" d="M11.7908 1.58574C11.5557 1.50934 11.239 1.50009 10.25 1.50009H4.75C4.03756 1.50009 3.54833 1.50067 3.16908 1.53166C2.79858 1.56193 2.59956 1.61744 2.45552 1.69083C2.12623 1.85861 1.85852 2.12632 1.69074 2.45561C1.6475 2.54047 1.61047 2.64441 1.58115 2.79127C1.55915 2.90145 1.64764 3.00006 1.76 3.00006H12.2C12.3656 3.00006 12.5231 3.00006 12.673 3.00037C12.8322 3.00071 12.9635 2.8607 12.9143 2.70931C12.7412 2.17654 12.3235 1.75885 11.7908 1.58574ZM1.5 10.2001L1.5 7.50009V4.75009L1.5 4.73675C1.50001 4.60585 1.60578 4.50007 1.73668 4.50006C1.74437 4.50006 1.75214 4.50006 1.76 4.50006H12.2C13.0648 4.50006 13.6232 4.50123 14.0482 4.53595C14.4557 4.56925 14.6068 4.62576 14.681 4.66355C14.9632 4.80736 15.1927 5.03683 15.3365 5.31908C15.3743 5.39324 15.4308 5.54432 15.4641 5.95181C15.4988 6.37682 15.5 6.93523 15.5 7.80006V10.2001C15.5 11.0649 15.4988 11.6233 15.4641 12.0483C15.4308 12.4558 15.3743 12.6069 15.3365 12.681C15.1927 12.9633 14.9632 13.1928 14.681 13.3366C14.6068 13.3744 14.4557 13.4309 14.0482 13.4642C13.6232 13.4989 13.0648 13.5001 12.2 13.5001H4.8C3.93517 13.5001 3.37676 13.4989 2.95175 13.4642C2.54426 13.4309 2.39318 13.3744 2.31901 13.3366C2.03677 13.1928 1.8073 12.9633 1.66349 12.681C1.6257 12.6069 1.56918 12.4558 1.53589 12.0483C1.50117 11.6233 1.5 11.0649 1.5 10.2001ZM2.56408e-07 4.71867V4.76006V7.50009V10.2001C2.56408e-07 11.8802 2.68221e-07 12.7203 0.326981 13.362C0.614601 13.9265 1.07354 14.3855 1.63803 14.6731C2.27976 15.0001 3.11984 15.0001 4.8 15.0001H12.2C13.8802 15.0001 14.7202 15.0001 15.362 14.6731C15.9265 14.3855 16.3854 13.9265 16.673 13.362C17 12.7203 17 11.8802 17 10.2001V7.80006C17 6.1199 17 5.27982 16.673 4.63809C16.3854 4.0736 15.9265 3.61466 15.362 3.32704C15.3318 3.31167 15.3012 3.29702 15.2701 3.28306C14.8355 3.08806 14.4905 2.72247 14.348 2.26795C14.3457 2.26054 14.3433 2.25316 14.3409 2.24579C14.0195 1.25636 13.2437 0.48064 12.2543 0.159157C11.7623 -0.000703871 11.1837 -0.000390772 10.3796 4.44017e-05L10.25 9.07741e-05L4.71858 9.05357e-05C4.0452 8.17738e-05 3.4945 7.46213e-05 3.04693 0.0366421C2.58367 0.074492 2.16527 0.155227 1.77453 0.35432C1.163 0.665908 0.665818 1.16309 0.35423 1.77462C0.155137 2.16536 0.074402 2.58376 0.0365521 3.04702C-1.51284e-05 3.49458 -8.20653e-06 4.04529 2.56408e-07 4.71866V4.71867ZM11.75 8.00012C11.3358 8.00012 11 8.33591 11 8.75012C11 9.16434 11.3358 9.50012 11.75 9.50012H12.75C13.1642 9.50012 13.5 9.16434 13.5 8.75012C13.5 8.33591 13.1642 8.00012 12.75 8.00012H11.75Z" fill="black"/>
</svg>