<svg width="18" height="18" viewBox="0 0 18 18" fill="none" xmlns="http://www.w3.org/2000/svg">
    <path fill-rule="evenodd" clip-rule="evenodd" d="M10 2C10 0.895431 10.8954 0 12 0H16C17.1046 0 18 0.895431 18 2V6C18 7.10457 17.1046 8 16 8H12C10.8954 8 10 7.10457 10 6V2ZM12 1.5H16C16.2761 1.5 16.5 1.72386 16.5 2V6C16.5 6.27614 16.2761 6.5 16 6.5H12C11.7239 6.5 11.5 6.27614 11.5 6V2C11.5 1.72386 11.7239 1.5 12 1.5Z" fill="#19191A"/>
    <path fill-rule="evenodd" clip-rule="evenodd" d="M2 3.5C0.895431 3.5 0 4.39543 0 5.5V16C0 16.9665 0.685564 17.7729 1.59693 17.9594C1.72713 17.986 1.86193 18 2 18L12.5 18C13.6046 18 14.5 17.1046 14.5 16V12C14.5 10.8954 13.6046 10 12.5 10H8.5C8.22386 10 8 9.77614 8 9.5V5.5C8 4.39543 7.10457 3.5 6 3.5H2ZM6 5H2C1.72386 5 1.5 5.22386 1.5 5.5V9.5C1.5 9.77614 1.72386 10 2 10H6C6.27614 10 6.5 9.77614 6.5 9.5V5.5C6.5 5.22386 6.27614 5 6 5ZM1.5 12C1.5 11.7239 1.72386 11.5 2 11.5H6C6.27614 11.5 6.5 11.7239 6.5 12V16C6.5 16.2761 6.27614 16.5 6 16.5H2C1.98274 16.5 1.96569 16.4991 1.94888 16.4974C1.69675 16.4718 1.5 16.2589 1.5 16L1.5 12ZM8 12C8 11.7239 8.22386 11.5 8.5 11.5H12.5C12.7761 11.5 13 11.7239 13 12V16C13 16.2761 12.7761 16.5 12.5 16.5H8.5C8.22386 16.5 8 16.2761 8 16V12Z" fill="#19191A"/>
</svg>
