<svg width="20" height="20" viewBox="0 0 20 20" fill="none" xmlns="http://www.w3.org/2000/svg">
<path fill-rule="evenodd" clip-rule="evenodd" d="M12.75 1H17.25C18.2165 1 19 1 19 1V7.25C19 8.2165 19 9 19 9H11C11 9 11 8.2165 11 7.25V1.00001C11 1.00001 11.7835 1 12.75 1ZM12.75 2.5C12.6119 2.5 12.5 2.5 12.5 2.5V7.25C12.5 7.38807 12.5 7.5 12.5 7.5H17.5C17.5 7.5 17.5 7.38807 17.5 7.25V2.5C17.5 2.5 17.3881 2.5 17.25 2.5H12.75Z" fill="black"/>
<path fill-rule="evenodd" clip-rule="evenodd" d="M1 19C1 19 1.00002 18.2127 1.00002 17.25V4.5C1.00002 4.5 1.78352 4.5 2.75002 4.5H7.25002C8.21652 4.5 9.00002 4.5 9.00002 4.5V11H15.5C15.5 11 15.5 11.7835 15.5 12.75V17.25C15.5 18.2165 15.5 19 15.5 19L1 19ZM7.50002 11V6C5.83335 6 4.16669 6 2.50002 6V11H7.50002ZM2.50002 12.5H7.50002V17.5H2.75002C2.61195 17.5 2.50002 17.3881 2.50002 17.25V12.5ZM9.00002 17.5V12.5H14C14 14.1667 14 15.8333 14 17.5H9.00002Z" fill="black"/>
</svg>
