<svg width="20" height="20" viewBox="0 0 20 20" fill="none" xmlns="http://www.w3.org/2000/svg">
<path fill-rule="evenodd" clip-rule="evenodd" d="M11.1094 1.76607L13.8496 3.31978L13.8604 3.32564L16.5752 4.92232L16.7002 5.00142C17.3081 5.41472 17.6784 6.102 17.6846 6.84322L17.71 9.99361V10.0053L17.6846 13.1557C17.6785 13.897 17.3081 14.5841 16.7002 14.9975L13.8604 16.6733L13.8496 16.6792L11.1094 18.2329C10.4107 18.6288 9.5903 18.5984 8.89062 18.2329L6.15039 16.6792L6.13965 16.6733L3.4248 15.0766C2.74311 14.6757 2.32188 13.9465 2.31543 13.1557L2.29004 10.0053V9.99361L2.31543 6.84322C2.32201 6.05249 2.74312 5.32315 3.4248 4.92232L6.13965 3.32564L6.15039 3.31978L8.89062 1.76607C9.59024 1.4006 10.4108 1.37024 11.1094 1.76607ZM11.083 13.351C10.3913 13.6474 9.60865 13.6474 8.91699 13.351L6.42969 12.2846L6.22168 12.851C5.99682 13.4621 5.57949 13.9617 5.05469 14.2954L6.90039 15.3803L9.62988 16.9282C9.86895 17.0411 10.1314 17.0635 10.3701 16.9282L13.0996 15.3803L14.9502 14.2915C14.4267 13.953 14.0147 13.4452 13.8008 12.8276L13.6074 12.269L11.083 13.351ZM3.81543 13.143C3.81561 13.1662 3.81706 13.1896 3.81934 13.2124C4.27083 13.1067 4.64945 12.7816 4.81445 12.3335L5.00684 11.809C4.60756 11.7423 4.20685 11.7495 3.80371 11.7495L3.81543 13.143ZM15.0322 11.8022L15.2178 12.3364C15.3711 12.7791 15.7384 13.103 16.1797 13.2104C16.1818 13.1882 16.1844 13.1656 16.1846 13.143L16.1963 11.7495C15.8066 11.7495 15.4185 11.7415 15.0322 11.8022ZM12.1924 8.18306C11.5003 6.18579 8.68433 6.15932 7.9541 8.14302L6.94824 10.8754L9.50781 11.9721C9.82222 12.1068 10.1778 12.1068 10.4922 11.9721L13.1152 10.8481L12.1924 8.18306ZM10.3701 3.07075C10.1314 2.93553 9.8689 2.95781 9.62988 3.07075L6.89941 4.61763L6.90039 4.61861L4.18457 6.21529C3.95755 6.34892 3.81766 6.59249 3.81543 6.85591L3.79199 10.2495C4.37802 10.2495 4.95494 10.2577 5.53125 10.3833L6.54688 7.62447C7.76402 4.31827 12.4561 4.36368 13.6094 7.69283L14.5361 10.3676C14.916 10.2897 15.3037 10.2495 15.6934 10.2495H16.208L16.21 10.0053L16.1846 6.85591C16.1826 6.62537 16.0755 6.4096 15.8965 6.26997L15.8154 6.21529L13.0996 4.61861L10.3701 3.07075Z" fill="#252629"/>
</svg>
