<svg width="18" height="16" viewBox="0 0 18 16" fill="none" xmlns="http://www.w3.org/2000/svg">
    <path d="M14.0606 6.49828C14.3357 6.18869 14.3079 5.71464 13.9983 5.43945C13.6887 5.16426 13.2146 5.19215 12.9394 5.50174L10.5829 8.2778C10.4933 8.37867 10.3397 8.39017 10.236 8.30376L8.68169 7.00847C7.98637 6.42903 6.96394 6.47541 6.32393 7.11542L3.96967 9.46968C3.67678 9.76257 3.67678 10.2374 3.96967 10.5303C4.26256 10.8232 4.73744 10.8232 5.03033 10.5303L7.38459 8.17608C7.47602 8.08465 7.62208 8.07802 7.72141 8.1608L9.27577 9.4561C10.0016 10.0609 11.0764 9.98047 11.7041 9.27434L14.0606 6.49828Z" fill="#19191A"/>
    <path fill-rule="evenodd" clip-rule="evenodd" d="M14.5 0H3.5C1.567 0 0 1.567 0 3.5V12.5C0 14.433 1.567 16 3.5 16H14.5C16.433 16 18 14.433 18 12.5V3.5C18 1.567 16.433 0 14.5 0ZM1.5 3.5C1.5 2.39543 2.39543 1.5 3.5 1.5H14.5C15.6046 1.5 16.5 2.39543 16.5 3.5V12.5C16.5 13.6046 15.6046 14.5 14.5 14.5H3.5C2.39543 14.5 1.5 13.6046 1.5 12.5V3.5Z" fill="#19191A"/>
</svg>
