<svg width="18" height="18" viewBox="0 0 18 18" fill="none" xmlns="http://www.w3.org/2000/svg">
    <path fill-rule="evenodd" clip-rule="evenodd" d="M18 3.5C18 5.433 16.433 7 14.5 7C12.8946 7 11.5417 5.91914 11.1292 4.44542C11.0975 4.33225 10.9968 4.25 10.8792 4.25H9.14327C8.98179 4.25 8.83026 4.32798 8.7364 4.45938L6.75985 7.22655C6.52521 7.55504 6.14638 7.75 5.74269 7.75H1.5C1.08578 7.75 0.749996 7.41421 0.749996 7C0.749996 6.58579 1.08578 6.25 1.5 6.25H5.35672C5.5182 6.25 5.66973 6.17202 5.76359 6.04062L7.74014 3.27345C7.97478 2.94496 8.35362 2.75 8.75731 2.75H10.8792C10.9968 2.75 11.0975 2.66775 11.1292 2.55458C11.5417 1.08086 12.8946 0 14.5 0C16.433 0 18 1.567 18 3.5ZM16.5 3.5C16.5 4.60457 15.6046 5.5 14.5 5.5C13.3954 5.5 12.5 4.60457 12.5 3.5C12.5 2.39543 13.3954 1.5 14.5 1.5C15.6046 1.5 16.5 2.39543 16.5 3.5Z" fill="#19191A"/>
    <path fill-rule="evenodd" clip-rule="evenodd" d="M18 14.5C18 16.433 16.433 18 14.5 18C12.8946 18 11.5417 16.9191 11.1292 15.4454C11.0975 15.3322 10.9968 15.25 10.8792 15.25H9.74812C9.30005 15.25 8.88625 15.0102 8.66351 14.6214L6.87604 11.5014C6.78695 11.3459 6.62143 11.25 6.4422 11.25H0.75C0.335786 11.25 0 10.9142 0 10.5C0 10.0858 0.335786 9.75 0.75 9.75H6.87688C7.32495 9.75 7.73875 9.98983 7.96149 10.3786L9.74896 13.4986C9.83805 13.6541 10.0036 13.75 10.1828 13.75H10.8792C10.9968 13.75 11.0975 13.6678 11.1292 13.5546C11.5417 12.0809 12.8946 11 14.5 11C16.433 11 18 12.567 18 14.5ZM16.5 14.5C16.5 15.6046 15.6046 16.5 14.5 16.5C13.3954 16.5 12.5 15.6046 12.5 14.5C12.5 13.3954 13.3954 12.5 14.5 12.5C15.6046 12.5 16.5 13.3954 16.5 14.5Z" fill="#19191A"/>
</svg>
