<svg width="20" height="20" viewBox="0 0 20 20" fill="none" xmlns="http://www.w3.org/2000/svg">
<path d="M3.71628 17.5713C3.0343 17.1817 3.03399 17.1823 3.03399 17.1823L3.03317 17.1837C3.5 17.448 3.3403 17.3566 3.71628 17.5713C4.09293 17.7865 3.93546 17.6965 4.39826 17.9609L3.71628 17.5713Z" fill="black"/>
<path d="M4.39924 2.77747L4.3978 2.78006L4.38633 2.80124C4.37526 2.822 4.35762 2.85582 4.33491 2.90189C4.28944 2.99412 4.22388 3.1349 4.15 3.3177C4.00187 3.68423 3.82253 4.21415 3.70304 4.85629C3.46434 6.13895 3.46735 7.84514 4.40934 9.61094C5.5619 11.7715 5.5589 13.8607 5.27395 15.3919C5.13163 16.1567 4.91824 16.7883 4.7391 17.2316C4.64934 17.4537 4.56762 17.6299 4.50672 17.7534C4.47626 17.8152 4.45094 17.8639 4.43235 17.8988C4.42305 17.9162 4.41544 17.9301 4.40969 17.9405L4.4025 17.9534L4.4 17.9579L4.39903 17.9596C4.39903 17.9596 4.39826 17.9609 3.71628 17.5713L3.03399 17.1823L3.03476 17.1809L3.04623 17.1597C3.05731 17.1389 3.07494 17.1051 3.09766 17.059C3.14312 16.9668 3.20868 16.826 3.28256 16.6432C3.43069 16.2767 3.61003 15.7468 3.72952 15.1046C3.96822 13.822 3.96522 12.1158 3.02322 10.35C1.87066 8.18948 1.87366 6.10023 2.15861 4.56904C2.30093 3.80425 2.51432 3.17264 2.69347 2.72936C2.78322 2.50726 2.86494 2.33108 2.92584 2.20756C2.9563 2.14576 2.98162 2.09702 3.00021 2.06218C3.00951 2.04475 3.01713 2.03079 3.02287 2.0204L3.03006 2.00749L3.03256 2.00306L3.03353 2.00136C3.03353 2.00136 3.0343 2 3.70961 2.38579L3.0343 2C3.39763 2.20757 3.30372 2.1539 3.68036 2.36907C4.05634 2.58386 4.39924 2.77747 4.39924 2.77747Z" fill="black"/>
<path d="M10.5458 2.77817L10.5464 2.77718C10.5464 2.77718 10.2326 2.60057 9.85661 2.38579C9.47997 2.17062 9.45355 2.15553 9.18131 2L9.18053 2.00136L9.17956 2.00306L9.17706 2.00749L9.16987 2.0204C9.16413 2.03079 9.15651 2.04475 9.14721 2.06218C9.12862 2.09702 9.10331 2.14576 9.07284 2.20756C9.01194 2.33108 8.93022 2.50726 8.84047 2.72936C8.66132 3.17264 8.44793 3.80425 8.30561 4.56904C8.02066 6.10023 8.01766 8.18948 9.17022 10.35C10.1122 12.1158 10.1152 13.822 9.87652 15.1046C9.75703 15.7468 9.57769 16.2767 9.42956 16.6432C9.35568 16.826 9.29012 16.9668 9.24466 17.059C9.22194 17.1051 9.20431 17.1389 9.19323 17.1597L9.18176 17.1809L9.86328 17.5713C9.18131 17.1817 9.18099 17.1823 9.18099 17.1823L9.18017 17.1837C9.71581 17.4869 9.4873 17.3566 9.86328 17.5713C10.2399 17.7865 10.1093 17.7119 10.5453 17.9609L9.86328 17.5713C10.5453 17.9609 10.5453 17.9609 10.5453 17.9609L10.546 17.9596L10.547 17.9579L10.5495 17.9534L10.5567 17.9405C10.5624 17.9301 10.5701 17.9162 10.5794 17.8988C10.5979 17.8639 10.6233 17.8152 10.6537 17.7534C10.7146 17.6299 10.7963 17.4537 10.8861 17.2316C11.0652 16.7883 11.2786 16.1567 11.421 15.3919C11.7059 13.8607 11.7089 11.7715 10.5563 9.61094C9.61435 7.84514 9.61134 6.13895 9.85004 4.85629C9.96954 4.21415 10.1489 3.68423 10.297 3.3177C10.3709 3.1349 10.4364 2.99412 10.4819 2.90189C10.5046 2.85582 10.5223 2.822 10.5333 2.80124L10.5448 2.78006L10.5458 2.77817Z" fill="black"/>
<path d="M16.9661 2.77854L16.9652 2.78006L16.9538 2.80124C16.9538 2.80124 16.9251 2.85582 16.9023 2.90189C16.8569 2.99412 16.7913 3.1349 16.7174 3.3177C16.5693 3.68423 16.39 4.21415 16.2705 4.85629C16.0318 6.13895 16.0348 7.84514 16.9768 9.61094C18.1293 11.7715 18.1263 13.8607 17.8414 15.3919C17.6991 16.1567 17.4857 16.7883 17.3065 17.2316C17.2168 17.4537 17.1351 17.6299 17.0742 17.7534C17.0437 17.8152 17.0184 17.8639 16.9998 17.8988C16.9905 17.9162 16.9829 17.9301 16.9771 17.9405L16.9699 17.9534L16.9674 17.9579L16.9665 17.9596L16.2865 17.5729C16.2865 17.5729 16.7005 17.8094 16.9657 17.9609C17.232 18.1131 16.6604 17.7865 16.2837 17.5713C15.9077 17.3566 16.1099 17.4721 15.6006 17.1837L15.6012 17.1828C15.6012 17.1828 15.6017 17.1817 16.2837 17.5713L15.6017 17.1817L15.6137 17.1597C15.6247 17.1389 15.6424 17.1051 15.6651 17.059C15.7106 16.9668 15.7761 16.826 15.85 16.6432C15.9981 16.2767 16.1775 15.7468 16.297 15.1046C16.5357 13.822 16.5327 12.1158 15.5907 10.35C14.4381 8.18948 14.4411 6.10023 14.726 4.56904C14.8684 3.80425 15.0818 3.17264 15.2609 2.72936C15.3507 2.50726 15.4324 2.33108 15.4933 2.20756C15.5237 2.14576 15.5491 2.09702 15.5676 2.06218C15.5769 2.04475 15.5846 2.03079 15.5903 2.0204L15.5975 2.00749L15.6 2.00306L15.601 2.00136L16.2771 2.38579L16.9668 2.77718L16.9661 2.77854Z" fill="black"/>
</svg>
