<svg width="20" height="20" viewBox="0 0 20 20" fill="none" xmlns="http://www.w3.org/2000/svg">
<path fill-rule="evenodd" clip-rule="evenodd" d="M10 9.25C10.4142 9.25 10.75 9.58579 10.75 10V14C10.75 14.4142 10.4142 14.75 10 14.75C9.58579 14.75 9.25 14.4142 9.25 14V10C9.25 9.58579 9.58579 9.25 10 9.25Z" fill="black"/>
<path d="M11 7C11 7.55228 10.5523 8 10 8C9.44772 8 9 7.55228 9 7C9 6.44772 9.44772 6 10 6C10.5523 6 11 6.44772 11 7Z" fill="black"/>
<path fill-rule="evenodd" clip-rule="evenodd" d="M3.98959 3.98959C5.52697 2.45222 7.653 1.5 10 1.5C12.347 1.5 14.473 2.45222 16.0104 3.98959C17.5478 5.52697 18.5 7.653 18.5 10C18.5 12.347 17.5478 14.473 16.0104 16.0104C14.473 17.5478 12.347 18.5 10 18.5C7.653 18.5 5.52697 17.5478 3.98959 16.0104C2.45222 14.473 1.5 12.347 1.5 10C1.5 7.653 2.45222 5.52697 3.98959 3.98959ZM10 3C8.0668 3 6.31782 3.78268 5.05025 5.05025C3.78268 6.31782 3 8.0668 3 10C3 11.9332 3.78268 13.6822 5.05025 14.9497C6.31782 16.2173 8.0668 17 10 17C11.9332 17 13.6822 16.2173 14.9497 14.9497C16.2173 13.6822 17 11.9332 17 10C17 8.0668 16.2173 6.31782 14.9497 5.05025C13.6822 3.78268 11.9332 3 10 3Z" fill="black"/>
</svg>
