<svg width="20" height="20" viewBox="0 0 20 20" fill="none" xmlns="http://www.w3.org/2000/svg">
<path fill-rule="evenodd" clip-rule="evenodd" d="M4.93338 3.94343C4.97668 3.80328 5 3.65437 5 3.5C5 2.67157 4.32843 2 3.5 2C2.67157 2 2 2.67157 2 3.5C2 4.32843 2.67157 5 3.5 5C3.65437 5 3.80328 4.97668 3.94343 4.93338L5.18935 6.17931L3.34854 8.02012C2.25507 9.11358 2.25508 10.8864 3.34854 11.9799L5.18934 13.8207L3.94343 15.0666C3.80328 15.0233 3.65437 15 3.5 15C2.67157 15 2 15.6716 2 16.5C2 17.3284 2.67157 18 3.5 18C4.32843 18 5 17.3284 5 16.5C5 16.3456 4.97668 16.1967 4.93338 16.0566L6.17929 14.8107L8.02012 16.6515C9.11358 17.745 10.8864 17.745 11.9799 16.6515L13.8207 14.8107L15.0666 16.0566C15.0233 16.1967 15 16.3456 15 16.5C15 17.3284 15.6716 18 16.5 18C17.3284 18 18 17.3284 18 16.5C18 15.6716 17.3284 15 16.5 15C16.3456 15 16.1967 15.0233 16.0566 15.0666L14.8107 13.8207L16.6515 11.9799C17.745 10.8864 17.745 9.11358 16.6515 8.02012L14.8107 6.17929L16.0566 4.93338C16.1967 4.97668 16.3456 5 16.5 5C17.3284 5 18 4.32843 18 3.5C18 2.67157 17.3284 2 16.5 2C15.6716 2 15 2.67157 15 3.5C15 3.65437 15.0233 3.80328 15.0666 3.94343L13.8207 5.18934L11.9799 3.34854C10.8864 2.25507 9.11358 2.25508 8.02012 3.34854L6.1793 5.18935L4.93338 3.94343ZM6.32073 7.31068L7.50503 8.49497C7.77839 8.76834 8.22161 8.76834 8.49497 8.49497C8.76834 8.22161 8.76834 7.77839 8.49497 7.50503L7.31068 6.32073L9.15149 4.47991C9.62012 4.01128 10.3799 4.01128 10.8485 4.47991L12.6893 6.32071L11.505 7.50503C11.2317 7.77839 11.2317 8.22161 11.505 8.49497C11.7784 8.76834 12.2216 8.76834 12.495 8.49497L13.6793 7.31066L15.5201 9.15149C15.9887 9.62012 15.9887 10.3799 15.5201 10.8485L13.6793 12.6894L12.495 11.505C12.2216 11.2317 11.7784 11.2317 11.505 11.505C11.2317 11.7784 11.2317 12.2216 11.505 12.495L12.6894 13.6793L10.8485 15.5201C10.3799 15.9887 9.62012 15.9887 9.15149 15.5201L7.31066 13.6793L8.49497 12.495C8.76834 12.2216 8.76834 11.7784 8.49497 11.505C8.22161 11.2317 7.77839 11.2317 7.50503 11.505L6.32071 12.6893L4.47991 10.8485C4.01128 10.3799 4.01128 9.62012 4.47991 9.15149L6.32073 7.31068Z" fill="#19191A"/>
</svg>
