<svg width="20" height="20" viewBox="0 0 20 20" fill="none" xmlns="http://www.w3.org/2000/svg">
    <path fill-rule="evenodd" clip-rule="evenodd" d="M11.4453 2.229C10.9375 1.92367 10.3119 1.92367 9.80413 2.229L7.89935 3.37436C7.39157 3.67969 7.07876 4.24397 7.07876 4.85464V7.14536C7.07876 7.75603 7.39157 8.32031 7.89935 8.62564L9.80413 9.771C10.3119 10.0763 10.9375 10.0763 11.4453 9.771L13.3501 8.62564C13.8579 8.32031 14.1707 7.75603 14.1707 7.14536V4.85464C14.1707 4.24397 13.8579 3.67969 13.3501 3.37436L11.4453 2.229ZM10.1087 3.62839C10.428 3.43637 10.8215 3.43637 11.1408 3.62839L12.3387 4.34872C12.6581 4.54075 12.8548 4.89562 12.8548 5.27968V6.72033C12.8548 7.10438 12.6581 7.45926 12.3387 7.65128L11.1408 8.37161C10.8215 8.56363 10.428 8.56363 10.1087 8.37161L8.91073 7.65128C8.59139 7.45926 8.39466 7.10438 8.39466 6.72033V5.27968C8.39466 4.89562 8.59139 4.54075 8.91073 4.34872L10.1087 3.62839Z" fill="#19191A"/>
    <path d="M1.75874 2C1.3397 2 1 2.3353 1 2.7489C1 3.16251 1.3397 3.49781 1.75874 3.49781H2.13977L5.03779 13.0681C5.18911 13.5678 5.70415 13.8688 6.22083 13.7595L16.4281 11.5999C16.7727 11.5269 17.0541 11.2825 17.1713 10.9544L18.9552 5.95655C19.1069 5.53159 18.8601 5.06909 18.4192 4.95217C18.0235 4.84719 17.6126 5.0608 17.4764 5.44231L15.828 10.0604C15.7698 10.2234 15.6305 10.3452 15.4595 10.3825L6.80073 12.2701C6.54152 12.3266 6.28208 12.1761 6.2061 11.925L3.41859 2.7138C3.29041 2.29024 2.89569 2 2.44784 2H1.75874Z" fill="#19191A"/>
    <path d="M8.25 16.5C8.25 17.3284 7.57843 18 6.75 18C5.92157 18 5.25 17.3284 5.25 16.5C5.25 15.6716 5.92157 15 6.75 15C7.57843 15 8.25 15.6716 8.25 16.5Z" fill="#19191A"/>
    <path d="M16.25 16.5C16.25 17.3284 15.5784 18 14.75 18C13.9216 18 13.25 17.3284 13.25 16.5C13.25 15.6716 13.9216 15 14.75 15C15.5784 15 16.25 15.6716 16.25 16.5Z" fill="#19191A"/>
</svg>
