<svg width="20" height="20" viewBox="0 0 20 20" fill="none" xmlns="http://www.w3.org/2000/svg">
<path fill-rule="evenodd" clip-rule="evenodd" d="M11.6667 3.229H8.33341C7.14086 3.229 6.34041 3.23022 5.72399 3.28058C5.12582 3.32945 4.83982 3.41671 4.65115 3.51284C4.16114 3.76251 3.76276 4.1609 3.51309 4.6509C3.41695 4.83957 3.3297 5.12558 3.28083 5.72375C3.23046 6.34016 3.22925 7.14061 3.22925 8.33317V11.6665C3.22925 12.8591 3.23046 13.6595 3.28083 14.2759C3.3297 14.8741 3.41695 15.1601 3.51309 15.3488C3.76276 15.8388 4.16114 16.2372 4.65115 16.4868C4.83982 16.583 5.12582 16.6702 5.72399 16.7191C6.34041 16.7695 7.14086 16.7707 8.33341 16.7707H11.6667C12.8593 16.7707 13.6598 16.7695 14.2762 16.7191C14.8743 16.6702 15.1603 16.583 15.349 16.4868C15.839 16.2372 16.2374 15.8388 16.4871 15.3488C16.5832 15.1601 16.6705 14.8741 16.7193 14.2759C16.7697 13.6595 16.7709 12.8591 16.7709 11.6665V8.33317C16.7709 7.14061 16.7697 6.34016 16.7193 5.72375C16.6705 5.12558 16.5832 4.83957 16.4871 4.6509C16.2374 4.1609 15.839 3.76251 15.349 3.51284C15.1603 3.41671 14.8743 3.32945 14.2762 3.28058C13.6598 3.23022 12.8593 3.229 11.6667 3.229ZM2.12089 3.94154C1.66675 4.83284 1.66675 5.99962 1.66675 8.33317V11.6665C1.66675 14.0001 1.66675 15.1668 2.12089 16.0581C2.52036 16.8421 3.15778 17.4796 3.94179 17.879C4.83309 18.3332 5.99986 18.3332 8.33341 18.3332H11.6667C14.0003 18.3332 15.1671 18.3332 16.0584 17.879C16.8424 17.4796 17.4798 16.8421 17.8793 16.0581C18.3334 15.1668 18.3334 14.0001 18.3334 11.6665V8.33317C18.3334 5.99962 18.3334 4.83284 17.8793 3.94154C17.4798 3.15753 16.8424 2.52012 16.0584 2.12064C15.1671 1.6665 14.0003 1.6665 11.6667 1.6665H8.33341C5.99986 1.6665 4.83309 1.6665 3.94179 2.12064C3.15778 2.52012 2.52036 3.15753 2.12089 3.94154ZM10.0001 5.83662C10.4316 5.83662 10.7813 6.18639 10.7813 6.61787V9.21859H13.3814C13.8129 9.21859 14.1627 9.56836 14.1627 9.99984C14.1627 10.4313 13.8129 10.7811 13.3814 10.7811H10.7813V13.3853C10.7813 13.8167 10.4316 14.1665 10.0001 14.1665C9.56861 14.1665 9.21883 13.8167 9.21883 13.3853V10.7811H6.61875C6.18728 10.7811 5.8375 10.4313 5.8375 9.99984C5.8375 9.56836 6.18728 9.21859 6.61875 9.21859H9.21883V6.61787C9.21883 6.18639 9.56861 5.83662 10.0001 5.83662Z" fill="#19191A"/>
</svg>
