<svg width="20" height="20" viewBox="0 0 20 20" fill="none" xmlns="http://www.w3.org/2000/svg">
    <path d="M2.07496 13.4951C2.25458 13.122 2.70277 12.9651 3.07593 13.1445L9.99586 16.4756L16.9255 13.1484C17.2989 12.9693 17.7463 13.1267 17.9255 13.5C18.1048 13.8733 17.9482 14.3216 17.575 14.501L10.5369 17.8799C10.1946 18.0441 9.79595 18.0446 9.45386 17.8799L2.42554 14.4961C2.05259 14.3164 1.89562 13.8682 2.07496 13.4951Z" fill="#252629"/>
    <path d="M2.07496 9.99512C2.2546 9.62196 2.70275 9.465 3.07593 9.64453L9.99586 12.9756L16.9255 9.64844C17.2989 9.46935 17.7463 9.62673 17.9255 10C18.1048 10.3733 17.9482 10.8216 17.575 11.001L10.5369 14.3799C10.1945 14.5441 9.79598 14.5446 9.45386 14.3799L2.42554 10.9961C2.0525 10.8165 1.89557 10.3682 2.07496 9.99512Z" fill="#252629"/>
    <path d="M12.0476 5.53418C12.1987 5.48149 12.3657 5.49028 12.5115 5.56055L13.1531 5.87012C13.363 5.97138 13.4968 6.18392 13.4968 6.417C13.4967 6.64997 13.3629 6.86267 13.1531 6.96387L12.5105 7.27344C12.3442 7.35346 12.1505 7.3533 11.9841 7.27344L11.3416 6.96485C11.1315 6.86369 10.9979 6.65015 10.9978 6.417C10.9979 6.18405 11.1317 5.97139 11.3416 5.87012L11.9841 5.56055L12.0476 5.53418Z" fill="#252629"/>
    <path fill-rule="evenodd" clip-rule="evenodd" d="M9.59156 2.07129C9.8582 1.97813 10.1491 1.97824 10.4158 2.07129L10.5466 2.125L17.2927 5.37793C18.2359 5.83269 18.2352 7.17577 17.2918 7.62989L10.5378 10.8809C10.1954 11.0456 9.79631 11.0456 9.45386 10.8809L2.7107 7.63477C1.76796 7.18052 1.76727 5.8378 2.70972 5.38282L9.4607 2.12598L9.59156 2.07129ZM3.82789 6.50782L9.99586 9.47657L16.1736 6.50293L10.0037 3.52832L3.82789 6.50782Z" fill="#252629"/>
</svg>
