<svg width="20" height="20" viewBox="0 0 20 20" fill="none" xmlns="http://www.w3.org/2000/svg">
    <path d="M5.75 7C5.33579 7 5 7.33579 5 7.75C5 8.16421 5.33579 8.5 5.75 8.5H14.25C14.6642 8.5 15 8.16421 15 7.75C15 7.33579 14.6642 7 14.25 7H5.75Z" fill="#19191A"/>
    <path d="M14.25 11.5C14.6642 11.5 15 11.8358 15 12.25C15 12.6642 14.6642 13 14.25 13H5.75C5.33579 13 5 12.6642 5 12.25C5 11.8358 5.33579 11.5 5.75 11.5H14.25Z" fill="#19191A"/>
    <path fill-rule="evenodd" clip-rule="evenodd" d="M4.5 2H15.5C17.433 2 19 3.567 19 5.5V14.5C19 16.433 17.433 18 15.5 18H4.5C2.567 18 1 16.433 1 14.5V5.5C1 3.567 2.567 2 4.5 2ZM4.5 3.5C3.39543 3.5 2.5 4.39543 2.5 5.5V14.5C2.5 15.6046 3.39543 16.5 4.5 16.5H15.5C16.6046 16.5 17.5 15.6046 17.5 14.5V5.5C17.5 4.39543 16.6046 3.5 15.5 3.5H4.5Z" fill="#19191A"/>
</svg>
