<svg width="32" height="32" viewBox="0 0 32 32" fill="none" xmlns="http://www.w3.org/2000/svg">
<path d="M4 13.8379H6.70285V25.2131H10.0814V9.59998H7.26594C7.08575 9.94171 6.85326 10.254 6.5677 10.5368C6.31269 10.7893 5.97886 11.0307 5.56539 11.2617C5.15273 11.4919 4.63066 11.6441 4 11.719V13.8379Z" fill="black"/>
<path d="M17.8957 24.9802C18.869 25.3936 19.922 25.6 21.0546 25.6C22.5251 25.6 23.8766 25.2559 25.1089 24.5676C26.3405 23.8785 27.3042 22.9146 28 21.6744L25.5851 20.0812C24.4525 21.7532 22.982 22.5897 21.1737 22.5897C20.4787 22.5897 19.8328 22.467 19.2367 22.2208C18.6406 21.9747 18.1242 21.6353 17.6866 21.2028C17.2498 20.7694 16.9071 20.2533 16.6585 19.6526C16.4099 19.0528 16.2861 18.398 16.2861 17.6899C16.2861 16.9817 16.4051 16.3324 16.6432 15.7422C16.8821 15.1519 17.2095 14.6349 17.627 14.192C18.0445 13.7499 18.5465 13.405 19.1321 13.1589C19.7185 12.9135 20.3596 12.79 21.0546 12.79C21.929 12.79 22.7391 12.982 23.484 13.3659C24.2289 13.7499 24.8797 14.3155 25.4363 15.0627L27.7908 13.3508C27.0556 12.2292 26.0919 11.3537 24.8998 10.7244C23.7076 10.0943 22.4061 9.77965 20.9951 9.77965C19.8625 9.77965 18.8095 9.98599 17.8362 10.3994C16.862 10.8128 16.0174 11.3737 15.3023 12.0818C14.5871 12.79 14.0256 13.6264 13.6186 14.5911C13.2108 15.555 13.0072 16.5882 13.0072 17.6899C13.0072 18.7923 13.2156 19.8247 13.6331 20.7894C14.0506 21.7533 14.6217 22.5896 15.3473 23.2978C16.0721 24.006 16.9215 24.5676 17.8957 24.9802Z" fill="black"/>
</svg>
